<svg width="190" height="139" viewBox="0 0 190 139" fill="none" xmlns="http://www.w3.org/2000/svg">
<path d="M30.9296 114.123C31.1741 112.738 31.5896 111.654 32.1763 110.872C32.7711 110.09 33.6389 109.698 34.7796 109.698C35.6596 109.698 36.287 109.939 36.6618 110.42C37.0448 110.892 37.2363 111.556 37.2363 112.412C37.2363 112.917 37.1793 113.487 37.0652 114.123C36.8207 115.516 36.4011 116.604 35.8063 117.386C35.2196 118.168 34.3559 118.56 33.2152 118.56C32.3352 118.56 31.7037 118.323 31.3207 117.851C30.9459 117.37 30.7585 116.698 30.7585 115.834C30.7585 115.329 30.8155 114.758 30.9296 114.123ZM35.9774 114.123C36.0915 113.455 36.1485 112.921 36.1485 112.522C36.1485 111.943 36.0304 111.499 35.7941 111.19C35.5659 110.872 35.1707 110.713 34.6085 110.713C34.0544 110.713 33.6063 110.864 33.2641 111.165C32.9218 111.458 32.657 111.85 32.4696 112.338C32.2904 112.827 32.1396 113.422 32.0174 114.123C31.9033 114.791 31.8463 115.329 31.8463 115.736C31.8463 116.315 31.9604 116.763 32.1885 117.081C32.4248 117.39 32.8241 117.545 33.3863 117.545C33.9404 117.545 34.3885 117.398 34.7307 117.105C35.073 116.804 35.3337 116.408 35.513 115.92C35.6922 115.431 35.847 114.832 35.9774 114.123ZM38.7632 111.715C38.861 111.169 39.1054 110.733 39.4965 110.407C39.8877 110.081 40.3439 109.918 40.8654 109.918C41.3217 109.918 41.6843 110.045 41.9532 110.297C42.2302 110.55 42.3688 110.896 42.3688 111.336C42.3688 111.45 42.3565 111.577 42.3321 111.715C42.2343 112.261 41.9858 112.701 41.5865 113.035C41.1954 113.361 40.7432 113.524 40.2299 113.524C39.7736 113.524 39.4069 113.398 39.1299 113.145C38.861 112.893 38.7265 112.546 38.7265 112.106C38.7265 111.976 38.7388 111.845 38.7632 111.715ZM45.7054 110.028L39.2521 118.56H38.1399L44.6054 110.028H45.7054ZM40.7432 110.603C40.458 110.603 40.2177 110.701 40.0221 110.896C39.8265 111.084 39.7002 111.357 39.6432 111.715C39.6188 111.837 39.6065 111.947 39.6065 112.045C39.6065 112.298 39.6717 112.493 39.8021 112.632C39.9325 112.762 40.1158 112.827 40.3521 112.827C40.6291 112.827 40.8654 112.734 41.061 112.546C41.2565 112.351 41.3869 112.074 41.4521 111.715C41.4684 111.642 41.4765 111.54 41.4765 111.41C41.4765 111.149 41.4114 110.949 41.281 110.811C41.1506 110.672 40.9714 110.603 40.7432 110.603ZM41.5499 116.873C41.6477 116.319 41.8921 115.879 42.2832 115.553C42.6743 115.227 43.1306 115.064 43.6521 115.064C44.1002 115.064 44.4588 115.19 44.7276 115.443C45.0047 115.695 45.1432 116.042 45.1432 116.482C45.1432 116.604 45.131 116.734 45.1065 116.873C45.0088 117.419 44.7643 117.859 44.3732 118.193C43.9821 118.519 43.5299 118.682 43.0165 118.682C42.5602 118.682 42.1936 118.555 41.9165 118.303C41.6476 118.05 41.5132 117.704 41.5132 117.264C41.5132 117.134 41.5254 117.003 41.5499 116.873ZM43.5176 115.761C43.2406 115.761 43.0043 115.854 42.8088 116.042C42.6132 116.229 42.4828 116.506 42.4176 116.873C42.3932 116.995 42.381 117.101 42.381 117.191C42.381 117.443 42.4462 117.639 42.5765 117.777C42.7151 117.908 42.8984 117.973 43.1265 117.973C43.4036 117.973 43.6399 117.879 43.8354 117.692C44.031 117.504 44.1614 117.231 44.2265 116.873C44.2428 116.8 44.251 116.694 44.251 116.555C44.251 116.294 44.1858 116.099 44.0554 115.968C43.9251 115.83 43.7458 115.761 43.5176 115.761Z" fill="black"/>
<path d="M66.7418 93.1301L66.9252 92.1157H69.2229L67.6952 100.781H66.5707L67.9152 93.1301H66.7418ZM70.4001 96.3446C70.6445 94.9594 71.0601 93.8757 71.6468 93.0935C72.2416 92.3113 73.1094 91.9201 74.2501 91.9201C75.1301 91.9201 75.7575 92.1605 76.1323 92.6413C76.5153 93.1138 76.7068 93.7779 76.7068 94.6335C76.7068 95.1387 76.6497 95.709 76.5356 96.3446C76.2912 97.7379 75.8716 98.8257 75.2768 99.6079C74.6901 100.39 73.8264 100.781 72.6856 100.781C71.8056 100.781 71.1742 100.545 70.7912 100.072C70.4164 99.5916 70.229 98.9194 70.229 98.0557C70.229 97.5505 70.286 96.9801 70.4001 96.3446ZM75.4479 96.3446C75.5619 95.6764 75.619 95.1427 75.619 94.7435C75.619 94.165 75.5008 93.7209 75.2645 93.4112C75.0364 93.0935 74.6412 92.9346 74.079 92.9346C73.5249 92.9346 73.0768 93.0853 72.7345 93.3868C72.3923 93.6801 72.1275 94.0713 71.9401 94.5601C71.7608 95.049 71.6101 95.6438 71.4879 96.3446C71.3738 97.0127 71.3168 97.5505 71.3168 97.9579C71.3168 98.5364 71.4308 98.9846 71.659 99.3024C71.8953 99.612 72.2945 99.7668 72.8568 99.7668C73.4108 99.7668 73.859 99.6201 74.2012 99.3268C74.5434 99.0253 74.8042 98.6301 74.9834 98.1413C75.1627 97.6524 75.3175 97.0535 75.4479 96.3446ZM78.2337 93.9368C78.3315 93.3909 78.5759 92.955 78.967 92.629C79.3581 92.3031 79.8144 92.1401 80.3359 92.1401C80.7922 92.1401 81.1548 92.2664 81.4237 92.519C81.7007 92.7716 81.8392 93.1179 81.8392 93.5579C81.8392 93.672 81.827 93.7983 81.8026 93.9368C81.7048 94.4827 81.4563 94.9227 81.057 95.2568C80.6659 95.5827 80.2137 95.7457 79.7003 95.7457C79.244 95.7457 78.8774 95.6194 78.6003 95.3668C78.3315 95.1142 78.197 94.7679 78.197 94.3279C78.197 94.1975 78.2092 94.0672 78.2337 93.9368ZM85.1759 92.2501L78.7226 100.781H77.6103L84.0759 92.2501H85.1759ZM80.2137 92.8246C79.9285 92.8246 79.6881 92.9224 79.4926 93.1179C79.297 93.3053 79.1707 93.5783 79.1137 93.9368C79.0892 94.059 79.077 94.169 79.077 94.2668C79.077 94.5194 79.1422 94.715 79.2726 94.8535C79.4029 94.9838 79.5863 95.049 79.8226 95.049C80.0996 95.049 80.3359 94.9553 80.5315 94.7679C80.727 94.5724 80.8574 94.2953 80.9226 93.9368C80.9389 93.8635 80.947 93.7616 80.947 93.6313C80.947 93.3705 80.8818 93.1709 80.7515 93.0324C80.6211 92.8938 80.4418 92.8246 80.2137 92.8246ZM81.0203 99.0946C81.1181 98.5405 81.3626 98.1005 81.7537 97.7746C82.1448 97.4487 82.6011 97.2857 83.1226 97.2857C83.5707 97.2857 83.9292 97.412 84.1981 97.6646C84.4752 97.9172 84.6137 98.2635 84.6137 98.7035C84.6137 98.8257 84.6015 98.9561 84.577 99.0946C84.4792 99.6405 84.2348 100.081 83.8437 100.415C83.4526 100.741 83.0003 100.903 82.487 100.903C82.0307 100.903 81.664 100.777 81.387 100.525C81.1181 100.272 80.9837 99.9257 80.9837 99.4857C80.9837 99.3553 80.9959 99.225 81.0203 99.0946ZM82.9881 97.9824C82.7111 97.9824 82.4748 98.0761 82.2792 98.2635C82.0837 98.4509 81.9533 98.7279 81.8881 99.0946C81.8637 99.2168 81.8515 99.3227 81.8515 99.4124C81.8515 99.665 81.9166 99.8605 82.047 99.999C82.1855 100.129 82.3689 100.195 82.597 100.195C82.874 100.195 83.1103 100.101 83.3059 99.9135C83.5015 99.7261 83.6318 99.4531 83.697 99.0946C83.7133 99.0213 83.7215 98.9153 83.7215 98.7768C83.7215 98.5161 83.6563 98.3205 83.5259 98.1901C83.3955 98.0516 83.2163 97.9824 82.9881 97.9824Z" fill="black"/>
<path d="M102.382 69.8861C103.563 69.0468 104.496 68.3665 105.181 67.845C105.865 67.3154 106.456 66.7654 106.953 66.195C107.458 65.6165 107.76 65.0542 107.857 64.5083C107.882 64.3617 107.894 64.215 107.894 64.0683C107.894 63.6854 107.784 63.3839 107.564 63.1639C107.344 62.9439 106.994 62.8339 106.513 62.8339C105.967 62.8339 105.511 63.0091 105.144 63.3594C104.777 63.7017 104.529 64.162 104.398 64.7405H103.323C103.518 63.828 103.922 63.1231 104.533 62.6261C105.144 62.1291 105.861 61.8805 106.684 61.8805C107.417 61.8805 107.988 62.0598 108.395 62.4183C108.811 62.7768 109.018 63.2739 109.018 63.9094C109.018 64.105 109.002 64.2883 108.97 64.4594C108.855 65.1113 108.538 65.755 108.016 66.3905C107.503 67.0261 106.945 67.5842 106.342 68.065C105.739 68.5457 104.985 69.108 104.081 69.7517H108.285L108.126 70.6805H102.235L102.382 69.8861ZM110.182 66.3417C110.426 64.9565 110.842 63.8728 111.429 63.0905C112.023 62.3083 112.891 61.9172 114.032 61.9172C114.912 61.9172 115.539 62.1576 115.914 62.6383C116.297 63.1109 116.489 63.775 116.489 64.6305C116.489 65.1357 116.432 65.7061 116.318 66.3417C116.073 67.735 115.653 68.8228 115.059 69.605C114.472 70.3872 113.608 70.7783 112.468 70.7783C111.588 70.7783 110.956 70.542 110.573 70.0694C110.198 69.5887 110.011 68.9165 110.011 68.0528C110.011 67.5476 110.068 66.9772 110.182 66.3417ZM115.23 66.3417C115.344 65.6735 115.401 65.1398 115.401 64.7405C115.401 64.162 115.283 63.718 115.046 63.4083C114.818 63.0905 114.423 62.9317 113.861 62.9317C113.307 62.9317 112.859 63.0824 112.516 63.3839C112.174 63.6772 111.909 64.0683 111.722 64.5572C111.543 65.0461 111.392 65.6409 111.27 66.3417C111.156 67.0098 111.099 67.5476 111.099 67.955C111.099 68.5335 111.213 68.9817 111.441 69.2994C111.677 69.6091 112.076 69.7639 112.639 69.7639C113.193 69.7639 113.641 69.6172 113.983 69.3239C114.325 69.0224 114.586 68.6272 114.765 68.1383C114.945 67.6494 115.099 67.0505 115.23 66.3417ZM118.016 63.9339C118.113 63.388 118.358 62.952 118.749 62.6261C119.14 62.3002 119.596 62.1372 120.118 62.1372C120.574 62.1372 120.937 62.2635 121.206 62.5161C121.483 62.7687 121.621 63.115 121.621 63.555C121.621 63.6691 121.609 63.7954 121.584 63.9339C121.487 64.4798 121.238 64.9198 120.839 65.2539C120.448 65.5798 119.996 65.7428 119.482 65.7428C119.026 65.7428 118.659 65.6165 118.382 65.3639C118.113 65.1113 117.979 64.765 117.979 64.325C117.979 64.1946 117.991 64.0642 118.016 63.9339ZM124.958 62.2472L118.504 70.7783H117.392L123.858 62.2472H124.958ZM119.996 62.8217C119.71 62.8217 119.47 62.9194 119.274 63.115C119.079 63.3024 118.953 63.5754 118.896 63.9339C118.871 64.0561 118.859 64.1661 118.859 64.2639C118.859 64.5165 118.924 64.712 119.054 64.8505C119.185 64.9809 119.368 65.0461 119.604 65.0461C119.881 65.0461 120.118 64.9524 120.313 64.765C120.509 64.5694 120.639 64.2924 120.704 63.9339C120.721 63.8605 120.729 63.7587 120.729 63.6283C120.729 63.3676 120.664 63.168 120.533 63.0294C120.403 62.8909 120.224 62.8217 119.996 62.8217ZM120.802 69.0917C120.9 68.5376 121.144 68.0976 121.536 67.7717C121.927 67.4457 122.383 67.2828 122.904 67.2828C123.353 67.2828 123.711 67.4091 123.98 67.6617C124.257 67.9142 124.396 68.2605 124.396 68.7005C124.396 68.8228 124.383 68.9531 124.359 69.0917C124.261 69.6376 124.017 70.0776 123.626 70.4117C123.234 70.7376 122.782 70.9005 122.269 70.9005C121.813 70.9005 121.446 70.7742 121.169 70.5217C120.9 70.2691 120.766 69.9228 120.766 69.4828C120.766 69.3524 120.778 69.222 120.802 69.0917ZM122.77 67.9794C122.493 67.9794 122.257 68.0731 122.061 68.2605C121.866 68.4479 121.735 68.725 121.67 69.0917C121.646 69.2139 121.633 69.3198 121.633 69.4094C121.633 69.662 121.699 69.8576 121.829 69.9961C121.967 70.1265 122.151 70.1917 122.379 70.1917C122.656 70.1917 122.892 70.0979 123.088 69.9105C123.283 69.7231 123.414 69.4502 123.479 69.0917C123.495 69.0183 123.503 68.9124 123.503 68.7739C123.503 68.5131 123.438 68.3176 123.308 68.1872C123.177 68.0487 122.998 67.9794 122.77 67.9794Z" fill="black"/>
<path d="M140.161 20.836C140.348 20.0864 140.743 19.4997 141.346 19.076C141.949 18.6523 142.666 18.4405 143.497 18.4405C144.239 18.4405 144.805 18.6116 145.196 18.9538C145.587 19.2879 145.783 19.7319 145.783 20.286C145.783 20.4245 145.771 20.5671 145.746 20.7138C145.657 21.219 145.437 21.6549 145.086 22.0216C144.736 22.3882 144.316 22.6245 143.827 22.7305V22.7916C144.259 22.8975 144.593 23.1012 144.83 23.4027C145.074 23.696 145.196 24.079 145.196 24.5516C145.196 24.6494 145.18 24.8205 145.147 25.0649C145.017 25.7819 144.667 26.3686 144.096 26.8249C143.534 27.2812 142.809 27.5094 141.921 27.5094C141.122 27.5094 140.487 27.3138 140.014 26.9227C139.541 26.5316 139.305 25.9734 139.305 25.2482C139.305 25.1016 139.309 24.9875 139.317 24.906H140.393C140.36 25.3949 140.487 25.7942 140.772 26.1038C141.065 26.4134 141.497 26.5682 142.067 26.5682C142.63 26.5682 143.09 26.4216 143.448 26.1282C143.807 25.8268 144.027 25.4397 144.108 24.9671C144.133 24.8286 144.145 24.7064 144.145 24.6005C144.145 24.1279 143.962 23.7856 143.595 23.5738C143.228 23.3538 142.678 23.2438 141.945 23.2438H141.652L141.823 22.3149H142.128C142.878 22.3068 143.465 22.1845 143.888 21.9482C144.312 21.7038 144.569 21.329 144.658 20.8238C144.675 20.6934 144.683 20.5956 144.683 20.5305C144.683 20.1801 144.565 19.9031 144.328 19.6994C144.092 19.4956 143.746 19.3938 143.29 19.3938C142.784 19.3938 142.352 19.5242 141.994 19.7849C141.635 20.0456 141.387 20.396 141.248 20.836H140.161ZM147.016 23.0116C147.26 21.6264 147.676 20.5427 148.262 19.7605C148.857 18.9782 149.725 18.5871 150.866 18.5871C151.746 18.5871 152.373 18.8275 152.748 19.3082C153.131 19.7808 153.322 20.4449 153.322 21.3005C153.322 21.8056 153.265 22.376 153.151 23.0116C152.907 24.4049 152.487 25.4927 151.892 26.2749C151.306 27.0571 150.442 27.4482 149.301 27.4482C148.421 27.4482 147.79 27.2119 147.407 26.7394C147.032 26.2586 146.845 25.5864 146.845 24.7227C146.845 24.2175 146.902 23.6471 147.016 23.0116ZM152.063 23.0116C152.178 22.3434 152.235 21.8097 152.235 21.4105C152.235 20.8319 152.116 20.3879 151.88 20.0782C151.652 19.7605 151.257 19.6016 150.695 19.6016C150.14 19.6016 149.692 19.7523 149.35 20.0538C149.008 20.3471 148.743 20.7382 148.556 21.2271C148.376 21.716 148.226 22.3108 148.103 23.0116C147.989 23.6797 147.932 24.2175 147.932 24.6249C147.932 25.2034 148.046 25.6516 148.275 25.9694C148.511 26.279 148.91 26.4338 149.472 26.4338C150.026 26.4338 150.475 26.2871 150.817 25.9938C151.159 25.6923 151.42 25.2971 151.599 24.8082C151.778 24.3194 151.933 23.7205 152.063 23.0116ZM154.849 20.6038C154.947 20.0579 155.191 19.6219 155.583 19.296C155.974 18.9701 156.43 18.8071 156.951 18.8071C157.408 18.8071 157.77 18.9334 158.039 19.186C158.316 19.4386 158.455 19.7849 158.455 20.2249C158.455 20.339 158.443 20.4653 158.418 20.6038C158.32 21.1497 158.072 21.5897 157.673 21.9238C157.281 22.2497 156.829 22.4127 156.316 22.4127C155.86 22.4127 155.493 22.2864 155.216 22.0338C154.947 21.7812 154.813 21.4349 154.813 20.9949C154.813 20.8645 154.825 20.7342 154.849 20.6038ZM161.791 18.9171L155.338 27.4482H154.226L160.691 18.9171H161.791ZM156.829 19.4916C156.544 19.4916 156.304 19.5894 156.108 19.7849C155.913 19.9723 155.786 20.2453 155.729 20.6038C155.705 20.726 155.693 20.836 155.693 20.9338C155.693 21.1864 155.758 21.3819 155.888 21.5205C156.019 21.6508 156.202 21.716 156.438 21.716C156.715 21.716 156.951 21.6223 157.147 21.4349C157.343 21.2394 157.473 20.9623 157.538 20.6038C157.554 20.5305 157.563 20.4286 157.563 20.2982C157.563 20.0375 157.497 19.8379 157.367 19.6994C157.237 19.5608 157.057 19.4916 156.829 19.4916ZM157.636 25.7616C157.734 25.2075 157.978 24.7675 158.369 24.4416C158.76 24.1156 159.217 23.9527 159.738 23.9527C160.186 23.9527 160.545 24.079 160.814 24.3316C161.091 24.5842 161.229 24.9305 161.229 25.3705C161.229 25.4927 161.217 25.6231 161.193 25.7616C161.095 26.3075 160.85 26.7475 160.459 27.0816C160.068 27.4075 159.616 27.5705 159.103 27.5705C158.646 27.5705 158.28 27.4442 158.003 27.1916C157.734 26.939 157.599 26.5927 157.599 26.1527C157.599 26.0223 157.611 25.8919 157.636 25.7616ZM159.604 24.6494C159.327 24.6494 159.09 24.7431 158.895 24.9305C158.699 25.1179 158.569 25.3949 158.504 25.7616C158.479 25.8838 158.467 25.9897 158.467 26.0794C158.467 26.3319 158.532 26.5275 158.663 26.666C158.801 26.7964 158.984 26.8616 159.213 26.8616C159.49 26.8616 159.726 26.7679 159.921 26.5805C160.117 26.3931 160.247 26.1201 160.313 25.7616C160.329 25.6882 160.337 25.5823 160.337 25.4438C160.337 25.1831 160.272 24.9875 160.141 24.8571C160.011 24.7186 159.832 24.6494 159.604 24.6494Z" fill="black"/>
<rect opacity="0.5" x="24.4452" y="125.225" width="22.2222" height="13.6668" rx="4.44444" fill="#0B7847"/>
<rect opacity="0.5" x="61.4221" y="108.826" width="22.2222" height="30.0669" rx="4.44444" fill="#0B7847"/>
<rect opacity="0.5" x="100.624" y="80.125" width="22.2222" height="58.7671" rx="4.44444" fill="#0B7847"/>
<rect opacity="0.5" x="141.112" y="36.667" width="22.2222" height="102.222" rx="4.44444" fill="#0B7847"/>
<path d="M152.685 1.49313e-05L146.299 0.611163L150.021 5.83588L152.685 1.49313e-05ZM16.9897 97.3538L148.935 3.35364L148.29 2.44869L16.345 96.4489L16.9897 97.3538Z" fill="black"/>
<line x1="4.85682e-08" y1="138.334" x2="190" y2="138.334" stroke="#D2D2D2" stroke-width="1.11111"/>
</svg>
