<svg width="150" height="145" viewBox="0 0 150 145" fill="none" xmlns="http://www.w3.org/2000/svg">
<path d="M126.717 107.285L79.9788 134.269C77.2319 135.854 72.4319 135.656 69.2591 133.824L24.0542 107.724C20.8815 105.892 20.5373 103.121 23.2841 101.535L70.0225 74.5512C72.7694 72.9654 77.5694 73.1637 80.7422 74.9958L125.947 101.096C129.12 102.928 129.464 105.699 126.717 107.285Z" fill="#EFE9FE" stroke="#231F20" stroke-width="0.226056" stroke-miterlimit="10"/>
<path d="M121.878 100.552H121.879V94.856H114.997L80.4778 74.926C77.4497 73.1783 72.8693 72.9881 70.2457 74.5015L34.9916 94.856H28.1144V100.217C28.1077 100.322 28.1077 100.426 28.1144 100.532V100.551H28.1157C28.1974 101.658 29.0398 102.807 30.6122 103.715L69.5157 126.176C72.5439 127.924 77.1242 128.114 79.7479 126.601L120.115 103.295C121.377 102.566 121.953 101.578 121.878 100.552Z" fill="#FFEADD" stroke="#231F20" stroke-width="0.226056" stroke-miterlimit="10"/>
<path d="M120.118 97.6005L79.7502 120.907C77.1279 122.421 72.5462 122.231 69.5181 120.482L30.6145 98.021C27.5864 96.2732 27.2569 93.6281 29.8806 92.1134L70.248 68.8072C72.8703 67.2924 77.452 67.4826 80.4801 69.2317L119.384 91.6929C122.412 93.4406 122.741 96.0857 120.118 97.6005Z" fill="white"/>
<path d="M120.118 97.6005L79.7502 120.907C77.1279 122.421 72.5462 122.231 69.5181 120.482L30.6145 98.021C27.5864 96.2732 27.2569 93.6281 29.8806 92.1134L70.248 68.8072C72.8703 67.2924 77.452 67.4826 80.4801 69.2317L119.384 91.6929C122.412 93.4406 122.741 96.0857 120.118 97.6005Z" stroke="#231F20" stroke-width="0.226056" stroke-miterlimit="10"/>
<path d="M120.118 97.6005L79.7502 120.907C77.1279 122.421 72.5462 122.231 69.5181 120.482L30.6145 98.021C27.5864 96.2732 27.2569 93.6281 29.8806 92.1134L70.248 68.8072C72.8703 67.2924 77.452 67.4826 80.4801 69.2317L119.384 91.6929C122.412 93.4406 122.741 96.0857 120.118 97.6005Z" fill="white"/>
<path d="M120.118 97.6005L79.7502 120.907C77.1279 122.421 72.5462 122.231 69.5181 120.482L30.6145 98.021C27.5864 96.2732 27.2569 93.6281 29.8806 92.1134L70.248 68.8072C72.8703 67.2924 77.452 67.4826 80.4801 69.2317L119.384 91.6929C122.412 93.4406 122.741 96.0857 120.118 97.6005Z" stroke="#231F20" stroke-width="0.226056" stroke-miterlimit="10"/>
<path d="M52.7089 8.36992C52.5978 7.39492 52.4866 6.4159 52.3754 5.43555C50.7281 6.08644 48.9763 6.24046 47.3438 5.8976C47.4549 6.94492 47.5661 7.9909 47.6772 9.03287C49.3246 9.30876 51.0763 9.08644 52.7089 8.36858V8.36992Z" fill="#FFEDB3"/>
<path d="M52.7089 8.36992C52.5978 7.39492 52.4866 6.4159 52.3754 5.43555C50.7281 6.08644 48.9763 6.24046 47.3438 5.8976C47.4549 6.94492 47.5661 7.9909 47.6772 9.03287C49.3246 9.30876 51.0763 9.08644 52.7089 8.36858V8.36992Z" stroke="#231F20" stroke-width="0.226056" stroke-linecap="round" stroke-linejoin="round"/>
<path d="M49.7759 78.9598C48.7045 79.5036 47.6263 79.8598 46.5938 80.0286C47.408 82.0469 48.2491 83.9487 49.0942 85.7326C50.1656 85.2679 51.2438 84.6156 52.2763 83.7759C51.4621 82.2866 50.621 80.6808 49.7759 78.9585V78.9598Z" fill="#FFEDB3"/>
<path d="M49.7759 78.9598C48.7045 79.5036 47.6263 79.8598 46.5938 80.0286C47.408 82.0469 48.2491 83.9487 49.0942 85.7326C50.1656 85.2679 51.2438 84.6156 52.2763 83.7759C51.4621 82.2866 50.621 80.6808 49.7759 78.9585V78.9598Z" stroke="#231F20" stroke-width="0.226056" stroke-linecap="round" stroke-linejoin="round"/>
<path d="M105.208 66.8609C106.15 66.6131 106.98 66.2127 107.669 65.7158C108.502 66.8435 109.735 67.8319 111.297 68.4721C110.533 69.273 109.603 69.9895 108.522 70.5627C107.016 69.5355 105.898 68.2323 105.207 66.8609H105.208Z" fill="#A9EAE4"/>
<path d="M105.208 66.8609C106.15 66.6131 106.98 66.2127 107.669 65.7158C108.502 66.8435 109.735 67.8319 111.297 68.4721C110.533 69.273 109.603 69.9895 108.522 70.5627C107.016 69.5355 105.898 68.2323 105.207 66.8609H105.208Z" stroke="#231F20" stroke-width="0.226056" stroke-linecap="round" stroke-linejoin="round"/>
<path d="M117.077 60.2181C117.855 60.3011 118.667 60.1739 119.429 59.8391C119.287 58.5909 119.144 57.3359 119 56.073C118.222 56.3301 117.41 56.3797 116.648 56.2203C116.79 57.5609 116.934 58.8935 117.077 60.2194V60.2181Z" fill="#FFEDB3"/>
<path d="M117.077 60.2181C117.855 60.3011 118.667 60.1739 119.429 59.8391C119.287 58.5909 119.144 57.3359 119 56.073C118.222 56.3301 117.41 56.3797 116.648 56.2203C116.79 57.5609 116.934 58.8935 117.077 60.2194V60.2181Z" stroke="#231F20" stroke-width="0.226056" stroke-linecap="round" stroke-linejoin="round"/>
<path d="M29.4549 41.6367C28.8937 42.1939 28.2107 42.6854 27.4219 43.0765C28.4116 44.2523 29.8045 45.2635 31.5214 45.893C32.2379 45.1965 32.8232 44.4318 33.2705 43.6403C31.6955 43.2974 30.3911 42.5568 29.4563 41.6367H29.4549Z" fill="#FFEDB3"/>
<path d="M29.4549 41.6367C28.8937 42.1939 28.2107 42.6854 27.4219 43.0765C28.4116 44.2523 29.8045 45.2635 31.5214 45.893C32.2379 45.1965 32.8232 44.4318 33.2705 43.6403C31.6955 43.2974 30.3911 42.5568 29.4563 41.6367H29.4549Z" stroke="#231F20" stroke-width="0.226056" stroke-linecap="round" stroke-linejoin="round"/>
<path d="M27.3281 63.5177C27.6335 62.7302 27.9254 61.9401 28.2067 61.1445C29.5554 61.6186 31.0353 61.6709 32.4455 61.2718C32.6732 62.0834 32.8875 62.9003 33.0911 63.7186C31.1799 64.2503 29.167 64.174 27.3281 63.5177Z" fill="#A9EAE4"/>
<path d="M27.3281 63.5177C27.6335 62.7302 27.9254 61.9401 28.2067 61.1445C29.5554 61.6186 31.0353 61.6709 32.4455 61.2718C32.6732 62.0834 32.8875 62.9003 33.0911 63.7186C31.1799 64.2503 29.167 64.174 27.3281 63.5177Z" stroke="#231F20" stroke-width="0.226056" stroke-linecap="round" stroke-linejoin="round"/>
<path d="M115.654 26.4521C115.166 27.1097 114.554 27.7244 113.823 28.2575C112.478 27.5825 111.428 26.6329 110.727 25.5856C111.439 25.3177 112.059 24.9467 112.571 24.5115C113.302 25.3499 114.353 26.0557 115.654 26.4521Z" fill="#A9EAE4"/>
<path d="M115.654 26.4521C115.166 27.1097 114.554 27.7244 113.823 28.2575C112.478 27.5825 111.428 26.6329 110.727 25.5856C111.439 25.3177 112.059 24.9467 112.571 24.5115C113.302 25.3499 114.353 26.0557 115.654 26.4521Z" stroke="#231F20" stroke-width="0.226056" stroke-linecap="round" stroke-linejoin="round"/>
<path d="M23.6185 29.8606C24.3016 30.4767 25.1199 31.0044 26.0533 31.3968C27.1261 30.5008 27.8922 29.4254 28.3328 28.3191C27.5721 28.1718 26.8944 27.8919 26.3279 27.5276C25.7172 28.4544 24.7971 29.2821 23.6172 29.8606H23.6185Z" fill="#FFEDB3"/>
<path d="M23.6185 29.8606C24.3016 30.4767 25.1199 31.0044 26.0533 31.3968C27.1261 30.5008 27.8922 29.4254 28.3328 28.3191C27.5721 28.1718 26.8944 27.8919 26.3279 27.5276C25.7172 28.4544 24.7971 29.2821 23.6172 29.8606H23.6185Z" stroke="#231F20" stroke-width="0.226056" stroke-linecap="round" stroke-linejoin="round"/>
<path d="M114.152 43.1036C114.414 42.3014 114.673 41.4991 114.934 40.6982C116.295 41.1402 117.762 41.1402 119.122 40.6982C119.384 41.5005 119.643 42.3027 119.905 43.1036C118.035 43.7103 116.022 43.7103 114.152 43.1036Z" fill="#A9EAE4"/>
<path d="M114.152 43.1036C114.414 42.3014 114.673 41.4991 114.934 40.6982C116.295 41.1402 117.762 41.1402 119.122 40.6982C119.384 41.5005 119.643 42.3027 119.905 43.1036C118.035 43.7103 116.022 43.7103 114.152 43.1036Z" stroke="#231F20" stroke-width="0.226056" stroke-linecap="round" stroke-linejoin="round"/>
<path d="M102.244 26.374C102.244 26.374 104.532 28.7044 104.847 30.3396C105.161 31.9749 103.904 34.9883 103.904 34.9883L103.724 34.7807C101.79 32.5374 101.193 29.4356 102.155 26.6338L102.243 26.374H102.244Z" fill="#A9EAE4" stroke="#231F20" stroke-width="0.226056" stroke-linecap="round" stroke-linejoin="round"/>
<path d="M100.381 57.6859C89.256 67.326 68.9577 71.2368 55.0452 66.4194C44.8868 62.9037 40.9412 55.7077 43.8823 48.3269C44.9685 45.5988 46.9975 42.8466 50.0001 40.2444C55.3881 35.5756 62.9283 32.2515 70.8528 30.6109C64.5716 31.9234 58.5984 34.5644 54.326 38.2662C45.4626 45.9457 47.2626 55.2819 58.3452 59.1176C69.4292 62.9546 85.5984 59.8394 94.4604 52.1613C103.324 44.4832 101.524 35.147 90.4412 31.31C84.9207 29.4002 78.1359 29.214 71.6216 30.4569C79.8274 28.8765 88.3801 29.1015 95.3377 31.5095C98.8948 32.7417 101.69 34.4238 103.693 36.4073C109.53 42.1823 108.665 50.51 100.381 57.6845V57.6859Z" fill="#FFC87A" stroke="#231F20" stroke-width="0.226056" stroke-miterlimit="10"/>
<path d="M39.9766 29.9534C39.9766 29.9534 45.0792 37.4226 51.4703 36.0793L45.4623 44.6761L42.8038 39.0645L39.9779 29.9547L39.9766 29.9534Z" fill="black" stroke="black" stroke-width="0.226056" stroke-miterlimit="10"/>
<path d="M100.672 18.2588C100.672 18.2588 98.7099 27.09 92.2773 28.2164L101.05 33.9646L101.434 27.7664L100.673 18.2588H100.672Z" fill="black" stroke="black" stroke-width="0.226056" stroke-miterlimit="10"/>
<path d="M103.693 36.4086C101.992 33.1876 98.5497 30.4515 93.4631 28.6916C80.2925 24.1314 61.0764 27.8345 50.5443 36.9591C46.3242 40.614 44.1385 44.5863 43.8814 48.3269C43.4956 53.9238 47.4264 59.005 55.3215 61.7385C68.4921 66.2961 87.7081 62.5957 98.2403 53.4711C104.706 47.8689 106.397 41.5274 103.694 36.4086H103.693ZM94.4595 52.1626C85.5974 59.8408 69.4282 62.9559 58.3443 59.1189C47.2617 55.2832 45.4617 45.9483 54.3251 38.2675C58.5974 34.5657 64.5706 31.9247 70.8519 30.6122C70.9189 30.5974 70.9845 30.5854 71.0528 30.5707C71.1894 30.5425 71.3287 30.5144 71.4666 30.4876L71.6206 30.4582C78.1349 29.214 84.9197 29.4001 90.4403 31.3113C101.523 35.1483 103.323 44.4832 94.4595 52.1626Z" fill="#EFD99A" stroke="#231F20" stroke-width="0.226056" stroke-miterlimit="10"/>
<path d="M41.5325 38.0723C41.5325 38.0723 40.2749 41.0857 40.5896 42.7209C40.9044 44.3562 43.1919 46.6865 43.1919 46.6865L43.2802 46.4267C44.2419 43.6249 43.6445 40.5232 41.7106 38.2799L41.5311 38.0723H41.5325Z" fill="#A9EAE4" stroke="#231F20" stroke-width="0.226056" stroke-linecap="round" stroke-linejoin="round"/>
<path d="M76.8109 65.3213C76.6783 64.6315 77.1283 63.9632 77.818 63.828C78.5077 63.6954 79.1774 64.1454 79.31 64.8351C79.4439 65.5248 78.9939 66.1931 78.3042 66.3271H78.3015C77.6131 66.4597 76.9461 66.0097 76.8109 65.3213ZM72.635 67.124C71.9359 67.1856 71.3171 66.6673 71.2568 65.9668C71.1952 65.2677 71.7135 64.6503 72.414 64.5887C73.1131 64.5271 73.7305 65.0454 73.7921 65.7458C73.8497 66.4021 73.3984 66.9833 72.7662 67.1052C72.7234 67.1132 72.6792 67.1186 72.635 67.124ZM82.2698 64.1039C82.0649 63.4302 82.4452 62.7204 83.1176 62.5168C83.7912 62.3119 84.501 62.6923 84.7046 63.3646C84.9095 64.0382 84.5292 64.7481 83.8568 64.9516C83.814 64.9664 83.7698 64.9757 83.7256 64.9838C83.0935 65.1056 82.4586 64.732 82.2685 64.1039H82.2698ZM66.9055 67.3061C66.2024 67.2887 65.6479 66.7048 65.6653 66.003C65.6827 65.2998 66.2667 64.7454 66.9698 64.7628C67.6716 64.7802 68.2274 65.3641 68.2086 66.0673C68.1926 66.6753 67.7533 67.1735 67.1787 67.2833C67.0903 67.3007 66.9979 67.3101 66.9055 67.3061ZM87.5707 62.3253C87.2934 61.6784 87.5921 60.9311 88.2377 60.6539C88.8832 60.3753 89.6318 60.6753 89.9091 61.3195C90.1863 61.9664 89.889 62.715 89.2421 62.9923C89.1551 63.0284 89.068 63.0565 88.9796 63.0726C88.4051 63.1838 87.8118 62.8838 87.5707 62.3239V62.3253ZM61.1747 66.8025C60.4796 66.694 60.0042 66.0431 60.1127 65.3494C60.2198 64.6543 60.8707 64.1775 61.5658 64.286C62.2595 64.3945 62.7363 65.044 62.6278 65.7391C62.5435 66.2856 62.1243 66.6954 61.6113 66.7945C61.4707 66.8213 61.3234 66.8253 61.1747 66.8025ZM92.6318 59.9507C92.2743 59.3454 92.4738 58.5646 93.0792 58.207C93.6845 57.8481 94.464 58.049 94.8229 58.6543C95.1805 59.2597 94.9809 60.0391 94.3756 60.3981C94.2457 60.4731 94.1077 60.524 93.9685 60.5507C93.4542 60.6498 92.9131 60.4248 92.6318 59.9494V59.9507ZM55.5377 65.4806C54.8693 65.265 54.5024 64.5472 54.7193 63.8789C54.935 63.2106 55.6515 62.8436 56.3211 63.0592C56.9894 63.2762 57.3564 63.9927 57.1408 64.6623C56.9921 65.1204 56.6104 65.4351 56.1685 65.5208C55.9662 65.5597 55.7493 65.5503 55.5377 65.4806ZM97.326 56.9146C96.876 56.3735 96.951 55.5713 97.4908 55.1213C98.0305 54.6713 98.8341 54.7463 99.2841 55.286C99.7327 55.8271 99.6591 56.6293 99.118 57.0793C98.9479 57.2213 98.751 57.311 98.5461 57.3512C98.1055 57.4356 97.6327 57.2842 97.326 56.9146ZM50.1765 63.1235C49.5698 62.7699 49.3662 61.9891 49.7211 61.3838C50.0747 60.7771 50.8555 60.5722 51.4622 60.9271C52.0689 61.282 52.2725 62.0614 51.9176 62.6681C51.7247 62.9976 51.4073 63.2092 51.0591 63.2762C50.7658 63.3324 50.4537 63.2869 50.1752 63.1235H50.1765ZM101.431 53.119C100.874 52.6891 100.772 51.8909 101.202 51.3338C101.632 50.778 102.431 50.6762 102.987 51.1061C103.544 51.536 103.646 52.3356 103.216 52.8914C103.019 53.1472 102.745 53.3065 102.45 53.3628C102.105 53.4298 101.731 53.3521 101.431 53.119ZM45.5385 59.3373C45.0832 58.803 45.1448 57.9994 45.6792 57.5414C46.2135 57.086 47.0158 57.149 47.4738 57.682C47.9305 58.2164 47.8676 59.0186 47.3345 59.4766C47.1604 59.6253 46.9582 59.719 46.7493 59.7592C46.3127 59.8436 45.8479 59.6963 45.5385 59.3373ZM104.49 48.4449C103.823 48.2213 103.464 47.4994 103.689 46.8338C103.911 46.1668 104.633 45.8079 105.3 46.0329C105.967 46.2552 106.326 46.9771 106.101 47.644C105.95 48.0954 105.571 48.4048 105.134 48.4878C104.925 48.528 104.704 48.5173 104.49 48.4449ZM42.7381 53.8623C42.5841 53.1766 43.018 52.4949 43.7024 52.3436C44.3894 52.1909 45.0685 52.6235 45.2225 53.3092C45.3752 53.9963 44.9426 54.6753 44.2568 54.828C44.2448 54.832 44.2327 54.8347 44.2207 54.836C43.547 54.9659 42.8881 54.5373 42.7381 53.8623ZM105.61 42.9833C104.916 43.0945 104.262 42.6217 104.152 41.928C104.041 41.2342 104.515 40.5806 105.209 40.4695C105.904 40.3583 106.555 40.8324 106.666 41.5262C106.776 42.2065 106.323 42.8467 105.651 42.9766C105.639 42.9793 105.624 42.982 105.611 42.9833H105.61ZM43.8377 49.2806C43.1613 49.0878 42.7676 48.3847 42.9604 47.7083C43.1519 47.032 43.8551 46.6382 44.5314 46.8311C45.2077 47.0226 45.6015 47.7257 45.41 48.4021C45.2747 48.8802 44.8823 49.2177 44.4243 49.3061C44.2354 49.3423 44.0359 49.3369 43.8377 49.2806ZM102.157 37.4507C101.726 36.8963 101.827 36.0954 102.383 35.6641C102.939 35.2342 103.739 35.336 104.17 35.8905C104.6 36.4463 104.498 37.2458 103.943 37.6771C103.78 37.803 103.595 37.8833 103.405 37.9208C102.948 38.0092 102.461 37.8431 102.157 37.4507Z" fill="white" stroke="#231F20" stroke-width="0.226056" stroke-miterlimit="10"/>
<path d="M47.679 20.2662C49.8144 20.2662 51.5455 18.5351 51.5455 16.3997C51.5455 14.2643 49.8144 12.5332 47.679 12.5332C45.5436 12.5332 43.8125 14.2643 43.8125 16.3997C43.8125 18.5351 45.5436 20.2662 47.679 20.2662Z" fill="white" stroke="#231F20" stroke-width="0.226056" stroke-miterlimit="10"/>
<path d="M88.1673 12.465C90.3027 12.465 92.0338 10.7339 92.0338 8.59845C92.0338 6.46303 90.3027 4.73193 88.1673 4.73193C86.0319 4.73193 84.3008 6.46303 84.3008 8.59845C84.3008 10.7339 86.0319 12.465 88.1673 12.465Z" fill="white" stroke="#231F20" stroke-width="0.226056" stroke-miterlimit="10"/>
<path d="M85.7015 9.61917C76.151 8.82363 69.9059 17.7567 69.2832 18.6875C68.3591 18.0553 59.2412 12.0821 50.6711 16.3692C35.9939 23.7098 44.9671 44.1232 52.3506 54.366L73.9224 50.2102L69.5671 20.1593L76.6894 49.6772L98.2613 45.5214C101.311 33.2683 102.057 10.9826 85.7028 9.62051L85.7015 9.61917Z" fill="#FFABB3" stroke="#231F20" stroke-width="0.226056" stroke-miterlimit="10"/>
<path d="M68.4368 18.1796C70.5722 18.1796 72.3033 16.4485 72.3033 14.3131C72.3033 12.1776 70.5722 10.4465 68.4368 10.4465C66.3014 10.4465 64.5703 12.1776 64.5703 14.3131C64.5703 16.4485 66.3014 18.1796 68.4368 18.1796Z" fill="white" stroke="#231F20" stroke-width="0.226056" stroke-miterlimit="10"/>
<path d="M96.5951 14.7365C94.0357 11.1646 90.3929 9.15835 85.771 8.77398C79.6009 8.25969 74.7728 11.5677 71.8103 14.4271C71.7781 14.4525 71.7447 14.4767 71.7152 14.5021C71.6523 14.5543 71.6 14.6133 71.5558 14.6762C70.4081 15.8146 69.5643 16.8619 69.0607 17.5356C66.5054 15.9726 58.2179 11.6441 50.2906 15.6097C46.1415 17.6842 43.5058 20.8999 42.4572 25.1682C40.1656 34.4829 45.9835 46.9851 51.6621 54.8628C51.9366 55.2432 52.467 55.3289 52.846 55.0543C53.2264 54.7798 53.3121 54.2494 53.0375 53.8704C50.0831 49.7722 47.4406 44.8249 45.7866 40.2967C43.7134 34.6182 43.1308 29.5275 44.1032 25.574C45.0286 21.8119 47.3657 18.97 51.0487 17.1284C53.7648 15.7704 56.5451 15.5012 59.0777 15.7691C58.9438 15.7985 58.8112 15.8307 58.6786 15.8642C56.5156 16.4133 53.446 17.6789 51.0996 20.5932C47.0121 25.6704 44.7701 36.2816 57.3058 58.0088C57.492 58.3302 57.8563 58.4842 58.2018 58.4186C58.2915 58.4012 58.3813 58.3691 58.4657 58.3195C58.8715 58.0851 59.0107 57.5668 58.7764 57.161C53.4942 48.007 50.4527 40.128 49.7348 33.745C49.1616 28.6503 50.0656 24.5842 52.4228 21.6579C56.1621 17.0146 62.4393 16.5927 64.9692 17.399C65.0429 17.4231 65.1179 17.4351 65.1915 17.4378C65.5558 17.5959 65.8987 17.7552 66.2174 17.9119C63.8884 18.2267 60.7706 19.2378 58.5969 22.2043C54.1545 28.27 55.7402 39.6097 63.3125 55.9088C63.4799 56.2691 63.8683 56.4566 64.242 56.3842C64.309 56.3709 64.3746 56.3508 64.4389 56.32C64.8634 56.1231 65.0482 55.6182 64.8514 55.1936C55.7764 35.6601 57.1813 27.0244 59.9563 23.2195C63.1585 18.8307 69.1143 19.5231 69.1746 19.5298C69.1786 19.5298 69.1813 19.5298 69.1853 19.5298C69.196 19.5298 69.2081 19.5311 69.2188 19.5325C69.2362 19.5325 69.2523 19.5351 69.2697 19.5351C69.2764 19.5351 69.2844 19.5351 69.2911 19.5351C69.2938 19.5351 69.2965 19.5351 69.2991 19.5351C69.3179 19.5351 69.3366 19.5351 69.354 19.5325C69.3594 19.5325 69.3648 19.5311 69.3715 19.5311C69.3755 19.5311 69.3795 19.5311 69.3822 19.5298C69.4009 19.5271 69.4197 19.5258 69.4371 19.5217C69.4384 19.5217 69.4398 19.5217 69.4411 19.5217C69.4438 19.5217 69.4478 19.5204 69.4505 19.5191C69.4572 19.5191 69.4625 19.5164 69.4692 19.5151C69.4853 19.511 69.5014 19.5084 69.5174 19.503C69.5215 19.503 69.5255 19.5003 69.5308 19.499C69.5389 19.4963 69.5482 19.4936 69.5563 19.4896C69.5697 19.4856 69.5817 19.4816 69.5951 19.4762C69.5991 19.4749 69.6045 19.4722 69.6085 19.4709C69.6192 19.4668 69.6299 19.4615 69.6393 19.4561C69.6487 19.4521 69.6581 19.4481 69.6674 19.4427C69.6728 19.4401 69.6782 19.4374 69.6822 19.4347C69.6849 19.4334 69.6889 19.432 69.6915 19.4293C69.7438 19.3999 75.0165 16.5445 79.621 19.4293C83.6121 21.9298 88.1241 29.4258 86.9563 50.932C86.9308 51.3994 87.2898 51.7999 87.7572 51.8253C87.8282 51.8293 87.8978 51.8253 87.9648 51.8119C88.3384 51.7396 88.629 51.4222 88.6505 51.0244C89.6241 33.0793 86.884 21.9619 80.5049 17.9816C77.3844 16.0342 74.1139 16.2552 71.8344 16.8284C72.1451 16.4842 72.4906 16.1213 72.8723 15.749C74.9938 14.0762 80.8907 12.2213 86.0215 15.1048C89.296 16.9463 91.6465 20.3856 93.0085 25.3289C94.7134 31.5217 94.8165 39.9659 93.3139 50.4284C93.2469 50.8918 93.5697 51.3218 94.0331 51.3887C94.1295 51.4021 94.2232 51.3994 94.3143 51.382C94.6599 51.315 94.9411 51.0365 94.9933 50.6695C98.5599 25.8405 92.5344 16.8204 86.8531 13.6262C83.592 11.7927 80.2706 11.7579 78.0594 12.0526C77.9991 12.0606 77.9389 12.0713 77.8773 12.0793C80.0844 10.9517 82.6933 10.2231 85.6264 10.4682C89.7299 10.8097 92.9549 12.5802 95.213 15.7289C97.5848 19.0383 98.9362 23.9802 99.121 30.0231C99.2683 34.8418 98.6536 40.4159 97.4335 45.3191C97.321 45.7744 97.5969 46.2338 98.0523 46.3476C98.1755 46.3784 98.3 46.3798 98.4165 46.3583C98.7313 46.2981 98.9978 46.061 99.0795 45.7302C101.425 36.307 102.18 22.5378 96.5924 14.7418L96.5951 14.7365Z" fill="#FFC87A" stroke="#231F20" stroke-width="0.226056" stroke-miterlimit="10"/>
<path d="M100.673 18.2588L104.74 39.3686C105.604 43.8525 103.504 48.907 98.2382 53.4713C92.9721 58.0342 85.535 61.2418 77.7685 62.7378C70.002 64.2338 61.906 64.0195 55.3208 61.74C48.7355 59.4606 44.9078 55.5472 44.044 51.0632L39.9766 29.9534C39.9766 29.9534 45.8386 45.165 50.948 50.0427C50.5087 45.3632 50.7565 39.7182 51.2882 33.6713C54.5266 40.6369 56.9547 45.2789 62.2717 49.6637L69.4449 19.5418L87.2962 44.8423C90.6029 38.7954 91.1319 33.5842 91.5511 25.9141C94.2913 31.3302 96.6176 36.4798 97.9489 40.9865C100.882 34.5606 100.672 18.2588 100.672 18.2588H100.673Z" fill="#FFEA8C" stroke="#231F20" stroke-width="0.226056" stroke-linecap="round" stroke-linejoin="round"/>
<path d="M103.22 31.4763L104.002 35.5344C104.179 36.4491 104.231 37.3893 104.159 38.3428C103.877 42.062 101.692 46.0049 97.4998 49.637C92.2337 54.2 84.7967 57.4076 77.0301 58.9036C69.2636 60.3995 61.1676 60.1852 54.5824 57.9058C49.031 55.9839 45.4404 52.9022 43.931 49.2968C43.6498 48.6245 43.4408 47.9335 43.3056 47.2303L42.5234 43.1723C42.6092 43.6196 42.7243 44.0616 42.8703 44.4969C43.2185 45.5415 43.7355 46.5486 44.4199 47.5009C46.3042 50.1245 49.4502 52.3437 53.8002 53.8491C60.3842 56.1286 68.4815 56.3428 76.248 54.8468C84.0145 53.3509 91.4516 50.1433 96.7176 45.5803C100.197 42.5656 102.294 39.3366 103.069 36.2C103.348 35.0616 103.454 33.9366 103.39 32.837C103.363 32.379 103.307 31.925 103.22 31.479V31.4763Z" fill="#FFEA8C" stroke="#231F20" stroke-width="0.226056" stroke-linecap="round" stroke-linejoin="round"/>
<path d="M84.2362 54.8226C84.1116 54.4516 83.7098 54.2547 83.3402 54.3793C81.3406 55.0556 79.2567 55.6181 77.1487 56.052C76.7643 56.1297 76.5192 56.5047 76.5982 56.8864C76.6759 57.2654 77.0442 57.5118 77.4246 57.4382H77.4326C79.5996 56.9922 81.7384 56.4136 83.7929 55.7185C84.1638 55.594 84.3621 55.1909 84.2362 54.8226ZM73.1562 56.7136C71.0054 56.9868 68.8531 57.1235 66.7571 57.1194C66.3674 57.1194 66.05 57.4355 66.05 57.8266C66.05 58.2176 66.3647 58.5337 66.7558 58.5351C68.9107 58.5391 71.1245 58.3971 73.3357 58.1172C73.3518 58.1159 73.3665 58.1132 73.3799 58.1105C73.7442 58.0409 73.9946 57.6993 73.9478 57.327C73.8996 56.94 73.5433 56.6654 73.1576 56.715L73.1562 56.7136ZM93.7371 50.1645C93.5268 49.8351 93.0902 49.7373 92.7607 49.9462C91.0344 51.0431 89.1326 52.0462 87.1103 52.9261C86.7527 53.0828 86.5879 53.4993 86.7433 53.8569C86.8772 54.1663 87.208 54.331 87.5254 54.2694C87.575 54.2601 87.6259 54.244 87.6741 54.2239C89.7634 53.3145 91.7308 52.2779 93.5187 51.1422C93.8482 50.9319 93.946 50.4953 93.7371 50.1659V50.1645ZM62.7246 56.9346C60.5174 56.731 58.404 56.3587 56.446 55.8284C56.0696 55.7266 55.6799 55.9502 55.5781 56.3266C55.4763 56.7029 55.7 57.0913 56.0763 57.1931C58.1134 57.7449 60.3071 58.1319 62.5946 58.3422C62.6643 58.3489 62.7299 58.3449 62.7942 58.3328C63.0955 58.2752 63.3339 58.0248 63.3647 57.7034C63.4009 57.315 63.1143 56.9708 62.7259 56.9346H62.7246ZM101.364 42.8882C101.047 42.6618 100.605 42.7342 100.377 43.0516C99.3848 44.4337 98.1299 45.7877 96.646 47.0735C96.4411 47.2516 96.2308 47.4284 96.0179 47.6025C95.7152 47.8502 95.6723 48.2962 95.9201 48.5976C96.0902 48.8052 96.354 48.8909 96.6018 48.844C96.7129 48.8226 96.8214 48.7743 96.9152 48.6967C97.1362 48.5145 97.3585 48.327 97.5728 48.1422C99.1411 46.7828 100.471 45.3485 101.526 43.8766C101.754 43.5592 101.682 43.1185 101.364 42.8895V42.8882ZM52.6625 54.5306C50.5598 53.6346 48.7679 52.5364 47.3375 51.2614C47.0455 51.0016 46.5982 51.0297 46.3397 51.3203C46.0799 51.6123 46.1067 52.0596 46.3987 52.3181C47.9455 53.6935 49.8661 54.8761 52.1094 55.831C52.2446 55.8886 52.3866 55.902 52.5192 55.8752C52.7429 55.8324 52.9397 55.6824 53.0362 55.4574C53.1888 55.0984 53.0228 54.6819 52.6625 54.5293V54.5306ZM103.389 32.8342C103.454 33.9337 103.348 35.0587 103.068 36.1971C102.99 37.3235 102.724 38.4712 102.27 39.6257C102.128 39.9886 102.306 40.3998 102.671 40.5418C102.799 40.5926 102.935 40.602 103.061 40.5779C103.292 40.5337 103.495 40.3757 103.586 40.1426C103.822 39.5413 104.012 38.94 104.158 38.3413C104.23 37.3877 104.178 36.4476 104.001 35.5328L103.476 32.8101C103.446 32.8154 103.417 32.8235 103.389 32.8342ZM44.8518 48.3002C44.6951 48.0364 44.5504 47.7712 44.4205 47.4993C43.7362 46.5471 43.2192 45.54 42.871 44.4953C42.8402 44.4953 42.8107 44.4993 42.7812 44.506L43.3062 47.2288C43.4415 47.9333 43.6518 48.6243 43.9317 49.2953C44.0683 49.3636 44.225 49.3851 44.379 49.3556C44.4567 49.3409 44.533 49.3114 44.6054 49.2685C44.9415 49.069 45.0527 48.6351 44.8518 48.2989V48.3002Z" fill="#A9EAE4" stroke="#231F20" stroke-width="0.226056" stroke-linecap="round" stroke-linejoin="round"/>
<path d="M69.4446 23.4081C71.5801 23.4081 73.3112 21.677 73.3112 19.5416C73.3112 17.4061 71.5801 15.675 69.4446 15.675C67.3092 15.675 65.5781 17.4061 65.5781 19.5416C65.5781 21.677 67.3092 23.4081 69.4446 23.4081Z" fill="white" stroke="#231F20" stroke-width="0.226056" stroke-miterlimit="10"/>
<path d="M50.9134 37.0472C53.0488 37.0472 54.7799 35.3161 54.7799 33.1807C54.7799 31.0453 53.0488 29.3142 50.9134 29.3142C48.778 29.3142 47.0469 31.0453 47.0469 33.1807C47.0469 35.3161 48.778 37.0472 50.9134 37.0472Z" fill="white" stroke="#231F20" stroke-width="0.226056" stroke-miterlimit="10"/>
<path d="M39.8286 32.0141C41.3907 32.0141 42.6571 30.7477 42.6571 29.1855C42.6571 27.6233 41.3907 26.3569 39.8286 26.3569C38.2664 26.3569 37 27.6233 37 29.1855C37 30.7477 38.2664 32.0141 39.8286 32.0141Z" fill="white" stroke="#231F20" stroke-width="0.226056" stroke-miterlimit="10"/>
<path d="M91.3978 29.2465C93.5332 29.2465 95.2643 27.5154 95.2643 25.3799C95.2643 23.2445 93.5332 21.5134 91.3978 21.5134C89.2623 21.5134 87.5312 23.2445 87.5312 25.3799C87.5312 27.5154 89.2623 29.2465 91.3978 29.2465Z" fill="white" stroke="#231F20" stroke-width="0.226056" stroke-miterlimit="10"/>
<path d="M100.204 20.3818C101.766 20.3818 103.032 19.1154 103.032 17.5532C103.032 15.991 101.766 14.7246 100.204 14.7246C98.6414 14.7246 97.375 15.991 97.375 17.5532C97.375 19.1154 98.6414 20.3818 100.204 20.3818Z" fill="white" stroke="#231F20" stroke-width="0.226056" stroke-miterlimit="10"/>
<path d="M71.0166 27.6934L79.0992 37.0684L75.0787 48.7764L66.9961 39.4014L71.0166 27.6934Z" fill="#A9EAE4" stroke="#231F20" stroke-width="0.226056" stroke-linecap="round" stroke-linejoin="round"/>
<path d="M71.8954 32.251L76.4838 37.5733L74.2017 44.2188L69.6133 38.8965L71.8954 32.251Z" fill="white" stroke="#231F20" stroke-width="0.226056" stroke-miterlimit="10"/>
<path d="M52.0952 38.2681L55.3671 43.2582L54.1832 49.1082L50.0273 44.2882L52.0952 38.2681Z" fill="#A9EAE4" stroke="#231F20" stroke-width="0.226056" stroke-linecap="round" stroke-linejoin="round"/>
<path d="M92.5068 30.4817L91.3242 36.3304L94.5961 41.3219L96.6626 35.3018L92.5068 30.4817Z" fill="#A9EAE4" stroke="#231F20" stroke-width="0.226056" stroke-linecap="round" stroke-linejoin="round"/>
<path d="M11.2179 52.572L4.54688 35.7493" stroke="#231F20" stroke-width="0.226056" stroke-linecap="round" stroke-linejoin="round"/>
<path d="M21.1482 77.6101L16.5156 65.9302" stroke="#231F20" stroke-width="0.226056" stroke-linecap="round" stroke-linejoin="round"/>
<path d="M28.0914 95.1213L23.9102 84.5771" stroke="#231F20" stroke-width="0.226056" stroke-linecap="round" stroke-linejoin="round"/>
<path d="M140.523 48.1741L145.451 35.7495" stroke="#231F20" stroke-width="0.226056" stroke-linecap="round" stroke-linejoin="round"/>
<path d="M135.199 61.603L138.27 53.8606" stroke="#231F20" stroke-width="0.226056" stroke-linecap="round" stroke-linejoin="round"/>
<path d="M121.906 95.1213L131.591 70.7021" stroke="#231F20" stroke-width="0.226056" stroke-linecap="round" stroke-linejoin="round"/>
<path d="M75 92.7893V80.7505" stroke="#231F20" stroke-width="0.226056" stroke-linecap="round" stroke-linejoin="round"/>
<path d="M75 121.928V102.778" stroke="#231F20" stroke-width="0.226056" stroke-linecap="round" stroke-linejoin="round"/>
<path d="M39.5931 75.1911C36.7257 75.1911 34.402 77.5147 34.402 80.3821C34.402 77.5147 32.0783 75.1911 29.2109 75.1911C32.0783 75.1911 34.402 72.8674 34.402 70C34.402 72.8674 36.7257 75.1911 39.5931 75.1911Z" fill="white" stroke="#231F20" stroke-width="0.226056" stroke-miterlimit="10"/>
<path d="M108.543 79.2985C106.275 79.2985 104.436 81.1373 104.436 83.4061C104.436 81.1373 102.597 79.2985 100.328 79.2985C102.597 79.2985 104.436 77.4597 104.436 75.1909C104.436 77.4597 106.275 79.2985 108.543 79.2985Z" fill="white" stroke="#231F20" stroke-width="0.226056" stroke-miterlimit="10"/>
<path d="M31.8317 12.4657C29.7772 12.4657 28.1112 14.1304 28.1112 16.1862C28.1112 14.1317 26.4464 12.4657 24.3906 12.4657C26.4451 12.4657 28.1112 10.8009 28.1112 8.74512C28.1112 10.7996 29.7759 12.4657 31.8317 12.4657Z" fill="white" stroke="#231F20" stroke-width="0.226056" stroke-miterlimit="10"/>
<path d="M130.468 27.6932C128.414 27.6932 126.748 29.3579 126.748 31.4137C126.748 29.3593 125.083 27.6932 123.027 27.6932C125.082 27.6932 126.748 26.0285 126.748 23.9727C126.748 26.0271 128.413 27.6932 130.468 27.6932Z" fill="white" stroke="#231F20" stroke-width="0.226056" stroke-miterlimit="10"/>
<path d="M74.9983 112.938C84.9838 112.938 93.0787 104.843 93.0787 94.8575C93.0787 84.872 84.9838 76.7771 74.9983 76.7771C65.0128 76.7771 56.918 84.872 56.918 94.8575C56.918 104.843 65.0128 112.938 74.9983 112.938Z" fill="#FFEDB3" stroke="#231F20" stroke-width="0.226056" stroke-linecap="round" stroke-linejoin="round"/>
<path d="M74.9997 106.517C81.4392 106.517 86.6595 101.297 86.6595 94.8573C86.6595 88.4178 81.4392 83.1975 74.9997 83.1975C68.5601 83.1975 63.3398 88.4178 63.3398 94.8573C63.3398 101.297 68.5601 106.517 74.9997 106.517Z" fill="white" stroke="#231F20" stroke-width="0.226056" stroke-miterlimit="10"/>
<path d="M74.5022 87.8477H76.3585V101.464H73.8982V90.7874C73.5299 90.9548 73.1683 91.0834 72.8134 91.1731C72.4585 91.2642 72.1049 91.3084 71.75 91.3084V88.9526C72.2228 88.9044 72.6808 88.7945 73.1268 88.6244C73.5714 88.4544 74.0308 88.1959 74.5036 87.8477H74.5022Z" fill="black" stroke="#231F20" stroke-width="0.226056" stroke-linecap="round" stroke-linejoin="round"/>
</svg>
