<svg width="150" height="120" viewBox="0 0 150 120" fill="none" xmlns="http://www.w3.org/2000/svg">
<g clip-path="url(#clip0_6609_2467)">
<path d="M50.0354 19.7599C49.9109 18.6744 49.7864 17.5844 49.6619 16.493C47.8169 17.2176 45.8549 17.3891 44.0264 17.0074C44.1509 18.1734 44.2754 19.3379 44.3999 20.498C46.2449 20.8051 48.2069 20.5576 50.0354 19.7584V19.7599Z" fill="#FFEDB3"/>
<path d="M50.0354 19.7599C49.9109 18.6744 49.7864 17.5844 49.6619 16.493C47.8169 17.2176 45.8549 17.3891 44.0264 17.0074C44.1509 18.1734 44.2754 19.3379 44.3999 20.498C46.2449 20.8051 48.2069 20.5576 50.0354 19.7584V19.7599Z" stroke="#231F20" stroke-width="0.151915" stroke-linecap="round" stroke-linejoin="round"/>
<path d="M46.7503 98.3487C45.5503 98.954 44.3428 99.3507 43.1863 99.5385C44.0983 101.786 45.0403 103.903 45.9868 105.889C47.1868 105.372 48.3943 104.645 49.5508 103.71C48.6388 102.052 47.6968 100.265 46.7503 98.3472V98.3487Z" fill="#FFEDB3"/>
<path d="M46.7503 98.3487C45.5503 98.954 44.3428 99.3507 43.1863 99.5385C44.0983 101.786 45.0403 103.903 45.9868 105.889C47.1868 105.372 48.3943 104.645 49.5508 103.71C48.6388 102.052 47.6968 100.265 46.7503 98.3472V98.3487Z" stroke="#231F20" stroke-width="0.151915" stroke-linecap="round" stroke-linejoin="round"/>
<path d="M110.564 5.00158C109.364 5.60695 108.156 6.00357 107 6.19144C107.912 8.43846 108.854 10.5558 109.801 12.5418C111.001 12.0244 112.208 11.2983 113.365 10.3634C112.453 8.70536 111.511 6.91759 110.564 5.00009V5.00158Z" fill="#FFEDB3"/>
<path d="M110.564 5.00158C109.364 5.60695 108.156 6.00357 107 6.19144C107.912 8.43846 108.854 10.5558 109.801 12.5418C111.001 12.0244 112.208 11.2983 113.365 10.3634C112.453 8.70536 111.511 6.91759 110.564 5.00009V5.00158Z" stroke="#231F20" stroke-width="0.151915" stroke-linecap="round" stroke-linejoin="round"/>
<path d="M108.836 84.8786C109.89 84.6028 110.82 84.1569 111.591 83.6038C112.524 84.8592 113.906 85.9596 115.655 86.6724C114.8 87.564 113.757 88.3617 112.547 88.9999C110.861 87.8563 109.608 86.4055 108.834 84.8786H108.836Z" fill="#A9EAE4"/>
<path d="M108.836 84.8786C109.89 84.6028 110.82 84.1569 111.591 83.6038C112.524 84.8592 113.906 85.9596 115.655 86.6724C114.8 87.564 113.757 88.3617 112.547 88.9999C110.861 87.8563 109.608 86.4055 108.834 84.8786H108.836Z" stroke="#231F20" stroke-width="0.151915" stroke-linecap="round" stroke-linejoin="round"/>
<path d="M129.33 78.6148C130.201 78.7072 131.11 78.5656 131.964 78.1928C131.805 76.8032 131.644 75.406 131.484 74C130.612 74.2863 129.703 74.3414 128.85 74.164C129.009 75.6565 129.169 77.1401 129.33 78.6163V78.6148Z" fill="#FFEDB3"/>
<path d="M129.33 78.6148C130.201 78.7072 131.11 78.5656 131.964 78.1928C131.805 76.8032 131.644 75.406 131.484 74C130.612 74.2863 129.703 74.3414 128.85 74.164C129.009 75.6565 129.169 77.1401 129.33 78.6163V78.6148Z" stroke="#231F20" stroke-width="0.151915" stroke-linecap="round" stroke-linejoin="round"/>
<path d="M28.528 62.7499C27.8995 63.3702 27.1345 63.9174 26.251 64.3528C27.3595 65.662 28.9195 66.7877 30.8425 67.4885C31.645 66.7132 32.3005 65.8618 32.8015 64.9805C31.0375 64.5988 29.5765 63.7743 28.5295 62.7499H28.528Z" fill="#FFEDB3"/>
<path d="M28.528 62.7499C27.8995 63.3702 27.1345 63.9174 26.251 64.3528C27.3595 65.662 28.9195 66.7877 30.8425 67.4885C31.645 66.7132 32.3005 65.8618 32.8015 64.9805C31.0375 64.5988 29.5765 63.7743 28.5295 62.7499H28.528Z" stroke="#231F20" stroke-width="0.151915" stroke-linecap="round" stroke-linejoin="round"/>
<path d="M11.8506 74.9921C12.1926 74.1154 12.5196 73.2357 12.8346 72.35C14.3451 72.8778 16.0026 72.936 17.5821 72.4916C17.8371 73.3952 18.0771 74.3047 18.3051 75.2158C16.1646 75.8077 13.9101 75.7227 11.8506 74.9921Z" fill="#A9EAE4"/>
<path d="M11.8506 74.9921C12.1926 74.1154 12.5196 73.2357 12.8346 72.35C14.3451 72.8778 16.0026 72.936 17.5821 72.4916C17.8371 73.3952 18.0771 74.3047 18.3051 75.2158C16.1646 75.8077 13.9101 75.7227 11.8506 74.9921Z" stroke="#231F20" stroke-width="0.151915" stroke-linecap="round" stroke-linejoin="round"/>
<path d="M120.537 39.8905C119.991 40.6227 119.306 41.307 118.487 41.9005C116.981 41.149 115.805 40.0918 115.019 38.9258C115.817 38.6276 116.511 38.2146 117.084 37.73C117.903 38.6634 119.081 39.4492 120.537 39.8905Z" fill="#A9EAE4"/>
<path d="M120.537 39.8905C119.991 40.6227 119.306 41.307 118.487 41.9005C116.981 41.149 115.805 40.0918 115.019 38.9258C115.817 38.6276 116.511 38.2146 117.084 37.73C117.903 38.6634 119.081 39.4492 120.537 39.8905Z" stroke="#231F20" stroke-width="0.151915" stroke-linecap="round" stroke-linejoin="round"/>
<path d="M87.5685 108.111C87.0225 108.843 86.337 109.527 85.518 110.12C84.012 109.369 82.836 108.312 82.05 107.146C82.848 106.848 83.5425 106.435 84.1155 105.95C84.9345 106.883 86.112 107.669 87.5685 108.111Z" fill="#A9EAE4"/>
<path d="M87.5685 108.111C87.0225 108.843 86.337 109.527 85.518 110.12C84.012 109.369 82.836 108.312 82.05 107.146C82.848 106.848 83.5425 106.435 84.1155 105.95C84.9345 106.883 86.112 107.669 87.5685 108.111Z" stroke="#231F20" stroke-width="0.151915" stroke-linecap="round" stroke-linejoin="round"/>
<path d="M17.4556 43.6853C18.2206 44.3712 19.1371 44.9586 20.1826 45.3955C21.3841 44.398 22.2421 43.2007 22.7356 41.9691C21.8836 41.8051 21.1246 41.4934 20.4901 41.0879C19.8061 42.1197 18.7756 43.0412 17.4541 43.6853H17.4556Z" fill="#FFEDB3"/>
<path d="M17.4556 43.6853C18.2206 44.3712 19.1371 44.9586 20.1826 45.3955C21.3841 44.398 22.2421 43.2007 22.7356 41.9691C21.8836 41.8051 21.1246 41.4934 20.4901 41.0879C19.8061 42.1197 18.7756 43.0412 17.4541 43.6853H17.4556Z" stroke="#231F20" stroke-width="0.151915" stroke-linecap="round" stroke-linejoin="round"/>
<path d="M17.4556 43.6853C18.2206 44.3712 19.1371 44.9586 20.1826 45.3955C21.3841 44.398 22.2421 43.2007 22.7356 41.9691C21.8836 41.8051 21.1246 41.4934 20.4901 41.0879C19.8061 42.1197 18.7756 43.0412 17.4541 43.6853H17.4556Z" stroke="#231F20" stroke-width="0.151915" stroke-linecap="round" stroke-linejoin="round"/>
<path d="M65.8521 102.547C66.6171 103.233 67.5336 103.821 68.5791 104.257C69.7806 103.26 70.6386 102.063 71.1321 100.831C70.2801 100.667 69.5211 100.355 68.8866 99.9498C68.2026 100.982 67.1721 101.903 65.8506 102.547H65.8521Z" fill="#FFEDB3"/>
<path d="M65.8521 102.547C66.6171 103.233 67.5336 103.821 68.5791 104.257C69.7806 103.26 70.6386 102.063 71.1321 100.831C70.2801 100.667 69.5211 100.355 68.8866 99.9498C68.2026 100.982 67.1721 101.903 65.8506 102.547H65.8521Z" stroke="#231F20" stroke-width="0.151915" stroke-linecap="round" stroke-linejoin="round"/>
<path d="M65.8521 102.547C66.6171 103.233 67.5336 103.821 68.5791 104.257C69.7806 103.26 70.6386 102.063 71.1321 100.831C70.2801 100.667 69.5211 100.355 68.8866 99.9498C68.2026 100.982 67.1721 101.903 65.8506 102.547H65.8521Z" stroke="#231F20" stroke-width="0.151915" stroke-linecap="round" stroke-linejoin="round"/>
<path d="M118.854 58.4289C119.147 57.5358 119.438 56.6426 119.73 55.751C121.254 56.243 122.897 56.243 124.421 55.751C124.713 56.6441 125.005 57.5372 125.297 58.4289C123.203 59.1043 120.948 59.1043 118.854 58.4289Z" fill="#A9EAE4"/>
<path d="M118.854 58.4289C119.147 57.5358 119.438 56.6426 119.73 55.751C121.254 56.243 122.897 56.243 124.421 55.751C124.713 56.6441 125.005 57.5372 125.297 58.4289C123.203 59.1043 120.948 59.1043 118.854 58.4289Z" stroke="#231F20" stroke-width="0.151915" stroke-linecap="round" stroke-linejoin="round"/>
<path d="M107.764 42.8042C107.764 42.8042 110.326 45.3986 110.678 47.2192C111.031 49.0398 109.622 52.3946 109.622 52.3946L109.421 52.1635C107.255 49.666 106.586 46.2127 107.663 43.0934L107.762 42.8042H107.764Z" fill="#A9EAE4" stroke="#231F20" stroke-width="0.151915" stroke-linecap="round" stroke-linejoin="round"/>
<path d="M105.674 77.6633C93.214 88.3959 70.48 92.7498 54.898 87.3864C43.5205 83.4724 39.1015 75.461 42.3955 67.2438C43.612 64.2065 45.8845 61.1424 49.2475 58.2453C55.282 53.0475 63.727 49.3467 72.6025 47.5201C65.5675 48.9814 58.8775 51.9217 54.0925 56.043C44.1655 64.5927 46.1815 74.9868 58.594 79.2572C71.008 83.5291 89.1175 80.0609 99.043 71.5127C108.97 62.9645 106.954 52.5703 94.5415 48.2985C88.3585 46.1722 80.7595 45.965 73.4635 47.3487C82.654 45.5892 92.233 45.8397 100.025 48.5206C104.009 49.8924 107.14 51.7652 109.384 53.9734C115.921 60.4028 114.952 69.6742 105.674 77.6618V77.6633Z" fill="#FFC87A" stroke="#231F20" stroke-width="0.151915" stroke-miterlimit="10"/>
<path d="M38.0214 46.788C38.0214 46.788 43.7364 55.1037 50.8944 53.6081L44.1654 63.1792L41.1879 56.9317L38.0229 46.7895L38.0214 46.788Z" fill="black" stroke="black" stroke-width="0.151915" stroke-miterlimit="10"/>
<path d="M106.001 33.7682C106.001 33.7682 103.804 43.6002 96.5993 44.8542L106.424 51.2538L106.855 44.3532L106.003 33.7682H106.001Z" fill="black" stroke="black" stroke-width="0.151915" stroke-miterlimit="10"/>
<path d="M109.382 53.975C107.477 50.389 103.622 47.3428 97.9255 45.3835C83.1745 40.3065 61.6525 44.4293 49.8565 54.5878C45.13 58.6569 42.682 63.0794 42.394 67.2439C41.962 73.475 46.3645 79.1321 55.207 82.1753C69.958 87.2493 91.48 83.1296 103.276 72.971C110.518 66.7339 112.411 59.6738 109.384 53.975H109.382ZM99.0415 71.5143C89.116 80.0625 71.0065 83.5307 58.5925 79.2588C46.18 74.9884 44.164 64.5958 54.091 56.0446C58.876 51.9233 65.566 48.9829 72.601 47.5217C72.676 47.5053 72.7495 47.4919 72.826 47.4755C72.979 47.4442 73.135 47.4129 73.2895 47.383L73.462 47.3502C80.758 45.9651 88.357 46.1723 94.54 48.3C106.952 52.5719 108.968 62.9646 99.0415 71.5143Z" fill="#EFD99A" stroke="#231F20" stroke-width="0.151915" stroke-miterlimit="10"/>
<path d="M39.7628 55.8269C39.7628 55.8269 38.3543 59.1817 38.7068 61.0023C39.0593 62.8229 41.6213 65.4173 41.6213 65.4173L41.7203 65.128C42.7973 62.0088 42.1283 58.5555 39.9623 56.058L39.7613 55.8269H39.7628Z" fill="#A9EAE4" stroke="#231F20" stroke-width="0.151915" stroke-linecap="round" stroke-linejoin="round"/>
<path d="M79.2775 86.1638C79.129 85.3959 79.633 84.6519 80.4055 84.5013C81.178 84.3537 81.928 84.8547 82.0765 85.6225C82.2265 86.3904 81.7225 87.1345 80.95 87.2836H80.947C80.176 87.4312 79.429 86.9302 79.2775 86.1638ZM74.6005 88.1708C73.8175 88.2393 73.1245 87.6623 73.057 86.8825C72.988 86.1042 73.5685 85.4168 74.353 85.3482C75.136 85.2796 75.8275 85.8566 75.8965 86.6365C75.961 87.3671 75.4555 88.0142 74.7475 88.1499C74.6995 88.1588 74.65 88.1648 74.6005 88.1708ZM85.3915 84.8084C85.162 84.0584 85.588 83.2682 86.341 83.0415C87.0955 82.8134 87.8905 83.2369 88.1185 83.9854C88.348 84.7354 87.922 85.5256 87.169 85.7523C87.121 85.7687 87.0715 85.7791 87.022 85.7881C86.314 85.9237 85.603 85.5077 85.39 84.8084H85.3915ZM68.1835 88.3735C67.396 88.3542 66.775 87.7041 66.7945 86.9228C66.814 86.1399 67.468 85.5227 68.2555 85.542C69.0415 85.5614 69.664 86.2115 69.643 86.9943C69.625 87.6713 69.133 88.2259 68.4895 88.3482C68.3905 88.3676 68.287 88.378 68.1835 88.3735ZM91.3285 82.8283C91.018 82.1081 91.3525 81.2761 92.0755 80.9675C92.7985 80.6573 93.637 80.9913 93.9475 81.7085C94.258 82.4287 93.925 83.2622 93.2005 83.5709C93.103 83.6111 93.0055 83.6424 92.9065 83.6603C92.263 83.7841 91.5985 83.4501 91.3285 82.8268V82.8283ZM61.765 87.8129C60.9865 87.6921 60.454 86.9675 60.5755 86.1951C60.6955 85.4213 61.4245 84.8904 62.203 85.0112C62.98 85.132 63.514 85.8552 63.3925 86.629C63.298 87.2374 62.8285 87.6936 62.254 87.804C62.0965 87.8338 61.9315 87.8383 61.765 87.8129ZM96.997 80.1847C96.5965 79.5107 96.82 78.6414 97.498 78.2433C98.176 77.8437 99.049 78.0674 99.451 78.7413C99.8515 79.4153 99.628 80.2831 98.95 80.6827C98.8045 80.7662 98.65 80.8228 98.494 80.8527C97.918 80.963 97.312 80.7125 96.997 80.1832V80.1847ZM55.4515 86.3412C54.703 86.1012 54.292 85.302 54.535 84.5579C54.7765 83.8139 55.579 83.4053 56.329 83.6454C57.0775 83.887 57.4885 84.6847 57.247 85.4302C57.0805 85.9401 56.653 86.2905 56.158 86.386C55.9315 86.4292 55.6885 86.4188 55.4515 86.3412ZM102.254 76.8045C101.75 76.2021 101.834 75.3089 102.439 74.8079C103.043 74.3069 103.943 74.3904 104.447 74.9913C104.95 75.5937 104.867 76.4869 104.261 76.9879C104.071 77.1459 103.85 77.2458 103.621 77.2905C103.127 77.3845 102.598 77.216 102.254 76.8045ZM49.447 83.717C48.7675 83.3233 48.5395 82.4541 48.937 81.7801C49.333 81.1047 50.2075 80.8765 50.887 81.2717C51.5665 81.6668 51.7945 82.5346 51.397 83.21C51.181 83.5768 50.8255 83.8124 50.4355 83.887C50.107 83.9496 49.7575 83.8989 49.4455 83.717H49.447ZM106.852 72.5788C106.228 72.1002 106.114 71.2115 106.595 70.5912C107.077 69.9725 107.972 69.8591 108.595 70.3378C109.219 70.8164 109.333 71.7065 108.851 72.3253C108.631 72.6101 108.323 72.7876 107.993 72.8502C107.606 72.9247 107.188 72.8383 106.852 72.5788ZM44.2525 79.5018C43.7425 78.9068 43.8115 78.0122 44.41 77.5023C45.0085 76.9953 45.907 77.0654 46.42 77.6588C46.9315 78.2538 46.861 79.1469 46.264 79.6568C46.069 79.8223 45.8425 79.9267 45.6085 79.9715C45.1195 80.0654 44.599 79.9014 44.2525 79.5018ZM110.278 67.375C109.531 67.126 109.129 66.3224 109.381 65.5813C109.63 64.8388 110.438 64.4391 111.185 64.6896C111.932 64.9372 112.334 65.7408 112.082 66.4834C111.913 66.9859 111.488 67.3303 110.999 67.4228C110.765 67.4675 110.518 67.4556 110.278 67.375ZM41.116 73.4063C40.9435 72.6429 41.4295 71.884 42.196 71.7155C42.9655 71.5455 43.726 72.0271 43.8985 72.7905C44.0695 73.5555 43.585 74.3114 42.817 74.4814C42.8035 74.4859 42.79 74.4889 42.7765 74.4903C42.022 74.635 41.284 74.1578 41.116 73.4063ZM111.532 61.2945C110.755 61.4183 110.023 60.8919 109.9 60.1196C109.775 59.3472 110.306 58.6196 111.083 58.4958C111.862 58.3721 112.591 58.8999 112.715 59.6723C112.838 60.4297 112.331 61.1424 111.578 61.2871C111.565 61.29 111.548 61.293 111.533 61.2945H111.532ZM42.3475 68.3055C41.59 68.0907 41.149 67.3079 41.365 66.555C41.5795 65.802 42.367 65.3636 43.1245 65.5783C43.882 65.7915 44.323 66.5743 44.1085 67.3273C43.957 67.8596 43.5175 68.2354 43.0045 68.3338C42.793 68.374 42.5695 68.3681 42.3475 68.3055ZM107.665 55.135C107.182 54.5177 107.296 53.626 107.918 53.1459C108.541 52.6673 109.436 52.7806 109.919 53.3979C110.401 54.0167 110.287 54.9068 109.666 55.387C109.483 55.5271 109.276 55.6166 109.063 55.6583C108.551 55.7567 108.005 55.5719 107.665 55.135Z" fill="white" stroke="#231F20" stroke-width="0.151915" stroke-miterlimit="10"/>
<path d="M46.648 36.0033C49.0397 36.0033 50.9785 34.076 50.9785 31.6986C50.9785 29.3212 49.0397 27.394 46.648 27.394C44.2563 27.394 42.3175 29.3212 42.3175 31.6986C42.3175 34.076 44.2563 36.0033 46.648 36.0033Z" fill="white" stroke="#231F20" stroke-width="0.151915" stroke-miterlimit="10"/>
<path d="M91.9943 27.3179C94.386 27.3179 96.3248 25.3907 96.3248 23.0133C96.3248 20.6359 94.386 18.7086 91.9943 18.7086C89.6026 18.7086 87.6638 20.6359 87.6638 23.0133C87.6638 25.3907 89.6026 27.3179 91.9943 27.3179Z" fill="white" stroke="#231F20" stroke-width="0.151915" stroke-miterlimit="10"/>
<path d="M89.2313 24.1494C78.5348 23.2637 71.5403 33.209 70.8428 34.2453C69.8078 33.5416 59.5958 26.8915 49.9973 31.6643C33.5588 39.8368 43.6088 62.5634 51.8783 73.967L76.0388 69.3403L71.1608 35.884L79.1378 68.7468L103.298 64.1201C106.714 50.4784 107.549 25.6673 89.2328 24.1509L89.2313 24.1494Z" fill="#FFABB3" stroke="#231F20" stroke-width="0.151915" stroke-miterlimit="10"/>
<path d="M69.898 33.6802C72.2897 33.6802 74.2285 31.7529 74.2285 29.3755C74.2285 26.9981 72.2897 25.0709 69.898 25.0709C67.5064 25.0709 65.5675 26.9981 65.5675 29.3755C65.5675 31.7529 67.5064 33.6802 69.898 33.6802Z" fill="white" stroke="#231F20" stroke-width="0.151915" stroke-miterlimit="10"/>
<path d="M101.434 29.8468C98.5676 25.8701 94.4876 23.6365 89.3111 23.2086C82.4006 22.636 76.9931 26.3189 73.6751 29.5023C73.6391 29.5307 73.6016 29.5575 73.5686 29.5858C73.4981 29.644 73.4396 29.7096 73.3901 29.7797C72.1046 31.0471 71.1596 32.2131 70.5956 32.9631C67.7336 31.223 58.4516 26.4039 49.5731 30.8189C44.9261 33.1286 41.9741 36.7086 40.7996 41.4606C38.2331 51.8309 44.7491 65.7498 51.1091 74.5202C51.4166 74.9437 52.0106 75.0391 52.4351 74.7335C52.8611 74.4278 52.9571 73.8373 52.6496 73.4154C49.3406 68.8527 46.3811 63.3448 44.5286 58.3035C42.2066 51.9815 41.5541 46.314 42.6431 41.9124C43.6796 37.724 46.2971 34.56 50.4221 32.5098C53.4641 30.9979 56.5781 30.6982 59.4146 30.9964C59.2646 31.0292 59.1161 31.065 58.9676 31.1022C56.5451 31.7136 53.1071 33.1226 50.4791 36.3671C45.9011 42.0197 43.3901 53.8333 57.4301 78.0227C57.6386 78.3806 58.0466 78.552 58.4336 78.479C58.5341 78.4596 58.6346 78.4238 58.7291 78.3686C59.1836 78.1077 59.3396 77.5307 59.0771 77.0789C53.1611 66.8875 49.7546 58.1157 48.9506 51.0093C48.3086 45.3373 49.3211 40.8105 51.9611 37.5525C56.1491 32.383 63.1796 31.9134 66.0131 32.811C66.0956 32.8378 66.1796 32.8512 66.2621 32.8542C66.6701 33.0302 67.0541 33.2076 67.4111 33.3821C64.8026 33.7325 61.3106 34.8582 58.8761 38.1609C53.9006 44.9139 55.6766 57.5386 64.1576 75.6847C64.3451 76.0858 64.7801 76.2946 65.1986 76.2141C65.2736 76.1992 65.3471 76.1768 65.4191 76.1425C65.8946 75.9233 66.1016 75.3612 65.8811 74.8885C55.7171 53.1415 57.2906 43.5272 60.3986 39.2911C63.9851 34.4049 70.6556 35.1758 70.7231 35.1832C70.7276 35.1832 70.7306 35.1832 70.7351 35.1832C70.7471 35.1832 70.7606 35.1847 70.7726 35.1862C70.7921 35.1862 70.8101 35.1892 70.8296 35.1892C70.8371 35.1892 70.8461 35.1892 70.8536 35.1892C70.8566 35.1892 70.8596 35.1892 70.8626 35.1892C70.8836 35.1892 70.9046 35.1892 70.9241 35.1862C70.9301 35.1862 70.9361 35.1847 70.9436 35.1847C70.9481 35.1847 70.9526 35.1847 70.9556 35.1832C70.9766 35.1803 70.9976 35.1788 71.0171 35.1743C71.0186 35.1743 71.0201 35.1743 71.0216 35.1743C71.0246 35.1743 71.0291 35.1728 71.0321 35.1713C71.0396 35.1713 71.0456 35.1683 71.0531 35.1668C71.0711 35.1624 71.0891 35.1594 71.1071 35.1534C71.1116 35.1534 71.1161 35.1504 71.1221 35.149C71.1311 35.146 71.1416 35.143 71.1506 35.1385C71.1656 35.134 71.1791 35.1296 71.1941 35.1236C71.1986 35.1221 71.2046 35.1191 71.2091 35.1176C71.2211 35.1132 71.2331 35.1072 71.2436 35.1012C71.2541 35.0968 71.2646 35.0923 71.2751 35.0863C71.2811 35.0833 71.2871 35.0804 71.2916 35.0774C71.2946 35.0759 71.2991 35.0744 71.3021 35.0714C71.3606 35.0386 77.2661 31.8597 82.4231 35.0714C86.8931 37.8552 91.9466 46.2006 90.6386 70.144C90.6101 70.6644 91.0121 71.1102 91.5356 71.1385C91.6151 71.143 91.6931 71.1385 91.7681 71.1236C92.1866 71.0431 92.5121 70.6897 92.5361 70.2469C93.6266 50.2682 90.5576 37.891 83.4131 33.4596C79.9181 31.2916 76.2551 31.5376 73.7021 32.1758C74.0501 31.7926 74.4371 31.3885 74.8646 30.974C77.2406 29.1117 83.8451 27.0466 89.5916 30.2568C93.2591 32.307 95.8916 36.136 97.4171 41.6395C99.3266 48.5341 99.4421 57.9352 97.7591 69.5833C97.6841 70.0993 98.0456 70.5779 98.5646 70.6524C98.6726 70.6673 98.7776 70.6644 98.8796 70.645C99.2666 70.5704 99.5816 70.2603 99.6401 69.8517C103.635 42.2091 96.8861 32.1668 90.5231 28.6107C86.8706 26.5694 83.1506 26.5307 80.6741 26.8587C80.6066 26.8676 80.5391 26.8796 80.4701 26.8885C82.9421 25.633 85.8641 24.8219 89.1491 25.0948C93.7451 25.475 97.3571 27.4462 99.8861 30.9516C102.543 34.636 104.056 40.138 104.263 46.8657C104.428 52.2305 103.74 58.4362 102.373 63.895C102.247 64.4019 102.556 64.9134 103.066 65.0401C103.204 65.0744 103.344 65.0759 103.474 65.052C103.827 64.9849 104.125 64.721 104.217 64.3527C106.843 53.8617 107.689 38.5322 101.431 29.8527L101.434 29.8468Z" fill="#FFC87A" stroke="#231F20" stroke-width="0.151915" stroke-miterlimit="10"/>
<path d="M106.001 33.7682L110.557 57.2702C111.524 62.2623 109.172 67.8895 103.274 72.971C97.3764 78.051 89.0469 81.6221 80.3484 83.2876C71.6499 84.9531 62.5824 84.7145 55.2069 82.1768C47.8314 79.639 43.5444 75.2821 42.5769 70.2901L38.0214 46.7881C38.0214 46.7881 44.5869 63.7235 50.3094 69.1539C49.8174 63.9442 50.0949 57.6594 50.6904 50.9273C54.3174 58.6822 57.0369 63.8502 62.9919 68.7319L71.0259 35.1966L91.0194 63.3641C94.7229 56.632 95.3154 50.8303 95.7849 42.2911C98.8539 48.3209 101.459 54.054 102.95 59.0714C106.235 51.9173 106 33.7682 106 33.7682H106.001Z" fill="#FFEA8C" stroke="#231F20" stroke-width="0.151915" stroke-linecap="round" stroke-linejoin="round"/>
<path d="M108.854 48.4835L109.73 53.0014C109.928 54.0197 109.986 55.0665 109.905 56.1281C109.59 60.2687 107.142 64.6584 102.447 68.7022C96.5495 73.7822 88.22 77.3532 79.5215 79.0188C70.823 80.6843 61.7555 80.4457 54.38 77.9079C48.1625 75.7683 44.141 72.3373 42.4505 68.3234C42.1355 67.5749 41.9015 66.8055 41.75 66.0227L40.874 61.5048C40.97 62.0028 41.099 62.4949 41.2625 62.9795C41.6525 64.1425 42.2315 65.2638 42.998 66.3239C45.1085 69.2449 48.632 71.7156 53.504 73.3915C60.878 75.9293 69.947 76.1679 78.6455 74.5023C87.344 72.8368 95.6735 69.2658 101.571 64.1857C105.468 60.8294 107.817 57.2345 108.684 53.7424C108.998 52.475 109.116 51.2225 109.044 49.9984C109.014 49.4884 108.951 48.983 108.854 48.4864V48.4835Z" fill="#FFEA8C" stroke="#231F20" stroke-width="0.151915" stroke-linecap="round" stroke-linejoin="round"/>
<path d="M87.5925 74.4755C87.453 74.0624 87.003 73.8433 86.589 73.9819C84.3495 74.7349 82.0155 75.3612 79.6545 75.8443C79.224 75.9307 78.9495 76.3482 79.038 76.7732C79.125 77.1952 79.5375 77.4695 79.9635 77.3875H79.9725C82.3995 76.891 84.795 76.2468 87.096 75.473C87.5115 75.3343 87.7335 74.8855 87.5925 74.4755ZM75.183 76.5808C72.774 76.885 70.3635 77.0371 68.016 77.0326C67.5795 77.0326 67.224 77.3845 67.224 77.8199C67.224 78.2553 67.5765 78.6072 68.0145 78.6087C70.428 78.6131 72.9075 78.4551 75.384 78.1435C75.402 78.142 75.4185 78.139 75.4335 78.136C75.8415 78.0585 76.122 77.6783 76.0695 77.2637C76.0155 76.8328 75.6165 76.5272 75.1845 76.5823L75.183 76.5808ZM98.2335 69.2896C97.998 68.9228 97.509 68.8139 97.14 69.0465C95.2065 70.2677 93.0765 71.3845 90.8115 72.3641C90.411 72.5386 90.2265 73.0023 90.4005 73.4004C90.5505 73.7449 90.921 73.9282 91.2765 73.8597C91.332 73.8492 91.389 73.8313 91.443 73.809C93.783 72.7965 95.9865 71.6425 97.989 70.3781C98.358 70.144 98.4675 69.6579 98.2335 69.2911V69.2896ZM63.4995 76.8269C61.0275 76.6002 58.6605 76.1857 56.4675 75.5953C56.046 75.4819 55.6095 75.7309 55.4955 76.1499C55.3815 76.5689 55.632 77.0013 56.0535 77.1146C58.335 77.7289 60.792 78.1599 63.354 78.394C63.432 78.4014 63.5055 78.3969 63.5775 78.3835C63.915 78.3194 64.182 78.0406 64.2165 77.6827C64.257 77.2503 63.936 76.8671 63.501 76.8269H63.4995ZM106.776 61.1887C106.421 60.9367 105.926 61.0172 105.671 61.3706C104.559 62.9094 103.154 64.4168 101.492 65.8482C101.262 66.0465 101.027 66.2434 100.788 66.4372C100.449 66.713 100.401 67.2096 100.679 67.5451C100.869 67.7762 101.165 67.8716 101.442 67.8194C101.567 67.7956 101.688 67.7419 101.793 67.6554C102.041 67.4526 102.29 67.2439 102.53 67.0381C104.286 65.5247 105.776 63.9278 106.958 62.2891C107.213 61.9357 107.132 61.4452 106.776 61.1902V61.1887ZM52.23 74.1504C49.875 73.1529 47.868 71.9302 46.266 70.5108C45.939 70.2215 45.438 70.2528 45.1485 70.5764C44.8575 70.9014 44.8875 71.3994 45.2145 71.6872C46.947 73.2185 49.098 74.5351 51.6105 75.5982C51.762 75.6623 51.921 75.6773 52.0695 75.6474C52.32 75.5997 52.5405 75.4327 52.6485 75.1822C52.8195 74.7826 52.6335 74.3189 52.23 74.1489V74.1504ZM109.044 49.9954C109.116 51.2195 108.998 52.472 108.684 53.7394C108.597 54.9934 108.299 56.2712 107.79 57.5565C107.631 57.9606 107.831 58.4183 108.24 58.5764C108.383 58.633 108.536 58.6435 108.677 58.6166C108.935 58.5674 109.163 58.3915 109.265 58.132C109.529 57.4625 109.742 56.7931 109.905 56.1266C109.986 55.0649 109.928 54.0182 109.73 52.9998L109.142 49.9685C109.107 49.9745 109.076 49.9834 109.044 49.9954ZM43.482 67.214C43.3065 66.9203 43.1445 66.6251 42.999 66.3224C42.2325 65.2622 41.6535 64.141 41.2635 62.978C41.229 62.978 41.196 62.9824 41.163 62.9899L41.751 66.0212C41.9025 66.8055 42.138 67.5749 42.4515 68.3219C42.6045 68.3979 42.78 68.4218 42.9525 68.389C43.0395 68.3726 43.125 68.3398 43.206 68.2921C43.5825 68.0699 43.707 67.5868 43.482 67.2126V67.214Z" fill="#A9EAE4" stroke="#231F20" stroke-width="0.151915" stroke-linecap="round" stroke-linejoin="round"/>
<path d="M71.0258 39.5014C73.4175 39.5014 75.3563 37.5742 75.3563 35.1967C75.3563 32.8193 73.4175 30.8921 71.0258 30.8921C68.6341 30.8921 66.6953 32.8193 66.6953 35.1967C66.6953 37.5742 68.6341 39.5014 71.0258 39.5014Z" fill="white" stroke="#231F20" stroke-width="0.151915" stroke-miterlimit="10"/>
<path d="M50.2686 54.6863C52.6603 54.6863 54.5991 52.759 54.5991 50.3816C54.5991 48.0042 52.6603 46.0769 50.2686 46.0769C47.8769 46.0769 45.9381 48.0042 45.9381 50.3816C45.9381 52.759 47.8769 54.6863 50.2686 54.6863Z" fill="white" stroke="#231F20" stroke-width="0.151915" stroke-miterlimit="10"/>
<path d="M37.8563 49.0829C39.6059 49.0829 41.0243 47.673 41.0243 45.9338C41.0243 44.1946 39.6059 42.7847 37.8563 42.7847C36.1067 42.7847 34.6883 44.1946 34.6883 45.9338C34.6883 47.673 36.1067 49.0829 37.8563 49.0829Z" fill="white" stroke="#231F20" stroke-width="0.151915" stroke-miterlimit="10"/>
<path d="M95.6166 46.001C98.0083 46.001 99.9471 44.0737 99.9471 41.6963C99.9471 39.3189 98.0083 37.3916 95.6166 37.3916C93.225 37.3916 91.2861 39.3189 91.2861 41.6963C91.2861 44.0737 93.225 46.001 95.6166 46.001Z" fill="white" stroke="#231F20" stroke-width="0.151915" stroke-miterlimit="10"/>
<path d="M105.478 36.1317C107.227 36.1317 108.646 34.7218 108.646 32.9826C108.646 31.2434 107.227 29.8335 105.478 29.8335C103.728 29.8335 102.31 31.2434 102.31 32.9826C102.31 34.7218 103.728 36.1317 105.478 36.1317Z" fill="white" stroke="#231F20" stroke-width="0.151915" stroke-miterlimit="10"/>
<path d="M72.7854 44.2728L81.8379 54.7102L77.3349 67.745L68.2824 57.3076L72.7854 44.2728Z" fill="#A9EAE4" stroke="#231F20" stroke-width="0.151915" stroke-linecap="round" stroke-linejoin="round"/>
<path d="M73.7692 49.3468L78.9082 55.2723L76.3522 62.6709L71.2132 56.7454L73.7692 49.3468Z" fill="white" stroke="#231F20" stroke-width="0.151915" stroke-miterlimit="10"/>
<path d="M51.5971 56.0462L55.2616 61.6019L53.9356 68.1148L49.2811 62.7485L51.5971 56.0462Z" fill="#A9EAE4" stroke="#231F20" stroke-width="0.151915" stroke-linecap="round" stroke-linejoin="round"/>
<path d="M96.8595 47.3773L95.535 53.8887L99.1995 59.4459L101.514 52.7436L96.8595 47.3773Z" fill="#A9EAE4" stroke="#231F20" stroke-width="0.151915" stroke-linecap="round" stroke-linejoin="round"/>
<path d="M35.3468 94.1531C32.1353 94.1531 29.5328 96.74 29.5328 99.9324C29.5328 96.74 26.9303 94.1531 23.7188 94.1531C26.9303 94.1531 29.5328 91.5661 29.5328 88.3737C29.5328 91.5661 32.1353 94.1531 35.3468 94.1531Z" fill="white" stroke="#231F20" stroke-width="0.151915" stroke-miterlimit="10"/>
<path d="M98.6014 95.3732C96.0604 95.3732 94.0009 97.4204 94.0009 99.9462C94.0009 97.4204 91.9414 95.3732 89.4004 95.3732C91.9414 95.3732 94.0009 93.3259 94.0009 90.8001C94.0009 93.3259 96.0604 95.3732 98.6014 95.3732Z" fill="white" stroke="#231F20" stroke-width="0.151915" stroke-miterlimit="10"/>
<path d="M26.6524 24.3195C24.3514 24.3195 22.4854 26.1729 22.4854 28.4617C22.4854 26.1744 20.6209 24.3195 18.3184 24.3195C20.6194 24.3195 22.4854 22.4662 22.4854 20.1774C22.4854 22.4647 24.3499 24.3195 26.6524 24.3195Z" fill="white" stroke="#231F20" stroke-width="0.151915" stroke-miterlimit="10"/>
<path d="M137.125 41.2729C134.824 41.2729 132.958 43.1262 132.958 45.415C132.958 43.1277 131.094 41.2729 128.791 41.2729C131.092 41.2729 132.958 39.4195 132.958 37.1307C132.958 39.418 134.823 41.2729 137.125 41.2729Z" fill="white" stroke="#231F20" stroke-width="0.151915" stroke-miterlimit="10"/>
<path d="M71.334 1.14206C69.033 1.14206 67.167 2.99544 67.167 5.28421C67.167 2.99693 65.3025 1.14206 63 1.14206C65.301 1.14206 67.167 -0.711324 67.167 -3.00009C67.167 -0.712815 69.0315 1.14206 71.334 1.14206Z" fill="white" stroke="#231F20" stroke-width="0.151915" stroke-miterlimit="10"/>
</g>
<defs>
<clipPath id="clip0_6609_2467">
<rect width="150" height="120" fill="white"/>
</clipPath>
</defs>
</svg>
