<svg preserveAspectRatio="none" width="100%" height="100%" overflow="visible" style="display: block;" viewBox="0 0 106.988 52.3015" fill="none" xmlns="http://www.w3.org/2000/svg">
<g id="platform">
<path id="Rectangle 3464124" d="M49.001 1.10732C51.3696 0.331815 53.9214 0.320207 56.2969 1.07413L101.134 15.3043C101.986 15.5745 102.563 16.3677 102.559 17.2622L102.487 33.6376C102.483 34.5096 101.927 35.2832 101.103 35.564L54.4574 51.4537C53.0073 51.9476 51.4332 51.9371 49.9898 51.4237L5.4532 35.5824C4.63285 35.2906 4.08756 34.5098 4.09523 33.6379L4.23958 17.2273C4.2473 16.3496 4.81349 15.5748 5.64641 15.3021L49.001 1.10732Z" fill="var(--fill-0, #F3F2FF)"/>
<path id="Vector 286" d="M5.06459 19.0705L34.3589 29.5388L51.3948 34.9495C51.4853 34.9782 51.582 34.9812 51.674 34.958L66.4212 31.2397L101.102 19.3684C101.17 19.3452 101.232 19.3082 101.284 19.2595L102.233 18.3791C102.337 18.2825 102.396 18.1471 102.396 18.0052V16.9263C102.396 16.8319 102.369 16.7393 102.32 16.6589L101.806 15.8232C101.747 15.7279 101.659 15.6545 101.554 15.6144L98.3985 14.4006L74.1604 6.74649L56.4708 1.30355L53.9767 0.721577C53.9386 0.712708 53.8997 0.708229 53.8607 0.708229H51.4268C51.3878 0.708229 51.3489 0.712708 51.3109 0.721577L48.8167 1.30355L5.22695 15.4385C5.0936 15.4817 4.98391 15.5779 4.92364 15.7045L4.26359 17.0906C4.20239 17.2191 4.19766 17.3673 4.25052 17.4995L4.76253 18.7795C4.81685 18.9153 4.92685 19.0213 5.06459 19.0705Z" fill="var(--fill-0, white)"/>
<path id="Vector 259" d="M4.16743 17.2066L4.08925 33.6496C4.08513 34.5155 4.62787 35.2898 5.44329 35.5813L48.856 51.0996C51.0329 51.8778 53.4094 51.8938 55.5966 51.145L101.1 35.5672C101.926 35.2847 102.48 34.5086 102.48 33.6362V17.1214" stroke="var(--stroke-0, black)" stroke-width="0.5"/>
<path id="Vector 258" d="M5.39996 19.1541C17.9186 23.8382 48.1879 34.9935 52.5332 34.9935C58.0332 34.9935 72.5442 29.1322 72.5442 29.1322L101.163 19.2236C103.02 18.5805 102.984 15.9411 101.11 15.3486L56.7224 1.31637C54.0144 0.460294 51.1064 0.472993 48.406 1.35268L5.50337 15.3288C3.67207 15.9253 3.59608 18.4791 5.39996 19.1541Z" stroke="var(--stroke-0, black)" stroke-width="0.5" stroke-linecap="round"/>
</g>
</svg>
