<svg width="20" height="21" viewBox="0 0 20 21" fill="none" xmlns="http://www.w3.org/2000/svg">
<path d="M1.66669 13.8335C1.66669 11.8844 1.66669 10.9099 2.11374 10.1984C2.34686 9.82739 2.66058 9.51367 3.03159 9.28055C3.74308 8.8335 4.71761 8.8335 6.66669 8.8335H13.3334C15.2824 8.8335 16.257 8.8335 16.9684 9.28055C17.3395 9.51367 17.6532 9.82739 17.8863 10.1984C18.3334 10.9099 18.3334 11.8844 18.3334 13.8335C18.3334 15.7826 18.3334 16.7571 17.8863 17.4686C17.6532 17.8396 17.3395 18.1533 16.9684 18.3864C16.257 18.8335 15.2824 18.8335 13.3334 18.8335H6.66669C4.71761 18.8335 3.74308 18.8335 3.03159 18.3864C2.66058 18.1533 2.34686 17.8396 2.11374 17.4686C1.66669 16.7571 1.66669 15.7826 1.66669 13.8335Z" stroke="#787878" stroke-linecap="round" stroke-linejoin="round"/>
<path d="M16.6666 8.83333C16.6666 7.66656 16.6666 7.08317 16.4396 6.63752C16.2398 6.24552 15.9211 5.92681 15.5291 5.72707C15.0835 5.5 14.5001 5.5 13.3333 5.5H6.66665C5.49987 5.5 4.91648 5.5 4.47083 5.72707C4.07883 5.92681 3.76012 6.24552 3.56038 6.63752C3.33331 7.08317 3.33331 7.66656 3.33331 8.83333" stroke="#787878" stroke-linecap="round" stroke-linejoin="round"/>
<path d="M15 5.50033C15 3.92898 15 3.1433 14.5118 2.65515C14.0237 2.16699 13.238 2.16699 11.6667 2.16699H8.33333C6.76198 2.16699 5.97631 2.16699 5.48816 2.65515C5 3.1433 5 3.92898 5 5.50033" stroke="#787878" stroke-linecap="round" stroke-linejoin="round"/>
<path d="M12.5 12.167C12.5 13.0875 11.7538 13.8337 10.8333 13.8337H9.16667C8.24619 13.8337 7.5 13.0875 7.5 12.167" stroke="#787878" stroke-linecap="round"/>
</svg>
