<svg width="20" height="21" viewBox="0 0 20 21" fill="none" xmlns="http://www.w3.org/2000/svg">
<path d="M7.14288 6.33333V4.5C7.14288 4.10218 7.29339 3.72064 7.5613 3.43934C7.82921 3.15804 8.19257 3 8.57145 3H11.4286C11.8075 3 12.1708 3.15804 12.4387 3.43934C12.7067 3.72064 12.8572 4.10218 12.8572 4.5V6.33333M15.8334 6.33333L15 16.5C15 16.8978 14.8495 17.2794 14.5816 17.5607C14.3137 17.842 13.9503 18 13.5714 18H6.42859C6.04971 18 5.68635 17.842 5.41844 17.5607C5.15053 17.2794 5.00002 16.8978 5.00002 16.5L4.16669 6.33333H15.8334Z" stroke="#787878" stroke-linecap="round" stroke-linejoin="round"/>
<path d="M3.33331 6.3335H4.81479H16.6666" stroke="#787878" stroke-linecap="round" stroke-linejoin="round"/>
<path d="M8.33331 9.6665V13.8332" stroke="#787878" stroke-linecap="round" stroke-linejoin="round"/>
<path d="M11.6667 9.6665V13.8332" stroke="#787878" stroke-linecap="round" stroke-linejoin="round"/>
</svg>
