<svg width="20" height="21" viewBox="0 0 20 21" fill="none" xmlns="http://www.w3.org/2000/svg">
<path d="M3.33301 6.71533H16.6663" stroke="#787878" stroke-linecap="round" stroke-linejoin="round"/>
<path d="M13.333 2.54858V4.21525" stroke="#787878" stroke-linecap="round" stroke-linejoin="round"/>
<path d="M6.66699 2.54858V4.21525" stroke="#787878" stroke-linecap="round" stroke-linejoin="round"/>
<path d="M2.5 5.0485C2.5 4.12803 3.24619 3.38184 4.16667 3.38184H15.8333C16.7538 3.38184 17.5 4.12803 17.5 5.0485V15.8818C17.5 16.8023 16.7538 17.5485 15.8333 17.5485H4.16667C3.24619 17.5485 2.5 16.8023 2.5 15.8818V5.0485Z" stroke="#787878" stroke-linecap="round" stroke-linejoin="round"/>
<path d="M13.333 13.7986H13.335V13.8006H13.333V13.7986Z" stroke="#787878" stroke-linecap="round" stroke-linejoin="round"/>
<path d="M10 13.7986H10.002V13.8006H10V13.7986Z" stroke="#787878" stroke-linecap="round" stroke-linejoin="round"/>
<path d="M6.66699 13.7986H6.66899V13.8006H6.66699V13.7986Z" stroke="#787878" stroke-linecap="round" stroke-linejoin="round"/>
<path d="M13.333 10.4653H13.335V10.4673H13.333V10.4653Z" stroke="#787878" stroke-linecap="round" stroke-linejoin="round"/>
<path d="M10 10.4653H10.002V10.4673H10V10.4653Z" stroke="#787878" stroke-linecap="round" stroke-linejoin="round"/>
<path d="M6.66699 10.4653H6.66899V10.4673H6.66699V10.4653Z" stroke="#787878" stroke-linecap="round" stroke-linejoin="round"/>
</svg>
