<svg width="20" height="21" viewBox="0 0 20 21" fill="none" xmlns="http://www.w3.org/2000/svg">
<path d="M17.3573 11.2175C17.5 10.873 17.5 10.4361 17.5 9.5625C17.5 8.68886 17.5 8.25204 17.3573 7.90747C17.167 7.44804 16.802 7.08303 16.3425 6.89273C15.998 6.75 15.5611 6.75 14.6875 6.75H9.25C8.1999 6.75 7.67485 6.75 7.27377 6.95436C6.92096 7.13413 6.63413 7.42096 6.45436 7.77377C6.25 8.17485 6.25 8.6999 6.25 9.75V15.1875C6.25 16.0611 6.25 16.498 6.39273 16.8425C6.58303 17.302 6.94804 17.667 7.40747 17.8573C7.75204 18 8.18886 18 9.0625 18C9.93614 18 10.373 18 10.7175 17.8573M17.3573 11.2175C17.167 11.677 16.802 12.042 16.3425 12.2323C15.998 12.375 15.5611 12.375 14.6875 12.375C13.8139 12.375 13.377 12.375 13.0325 12.5177C12.573 12.708 12.208 13.073 12.0177 13.5325C11.875 13.877 11.875 14.3139 11.875 15.1875C11.875 16.0611 11.875 16.498 11.7323 16.8425C11.542 17.302 11.177 17.667 10.7175 17.8573M17.3573 11.2175C16.447 14.3573 14.0211 16.8303 10.8994 17.8007L10.7175 17.8573M13.75 6.75L13.75 6C13.75 4.9499 13.75 4.42485 13.5456 4.02377C13.3659 3.67096 13.079 3.38413 12.7262 3.20436C12.3251 3 11.8001 3 10.75 3H5.5C4.4499 3 3.92485 3 3.52377 3.20436C3.17096 3.38413 2.88413 3.67096 2.70436 4.02377C2.5 4.42485 2.5 4.9499 2.5 6V11.25C2.5 12.3001 2.5 12.8251 2.70436 13.2262C2.88413 13.579 3.17096 13.8659 3.52377 14.0456C3.92485 14.25 4.45008 14.25 5.50055 14.25H6.25" stroke="#1D1D1B" stroke-linecap="round" stroke-linejoin="round"/>
</svg>
