<svg width="16" height="16" viewBox="0 0 16 16" fill="none" xmlns="http://www.w3.org/2000/svg">
<g clip-path="url(#clip0_6657_19916)">
<path d="M7.99967 9.33725L3.89549 14.1552C3.34477 14.8017 2.35968 14.841 1.75915 14.2405C1.15863 13.64 1.19797 12.6549 1.84447 12.1042L6.66242 8" stroke="#8E8E8E" stroke-linejoin="round"/>
<path d="M14.6667 7.93667L10.6032 12.0002M8.06349 1.3335L4 5.39699M7.55558 1.84141L4.50796 4.88903C4.50796 4.88903 6.03177 6.92077 7.55558 8.44458C9.07939 9.96839 11.1111 11.4922 11.1111 11.4922L14.1588 8.44458C14.1588 8.44458 12.635 6.41284 11.1111 4.88903C9.58733 3.36522 7.55558 1.84141 7.55558 1.84141Z" stroke="#8E8E8E" stroke-linecap="round" stroke-linejoin="round"/>
</g>
<defs>
<clipPath id="clip0_6657_19916">
<rect width="16" height="16" fill="white"/>
</clipPath>
</defs>
</svg>
