<svg width="21" height="21" viewBox="0 0 21 21" fill="none" xmlns="http://www.w3.org/2000/svg">
<path d="M10.0811 16.7151L16.7476 16.6827" stroke="#787878" stroke-linecap="round" stroke-linejoin="round"/>
<path d="M13.4387 3.92231C13.6145 3.74484 13.8235 3.60372 14.0537 3.50702C14.284 3.41032 14.5311 3.35992 14.7809 3.35871C15.0306 3.35749 15.2782 3.40548 15.5094 3.49994C15.7406 3.5944 15.951 3.73347 16.1284 3.90922C16.3059 4.08497 16.447 4.29396 16.5437 4.52424C16.6404 4.75453 16.6908 5.00161 16.692 5.25137C16.6933 5.50113 16.6453 5.74869 16.5508 5.9799C16.4563 6.21112 16.3173 6.42147 16.1415 6.59893L7.1079 15.7209L3.41446 16.7475L4.40511 13.0442L13.4387 3.92231Z" stroke="#787878" stroke-linecap="round" stroke-linejoin="round"/>
</svg>
