<svg width="20" height="21" viewBox="0 0 20 21" fill="none" xmlns="http://www.w3.org/2000/svg">
<path d="M3.33301 3.43042L16.6663 16.7638" stroke="#787878" stroke-linecap="round" stroke-linejoin="round"/>
<path d="M9.04767 4.90133C9.35868 4.86507 9.67636 4.84644 10 4.84644C13.498 4.84644 16.2999 7.02342 17.5 10.0964C17.2041 10.8542 16.8107 11.5576 16.3335 12.1872M5.88972 5.98601C4.35966 6.91948 3.17583 8.36587 2.5 10.0964C3.7001 13.1695 6.50203 15.3464 10 15.3464C11.5282 15.3464 12.9235 14.9309 14.1105 14.2068M8.40908 8.50537C8.00187 8.91255 7.75 9.47508 7.75 10.0964C7.75 11.3391 8.75736 12.3464 10 12.3464C10.6214 12.3464 11.1839 12.0946 11.5911 11.6874" stroke="#787878" stroke-linecap="round" stroke-linejoin="round"/>
<path d="M4.00098 4.0979L16.001 16.0979" stroke="#787878" stroke-linecap="round"/>
</svg>
