<svg width="25" height="24" viewBox="0 0 25 24" fill="none" xmlns="http://www.w3.org/2000/svg">
<path d="M21.5 18.2222C21.5 18.6937 21.3104 19.1459 20.9728 19.4793C20.6352 19.8127 20.1774 20 19.7 20H5.3C4.82261 20 4.36477 19.8127 4.02721 19.4793C3.68964 19.1459 3.5 18.6937 3.5 18.2222V5.77778C3.5 5.30628 3.68964 4.8541 4.02721 4.5207C4.36477 4.1873 4.82261 4 5.3 4H9.8L11.6 6.66667H19.7C20.1774 6.66667 20.6352 6.85397 20.9728 7.18737C21.3104 7.52076 21.5 7.97295 21.5 8.44444V18.2222Z" stroke="#1D1D1B" stroke-width="1.5" stroke-linecap="round" stroke-linejoin="round"/>
<path d="M9.5 14L12.5 17M12.5 17L15.5 14M12.5 17L12.5 10" stroke="#1D1D1B" stroke-width="1.5" stroke-linecap="round" stroke-linejoin="round"/>
</svg>
