<svg width="16" height="16" viewBox="0 0 16 16" fill="none" xmlns="http://www.w3.org/2000/svg">
<path d="M1.66699 7.99984C1.66699 5.01428 1.66699 3.52149 2.59449 2.594C3.52198 1.6665 5.01476 1.6665 8.00033 1.6665C10.9859 1.6665 12.4787 1.6665 13.4062 2.594C14.3337 3.52149 14.3337 5.01428 14.3337 7.99984C14.3337 10.9854 14.3337 12.4782 13.4062 13.4057C12.4787 14.3332 10.9859 14.3332 8.00033 14.3332C5.01476 14.3332 3.52198 14.3332 2.59449 13.4057C1.66699 12.4782 1.66699 10.9854 1.66699 7.99984Z" stroke="#8E8E8E"/>
<path d="M8.16178 11.3333V7.99992C8.16178 7.68565 8.16178 7.52851 8.06415 7.43088C7.96652 7.33325 7.80939 7.33325 7.49512 7.33325" stroke="#8E8E8E" stroke-linecap="round" stroke-linejoin="round"/>
<path d="M7.99499 5.33325H8.00098" stroke="#8E8E8E" stroke-linecap="round" stroke-linejoin="round"/>
</svg>
