<svg width="20" height="21" viewBox="0 0 20 21" fill="none" xmlns="http://www.w3.org/2000/svg">
<path d="M9.16699 15.0972C9.16699 14.637 9.54009 14.2639 10.0003 14.2639C10.4606 14.2639 10.8337 14.637 10.8337 15.0972C10.8337 15.5575 10.4606 15.9306 10.0003 15.9306C9.54009 15.9306 9.16699 15.5575 9.16699 15.0972Z" stroke="#787878" stroke-linecap="round" stroke-linejoin="round"/>
<path d="M9.16699 10.0972C9.16699 9.63701 9.54009 9.26392 10.0003 9.26392C10.4606 9.26392 10.8337 9.63701 10.8337 10.0972C10.8337 10.5575 10.4606 10.9306 10.0003 10.9306C9.54009 10.9306 9.16699 10.5575 9.16699 10.0972Z" stroke="#787878" stroke-linecap="round" stroke-linejoin="round"/>
<path d="M9.16699 5.09725C9.16699 4.63701 9.54009 4.26392 10.0003 4.26392C10.4606 4.26392 10.8337 4.63701 10.8337 5.09725C10.8337 5.55749 10.4606 5.93058 10.0003 5.93058C9.54009 5.93058 9.16699 5.55749 9.16699 5.09725Z" stroke="#787878" stroke-linecap="round" stroke-linejoin="round"/>
</svg>
