<svg width="40" height="40" viewBox="0 0 40 40" fill="none" xmlns="http://www.w3.org/2000/svg">
<path d="M17.2727 11.8184H12.7273C12.2252 11.8184 11.8182 12.2254 11.8182 12.7275V17.2729C11.8182 17.775 12.2252 18.182 12.7273 18.182H17.2727C17.7748 18.182 18.1818 17.775 18.1818 17.2729V12.7275C18.1818 12.2254 17.7748 11.8184 17.2727 11.8184Z" stroke="#787878" stroke-linecap="round" stroke-linejoin="round"/>
<path d="M27.2727 11.8184H22.7273C22.2252 11.8184 21.8182 12.2254 21.8182 12.7275V17.2729C21.8182 17.775 22.2252 18.182 22.7273 18.182H27.2727C27.7748 18.182 28.1818 17.775 28.1818 17.2729V12.7275C28.1818 12.2254 27.7748 11.8184 27.2727 11.8184Z" stroke="#787878" stroke-linecap="round" stroke-linejoin="round"/>
<path d="M27.2727 21.8184H22.7273C22.2252 21.8184 21.8182 22.2254 21.8182 22.7274V27.2729C21.8182 27.775 22.2252 28.182 22.7273 28.182H27.2727C27.7748 28.182 28.1818 27.775 28.1818 27.2729V22.7274C28.1818 22.2254 27.7748 21.8184 27.2727 21.8184Z" stroke="#787878" stroke-linecap="round" stroke-linejoin="round"/>
<path d="M17.2727 21.8184H12.7273C12.2252 21.8184 11.8182 22.2254 11.8182 22.7274V27.2729C11.8182 27.775 12.2252 28.182 12.7273 28.182H17.2727C17.7748 28.182 18.1818 27.775 18.1818 27.2729V22.7274C18.1818 22.2254 17.7748 21.8184 17.2727 21.8184Z" stroke="#787878" stroke-linecap="round" stroke-linejoin="round"/>
</svg>
