<svg width="20" height="20" viewBox="0 0 20 20" fill="none" xmlns="http://www.w3.org/2000/svg">
<path d="M9.71581 3.1152C9.8275 2.87306 10.1717 2.87306 10.2833 3.1152L12.2187 7.31099C12.2642 7.40968 12.3577 7.47763 12.4656 7.49043L17.0541 8.03446C17.3189 8.06586 17.4253 8.39317 17.2295 8.57422L13.8371 11.7114C13.7573 11.7852 13.7216 11.8951 13.7428 12.0017L14.6433 16.5337C14.6953 16.7953 14.4168 16.9976 14.1842 16.8673L10.1522 14.6104C10.0574 14.5574 9.94178 14.5574 9.84694 14.6104L5.81501 16.8673C5.58232 16.9976 5.30389 16.7953 5.35586 16.5337L6.25637 12.0017C6.27755 11.8951 6.24182 11.7852 6.16203 11.7114L2.76965 8.57422C2.57387 8.39317 2.68022 8.06586 2.94503 8.03446L7.53351 7.49043C7.64144 7.47763 7.73496 7.40968 7.78048 7.31099L9.71581 3.1152Z" stroke="#787878" stroke-linecap="round" stroke-linejoin="round"/>
</svg>
