<svg width="40" height="40" viewBox="0 0 40 40" fill="none" xmlns="http://www.w3.org/2000/svg">
<path d="M27.6191 12.3809H12.381C11.329 12.3809 10.4762 13.2337 10.4762 14.2856V16.1904C10.4762 17.2424 11.329 18.0951 12.381 18.0951H27.6191C28.671 18.0951 29.5238 17.2424 29.5238 16.1904V14.2856C29.5238 13.2337 28.671 12.3809 27.6191 12.3809Z" stroke="#787878" stroke-linecap="round" stroke-linejoin="round"/>
<path d="M27.6191 21.9047H12.381C11.329 21.9047 10.4762 22.7575 10.4762 23.8094V25.7142C10.4762 26.7662 11.329 27.619 12.381 27.619H27.6191C28.671 27.619 29.5238 26.7662 29.5238 25.7142V23.8094C29.5238 22.7575 28.671 21.9047 27.6191 21.9047Z" stroke="#787878" stroke-linecap="round" stroke-linejoin="round"/>
</svg>
