<svg width="16" height="16" viewBox="0 0 16 16" fill="none" xmlns="http://www.w3.org/2000/svg">
<g clip-path="url(#clip0_3231_24190)">
<path d="M7.99967 11.3335C6.88391 11.3335 5.91281 12.1769 5.41145 13.421C5.17198 14.0152 5.5156 14.6668 5.97219 14.6668H10.0272C10.4837 14.6668 10.8274 14.0152 10.5879 13.421C10.0865 12.1769 9.11544 11.3335 7.99967 11.3335Z" stroke="#8E8E8E" stroke-linecap="round"/>
<path d="M12.3327 3.3335H13.1342C13.9347 3.3335 14.335 3.3335 14.5439 3.58507C14.7527 3.83665 14.6659 4.21425 14.4922 4.96946L14.2317 6.10221C13.8399 7.80588 12.4066 9.0727 10.666 9.3335" stroke="#8E8E8E" stroke-linecap="round" stroke-linejoin="round"/>
<path d="M3.66634 3.3335H2.86487C2.06429 3.3335 1.664 3.3335 1.45517 3.58507C1.24633 3.83665 1.33317 4.21425 1.50684 4.96946L1.76733 6.10221C2.1591 7.80588 3.59242 9.0727 5.33301 9.3335" stroke="#8E8E8E" stroke-linecap="round" stroke-linejoin="round"/>
<path d="M7.99935 11.3335C10.0132 11.3335 11.7093 8.22544 12.2192 3.99409C12.3602 2.82388 12.4307 2.23878 12.0572 1.78614C11.6838 1.3335 11.0808 1.3335 9.87496 1.3335H6.12374C4.91785 1.3335 4.3149 1.3335 3.94146 1.78614C3.56802 2.23878 3.63852 2.82388 3.77952 3.99409C4.28935 8.22544 5.9855 11.3335 7.99935 11.3335Z" stroke="#8E8E8E" stroke-linecap="round"/>
</g>
<defs>
<clipPath id="clip0_3231_24190">
<rect width="16" height="16" fill="white"/>
</clipPath>
</defs>
</svg>
