<svg width="364" height="238" viewBox="0 0 364 238" fill="none" xmlns="http://www.w3.org/2000/svg">
<line x1="156.599" y1="63.2672" x2="339.163" y2="178.423" stroke="#A3A3A3" stroke-width="0.936224"/>
<line x1="160.777" y1="174.681" x2="333.042" y2="63.2704" stroke="#A3A3A3" stroke-width="0.936224"/>
<line x1="245.759" y1="210.65" x2="245.759" y2="29.9591" stroke="#A3A3A3" stroke-width="0.936224"/>
<rect x="211.586" width="65" height="62" rx="16" fill="#F2F2F2"/>
<path d="M224.434 34.5786C223.917 34.5786 223.453 34.4888 223.041 34.309C222.636 34.1218 222.318 33.8671 222.086 33.5451C221.854 33.2155 221.734 32.8373 221.726 32.4103H222.816C222.854 32.7773 223.003 33.0882 223.265 33.3428C223.535 33.59 223.925 33.7136 224.434 33.7136C224.921 33.7136 225.303 33.5937 225.58 33.3541C225.864 33.1069 226.007 32.7923 226.007 32.4103C226.007 32.1108 225.924 31.8673 225.76 31.6801C225.595 31.4928 225.389 31.3505 225.142 31.2532C224.894 31.1558 224.561 31.0509 224.142 30.9386C223.625 30.8038 223.209 30.669 222.895 30.5342C222.588 30.3993 222.322 30.1896 222.097 29.905C221.88 29.6129 221.771 29.2234 221.771 28.7366C221.771 28.3097 221.88 27.9314 222.097 27.6019C222.314 27.2723 222.618 27.0177 223.007 26.8379C223.404 26.6582 223.857 26.5683 224.366 26.5683C225.1 26.5683 225.7 26.7518 226.164 27.1188C226.636 27.4858 226.902 27.9726 226.962 28.5793H225.838C225.801 28.2797 225.643 28.0176 225.366 27.7929C225.089 27.5607 224.722 27.4446 224.265 27.4446C223.838 27.4446 223.49 27.557 223.221 27.7817C222.951 27.9989 222.816 28.3059 222.816 28.7029C222.816 28.9875 222.895 29.2197 223.052 29.3994C223.217 29.5792 223.415 29.7178 223.647 29.8151C223.887 29.905 224.22 30.0099 224.647 30.1297C225.164 30.272 225.58 30.4143 225.894 30.5566C226.209 30.6914 226.479 30.9049 226.703 31.197C226.928 31.4816 227.04 31.8711 227.04 32.3654C227.04 32.7474 226.939 33.1069 226.737 33.4439C226.535 33.781 226.235 34.0544 225.838 34.2641C225.441 34.4738 224.973 34.5786 224.434 34.5786ZM234.005 28.3434V34.5H232.983V33.59C232.788 33.9046 232.514 34.1517 232.162 34.3315C231.818 34.5037 231.436 34.5899 231.016 34.5899C230.537 34.5899 230.106 34.4925 229.724 34.2978C229.342 34.0956 229.039 33.796 228.814 33.399C228.597 33.002 228.489 32.5189 228.489 31.9497V28.3434H229.5V31.8149C229.5 32.4216 229.653 32.8897 229.96 33.2192C230.267 33.5413 230.687 33.7023 231.219 33.7023C231.765 33.7023 232.196 33.5338 232.511 33.1968C232.825 32.8597 232.983 32.3692 232.983 31.725V28.3434H234.005ZM236.753 29.4781C236.956 29.1261 237.255 28.834 237.652 28.6018C238.057 28.3621 238.525 28.2423 239.057 28.2423C239.603 28.2423 240.098 28.3733 240.54 28.6355C240.989 28.8976 241.341 29.2684 241.596 29.7477C241.85 30.2196 241.978 30.7701 241.978 31.3992C241.978 32.0209 241.85 32.5751 241.596 33.062C241.341 33.5488 240.989 33.927 240.54 34.1967C240.098 34.4663 239.603 34.6011 239.057 34.6011C238.532 34.6011 238.068 34.485 237.663 34.2528C237.266 34.0132 236.963 33.7173 236.753 33.3653V37.421H235.731V28.3434H236.753V29.4781ZM240.933 31.3992C240.933 30.9349 240.839 30.5304 240.652 30.1859C240.465 29.8413 240.21 29.5792 239.888 29.3994C239.573 29.2197 239.225 29.1298 238.843 29.1298C238.469 29.1298 238.12 29.2234 237.798 29.4107C237.484 29.5904 237.229 29.8563 237.034 30.2083C236.847 30.5529 236.753 30.9536 236.753 31.4105C236.753 31.8748 236.847 32.283 237.034 32.635C237.229 32.9796 237.484 33.2455 237.798 33.4327C238.12 33.6125 238.469 33.7023 238.843 33.7023C239.225 33.7023 239.573 33.6125 239.888 33.4327C240.21 33.2455 240.465 32.9796 240.652 32.635C240.839 32.283 240.933 31.8711 240.933 31.3992ZM244.346 29.4781C244.548 29.1261 244.847 28.834 245.244 28.6018C245.649 28.3621 246.117 28.2423 246.649 28.2423C247.195 28.2423 247.69 28.3733 248.132 28.6355C248.581 28.8976 248.933 29.2684 249.188 29.7477C249.442 30.2196 249.57 30.7701 249.57 31.3992C249.57 32.0209 249.442 32.5751 249.188 33.062C248.933 33.5488 248.581 33.927 248.132 34.1967C247.69 34.4663 247.195 34.6011 246.649 34.6011C246.124 34.6011 245.66 34.485 245.256 34.2528C244.859 34.0132 244.555 33.7173 244.346 33.3653V37.421H243.323V28.3434H244.346V29.4781ZM248.525 31.3992C248.525 30.9349 248.431 30.5304 248.244 30.1859C248.057 29.8413 247.802 29.5792 247.48 29.3994C247.166 29.2197 246.817 29.1298 246.435 29.1298C246.061 29.1298 245.713 29.2234 245.39 29.4107C245.076 29.5904 244.821 29.8563 244.626 30.2083C244.439 30.5529 244.346 30.9536 244.346 31.4105C244.346 31.8748 244.439 32.283 244.626 32.635C244.821 32.9796 245.076 33.2455 245.39 33.4327C245.713 33.6125 246.061 33.7023 246.435 33.7023C246.817 33.7023 247.166 33.6125 247.48 33.4327C247.802 33.2455 248.057 32.9796 248.244 32.635C248.431 32.283 248.525 31.8711 248.525 31.3992ZM251.938 26.1863V34.5H250.915V26.1863H251.938ZM254.208 27.3435C254.014 27.3435 253.849 27.2761 253.714 27.1413C253.579 27.0065 253.512 26.8417 253.512 26.6469C253.512 26.4522 253.579 26.2874 253.714 26.1526C253.849 26.0178 254.014 25.9504 254.208 25.9504C254.396 25.9504 254.553 26.0178 254.68 26.1526C254.815 26.2874 254.882 26.4522 254.882 26.6469C254.882 26.8417 254.815 27.0065 254.68 27.1413C254.553 27.2761 254.396 27.3435 254.208 27.3435ZM254.703 28.3434V34.5H253.68V28.3434H254.703ZM262.062 31.1858C262.062 31.3805 262.051 31.5865 262.029 31.8037H257.108C257.145 32.4103 257.351 32.8859 257.726 33.2305C258.108 33.5675 258.568 33.736 259.108 33.736C259.55 33.736 259.917 33.6349 260.209 33.4327C260.508 33.223 260.718 32.9459 260.838 32.6013H261.939C261.774 33.193 261.444 33.6761 260.95 34.0506C260.456 34.4176 259.842 34.6011 259.108 34.6011C258.523 34.6011 257.999 34.47 257.535 34.2079C257.078 33.9458 256.718 33.575 256.456 33.0957C256.194 32.6088 256.063 32.0471 256.063 31.4105C256.063 30.7738 256.19 30.2158 256.445 29.7365C256.7 29.2571 257.055 28.8901 257.512 28.6355C257.977 28.3733 258.508 28.2423 259.108 28.2423C259.692 28.2423 260.209 28.3696 260.658 28.6243C261.107 28.8789 261.452 29.2309 261.692 29.6803C261.939 30.1222 262.062 30.624 262.062 31.1858ZM261.006 30.9723C261.006 30.5828 260.92 30.2495 260.748 29.9724C260.576 29.6878 260.34 29.4743 260.04 29.332C259.748 29.1822 259.422 29.1073 259.063 29.1073C258.546 29.1073 258.104 29.2721 257.737 29.6017C257.378 29.9312 257.172 30.3881 257.119 30.9723H261.006ZM264.434 29.3433C264.614 28.9913 264.869 28.7179 265.198 28.5231C265.535 28.3284 265.943 28.231 266.423 28.231V29.2871H266.153C265.007 29.2871 264.434 29.9088 264.434 31.1521V34.5H263.412V28.3434H264.434V29.3433Z" fill="#263027"/>
<rect x="211.586" y="175.074" width="65" height="62" rx="16" fill="#F2F2F2"/>
<path d="M224.434 209.653C223.917 209.653 223.453 209.563 223.041 209.383C222.636 209.196 222.318 208.941 222.086 208.619C221.854 208.29 221.734 207.911 221.726 207.485H222.816C222.854 207.852 223.003 208.162 223.265 208.417C223.535 208.664 223.925 208.788 224.434 208.788C224.921 208.788 225.303 208.668 225.58 208.428C225.864 208.181 226.007 207.867 226.007 207.485C226.007 207.185 225.924 206.942 225.76 206.754C225.595 206.567 225.389 206.425 225.142 206.327C224.894 206.23 224.561 206.125 224.142 206.013C223.625 205.878 223.209 205.743 222.895 205.608C222.588 205.474 222.322 205.264 222.097 204.979C221.88 204.687 221.771 204.298 221.771 203.811C221.771 203.384 221.88 203.006 222.097 202.676C222.314 202.347 222.618 202.092 223.007 201.912C223.404 201.732 223.857 201.643 224.366 201.643C225.1 201.643 225.7 201.826 226.164 202.193C226.636 202.56 226.902 203.047 226.962 203.654H225.838C225.801 203.354 225.643 203.092 225.366 202.867C225.089 202.635 224.722 202.519 224.265 202.519C223.838 202.519 223.49 202.631 223.221 202.856C222.951 203.073 222.816 203.38 222.816 203.777C222.816 204.062 222.895 204.294 223.052 204.474C223.217 204.653 223.415 204.792 223.647 204.889C223.887 204.979 224.22 205.084 224.647 205.204C225.164 205.346 225.58 205.489 225.894 205.631C226.209 205.766 226.479 205.979 226.703 206.271C226.928 206.556 227.04 206.945 227.04 207.44C227.04 207.822 226.939 208.181 226.737 208.518C226.535 208.855 226.235 209.129 225.838 209.338C225.441 209.548 224.973 209.653 224.434 209.653ZM234.005 203.418V209.574H232.983V208.664C232.788 208.979 232.514 209.226 232.162 209.406C231.818 209.578 231.436 209.664 231.016 209.664C230.537 209.664 230.106 209.567 229.724 209.372C229.342 209.17 229.039 208.87 228.814 208.473C228.597 208.076 228.489 207.593 228.489 207.024V203.418H229.5V206.889C229.5 207.496 229.653 207.964 229.96 208.293C230.267 208.616 230.687 208.777 231.219 208.777C231.765 208.777 232.196 208.608 232.511 208.271C232.825 207.934 232.983 207.443 232.983 206.799V203.418H234.005ZM236.753 204.552C236.956 204.2 237.255 203.908 237.652 203.676C238.057 203.436 238.525 203.316 239.057 203.316C239.603 203.316 240.098 203.448 240.54 203.71C240.989 203.972 241.341 204.343 241.596 204.822C241.85 205.294 241.978 205.844 241.978 206.473C241.978 207.095 241.85 207.649 241.596 208.136C241.341 208.623 240.989 209.001 240.54 209.271C240.098 209.541 239.603 209.675 239.057 209.675C238.532 209.675 238.068 209.559 237.663 209.327C237.266 209.087 236.963 208.792 236.753 208.44V212.495H235.731V203.418H236.753V204.552ZM240.933 206.473C240.933 206.009 240.839 205.605 240.652 205.26C240.465 204.916 240.21 204.653 239.888 204.474C239.573 204.294 239.225 204.204 238.843 204.204C238.469 204.204 238.12 204.298 237.798 204.485C237.484 204.665 237.229 204.931 237.034 205.283C236.847 205.627 236.753 206.028 236.753 206.485C236.753 206.949 236.847 207.357 237.034 207.709C237.229 208.054 237.484 208.32 237.798 208.507C238.12 208.687 238.469 208.777 238.843 208.777C239.225 208.777 239.573 208.687 239.888 208.507C240.21 208.32 240.465 208.054 240.652 207.709C240.839 207.357 240.933 206.945 240.933 206.473ZM244.346 204.552C244.548 204.2 244.847 203.908 245.244 203.676C245.649 203.436 246.117 203.316 246.649 203.316C247.195 203.316 247.69 203.448 248.132 203.71C248.581 203.972 248.933 204.343 249.188 204.822C249.442 205.294 249.57 205.844 249.57 206.473C249.57 207.095 249.442 207.649 249.188 208.136C248.933 208.623 248.581 209.001 248.132 209.271C247.69 209.541 247.195 209.675 246.649 209.675C246.124 209.675 245.66 209.559 245.256 209.327C244.859 209.087 244.555 208.792 244.346 208.44V212.495H243.323V203.418H244.346V204.552ZM248.525 206.473C248.525 206.009 248.431 205.605 248.244 205.26C248.057 204.916 247.802 204.653 247.48 204.474C247.166 204.294 246.817 204.204 246.435 204.204C246.061 204.204 245.713 204.298 245.39 204.485C245.076 204.665 244.821 204.931 244.626 205.283C244.439 205.627 244.346 206.028 244.346 206.485C244.346 206.949 244.439 207.357 244.626 207.709C244.821 208.054 245.076 208.32 245.39 208.507C245.713 208.687 246.061 208.777 246.435 208.777C246.817 208.777 247.166 208.687 247.48 208.507C247.802 208.32 248.057 208.054 248.244 207.709C248.431 207.357 248.525 206.945 248.525 206.473ZM251.938 201.261V209.574H250.915V201.261H251.938ZM254.208 202.418C254.014 202.418 253.849 202.35 253.714 202.215C253.579 202.081 253.512 201.916 253.512 201.721C253.512 201.526 253.579 201.362 253.714 201.227C253.849 201.092 254.014 201.025 254.208 201.025C254.396 201.025 254.553 201.092 254.68 201.227C254.815 201.362 254.882 201.526 254.882 201.721C254.882 201.916 254.815 202.081 254.68 202.215C254.553 202.35 254.396 202.418 254.208 202.418ZM254.703 203.418V209.574H253.68V203.418H254.703ZM262.062 206.26C262.062 206.455 262.051 206.661 262.029 206.878H257.108C257.145 207.485 257.351 207.96 257.726 208.305C258.108 208.642 258.568 208.81 259.108 208.81C259.55 208.81 259.917 208.709 260.209 208.507C260.508 208.297 260.718 208.02 260.838 207.676H261.939C261.774 208.267 261.444 208.75 260.95 209.125C260.456 209.492 259.842 209.675 259.108 209.675C258.523 209.675 257.999 209.544 257.535 209.282C257.078 209.02 256.718 208.649 256.456 208.17C256.194 207.683 256.063 207.121 256.063 206.485C256.063 205.848 256.19 205.29 256.445 204.811C256.7 204.331 257.055 203.964 257.512 203.71C257.977 203.448 258.508 203.316 259.108 203.316C259.692 203.316 260.209 203.444 260.658 203.698C261.107 203.953 261.452 204.305 261.692 204.755C261.939 205.196 262.062 205.698 262.062 206.26ZM261.006 206.047C261.006 205.657 260.92 205.324 260.748 205.047C260.576 204.762 260.34 204.549 260.04 204.406C259.748 204.256 259.422 204.182 259.063 204.182C258.546 204.182 258.104 204.346 257.737 204.676C257.378 205.005 257.172 205.462 257.119 206.047H261.006ZM264.434 204.417C264.614 204.065 264.869 203.792 265.198 203.597C265.535 203.403 265.943 203.305 266.423 203.305V204.361H266.153C265.007 204.361 264.434 204.983 264.434 206.226V209.574H263.412V203.418H264.434V204.417Z" fill="#263027"/>
<rect x="124.518" y="46.8113" width="65" height="62" rx="16" fill="#F2F2F2"/>
<path d="M137.366 81.3899C136.849 81.3899 136.384 81.3 135.972 81.1203C135.568 80.933 135.25 80.6784 135.017 80.3563C134.785 80.0268 134.665 79.6485 134.658 79.2216H135.748C135.785 79.5886 135.935 79.8995 136.197 80.1541C136.467 80.4013 136.856 80.5249 137.366 80.5249C137.852 80.5249 138.234 80.405 138.511 80.1653C138.796 79.9182 138.938 79.6036 138.938 79.2216C138.938 78.922 138.856 78.6786 138.691 78.4914C138.526 78.3041 138.32 78.1618 138.073 78.0645C137.826 77.9671 137.493 77.8622 137.073 77.7499C136.557 77.6151 136.141 77.4802 135.826 77.3454C135.519 77.2106 135.253 77.0009 135.029 76.7163C134.811 76.4242 134.703 76.0347 134.703 75.5479C134.703 75.121 134.811 74.7427 135.029 74.4132C135.246 74.0836 135.549 73.829 135.939 73.6492C136.336 73.4695 136.789 73.3796 137.298 73.3796C138.032 73.3796 138.631 73.5631 139.096 73.9301C139.568 74.2971 139.833 74.7839 139.893 75.3906H138.77C138.732 75.091 138.575 74.8289 138.298 74.6042C138.021 74.372 137.654 74.2559 137.197 74.2559C136.77 74.2559 136.422 74.3682 136.152 74.5929C135.883 74.8101 135.748 75.1172 135.748 75.5142C135.748 75.7988 135.826 76.031 135.984 76.2107C136.148 76.3905 136.347 76.529 136.579 76.6264C136.819 76.7163 137.152 76.8211 137.579 76.941C138.096 77.0833 138.511 77.2256 138.826 77.3679C139.141 77.5027 139.41 77.7162 139.635 78.0083C139.86 78.2929 139.972 78.6824 139.972 79.1767C139.972 79.5587 139.871 79.9182 139.669 80.2552C139.466 80.5923 139.167 80.8656 138.77 81.0754C138.373 81.2851 137.905 81.3899 137.366 81.3899ZM146.937 75.1547V81.3113H145.914V80.4013C145.719 80.7158 145.446 80.963 145.094 81.1428C144.749 81.315 144.368 81.4012 143.948 81.4012C143.469 81.4012 143.038 81.3038 142.656 81.1091C142.274 80.9068 141.971 80.6072 141.746 80.2103C141.529 79.8133 141.42 79.3302 141.42 78.761V75.1547H142.431V78.6262C142.431 79.2329 142.585 79.701 142.892 80.0305C143.199 80.3526 143.619 80.5136 144.15 80.5136C144.697 80.5136 145.128 80.3451 145.442 80.0081C145.757 79.671 145.914 79.1804 145.914 78.5363V75.1547H146.937ZM149.685 76.2894C149.887 75.9374 150.187 75.6452 150.584 75.4131C150.988 75.1734 151.456 75.0536 151.988 75.0536C152.535 75.0536 153.029 75.1846 153.471 75.4468C153.921 75.7089 154.273 76.0797 154.527 76.559C154.782 77.0309 154.909 77.5814 154.909 78.2105C154.909 78.8322 154.782 79.3864 154.527 79.8732C154.273 80.3601 153.921 80.7383 153.471 81.0079C153.029 81.2776 152.535 81.4124 151.988 81.4124C151.464 81.4124 151 81.2963 150.595 81.0641C150.198 80.8244 149.895 80.5286 149.685 80.1766V84.2323H148.663V75.1547H149.685V76.2894ZM153.864 78.2105C153.864 77.7461 153.771 77.3417 153.583 76.9972C153.396 76.6526 153.142 76.3905 152.82 76.2107C152.505 76.031 152.157 75.9411 151.775 75.9411C151.4 75.9411 151.052 76.0347 150.73 76.222C150.415 76.4017 150.161 76.6676 149.966 77.0196C149.779 77.3642 149.685 77.7649 149.685 78.2217C149.685 78.6861 149.779 79.0943 149.966 79.4463C150.161 79.7909 150.415 80.0567 150.73 80.244C151.052 80.4237 151.4 80.5136 151.775 80.5136C152.157 80.5136 152.505 80.4237 152.82 80.244C153.142 80.0567 153.396 79.7909 153.583 79.4463C153.771 79.0943 153.864 78.6824 153.864 78.2105ZM157.277 76.2894C157.479 75.9374 157.779 75.6452 158.176 75.4131C158.58 75.1734 159.049 75.0536 159.58 75.0536C160.127 75.0536 160.621 75.1846 161.063 75.4468C161.513 75.7089 161.865 76.0797 162.119 76.559C162.374 77.0309 162.501 77.5814 162.501 78.2105C162.501 78.8322 162.374 79.3864 162.119 79.8732C161.865 80.3601 161.513 80.7383 161.063 81.0079C160.621 81.2776 160.127 81.4124 159.58 81.4124C159.056 81.4124 158.592 81.2963 158.187 81.0641C157.79 80.8244 157.487 80.5286 157.277 80.1766V84.2323H156.255V75.1547H157.277V76.2894ZM161.457 78.2105C161.457 77.7461 161.363 77.3417 161.176 76.9972C160.988 76.6526 160.734 76.3905 160.412 76.2107C160.097 76.031 159.749 75.9411 159.367 75.9411C158.992 75.9411 158.644 76.0347 158.322 76.222C158.008 76.4017 157.753 76.6676 157.558 77.0196C157.371 77.3642 157.277 77.7649 157.277 78.2217C157.277 78.6861 157.371 79.0943 157.558 79.4463C157.753 79.7909 158.008 80.0567 158.322 80.244C158.644 80.4237 158.992 80.5136 159.367 80.5136C159.749 80.5136 160.097 80.4237 160.412 80.244C160.734 80.0567 160.988 79.7909 161.176 79.4463C161.363 79.0943 161.457 78.6824 161.457 78.2105ZM164.869 72.9976V81.3113H163.847V72.9976H164.869ZM167.14 74.1548C166.945 74.1548 166.78 74.0874 166.646 73.9526C166.511 73.8177 166.443 73.653 166.443 73.4582C166.443 73.2635 166.511 73.0987 166.646 72.9639C166.78 72.8291 166.945 72.7617 167.14 72.7617C167.327 72.7617 167.484 72.8291 167.612 72.9639C167.747 73.0987 167.814 73.2635 167.814 73.4582C167.814 73.653 167.747 73.8177 167.612 73.9526C167.484 74.0874 167.327 74.1548 167.14 74.1548ZM167.634 75.1547V81.3113H166.612V75.1547H167.634ZM174.994 77.997C174.994 78.1918 174.983 78.3977 174.96 78.615H170.04C170.077 79.2216 170.283 79.6972 170.657 80.0418C171.039 80.3788 171.5 80.5473 172.039 80.5473C172.481 80.5473 172.848 80.4462 173.14 80.244C173.44 80.0343 173.65 79.7571 173.769 79.4126H174.87C174.706 80.0043 174.376 80.4874 173.882 80.8619C173.387 81.2289 172.773 81.4124 172.039 81.4124C171.455 81.4124 170.931 81.2813 170.466 81.0192C170.01 80.757 169.65 80.3863 169.388 79.9069C169.126 79.4201 168.995 78.8584 168.995 78.2217C168.995 77.5851 169.122 77.0271 169.377 76.5478C169.631 76.0684 169.987 75.7014 170.444 75.4468C170.908 75.1846 171.44 75.0536 172.039 75.0536C172.623 75.0536 173.14 75.1809 173.59 75.4355C174.039 75.6902 174.384 76.0422 174.623 76.4916C174.87 76.9335 174.994 77.4353 174.994 77.997ZM173.938 77.7836C173.938 77.3941 173.852 77.0608 173.68 76.7837C173.507 76.4991 173.271 76.2856 172.972 76.1433C172.68 75.9935 172.354 75.9186 171.994 75.9186C171.478 75.9186 171.036 76.0834 170.669 76.413C170.309 76.7425 170.103 77.1994 170.051 77.7836H173.938ZM177.366 76.1546C177.546 75.8025 177.8 75.5292 178.13 75.3344C178.467 75.1397 178.875 75.0423 179.354 75.0423V76.0984H179.085C177.939 76.0984 177.366 76.72 177.366 77.9633V81.3113H176.343V75.1547H177.366V76.1546Z" fill="#263027"/>
<rect x="124.518" y="131.072" width="65" height="62" rx="16" fill="#F2F2F2"/>
<path d="M137.366 165.65C136.849 165.65 136.384 165.56 135.972 165.381C135.568 165.193 135.25 164.939 135.017 164.617C134.785 164.287 134.665 163.909 134.658 163.482H135.748C135.785 163.849 135.935 164.16 136.197 164.414C136.467 164.662 136.856 164.785 137.366 164.785C137.852 164.785 138.234 164.665 138.511 164.426C138.796 164.178 138.938 163.864 138.938 163.482C138.938 163.182 138.856 162.939 138.691 162.752C138.526 162.564 138.32 162.422 138.073 162.325C137.826 162.227 137.493 162.122 137.073 162.01C136.557 161.875 136.141 161.741 135.826 161.606C135.519 161.471 135.253 161.261 135.029 160.977C134.811 160.684 134.703 160.295 134.703 159.808C134.703 159.381 134.811 159.003 135.029 158.673C135.246 158.344 135.549 158.089 135.939 157.909C136.336 157.73 136.789 157.64 137.298 157.64C138.032 157.64 138.631 157.823 139.096 158.19C139.568 158.557 139.833 159.044 139.893 159.651H138.77C138.732 159.351 138.575 159.089 138.298 158.864C138.021 158.632 137.654 158.516 137.197 158.516C136.77 158.516 136.422 158.628 136.152 158.853C135.883 159.07 135.748 159.377 135.748 159.774C135.748 160.059 135.826 160.291 135.984 160.471C136.148 160.651 136.347 160.789 136.579 160.887C136.819 160.977 137.152 161.081 137.579 161.201C138.096 161.344 138.511 161.486 138.826 161.628C139.141 161.763 139.41 161.976 139.635 162.269C139.86 162.553 139.972 162.943 139.972 163.437C139.972 163.819 139.871 164.178 139.669 164.515C139.466 164.853 139.167 165.126 138.77 165.336C138.373 165.545 137.905 165.65 137.366 165.65ZM146.937 159.415V165.572H145.914V164.662C145.719 164.976 145.446 165.223 145.094 165.403C144.749 165.575 144.368 165.661 143.948 165.661C143.469 165.661 143.038 165.564 142.656 165.369C142.274 165.167 141.971 164.867 141.746 164.471C141.529 164.074 141.42 163.59 141.42 163.021V159.415H142.431V162.886C142.431 163.493 142.585 163.961 142.892 164.291C143.199 164.613 143.619 164.774 144.15 164.774C144.697 164.774 145.128 164.605 145.442 164.268C145.757 163.931 145.914 163.441 145.914 162.797V159.415H146.937ZM149.685 160.55C149.887 160.198 150.187 159.906 150.584 159.673C150.988 159.434 151.456 159.314 151.988 159.314C152.535 159.314 153.029 159.445 153.471 159.707C153.921 159.969 154.273 160.34 154.527 160.819C154.782 161.291 154.909 161.842 154.909 162.471C154.909 163.092 154.782 163.647 154.527 164.133C154.273 164.62 153.921 164.999 153.471 165.268C153.029 165.538 152.535 165.673 151.988 165.673C151.464 165.673 151 165.557 150.595 165.324C150.198 165.085 149.895 164.789 149.685 164.437V168.493H148.663V159.415H149.685V160.55ZM153.864 162.471C153.864 162.006 153.771 161.602 153.583 161.257C153.396 160.913 153.142 160.651 152.82 160.471C152.505 160.291 152.157 160.201 151.775 160.201C151.4 160.201 151.052 160.295 150.73 160.482C150.415 160.662 150.161 160.928 149.966 161.28C149.779 161.624 149.685 162.025 149.685 162.482C149.685 162.946 149.779 163.355 149.966 163.707C150.161 164.051 150.415 164.317 150.73 164.504C151.052 164.684 151.4 164.774 151.775 164.774C152.157 164.774 152.505 164.684 152.82 164.504C153.142 164.317 153.396 164.051 153.583 163.707C153.771 163.355 153.864 162.943 153.864 162.471ZM157.277 160.55C157.479 160.198 157.779 159.906 158.176 159.673C158.58 159.434 159.049 159.314 159.58 159.314C160.127 159.314 160.621 159.445 161.063 159.707C161.513 159.969 161.865 160.34 162.119 160.819C162.374 161.291 162.501 161.842 162.501 162.471C162.501 163.092 162.374 163.647 162.119 164.133C161.865 164.62 161.513 164.999 161.063 165.268C160.621 165.538 160.127 165.673 159.58 165.673C159.056 165.673 158.592 165.557 158.187 165.324C157.79 165.085 157.487 164.789 157.277 164.437V168.493H156.255V159.415H157.277V160.55ZM161.457 162.471C161.457 162.006 161.363 161.602 161.176 161.257C160.988 160.913 160.734 160.651 160.412 160.471C160.097 160.291 159.749 160.201 159.367 160.201C158.992 160.201 158.644 160.295 158.322 160.482C158.008 160.662 157.753 160.928 157.558 161.28C157.371 161.624 157.277 162.025 157.277 162.482C157.277 162.946 157.371 163.355 157.558 163.707C157.753 164.051 158.008 164.317 158.322 164.504C158.644 164.684 158.992 164.774 159.367 164.774C159.749 164.774 160.097 164.684 160.412 164.504C160.734 164.317 160.988 164.051 161.176 163.707C161.363 163.355 161.457 162.943 161.457 162.471ZM164.869 157.258V165.572H163.847V157.258H164.869ZM167.14 158.415C166.945 158.415 166.78 158.348 166.646 158.213C166.511 158.078 166.443 157.913 166.443 157.718C166.443 157.524 166.511 157.359 166.646 157.224C166.78 157.089 166.945 157.022 167.14 157.022C167.327 157.022 167.484 157.089 167.612 157.224C167.747 157.359 167.814 157.524 167.814 157.718C167.814 157.913 167.747 158.078 167.612 158.213C167.484 158.348 167.327 158.415 167.14 158.415ZM167.634 159.415V165.572H166.612V159.415H167.634ZM174.994 162.257C174.994 162.452 174.983 162.658 174.96 162.875H170.04C170.077 163.482 170.283 163.957 170.657 164.302C171.039 164.639 171.5 164.808 172.039 164.808C172.481 164.808 172.848 164.706 173.14 164.504C173.44 164.295 173.65 164.017 173.769 163.673H174.87C174.706 164.265 174.376 164.748 173.882 165.122C173.387 165.489 172.773 165.673 172.039 165.673C171.455 165.673 170.931 165.542 170.466 165.279C170.01 165.017 169.65 164.647 169.388 164.167C169.126 163.68 168.995 163.119 168.995 162.482C168.995 161.845 169.122 161.287 169.377 160.808C169.631 160.329 169.987 159.962 170.444 159.707C170.908 159.445 171.44 159.314 172.039 159.314C172.623 159.314 173.14 159.441 173.59 159.696C174.039 159.95 174.384 160.302 174.623 160.752C174.87 161.194 174.994 161.696 174.994 162.257ZM173.938 162.044C173.938 161.654 173.852 161.321 173.68 161.044C173.507 160.759 173.271 160.546 172.972 160.404C172.68 160.254 172.354 160.179 171.994 160.179C171.478 160.179 171.036 160.344 170.669 160.673C170.309 161.003 170.103 161.46 170.051 162.044H173.938ZM177.366 160.415C177.546 160.063 177.8 159.789 178.13 159.595C178.467 159.4 178.875 159.303 179.354 159.303V160.359H179.085C177.939 160.359 177.366 160.98 177.366 162.224V165.572H176.343V159.415H177.366V160.415Z" fill="#263027"/>
<rect x="298.656" y="44.939" width="65" height="62" rx="16" fill="#F2F2F2"/>
<path d="M311.504 79.5176C310.987 79.5176 310.523 79.4277 310.111 79.248C309.707 79.0607 309.388 78.8061 309.156 78.484C308.924 78.1545 308.804 77.7762 308.797 77.3493H309.886C309.924 77.7163 310.074 78.0271 310.336 78.2818C310.605 78.529 310.995 78.6525 311.504 78.6525C311.991 78.6525 312.373 78.5327 312.65 78.293C312.935 78.0459 313.077 77.7313 313.077 77.3493C313.077 77.0497 312.995 76.8063 312.83 76.6191C312.665 76.4318 312.459 76.2895 312.212 76.1921C311.965 76.0948 311.632 75.9899 311.212 75.8776C310.695 75.7428 310.28 75.6079 309.965 75.4731C309.658 75.3383 309.392 75.1286 309.167 74.844C308.95 74.5519 308.842 74.1624 308.842 73.6756C308.842 73.2486 308.95 72.8704 309.167 72.5409C309.385 72.2113 309.688 71.9567 310.077 71.7769C310.474 71.5971 310.927 71.5073 311.437 71.5073C312.171 71.5073 312.77 71.6908 313.234 72.0578C313.706 72.4248 313.972 72.9116 314.032 73.5183H312.909C312.871 73.2187 312.714 72.9565 312.437 72.7319C312.16 72.4997 311.793 72.3836 311.336 72.3836C310.909 72.3836 310.56 72.4959 310.291 72.7206C310.021 72.9378 309.886 73.2449 309.886 73.6419C309.886 73.9265 309.965 74.1587 310.122 74.3384C310.287 74.5182 310.486 74.6567 310.718 74.7541C310.957 74.844 311.291 74.9488 311.718 75.0687C312.234 75.211 312.65 75.3533 312.965 75.4956C313.279 75.6304 313.549 75.8439 313.774 76.136C313.998 76.4206 314.111 76.81 314.111 77.3044C314.111 77.6864 314.01 78.0459 313.807 78.3829C313.605 78.7199 313.305 78.9933 312.909 79.203C312.512 79.4128 312.043 79.5176 311.504 79.5176ZM321.075 73.2824V79.439H320.053V78.529C319.858 78.8435 319.585 79.0907 319.233 79.2704C318.888 79.4427 318.506 79.5288 318.087 79.5288C317.607 79.5288 317.177 79.4315 316.795 79.2367C316.413 79.0345 316.109 78.7349 315.885 78.338C315.668 77.941 315.559 77.4579 315.559 76.8887V73.2824H316.57V76.7539C316.57 77.3605 316.724 77.8287 317.031 78.1582C317.338 78.4803 317.757 78.6413 318.289 78.6413C318.836 78.6413 319.266 78.4728 319.581 78.1357C319.896 77.7987 320.053 77.3081 320.053 76.664V73.2824H321.075ZM323.824 74.4171C324.026 74.065 324.326 73.7729 324.723 73.5408C325.127 73.3011 325.595 73.1812 326.127 73.1812C326.674 73.1812 327.168 73.3123 327.61 73.5745C328.059 73.8366 328.411 74.2073 328.666 74.6867C328.921 75.1585 329.048 75.709 329.048 76.3382C329.048 76.9598 328.921 77.5141 328.666 78.0009C328.411 78.4878 328.059 78.866 327.61 79.1356C327.168 79.4053 326.674 79.5401 326.127 79.5401C325.603 79.5401 325.138 79.424 324.734 79.1918C324.337 78.9521 324.033 78.6563 323.824 78.3043V82.36H322.801V73.2824H323.824V74.4171ZM328.003 76.3382C328.003 75.8738 327.909 75.4694 327.722 75.1248C327.535 74.7803 327.28 74.5182 326.958 74.3384C326.644 74.1587 326.295 74.0688 325.913 74.0688C325.539 74.0688 325.191 74.1624 324.869 74.3496C324.554 74.5294 324.299 74.7953 324.105 75.1473C323.917 75.4918 323.824 75.8925 323.824 76.3494C323.824 76.8138 323.917 77.222 324.105 77.574C324.299 77.9185 324.554 78.1844 324.869 78.3717C325.191 78.5514 325.539 78.6413 325.913 78.6413C326.295 78.6413 326.644 78.5514 326.958 78.3717C327.28 78.1844 327.535 77.9185 327.722 77.574C327.909 77.222 328.003 76.81 328.003 76.3382ZM331.416 74.4171C331.618 74.065 331.918 73.7729 332.315 73.5408C332.719 73.3011 333.187 73.1812 333.719 73.1812C334.266 73.1812 334.76 73.3123 335.202 73.5745C335.651 73.8366 336.003 74.2073 336.258 74.6867C336.513 75.1585 336.64 75.709 336.64 76.3382C336.64 76.9598 336.513 77.5141 336.258 78.0009C336.003 78.4878 335.651 78.866 335.202 79.1356C334.76 79.4053 334.266 79.5401 333.719 79.5401C333.195 79.5401 332.73 79.424 332.326 79.1918C331.929 78.9521 331.626 78.6563 331.416 78.3043V82.36H330.394V73.2824H331.416V74.4171ZM335.595 76.3382C335.595 75.8738 335.502 75.4694 335.314 75.1248C335.127 74.7803 334.872 74.5182 334.55 74.3384C334.236 74.1587 333.888 74.0688 333.506 74.0688C333.131 74.0688 332.783 74.1624 332.461 74.3496C332.146 74.5294 331.892 74.7953 331.697 75.1473C331.51 75.4918 331.416 75.8925 331.416 76.3494C331.416 76.8138 331.51 77.222 331.697 77.574C331.892 77.9185 332.146 78.1844 332.461 78.3717C332.783 78.5514 333.131 78.6413 333.506 78.6413C333.888 78.6413 334.236 78.5514 334.55 78.3717C334.872 78.1844 335.127 77.9185 335.314 77.574C335.502 77.222 335.595 76.81 335.595 76.3382ZM339.008 71.1253V79.439H337.986V71.1253H339.008ZM341.279 72.2825C341.084 72.2825 340.919 72.2151 340.784 72.0802C340.649 71.9454 340.582 71.7806 340.582 71.5859C340.582 71.3912 340.649 71.2264 340.784 71.0916C340.919 70.9568 341.084 70.8894 341.279 70.8894C341.466 70.8894 341.623 70.9568 341.75 71.0916C341.885 71.2264 341.953 71.3912 341.953 71.5859C341.953 71.7806 341.885 71.9454 341.75 72.0802C341.623 72.2151 341.466 72.2825 341.279 72.2825ZM341.773 73.2824V79.439H340.751V73.2824H341.773ZM349.133 76.1247C349.133 76.3195 349.121 76.5254 349.099 76.7426H344.178C344.216 77.3493 344.422 77.8249 344.796 78.1694C345.178 78.5065 345.639 78.675 346.178 78.675C346.62 78.675 346.987 78.5739 347.279 78.3717C347.579 78.162 347.788 77.8848 347.908 77.5403H349.009C348.844 78.132 348.515 78.6151 348.02 78.9896C347.526 79.3566 346.912 79.5401 346.178 79.5401C345.594 79.5401 345.069 79.409 344.605 79.1469C344.148 78.8847 343.789 78.514 343.527 78.0346C343.264 77.5478 343.133 76.9861 343.133 76.3494C343.133 75.7128 343.261 75.1548 343.515 74.6755C343.77 74.1961 344.126 73.8291 344.583 73.5745C345.047 73.3123 345.579 73.1812 346.178 73.1812C346.762 73.1812 347.279 73.3086 347.728 73.5632C348.178 73.8179 348.522 74.1699 348.762 74.6193C349.009 75.0612 349.133 75.563 349.133 76.1247ZM348.077 75.9113C348.077 75.5218 347.99 75.1885 347.818 74.9114C347.646 74.6268 347.41 74.4133 347.11 74.271C346.818 74.1212 346.493 74.0463 346.133 74.0463C345.616 74.0463 345.174 74.2111 344.807 74.5406C344.448 74.8702 344.242 75.3271 344.189 75.9113H348.077ZM351.505 74.2822C351.684 73.9302 351.939 73.6568 352.268 73.4621C352.606 73.2674 353.014 73.17 353.493 73.17V74.2261H353.223C352.077 74.2261 351.505 74.8477 351.505 76.091V79.439H350.482V73.2824H351.505V74.2822Z" fill="#263027"/>
<rect x="298.656" y="129.199" width="65" height="62" rx="16" fill="#F2F2F2"/>
<path d="M311.504 163.778C310.987 163.778 310.523 163.688 310.111 163.508C309.707 163.321 309.388 163.066 309.156 162.744C308.924 162.415 308.804 162.036 308.797 161.61H309.886C309.924 161.977 310.074 162.287 310.336 162.542C310.605 162.789 310.995 162.913 311.504 162.913C311.991 162.913 312.373 162.793 312.65 162.553C312.935 162.306 313.077 161.992 313.077 161.61C313.077 161.31 312.995 161.067 312.83 160.879C312.665 160.692 312.459 160.55 312.212 160.452C311.965 160.355 311.632 160.25 311.212 160.138C310.695 160.003 310.28 159.868 309.965 159.733C309.658 159.599 309.392 159.389 309.167 159.104C308.95 158.812 308.842 158.423 308.842 157.936C308.842 157.509 308.95 157.131 309.167 156.801C309.385 156.472 309.688 156.217 310.077 156.037C310.474 155.857 310.927 155.768 311.437 155.768C312.171 155.768 312.77 155.951 313.234 156.318C313.706 156.685 313.972 157.172 314.032 157.779H312.909C312.871 157.479 312.714 157.217 312.437 156.992C312.16 156.76 311.793 156.644 311.336 156.644C310.909 156.644 310.56 156.756 310.291 156.981C310.021 157.198 309.886 157.505 309.886 157.902C309.886 158.187 309.965 158.419 310.122 158.599C310.287 158.778 310.486 158.917 310.718 159.014C310.957 159.104 311.291 159.209 311.718 159.329C312.234 159.471 312.65 159.614 312.965 159.756C313.279 159.891 313.549 160.104 313.774 160.396C313.998 160.681 314.111 161.07 314.111 161.565C314.111 161.947 314.01 162.306 313.807 162.643C313.605 162.98 313.305 163.254 312.909 163.463C312.512 163.673 312.043 163.778 311.504 163.778ZM321.075 157.543V163.699H320.053V162.789C319.858 163.104 319.585 163.351 319.233 163.531C318.888 163.703 318.506 163.789 318.087 163.789C317.607 163.789 317.177 163.692 316.795 163.497C316.413 163.295 316.109 162.995 315.885 162.598C315.668 162.201 315.559 161.718 315.559 161.149V157.543H316.57V161.014C316.57 161.621 316.724 162.089 317.031 162.418C317.338 162.741 317.757 162.902 318.289 162.902C318.836 162.902 319.266 162.733 319.581 162.396C319.896 162.059 320.053 161.568 320.053 160.924V157.543H321.075ZM323.824 158.677C324.026 158.325 324.326 158.033 324.723 157.801C325.127 157.561 325.595 157.441 326.127 157.441C326.674 157.441 327.168 157.573 327.61 157.835C328.059 158.097 328.411 158.468 328.666 158.947C328.921 159.419 329.048 159.969 329.048 160.598C329.048 161.22 328.921 161.774 328.666 162.261C328.411 162.748 328.059 163.126 327.61 163.396C327.168 163.666 326.674 163.8 326.127 163.8C325.603 163.8 325.138 163.684 324.734 163.452C324.337 163.212 324.033 162.917 323.824 162.565V166.62H322.801V157.543H323.824V158.677ZM328.003 160.598C328.003 160.134 327.909 159.73 327.722 159.385C327.535 159.041 327.28 158.778 326.958 158.599C326.644 158.419 326.295 158.329 325.913 158.329C325.539 158.329 325.191 158.423 324.869 158.61C324.554 158.79 324.299 159.056 324.105 159.408C323.917 159.752 323.824 160.153 323.824 160.61C323.824 161.074 323.917 161.482 324.105 161.834C324.299 162.179 324.554 162.445 324.869 162.632C325.191 162.812 325.539 162.902 325.913 162.902C326.295 162.902 326.644 162.812 326.958 162.632C327.28 162.445 327.535 162.179 327.722 161.834C327.909 161.482 328.003 161.07 328.003 160.598ZM331.416 158.677C331.618 158.325 331.918 158.033 332.315 157.801C332.719 157.561 333.187 157.441 333.719 157.441C334.266 157.441 334.76 157.573 335.202 157.835C335.651 158.097 336.003 158.468 336.258 158.947C336.513 159.419 336.64 159.969 336.64 160.598C336.64 161.22 336.513 161.774 336.258 162.261C336.003 162.748 335.651 163.126 335.202 163.396C334.76 163.666 334.266 163.8 333.719 163.8C333.195 163.8 332.73 163.684 332.326 163.452C331.929 163.212 331.626 162.917 331.416 162.565V166.62H330.394V157.543H331.416V158.677ZM335.595 160.598C335.595 160.134 335.502 159.73 335.314 159.385C335.127 159.041 334.872 158.778 334.55 158.599C334.236 158.419 333.888 158.329 333.506 158.329C333.131 158.329 332.783 158.423 332.461 158.61C332.146 158.79 331.892 159.056 331.697 159.408C331.51 159.752 331.416 160.153 331.416 160.61C331.416 161.074 331.51 161.482 331.697 161.834C331.892 162.179 332.146 162.445 332.461 162.632C332.783 162.812 333.131 162.902 333.506 162.902C333.888 162.902 334.236 162.812 334.55 162.632C334.872 162.445 335.127 162.179 335.314 161.834C335.502 161.482 335.595 161.07 335.595 160.598ZM339.008 155.386V163.699H337.986V155.386H339.008ZM341.279 156.543C341.084 156.543 340.919 156.475 340.784 156.34C340.649 156.206 340.582 156.041 340.582 155.846C340.582 155.651 340.649 155.487 340.784 155.352C340.919 155.217 341.084 155.15 341.279 155.15C341.466 155.15 341.623 155.217 341.75 155.352C341.885 155.487 341.953 155.651 341.953 155.846C341.953 156.041 341.885 156.206 341.75 156.34C341.623 156.475 341.466 156.543 341.279 156.543ZM341.773 157.543V163.699H340.751V157.543H341.773ZM349.133 160.385C349.133 160.58 349.121 160.786 349.099 161.003H344.178C344.216 161.61 344.422 162.085 344.796 162.43C345.178 162.767 345.639 162.935 346.178 162.935C346.62 162.935 346.987 162.834 347.279 162.632C347.579 162.422 347.788 162.145 347.908 161.801H349.009C348.844 162.392 348.515 162.875 348.02 163.25C347.526 163.617 346.912 163.8 346.178 163.8C345.594 163.8 345.069 163.669 344.605 163.407C344.148 163.145 343.789 162.774 343.527 162.295C343.264 161.808 343.133 161.246 343.133 160.61C343.133 159.973 343.261 159.415 343.515 158.936C343.77 158.456 344.126 158.089 344.583 157.835C345.047 157.573 345.579 157.441 346.178 157.441C346.762 157.441 347.279 157.569 347.728 157.823C348.178 158.078 348.522 158.43 348.762 158.88C349.009 159.321 349.133 159.823 349.133 160.385ZM348.077 160.172C348.077 159.782 347.99 159.449 347.818 159.172C347.646 158.887 347.41 158.674 347.11 158.531C346.818 158.381 346.493 158.307 346.133 158.307C345.616 158.307 345.174 158.471 344.807 158.801C344.448 159.13 344.242 159.587 344.189 160.172H348.077ZM351.505 158.542C351.684 158.19 351.939 157.917 352.268 157.722C352.606 157.528 353.014 157.43 353.493 157.43V158.486H353.223C352.077 158.486 351.505 159.108 351.505 160.351V163.699H350.482V157.543H351.505V158.542Z" fill="#263027"/>
<rect y="84.2603" width="80" height="68" rx="16" fill="#00D072"/>
<path d="M26.7739 102.58C27.3025 102.693 27.7272 102.957 28.0479 103.373C28.3685 103.781 28.5289 104.249 28.5289 104.777C28.5289 105.54 28.2602 106.147 27.7229 106.597C27.1942 107.039 26.4532 107.26 25.4999 107.26H21.2489V98.1343H25.3569C26.2842 98.1343 27.0079 98.3466 27.5279 98.7713C28.0565 99.1959 28.3209 99.7723 28.3209 100.5C28.3209 101.038 28.1779 101.484 27.8919 101.839C27.6145 102.195 27.2419 102.442 26.7739 102.58ZM23.4719 101.826H24.9279C25.2919 101.826 25.5692 101.748 25.7599 101.592C25.9592 101.428 26.0589 101.189 26.0589 100.877C26.0589 100.565 25.9592 100.327 25.7599 100.162C25.5692 99.9976 25.2919 99.9153 24.9279 99.9153H23.4719V101.826ZM25.1099 105.466C25.4825 105.466 25.7685 105.384 25.9679 105.219C26.1759 105.046 26.2799 104.799 26.2799 104.478C26.2799 104.158 26.1715 103.906 25.9549 103.724C25.7469 103.542 25.4565 103.451 25.0839 103.451H23.4719V105.466H25.1099ZM36.9812 100.006V107.26H34.7582V106.272C34.5329 106.593 34.2252 106.853 33.8352 107.052C33.4539 107.243 33.0292 107.338 32.5612 107.338C32.0065 107.338 31.5169 107.217 31.0922 106.974C30.6675 106.723 30.3382 106.363 30.1042 105.895C29.8702 105.427 29.7532 104.877 29.7532 104.244V100.006H31.9632V103.945C31.9632 104.431 32.0889 104.808 32.3402 105.076C32.5915 105.345 32.9295 105.479 33.3542 105.479C33.7875 105.479 34.1299 105.345 34.3812 105.076C34.6325 104.808 34.7582 104.431 34.7582 103.945V100.006H36.9812ZM45.988 100.006L41.438 110.705H39.046L40.71 107.013L37.759 100.006H40.242L41.919 104.543L43.583 100.006H45.988ZM53.6298 103.516C53.6298 103.724 53.6168 103.941 53.5908 104.166H48.5598C48.5945 104.617 48.7375 104.964 48.9888 105.206C49.2488 105.44 49.5652 105.557 49.9378 105.557C50.4925 105.557 50.8782 105.323 51.0948 104.855H53.4608C53.3395 105.332 53.1185 105.761 52.7978 106.142C52.4858 106.524 52.0915 106.823 51.6148 107.039C51.1382 107.256 50.6052 107.364 50.0158 107.364C49.3052 107.364 48.6725 107.213 48.1178 106.909C47.5632 106.606 47.1298 106.173 46.8178 105.609C46.5058 105.046 46.3498 104.387 46.3498 103.633C46.3498 102.879 46.5015 102.221 46.8048 101.657C47.1168 101.094 47.5502 100.661 48.1048 100.357C48.6595 100.054 49.2965 99.9023 50.0158 99.9023C50.7178 99.9023 51.3418 100.05 51.8878 100.344C52.4338 100.639 52.8585 101.059 53.1618 101.605C53.4738 102.151 53.6298 102.788 53.6298 103.516ZM51.3548 102.931C51.3548 102.55 51.2248 102.247 50.9648 102.021C50.7048 101.796 50.3798 101.683 49.9898 101.683C49.6172 101.683 49.3008 101.792 49.0408 102.008C48.7895 102.225 48.6335 102.533 48.5728 102.931H51.3548ZM57.0256 101.215C57.2856 100.817 57.6106 100.505 58.0006 100.279C58.3906 100.045 58.8239 99.9283 59.3006 99.9283V102.281H58.6896C58.1349 102.281 57.7189 102.403 57.4416 102.645C57.1642 102.879 57.0256 103.295 57.0256 103.893V107.26H54.8026V100.006H57.0256V101.215ZM35.2737 116.006L33.3107 123.26H30.8537L29.7097 118.554L28.5267 123.26H26.0827L24.1067 116.006H26.3297L27.3567 121.193L28.5787 116.006H30.9317L32.1667 121.167L33.1807 116.006H35.2737ZM37.2394 115.252C36.8494 115.252 36.5288 115.14 36.2774 114.914C36.0348 114.68 35.9134 114.394 35.9134 114.056C35.9134 113.71 36.0348 113.424 36.2774 113.198C36.5288 112.964 36.8494 112.847 37.2394 112.847C37.6208 112.847 37.9328 112.964 38.1754 113.198C38.4268 113.424 38.5524 113.71 38.5524 114.056C38.5524 114.394 38.4268 114.68 38.1754 114.914C37.9328 115.14 37.6208 115.252 37.2394 115.252ZM38.3444 116.006V123.26H36.1214V116.006H38.3444ZM43.9984 121.375V123.26H42.8674C42.0614 123.26 41.4331 123.065 40.9824 122.675C40.5317 122.277 40.3064 121.631 40.3064 120.738V117.852H39.4224V116.006H40.3064V114.238H42.5294V116.006H43.9854V117.852H42.5294V120.764C42.5294 120.981 42.5814 121.137 42.6854 121.232C42.7894 121.328 42.9627 121.375 43.2054 121.375H43.9984ZM49.6957 115.928C50.5277 115.928 51.195 116.206 51.6977 116.76C52.2003 117.306 52.4517 118.06 52.4517 119.022V123.26H50.2417V119.321C50.2417 118.836 50.116 118.459 49.8647 118.19C49.6133 117.922 49.2753 117.787 48.8507 117.787C48.426 117.787 48.088 117.922 47.8367 118.19C47.5853 118.459 47.4597 118.836 47.4597 119.321V123.26H45.2367V113.64H47.4597V116.981C47.685 116.661 47.9927 116.405 48.3827 116.214C48.7727 116.024 49.2103 115.928 49.6957 115.928ZM14.4036 134.684C14.4036 133.783 14.5986 132.981 14.9886 132.279C15.3786 131.569 15.9203 131.018 16.6136 130.628C17.3156 130.23 18.1086 130.03 18.9926 130.03C20.0759 130.03 21.0033 130.316 21.7746 130.888C22.5459 131.46 23.0616 132.24 23.3216 133.228H20.8776C20.6956 132.847 20.4356 132.557 20.0976 132.357C19.7683 132.158 19.3913 132.058 18.9666 132.058C18.2819 132.058 17.7273 132.297 17.3026 132.773C16.8779 133.25 16.6656 133.887 16.6656 134.684C16.6656 135.482 16.8779 136.119 17.3026 136.595C17.7273 137.072 18.2819 137.31 18.9666 137.31C19.3913 137.31 19.7683 137.211 20.0976 137.011C20.4356 136.812 20.6956 136.522 20.8776 136.14H23.3216C23.0616 137.128 22.5459 137.908 21.7746 138.48C21.0033 139.044 20.0759 139.325 18.9926 139.325C18.1086 139.325 17.3156 139.13 16.6136 138.74C15.9203 138.342 15.3786 137.791 14.9886 137.089C14.5986 136.387 14.4036 135.586 14.4036 134.684ZM29.337 139.26L27.439 135.815H26.906V139.26H24.683V130.134H28.414C29.1333 130.134 29.7443 130.26 30.247 130.511C30.7583 130.763 31.1396 131.109 31.391 131.551C31.6423 131.985 31.768 132.47 31.768 133.007C31.768 133.614 31.5946 134.156 31.248 134.632C30.91 135.109 30.4073 135.447 29.74 135.646L31.846 139.26H29.337ZM26.906 134.242H28.284C28.6913 134.242 28.9946 134.143 29.194 133.943C29.402 133.744 29.506 133.462 29.506 133.098C29.506 132.752 29.402 132.479 29.194 132.279C28.9946 132.08 28.6913 131.98 28.284 131.98H26.906V134.242ZM37.4794 139.351C36.6214 139.351 35.8328 139.152 35.1134 138.753C34.4028 138.355 33.8351 137.8 33.4104 137.089C32.9944 136.37 32.7864 135.564 32.7864 134.671C32.7864 133.779 32.9944 132.977 33.4104 132.266C33.8351 131.556 34.4028 131.001 35.1134 130.602C35.8328 130.204 36.6214 130.004 37.4794 130.004C38.3374 130.004 39.1218 130.204 39.8324 130.602C40.5518 131.001 41.1151 131.556 41.5224 132.266C41.9384 132.977 42.1464 133.779 42.1464 134.671C42.1464 135.564 41.9384 136.37 41.5224 137.089C41.1064 137.8 40.5431 138.355 39.8324 138.753C39.1218 139.152 38.3374 139.351 37.4794 139.351ZM37.4794 137.323C38.2074 137.323 38.7881 137.081 39.2214 136.595C39.6634 136.11 39.8844 135.469 39.8844 134.671C39.8844 133.865 39.6634 133.224 39.2214 132.747C38.7881 132.262 38.2074 132.019 37.4794 132.019C36.7428 132.019 36.1534 132.258 35.7114 132.734C35.2781 133.211 35.0614 133.857 35.0614 134.671C35.0614 135.477 35.2781 136.123 35.7114 136.608C36.1534 137.085 36.7428 137.323 37.4794 137.323ZM55.9411 130.134L53.5621 139.26H50.8711L49.4151 133.254L47.9071 139.26H45.2161L42.9021 130.134H45.2811L46.5941 136.777L48.2191 130.134H50.6631L52.2231 136.777L53.5491 130.134H55.9411ZM65.22 139.26H62.997L59.279 133.631V139.26H57.056V130.134H59.279L62.997 135.789V130.134H65.22V139.26Z" fill="white"/>
</svg>
