<svg width="270" height="247" viewBox="0 0 270 247" fill="none" xmlns="http://www.w3.org/2000/svg">
<line x1="63.207" y1="123.3" x2="235.026" y2="123.3" stroke="#A3A3A3" stroke-width="0.890255"/>
<line x1="138.436" y1="209.21" x2="138.436" y2="37.3907" stroke="#A3A3A3" stroke-width="0.890255"/>
<rect x="98.8185" y="89.0256" width="80" height="68" rx="16" fill="#263027"/>
<path d="M125.149 122.846C125.678 122.958 126.103 123.223 126.423 123.639C126.744 124.046 126.904 124.514 126.904 125.043C126.904 125.805 126.636 126.412 126.098 126.863C125.57 127.305 124.829 127.526 123.875 127.526H119.624V118.4H123.732C124.66 118.4 125.383 118.612 125.903 119.037C126.432 119.461 126.696 120.038 126.696 120.766C126.696 121.303 126.553 121.749 126.267 122.105C125.99 122.46 125.617 122.707 125.149 122.846ZM121.847 122.092H123.303C123.667 122.092 123.945 122.014 124.135 121.858C124.335 121.693 124.434 121.455 124.434 121.143C124.434 120.831 124.335 120.592 124.135 120.428C123.945 120.263 123.667 120.181 123.303 120.181H121.847V122.092ZM123.485 125.732C123.858 125.732 124.144 125.649 124.343 125.485C124.551 125.311 124.655 125.064 124.655 124.744C124.655 124.423 124.547 124.172 124.33 123.99C124.122 123.808 123.832 123.717 123.459 123.717H121.847V125.732H123.485ZM135.357 120.272V127.526H133.134V126.538C132.908 126.858 132.601 127.118 132.211 127.318C131.829 127.508 131.405 127.604 130.937 127.604C130.382 127.604 129.892 127.482 129.468 127.24C129.043 126.988 128.714 126.629 128.48 126.161C128.246 125.693 128.129 125.142 128.129 124.51V120.272H130.339V124.211C130.339 124.696 130.464 125.073 130.716 125.342C130.967 125.61 131.305 125.745 131.73 125.745C132.163 125.745 132.505 125.61 132.757 125.342C133.008 125.073 133.134 124.696 133.134 124.211V120.272H135.357ZM144.364 120.272L139.814 130.971H137.422L139.086 127.279L136.135 120.272H138.618L140.295 124.809L141.959 120.272H144.364ZM152.005 123.782C152.005 123.99 151.992 124.206 151.966 124.432H146.935C146.97 124.882 147.113 125.229 147.364 125.472C147.624 125.706 147.941 125.823 148.313 125.823C148.868 125.823 149.254 125.589 149.47 125.121H151.836C151.715 125.597 151.494 126.026 151.173 126.408C150.861 126.789 150.467 127.088 149.99 127.305C149.514 127.521 148.981 127.63 148.391 127.63C147.681 127.63 147.048 127.478 146.493 127.175C145.939 126.871 145.505 126.438 145.193 125.875C144.881 125.311 144.725 124.653 144.725 123.899C144.725 123.145 144.877 122.486 145.18 121.923C145.492 121.359 145.926 120.926 146.48 120.623C147.035 120.319 147.672 120.168 148.391 120.168C149.093 120.168 149.717 120.315 150.263 120.61C150.809 120.904 151.234 121.325 151.537 121.871C151.849 122.417 152.005 123.054 152.005 123.782ZM149.73 123.197C149.73 122.815 149.6 122.512 149.34 122.287C149.08 122.061 148.755 121.949 148.365 121.949C147.993 121.949 147.676 122.057 147.416 122.274C147.165 122.49 147.009 122.798 146.948 123.197H149.73ZM155.401 121.481C155.661 121.082 155.986 120.77 156.376 120.545C156.766 120.311 157.2 120.194 157.676 120.194V122.547H157.065C156.511 122.547 156.095 122.668 155.817 122.911C155.54 123.145 155.401 123.561 155.401 124.159V127.526H153.178V120.272H155.401V121.481Z" fill="white"/>
<rect x="105.939" width="65" height="62" rx="16" fill="#F2F2F2"/>
<path d="M119.623 34.5748C119.132 34.5748 118.69 34.4893 118.298 34.3184C117.914 34.1403 117.611 33.8982 117.39 33.5919C117.169 33.2786 117.056 32.9189 117.048 32.513H118.085C118.12 32.8619 118.263 33.1575 118.512 33.3996C118.768 33.6347 119.139 33.7522 119.623 33.7522C120.086 33.7522 120.449 33.6382 120.713 33.4103C120.983 33.1753 121.119 32.8762 121.119 32.513C121.119 32.2281 121.04 31.9966 120.884 31.8186C120.727 31.6405 120.531 31.5052 120.296 31.4126C120.061 31.32 119.744 31.2203 119.345 31.1135C118.854 30.9853 118.459 30.8571 118.159 30.7289C117.867 30.6007 117.615 30.4013 117.401 30.1306C117.194 29.8529 117.091 29.4825 117.091 29.0196C117.091 28.6136 117.194 28.254 117.401 27.9406C117.607 27.6272 117.896 27.3851 118.266 27.2142C118.644 27.0432 119.075 26.9578 119.559 26.9578C120.257 26.9578 120.827 27.1322 121.268 27.4812C121.717 27.8302 121.97 28.2931 122.027 28.87H120.958C120.923 28.5851 120.773 28.3359 120.51 28.1222C120.246 27.9014 119.897 27.791 119.463 27.791C119.057 27.791 118.726 27.8979 118.469 28.1115C118.213 28.3181 118.085 28.6101 118.085 28.9875C118.085 29.2582 118.159 29.479 118.309 29.6499C118.466 29.8208 118.654 29.9526 118.875 30.0452C119.103 30.1306 119.42 30.2303 119.826 30.3443C120.317 30.4796 120.713 30.6149 121.012 30.7502C121.311 30.8784 121.567 31.0814 121.781 31.3592C121.995 31.6298 122.101 32.0002 122.101 32.4702C122.101 32.8334 122.005 33.1753 121.813 33.4958C121.621 33.8163 121.336 34.0762 120.958 34.2757C120.581 34.4751 120.136 34.5748 119.623 34.5748ZM128.724 28.6457V34.5H127.752V33.6347C127.567 33.9338 127.307 34.1688 126.972 34.3398C126.644 34.5036 126.281 34.5855 125.882 34.5855C125.427 34.5855 125.017 34.4929 124.654 34.3077C124.291 34.1154 124.002 33.8305 123.788 33.4531C123.582 33.0756 123.479 32.6162 123.479 32.0749V28.6457H124.44V31.9467C124.44 32.5236 124.586 32.9688 124.878 33.2821C125.17 33.5884 125.569 33.7415 126.075 33.7415C126.595 33.7415 127.004 33.5813 127.303 33.2608C127.602 32.9403 127.752 32.4738 127.752 31.8613V28.6457H128.724ZM131.338 29.7247C131.53 29.3899 131.815 29.1122 132.192 28.8914C132.577 28.6635 133.022 28.5495 133.528 28.5495C134.048 28.5495 134.518 28.6742 134.938 28.9234C135.365 29.1727 135.7 29.5253 135.942 29.9811C136.184 30.4298 136.305 30.9532 136.305 31.5515C136.305 32.1426 136.184 32.6696 135.942 33.1326C135.7 33.5955 135.365 33.9552 134.938 34.2116C134.518 34.468 134.048 34.5961 133.528 34.5961C133.029 34.5961 132.588 34.4858 132.203 34.265C131.826 34.0371 131.537 33.7557 131.338 33.421V37.2776H130.365V28.6457H131.338V29.7247ZM135.312 31.5515C135.312 31.1099 135.223 30.7253 135.045 30.3977C134.867 30.0701 134.624 29.8208 134.318 29.6499C134.019 29.479 133.688 29.3935 133.325 29.3935C132.969 29.3935 132.637 29.4825 132.331 29.6606C132.032 29.8315 131.79 30.0843 131.605 30.4191C131.427 30.7467 131.338 31.1277 131.338 31.5622C131.338 32.0037 131.427 32.3919 131.605 32.7266C131.79 33.0542 132.032 33.3071 132.331 33.4851C132.637 33.656 132.969 33.7415 133.325 33.7415C133.688 33.7415 134.019 33.656 134.318 33.4851C134.624 33.3071 134.867 33.0542 135.045 32.7266C135.223 32.3919 135.312 32.0002 135.312 31.5515ZM138.557 29.7247C138.749 29.3899 139.034 29.1122 139.412 28.8914C139.796 28.6635 140.241 28.5495 140.747 28.5495C141.267 28.5495 141.737 28.6742 142.157 28.9234C142.585 29.1727 142.919 29.5253 143.161 29.9811C143.404 30.4298 143.525 30.9532 143.525 31.5515C143.525 32.1426 143.404 32.6696 143.161 33.1326C142.919 33.5955 142.585 33.9552 142.157 34.2116C141.737 34.468 141.267 34.5961 140.747 34.5961C140.249 34.5961 139.807 34.4858 139.422 34.265C139.045 34.0371 138.756 33.7557 138.557 33.421V37.2776H137.585V28.6457H138.557V29.7247ZM142.531 31.5515C142.531 31.1099 142.442 30.7253 142.264 30.3977C142.086 30.0701 141.844 29.8208 141.538 29.6499C141.239 29.479 140.907 29.3935 140.544 29.3935C140.188 29.3935 139.857 29.4825 139.551 29.6606C139.251 29.8315 139.009 30.0843 138.824 30.4191C138.646 30.7467 138.557 31.1277 138.557 31.5622C138.557 32.0037 138.646 32.3919 138.824 32.7266C139.009 33.0542 139.251 33.3071 139.551 33.4851C139.857 33.656 140.188 33.7415 140.544 33.7415C140.907 33.7415 141.239 33.656 141.538 33.4851C141.844 33.3071 142.086 33.0542 142.264 32.7266C142.442 32.3919 142.531 32.0002 142.531 31.5515ZM145.776 26.5945V34.5H144.804V26.5945H145.776ZM147.935 27.6949C147.75 27.6949 147.594 27.6308 147.465 27.5026C147.337 27.3744 147.273 27.2177 147.273 27.0325C147.273 26.8474 147.337 26.6907 147.465 26.5625C147.594 26.4343 147.75 26.3702 147.935 26.3702C148.114 26.3702 148.263 26.4343 148.384 26.5625C148.512 26.6907 148.576 26.8474 148.576 27.0325C148.576 27.2177 148.512 27.3744 148.384 27.5026C148.263 27.6308 148.114 27.6949 147.935 27.6949ZM148.406 28.6457V34.5H147.433V28.6457H148.406ZM155.404 31.3485C155.404 31.5337 155.393 31.7295 155.372 31.9361H150.693C150.728 32.513 150.924 32.9652 151.28 33.2928C151.643 33.6133 152.081 33.7736 152.594 33.7736C153.014 33.7736 153.363 33.6774 153.641 33.4851C153.926 33.2857 154.126 33.0222 154.239 32.6946H155.286C155.13 33.2572 154.816 33.7166 154.346 34.0727C153.876 34.4217 153.292 34.5961 152.594 34.5961C152.039 34.5961 151.54 34.4715 151.099 34.2222C150.664 33.973 150.322 33.6204 150.073 33.1646C149.824 32.7017 149.699 32.1675 149.699 31.5622C149.699 30.9568 149.82 30.4262 150.062 29.9704C150.305 29.5146 150.643 29.1656 151.077 28.9234C151.519 28.6742 152.025 28.5495 152.594 28.5495C153.15 28.5495 153.641 28.6706 154.069 28.9128C154.496 29.1549 154.823 29.4896 155.051 29.917C155.286 30.3372 155.404 30.8143 155.404 31.3485ZM154.4 31.1455C154.4 30.7752 154.318 30.4582 154.154 30.1947C153.99 29.9241 153.766 29.7211 153.481 29.5858C153.203 29.4434 152.893 29.3721 152.552 29.3721C152.06 29.3721 151.64 29.5288 151.291 29.8422C150.949 30.1556 150.753 30.59 150.703 31.1455H154.4ZM157.659 29.5965C157.83 29.2617 158.072 29.0018 158.386 28.8166C158.706 28.6314 159.094 28.5389 159.55 28.5389V29.5431H159.294C158.204 29.5431 157.659 30.1342 157.659 31.3164V34.5H156.687V28.6457H157.659V29.5965Z" fill="#263027"/>
<rect x="105.939" y="184.283" width="65" height="62" rx="16" fill="#F2F2F2"/>
<path d="M119.623 218.857C119.132 218.857 118.69 218.772 118.298 218.601C117.914 218.423 117.611 218.181 117.39 217.875C117.169 217.561 117.056 217.202 117.048 216.796H118.085C118.12 217.145 118.263 217.44 118.512 217.682C118.768 217.917 119.139 218.035 119.623 218.035C120.086 218.035 120.449 217.921 120.713 217.693C120.983 217.458 121.119 217.159 121.119 216.796C121.119 216.511 121.04 216.279 120.884 216.101C120.727 215.923 120.531 215.788 120.296 215.695C120.061 215.603 119.744 215.503 119.345 215.396C118.854 215.268 118.459 215.14 118.159 215.012C117.867 214.883 117.615 214.684 117.401 214.413C117.194 214.136 117.091 213.765 117.091 213.302C117.091 212.896 117.194 212.537 117.401 212.223C117.607 211.91 117.896 211.668 118.266 211.497C118.644 211.326 119.075 211.24 119.559 211.24C120.257 211.24 120.827 211.415 121.268 211.764C121.717 212.113 121.97 212.576 122.027 213.153H120.958C120.923 212.868 120.773 212.619 120.51 212.405C120.246 212.184 119.897 212.074 119.463 212.074C119.057 212.074 118.726 212.181 118.469 212.394C118.213 212.601 118.085 212.893 118.085 213.27C118.085 213.541 118.159 213.762 118.309 213.933C118.466 214.104 118.654 214.235 118.875 214.328C119.103 214.413 119.42 214.513 119.826 214.627C120.317 214.762 120.713 214.898 121.012 215.033C121.311 215.161 121.567 215.364 121.781 215.642C121.995 215.913 122.101 216.283 122.101 216.753C122.101 217.116 122.005 217.458 121.813 217.779C121.621 218.099 121.336 218.359 120.958 218.558C120.581 218.758 120.136 218.857 119.623 218.857ZM128.724 212.928V218.783H127.752V217.917C127.567 218.217 127.307 218.452 126.972 218.622C126.644 218.786 126.281 218.868 125.882 218.868C125.427 218.868 125.017 218.776 124.654 218.59C124.291 218.398 124.002 218.113 123.788 217.736C123.582 217.358 123.479 216.899 123.479 216.358V212.928H124.44V216.229C124.44 216.806 124.586 217.251 124.878 217.565C125.17 217.871 125.569 218.024 126.075 218.024C126.595 218.024 127.004 217.864 127.303 217.543C127.602 217.223 127.752 216.756 127.752 216.144V212.928H128.724ZM131.338 214.007C131.53 213.673 131.815 213.395 132.192 213.174C132.577 212.946 133.022 212.832 133.528 212.832C134.048 212.832 134.518 212.957 134.938 213.206C135.365 213.455 135.7 213.808 135.942 214.264C136.184 214.712 136.305 215.236 136.305 215.834C136.305 216.425 136.184 216.952 135.942 217.415C135.7 217.878 135.365 218.238 134.938 218.494C134.518 218.751 134.048 218.879 133.528 218.879C133.029 218.879 132.588 218.768 132.203 218.548C131.826 218.32 131.537 218.038 131.338 217.704V221.56H130.365V212.928H131.338V214.007ZM135.312 215.834C135.312 215.393 135.223 215.008 135.045 214.68C134.867 214.353 134.624 214.104 134.318 213.933C134.019 213.762 133.688 213.676 133.325 213.676C132.969 213.676 132.637 213.765 132.331 213.943C132.032 214.114 131.79 214.367 131.605 214.702C131.427 215.029 131.338 215.41 131.338 215.845C131.338 216.286 131.427 216.675 131.605 217.009C131.79 217.337 132.032 217.59 132.331 217.768C132.637 217.939 132.969 218.024 133.325 218.024C133.688 218.024 134.019 217.939 134.318 217.768C134.624 217.59 134.867 217.337 135.045 217.009C135.223 216.675 135.312 216.283 135.312 215.834ZM138.557 214.007C138.749 213.673 139.034 213.395 139.412 213.174C139.796 212.946 140.241 212.832 140.747 212.832C141.267 212.832 141.737 212.957 142.157 213.206C142.585 213.455 142.919 213.808 143.161 214.264C143.404 214.712 143.525 215.236 143.525 215.834C143.525 216.425 143.404 216.952 143.161 217.415C142.919 217.878 142.585 218.238 142.157 218.494C141.737 218.751 141.267 218.879 140.747 218.879C140.249 218.879 139.807 218.768 139.422 218.548C139.045 218.32 138.756 218.038 138.557 217.704V221.56H137.585V212.928H138.557V214.007ZM142.531 215.834C142.531 215.393 142.442 215.008 142.264 214.68C142.086 214.353 141.844 214.104 141.538 213.933C141.239 213.762 140.907 213.676 140.544 213.676C140.188 213.676 139.857 213.765 139.551 213.943C139.251 214.114 139.009 214.367 138.824 214.702C138.646 215.029 138.557 215.41 138.557 215.845C138.557 216.286 138.646 216.675 138.824 217.009C139.009 217.337 139.251 217.59 139.551 217.768C139.857 217.939 140.188 218.024 140.544 218.024C140.907 218.024 141.239 217.939 141.538 217.768C141.844 217.59 142.086 217.337 142.264 217.009C142.442 216.675 142.531 216.283 142.531 215.834ZM145.776 210.877V218.783H144.804V210.877H145.776ZM147.935 211.978C147.75 211.978 147.594 211.914 147.465 211.785C147.337 211.657 147.273 211.5 147.273 211.315C147.273 211.13 147.337 210.973 147.465 210.845C147.594 210.717 147.75 210.653 147.935 210.653C148.114 210.653 148.263 210.717 148.384 210.845C148.512 210.973 148.576 211.13 148.576 211.315C148.576 211.5 148.512 211.657 148.384 211.785C148.263 211.914 148.114 211.978 147.935 211.978ZM148.406 212.928V218.783H147.433V212.928H148.406ZM155.404 215.631C155.404 215.816 155.393 216.012 155.372 216.219H150.693C150.728 216.796 150.924 217.248 151.28 217.576C151.643 217.896 152.081 218.056 152.594 218.056C153.014 218.056 153.363 217.96 153.641 217.768C153.926 217.568 154.126 217.305 154.239 216.977H155.286C155.13 217.54 154.816 217.999 154.346 218.355C153.876 218.704 153.292 218.879 152.594 218.879C152.039 218.879 151.54 218.754 151.099 218.505C150.664 218.256 150.322 217.903 150.073 217.447C149.824 216.984 149.699 216.45 149.699 215.845C149.699 215.239 149.82 214.709 150.062 214.253C150.305 213.797 150.643 213.448 151.077 213.206C151.519 212.957 152.025 212.832 152.594 212.832C153.15 212.832 153.641 212.953 154.069 213.195C154.496 213.438 154.823 213.772 155.051 214.2C155.286 214.62 155.404 215.097 155.404 215.631ZM154.4 215.428C154.4 215.058 154.318 214.741 154.154 214.477C153.99 214.207 153.766 214.004 153.481 213.869C153.203 213.726 152.893 213.655 152.552 213.655C152.06 213.655 151.64 213.812 151.291 214.125C150.949 214.438 150.753 214.873 150.703 215.428H154.4ZM157.659 213.879C157.83 213.544 158.072 213.284 158.386 213.099C158.706 212.914 159.094 212.822 159.55 212.822V213.826H159.294C158.204 213.826 157.659 214.417 157.659 215.599V218.783H156.687V212.928H157.659V213.879Z" fill="#263027"/>
<rect y="92.5867" width="65" height="62" rx="16" fill="#F2F2F2"/>
<path d="M13.6836 127.161C13.1921 127.161 12.7506 127.076 12.3589 126.905C11.9743 126.727 11.6716 126.485 11.4508 126.179C11.23 125.865 11.1161 125.506 11.1089 125.1H12.1452C12.1808 125.449 12.3232 125.744 12.5725 125.986C12.8289 126.221 13.1993 126.339 13.6836 126.339C14.1465 126.339 14.5097 126.225 14.7732 125.997C15.0439 125.762 15.1792 125.463 15.1792 125.1C15.1792 124.815 15.1008 124.583 14.9442 124.405C14.7875 124.227 14.5916 124.092 14.3566 123.999C14.1216 123.907 13.8046 123.807 13.4058 123.7C12.9144 123.572 12.5191 123.444 12.22 123.316C11.928 123.187 11.6751 122.988 11.4615 122.717C11.2549 122.44 11.1517 122.069 11.1517 121.606C11.1517 121.2 11.2549 120.841 11.4615 120.527C11.668 120.214 11.9565 119.972 12.3268 119.801C12.7043 119.63 13.1352 119.544 13.6195 119.544C14.3174 119.544 14.8872 119.719 15.3287 120.068C15.7774 120.417 16.0303 120.88 16.0872 121.457H15.0189C14.9833 121.172 14.8338 120.923 14.5702 120.709C14.3067 120.488 13.9578 120.378 13.5233 120.378C13.1174 120.378 12.7862 120.485 12.5298 120.698C12.2734 120.905 12.1452 121.197 12.1452 121.574C12.1452 121.845 12.22 122.066 12.3695 122.237C12.5262 122.407 12.715 122.539 12.9357 122.632C13.1636 122.717 13.4806 122.817 13.8865 122.931C14.378 123.066 14.7732 123.202 15.0724 123.337C15.3715 123.465 15.6279 123.668 15.8415 123.946C16.0552 124.216 16.162 124.587 16.162 125.057C16.162 125.42 16.0659 125.762 15.8736 126.082C15.6813 126.403 15.3964 126.663 15.0189 126.862C14.6415 127.062 14.1963 127.161 13.6836 127.161ZM22.7846 121.232V127.087H21.8124V126.221C21.6273 126.52 21.3673 126.755 21.0326 126.926C20.705 127.09 20.3417 127.172 19.9429 127.172C19.4871 127.172 19.0776 127.08 18.7144 126.894C18.3511 126.702 18.0627 126.417 17.849 126.04C17.6425 125.662 17.5392 125.203 17.5392 124.662V121.232H18.5007V124.533C18.5007 125.11 18.6467 125.555 18.9387 125.869C19.2307 126.175 19.6295 126.328 20.1352 126.328C20.6551 126.328 21.0646 126.168 21.3638 125.847C21.6629 125.527 21.8124 125.06 21.8124 124.448V121.232H22.7846ZM25.3982 122.311C25.5905 121.977 25.8754 121.699 26.2528 121.478C26.6374 121.25 27.0826 121.136 27.5882 121.136C28.1081 121.136 28.5782 121.261 28.9984 121.51C29.4257 121.759 29.7604 122.112 30.0026 122.568C30.2447 123.016 30.3658 123.54 30.3658 124.138C30.3658 124.729 30.2447 125.256 30.0026 125.719C29.7604 126.182 29.4257 126.542 28.9984 126.798C28.5782 127.055 28.1081 127.183 27.5882 127.183C27.0897 127.183 26.6481 127.072 26.2635 126.852C25.8861 126.624 25.5976 126.342 25.3982 126.008V129.864H24.426V121.232H25.3982V122.311ZM29.3723 124.138C29.3723 123.697 29.2833 123.312 29.1052 122.984C28.9272 122.657 28.685 122.407 28.3788 122.237C28.0796 122.066 27.7485 121.98 27.3852 121.98C27.0291 121.98 26.698 122.069 26.3917 122.247C26.0926 122.418 25.8504 122.671 25.6653 123.006C25.4872 123.333 25.3982 123.714 25.3982 124.149C25.3982 124.59 25.4872 124.979 25.6653 125.313C25.8504 125.641 26.0926 125.894 26.3917 126.072C26.698 126.243 27.0291 126.328 27.3852 126.328C27.7485 126.328 28.0796 126.243 28.3788 126.072C28.685 125.894 28.9272 125.641 29.1052 125.313C29.2833 124.979 29.3723 124.587 29.3723 124.138ZM32.6176 122.311C32.8099 121.977 33.0948 121.699 33.4723 121.478C33.8568 121.25 34.302 121.136 34.8076 121.136C35.3275 121.136 35.7976 121.261 36.2178 121.51C36.6451 121.759 36.9799 122.112 37.222 122.568C37.4642 123.016 37.5852 123.54 37.5852 124.138C37.5852 124.729 37.4642 125.256 37.222 125.719C36.9799 126.182 36.6451 126.542 36.2178 126.798C35.7976 127.055 35.3275 127.183 34.8076 127.183C34.3091 127.183 33.8675 127.072 33.4829 126.852C33.1055 126.624 32.817 126.342 32.6176 126.008V129.864H31.6455V121.232H32.6176V122.311ZM36.5917 124.138C36.5917 123.697 36.5027 123.312 36.3246 122.984C36.1466 122.657 35.9044 122.407 35.5982 122.237C35.2991 122.066 34.9679 121.98 34.6047 121.98C34.2486 121.98 33.9174 122.069 33.6111 122.247C33.312 122.418 33.0699 122.671 32.8847 123.006C32.7066 123.333 32.6176 123.714 32.6176 124.149C32.6176 124.59 32.7066 124.979 32.8847 125.313C33.0699 125.641 33.312 125.894 33.6111 126.072C33.9174 126.243 34.2486 126.328 34.6047 126.328C34.9679 126.328 35.2991 126.243 35.5982 126.072C35.9044 125.894 36.1466 125.641 36.3246 125.313C36.5027 124.979 36.5917 124.587 36.5917 124.138ZM39.837 119.181V127.087H38.8649V119.181H39.837ZM41.996 120.282C41.8108 120.282 41.6541 120.217 41.5259 120.089C41.3978 119.961 41.3337 119.804 41.3337 119.619C41.3337 119.434 41.3978 119.277 41.5259 119.149C41.6541 119.021 41.8108 118.957 41.996 118.957C42.1741 118.957 42.3236 119.021 42.4447 119.149C42.5729 119.277 42.637 119.434 42.637 119.619C42.637 119.804 42.5729 119.961 42.4447 120.089C42.3236 120.217 42.1741 120.282 41.996 120.282ZM42.4661 121.232V127.087H41.4939V121.232H42.4661ZM49.4645 123.935C49.4645 124.12 49.4538 124.316 49.4324 124.523H44.7532C44.7888 125.1 44.9847 125.552 45.3408 125.879C45.704 126.2 46.142 126.36 46.6548 126.36C47.075 126.36 47.424 126.264 47.7018 126.072C47.9866 125.872 48.1861 125.609 48.3 125.281H49.347C49.1903 125.844 48.8769 126.303 48.4068 126.659C47.9368 127.008 47.3528 127.183 46.6548 127.183C46.0993 127.183 45.6008 127.058 45.1592 126.809C44.7247 126.56 44.3829 126.207 44.1336 125.751C43.8843 125.288 43.7597 124.754 43.7597 124.149C43.7597 123.543 43.8808 123.013 44.1229 122.557C44.3651 122.101 44.7034 121.752 45.1378 121.51C45.5794 121.261 46.0851 121.136 46.6548 121.136C47.2103 121.136 47.7018 121.257 48.1291 121.499C48.5564 121.742 48.884 122.076 49.1119 122.504C49.347 122.924 49.4645 123.401 49.4645 123.935ZM48.4603 123.732C48.4603 123.362 48.3784 123.045 48.2145 122.781C48.0507 122.511 47.8264 122.308 47.5415 122.172C47.2638 122.03 46.9539 121.959 46.6121 121.959C46.1207 121.959 45.7005 122.115 45.3515 122.429C45.0096 122.742 44.8138 123.177 44.7639 123.732H48.4603ZM51.7198 122.183C51.8908 121.848 52.1329 121.588 52.4463 121.403C52.7668 121.218 53.1549 121.126 53.6107 121.126V122.13H53.3543C52.2647 122.13 51.7198 122.721 51.7198 123.903V127.087H50.7477V121.232H51.7198V122.183Z" fill="#263027"/>
<rect x="204.758" y="92.5864" width="65" height="62" rx="16" fill="#F2F2F2"/>
<path d="M218.441 127.161C217.95 127.161 217.508 127.076 217.117 126.905C216.732 126.727 216.429 126.485 216.209 126.178C215.988 125.865 215.874 125.505 215.867 125.099H216.903C216.939 125.448 217.081 125.744 217.33 125.986C217.587 126.221 217.957 126.339 218.441 126.339C218.904 126.339 219.268 126.225 219.531 125.997C219.802 125.762 219.937 125.463 219.937 125.099C219.937 124.814 219.859 124.583 219.702 124.405C219.545 124.227 219.349 124.092 219.114 123.999C218.879 123.906 218.562 123.807 218.164 123.7C217.672 123.572 217.277 123.444 216.978 123.315C216.686 123.187 216.433 122.988 216.219 122.717C216.013 122.439 215.909 122.069 215.909 121.606C215.909 121.2 216.013 120.84 216.219 120.527C216.426 120.214 216.714 119.972 217.085 119.801C217.462 119.63 217.893 119.544 218.377 119.544C219.075 119.544 219.645 119.719 220.087 120.068C220.535 120.417 220.788 120.88 220.845 121.456H219.777C219.741 121.172 219.592 120.922 219.328 120.709C219.065 120.488 218.716 120.377 218.281 120.377C217.875 120.377 217.544 120.484 217.288 120.698C217.031 120.904 216.903 121.196 216.903 121.574C216.903 121.845 216.978 122.065 217.127 122.236C217.284 122.407 217.473 122.539 217.694 122.632C217.921 122.717 218.238 122.817 218.644 122.931C219.136 123.066 219.531 123.201 219.83 123.337C220.129 123.465 220.386 123.668 220.599 123.946C220.813 124.216 220.92 124.587 220.92 125.057C220.92 125.42 220.824 125.762 220.631 126.082C220.439 126.403 220.154 126.663 219.777 126.862C219.399 127.061 218.954 127.161 218.441 127.161ZM227.542 121.232V127.086H226.57V126.221C226.385 126.52 226.125 126.755 225.79 126.926C225.463 127.09 225.1 127.172 224.701 127.172C224.245 127.172 223.835 127.079 223.472 126.894C223.109 126.702 222.821 126.417 222.607 126.039C222.4 125.662 222.297 125.203 222.297 124.661V121.232H223.259V124.533C223.259 125.11 223.405 125.555 223.697 125.869C223.989 126.175 224.387 126.328 224.893 126.328C225.413 126.328 225.822 126.168 226.122 125.847C226.421 125.527 226.57 125.06 226.57 124.448V121.232H227.542ZM230.156 122.311C230.348 121.976 230.633 121.699 231.011 121.478C231.395 121.25 231.84 121.136 232.346 121.136C232.866 121.136 233.336 121.261 233.756 121.51C234.184 121.759 234.518 122.112 234.76 122.567C235.003 123.016 235.124 123.54 235.124 124.138C235.124 124.729 235.003 125.256 234.76 125.719C234.518 126.182 234.184 126.542 233.756 126.798C233.336 127.054 232.866 127.183 232.346 127.183C231.847 127.183 231.406 127.072 231.021 126.851C230.644 126.623 230.355 126.342 230.156 126.007V129.864H229.184V121.232H230.156V122.311ZM234.13 124.138C234.13 123.696 234.041 123.312 233.863 122.984C233.685 122.657 233.443 122.407 233.137 122.236C232.837 122.065 232.506 121.98 232.143 121.98C231.787 121.98 231.456 122.069 231.15 122.247C230.85 122.418 230.608 122.671 230.423 123.005C230.245 123.333 230.156 123.714 230.156 124.149C230.156 124.59 230.245 124.978 230.423 125.313C230.608 125.641 230.85 125.893 231.15 126.072C231.456 126.242 231.787 126.328 232.143 126.328C232.506 126.328 232.837 126.242 233.137 126.072C233.443 125.893 233.685 125.641 233.863 125.313C234.041 124.978 234.13 124.587 234.13 124.138ZM237.375 122.311C237.568 121.976 237.853 121.699 238.23 121.478C238.615 121.25 239.06 121.136 239.565 121.136C240.085 121.136 240.555 121.261 240.976 121.51C241.403 121.759 241.738 122.112 241.98 122.567C242.222 123.016 242.343 123.54 242.343 124.138C242.343 124.729 242.222 125.256 241.98 125.719C241.738 126.182 241.403 126.542 240.976 126.798C240.555 127.054 240.085 127.183 239.565 127.183C239.067 127.183 238.625 127.072 238.241 126.851C237.863 126.623 237.575 126.342 237.375 126.007V129.864H236.403V121.232H237.375V122.311ZM241.35 124.138C241.35 123.696 241.26 123.312 241.082 122.984C240.904 122.657 240.662 122.407 240.356 122.236C240.057 122.065 239.726 121.98 239.362 121.98C239.006 121.98 238.675 122.069 238.369 122.247C238.07 122.418 237.828 122.671 237.642 123.005C237.464 123.333 237.375 123.714 237.375 124.149C237.375 124.59 237.464 124.978 237.642 125.313C237.828 125.641 238.07 125.893 238.369 126.072C238.675 126.242 239.006 126.328 239.362 126.328C239.726 126.328 240.057 126.242 240.356 126.072C240.662 125.893 240.904 125.641 241.082 125.313C241.26 124.978 241.35 124.587 241.35 124.138ZM244.595 119.181V127.086H243.623V119.181H244.595ZM246.754 120.281C246.569 120.281 246.412 120.217 246.284 120.089C246.156 119.961 246.091 119.804 246.091 119.619C246.091 119.434 246.156 119.277 246.284 119.149C246.412 119.021 246.569 118.957 246.754 118.957C246.932 118.957 247.081 119.021 247.203 119.149C247.331 119.277 247.395 119.434 247.395 119.619C247.395 119.804 247.331 119.961 247.203 120.089C247.081 120.217 246.932 120.281 246.754 120.281ZM247.224 121.232V127.086H246.252V121.232H247.224ZM254.222 123.935C254.222 124.12 254.212 124.316 254.19 124.522H249.511C249.547 125.099 249.743 125.552 250.099 125.879C250.462 126.2 250.9 126.36 251.413 126.36C251.833 126.36 252.182 126.264 252.46 126.072C252.744 125.872 252.944 125.609 253.058 125.281H254.105C253.948 125.844 253.635 126.303 253.165 126.659C252.695 127.008 252.111 127.183 251.413 127.183C250.857 127.183 250.359 127.058 249.917 126.809C249.483 126.559 249.141 126.207 248.891 125.751C248.642 125.288 248.518 124.754 248.518 124.149C248.518 123.543 248.639 123.013 248.881 122.557C249.123 122.101 249.461 121.752 249.896 121.51C250.337 121.261 250.843 121.136 251.413 121.136C251.968 121.136 252.46 121.257 252.887 121.499C253.314 121.741 253.642 122.076 253.87 122.503C254.105 122.924 254.222 123.401 254.222 123.935ZM253.218 123.732C253.218 123.362 253.136 123.045 252.972 122.781C252.809 122.511 252.584 122.308 252.299 122.172C252.022 122.03 251.712 121.959 251.37 121.959C250.878 121.959 250.458 122.115 250.109 122.429C249.767 122.742 249.572 123.176 249.522 123.732H253.218ZM256.478 122.183C256.649 121.848 256.891 121.588 257.204 121.403C257.525 121.218 257.913 121.125 258.369 121.125V122.129H258.112C257.022 122.129 256.478 122.721 256.478 123.903V127.086H255.505V121.232H256.478V122.183Z" fill="#263027"/>
</svg>
