<svg width="26" height="24" viewBox="0 0 26 24" fill="none" xmlns="http://www.w3.org/2000/svg">
<rect x="0.625" y="15.4375" width="15.125" height="4.8125" rx="2.40625" fill="#F8F8F8" stroke="#1D1D1B"/>
<rect x="3.375" y="0.65625" width="15.125" height="4.8125" rx="2.40625" stroke="#1D1D1B"/>
<rect x="0.625" y="5.46875" width="15.125" height="4.8125" rx="2.40625" stroke="#1D1D1B"/>
<rect x="2.6875" y="10.2812" width="15.125" height="4.8125" rx="2.40625" stroke="#1D1D1B"/>
<ellipse cx="17.2911" cy="14.9242" rx="8.07233" ry="8.08048" fill="#E9EAEC" stroke="#1D1D1B"/>
<path d="M17.3333 20.2217C17.1292 20.2217 16.9569 20.1498 16.8162 20.0059C16.6755 19.862 16.6051 19.6822 16.6051 19.4663V18.6678L16.9217 18.9591C16.4504 18.9376 16.0423 18.8764 15.6976 18.7757C15.3529 18.675 15.0715 18.5743 14.8534 18.4735C14.6705 18.3872 14.5403 18.2649 14.4629 18.1066C14.3926 17.9483 14.3644 17.7865 14.3785 17.621C14.3996 17.4555 14.4594 17.3045 14.5579 17.1678C14.6564 17.0311 14.783 16.9411 14.9378 16.898C15.0996 16.8476 15.286 16.8692 15.4971 16.9627C15.6378 17.0419 15.8489 17.1246 16.1303 17.2109C16.4187 17.2901 16.774 17.3296 17.1961 17.3296C17.4915 17.3296 17.7237 17.3009 17.8925 17.2433C18.0684 17.1858 18.1915 17.1102 18.2619 17.0167C18.3393 16.916 18.378 16.8081 18.378 16.6929C18.378 16.585 18.3498 16.4951 18.2935 16.4232C18.2443 16.344 18.1599 16.2757 18.0403 16.2181C17.9207 16.1534 17.7554 16.0958 17.5443 16.0455L16.3519 15.7865C15.6976 15.6354 15.2087 15.3836 14.885 15.0311C14.5685 14.6713 14.4102 14.2073 14.4102 13.639C14.4102 13.2073 14.5122 12.8224 14.7162 12.4843C14.9273 12.139 15.2192 11.8584 15.5921 11.6425C15.972 11.4267 16.4152 11.29 16.9217 11.2325L16.6051 11.4159V10.6929C16.6051 10.4771 16.6755 10.2972 16.8162 10.1533C16.9569 10.0094 17.1292 9.9375 17.3333 9.9375C17.5443 9.9375 17.7202 10.0094 17.8609 10.1533C18.0016 10.2972 18.0719 10.4771 18.0719 10.6929V11.4159L17.7554 11.2109C18.0227 11.2181 18.3111 11.2648 18.6207 11.3512C18.9302 11.4303 19.2011 11.5418 19.4332 11.6857C19.595 11.772 19.7076 11.8908 19.7709 12.0418C19.8413 12.1929 19.8659 12.3476 19.8448 12.5059C19.8307 12.6569 19.7744 12.7936 19.6759 12.9159C19.5845 13.0382 19.4579 13.121 19.296 13.1641C19.1413 13.2001 18.9548 13.1713 18.7368 13.0778C18.575 13.0059 18.392 12.9483 18.188 12.9051C17.991 12.8548 17.7378 12.8296 17.4282 12.8296C17.0554 12.8296 16.7669 12.898 16.5629 13.0346C16.3659 13.1713 16.2674 13.3476 16.2674 13.5634C16.2674 13.7073 16.3237 13.8296 16.4363 13.9303C16.5559 14.0239 16.7704 14.1066 17.08 14.1785L18.283 14.4483C18.9513 14.5994 19.4438 14.8512 19.7604 15.2037C20.084 15.5491 20.2458 15.9987 20.2458 16.5527C20.2458 16.9843 20.1438 17.3656 19.9398 17.6965C19.7357 18.0275 19.4508 18.2973 19.085 18.5059C18.7262 18.7145 18.3076 18.8512 17.8292 18.916L18.0719 18.657V19.4663C18.0719 19.6822 18.0016 19.862 17.8609 20.0059C17.7272 20.1498 17.5513 20.2217 17.3333 20.2217Z" fill="#1D1D1B"/>
</svg>
