<svg width="34" height="28" viewBox="0 0 34 28" fill="none" xmlns="http://www.w3.org/2000/svg">
<path d="M27.6292 10.878C27.6292 15.3407 24.0151 18.9585 19.5568 18.9585C15.0986 18.9585 11.4845 15.3407 11.4845 10.878C11.4845 6.41527 15.0986 2.79752 19.5568 2.79752C24.0151 2.79752 27.6292 6.41527 27.6292 10.878Z" fill="#E9EAEC" stroke="#1D1D1B"/>
<ellipse cx="14.4199" cy="17.4893" rx="8.07233" ry="8.08048" fill="white" stroke="#1D1D1B"/>
<path d="M14.4428 22.6314C14.2387 22.6314 14.0664 22.5595 13.9257 22.4156C13.785 22.2717 13.7146 22.0918 13.7146 21.876V21.0775L14.0312 21.3688C13.5598 21.3472 13.1518 21.2861 12.8071 21.1854C12.4624 21.0846 12.181 20.9839 11.9629 20.8832C11.78 20.7969 11.6498 20.6746 11.5724 20.5163C11.5021 20.358 11.4739 20.1962 11.488 20.0307C11.5091 19.8652 11.5689 19.7141 11.6674 19.5774C11.7659 19.4408 11.8925 19.3508 12.0473 19.3077C12.2091 19.2573 12.3955 19.2789 12.6066 19.3724C12.7473 19.4515 12.9583 19.5343 13.2398 19.6206C13.5282 19.6997 13.8835 19.7393 14.3056 19.7393C14.601 19.7393 14.8332 19.7105 15.002 19.653C15.1779 19.5954 15.301 19.5199 15.3714 19.4264C15.4488 19.3256 15.4875 19.2177 15.4875 19.1026C15.4875 18.9947 15.4593 18.9048 15.403 18.8328C15.3538 18.7537 15.2694 18.6853 15.1498 18.6278C15.0302 18.563 14.8649 18.5055 14.6538 18.4551L13.4614 18.1961C12.8071 18.0451 12.3182 17.7933 11.9945 17.4407C11.678 17.081 11.5197 16.617 11.5197 16.0486C11.5197 15.617 11.6217 15.2321 11.8257 14.894C12.0368 14.5486 12.3287 14.2681 12.7016 14.0522C13.0815 13.8364 13.5247 13.6997 14.0312 13.6421L13.7146 13.8256V13.1026C13.7146 12.8867 13.785 12.7069 13.9257 12.563C14.0664 12.4191 14.2387 12.3472 14.4428 12.3472C14.6538 12.3472 14.8297 12.4191 14.9704 12.563C15.1111 12.7069 15.1814 12.8867 15.1814 13.1026V13.8256L14.8649 13.6206C15.1322 13.6278 15.4206 13.6745 15.7302 13.7609C16.0397 13.84 16.3106 13.9515 16.5427 14.0954C16.7045 14.1817 16.8171 14.3004 16.8804 14.4515C16.9508 14.6026 16.9754 14.7573 16.9543 14.9155C16.9402 15.0666 16.8839 15.2033 16.7854 15.3256C16.694 15.4479 16.5674 15.5307 16.4055 15.5738C16.2508 15.6098 16.0643 15.581 15.8463 15.4875C15.6844 15.4155 15.5015 15.358 15.2975 15.3148C15.1005 15.2645 14.8473 15.2393 14.5377 15.2393C14.1649 15.2393 13.8764 15.3076 13.6724 15.4443C13.4754 15.581 13.3769 15.7573 13.3769 15.9731C13.3769 16.117 13.4332 16.2393 13.5458 16.34C13.6654 16.4335 13.8799 16.5163 14.1895 16.5882L15.3925 16.858C16.0608 17.0091 16.5533 17.2609 16.8699 17.6134C17.1935 17.9587 17.3553 18.4084 17.3553 18.9623C17.3553 19.394 17.2533 19.7753 17.0493 20.1062C16.8452 20.4372 16.5603 20.7069 16.1945 20.9156C15.8357 21.1242 15.4171 21.2609 14.9387 21.3257L15.1814 21.0667V21.876C15.1814 22.0918 15.1111 22.2717 14.9704 22.4156C14.8367 22.5595 14.6608 22.6314 14.4428 22.6314Z" fill="#1D1D1B"/>
<path d="M8.53556 1.68207C8.73073 1.48671 8.73073 1.16997 8.53556 0.974607C8.3404 0.779247 8.02398 0.779247 7.82881 0.974607L8.53556 1.68207ZM1.07781 7.93964C1.07781 8.21592 1.30155 8.43989 1.57756 8.43989L6.07528 8.43989C6.35129 8.43989 6.57503 8.21592 6.57503 7.93964C6.57503 7.66336 6.35129 7.43939 6.07528 7.43939L2.0773 7.43939L2.0773 3.43737C2.0773 3.16109 1.85356 2.93712 1.57756 2.93712C1.30155 2.93712 1.07781 3.16109 1.07781 3.43737L1.07781 7.93964ZM7.82881 0.974607L1.22418 7.58591L1.93093 8.29337L8.53556 1.68207L7.82881 0.974607Z" fill="#1D1D1B"/>
<path d="M25.8081 26.3179C25.613 26.5133 25.613 26.83 25.8081 27.0254C26.0033 27.2208 26.3197 27.2208 26.5149 27.0254L25.8081 26.3179ZM33.2659 20.0604C33.2659 19.7841 33.0421 19.5601 32.7661 19.5601L28.2684 19.5601C27.9924 19.5601 27.7687 19.7841 27.7687 20.0604C27.7687 20.3366 27.9924 20.5606 28.2684 20.5606L32.2664 20.5606L32.2664 24.5626C32.2664 24.8389 32.4901 25.0629 32.7661 25.0629C33.0421 25.0629 33.2659 24.8389 33.2659 24.5626L33.2659 20.0604ZM26.5149 27.0254L33.1195 20.4141L32.4128 19.7066L25.8081 26.3179L26.5149 27.0254Z" fill="#1D1D1B"/>
</svg>
