<svg width="20" height="20" viewBox="0 0 20 20" fill="none" xmlns="http://www.w3.org/2000/svg">
<path d="M4.16667 5.83333H15.8333V16.6667C15.8333 17.1087 15.6577 17.5326 15.3452 17.8452C15.0326 18.1577 14.6087 18.3333 14.1667 18.3333H5.83333C5.39131 18.3333 4.96738 18.1577 4.65482 17.8452C4.34226 17.5326 4.16667 17.1087 4.16667 16.6667V5.83333Z" stroke="#787878" stroke-linecap="round" stroke-linejoin="round"/>
<path d="M2.5 5.83333H17.5" stroke="#787878" stroke-linecap="round" stroke-linejoin="round"/>
<path d="M7.5 2.5H12.5C12.942 2.5 13.366 2.67559 13.6785 2.98816C13.9911 3.30072 14.1667 3.72464 14.1667 4.16667V5.83333H5.83333V4.16667C5.83333 3.72464 6.00893 3.30072 6.32149 2.98816C6.63405 2.67559 7.05797 2.5 7.5 2.5Z" stroke="#787878" stroke-linecap="round" stroke-linejoin="round"/>
<path d="M8.33333 9.16667V14.1667" stroke="#787878" stroke-linecap="round" stroke-linejoin="round"/>
<path d="M11.6667 9.16667V14.1667" stroke="#787878" stroke-linecap="round" stroke-linejoin="round"/>
</svg>
