<svg width="20" height="21" viewBox="0 0 20 21" fill="none" xmlns="http://www.w3.org/2000/svg">
<path d="M3.33334 6.76373H16.6667" stroke="#C5C7C9" stroke-linecap="round" stroke-linejoin="round"/>
<path d="M13.3333 2.59705V4.26371" stroke="#C5C7C9" stroke-linecap="round" stroke-linejoin="round"/>
<path d="M6.66666 2.59705V4.26371" stroke="#C5C7C9" stroke-linecap="round" stroke-linejoin="round"/>
<path d="M2.5 5.09703C2.5 4.17655 3.24619 3.43036 4.16667 3.43036H15.8333C16.7538 3.43036 17.5 4.17655 17.5 5.09703V15.9304C17.5 16.8508 16.7538 17.597 15.8333 17.597H4.16667C3.24619 17.597 2.5 16.8508 2.5 15.9304V5.09703Z" stroke="#C5C7C9" stroke-linecap="round" stroke-linejoin="round"/>
<path d="M13.3333 13.847H13.3353V13.849H13.3333V13.847Z" stroke="#C5C7C9" stroke-linecap="round" stroke-linejoin="round"/>
<path d="M10 13.847H10.002V13.849H10V13.847Z" stroke="#C5C7C9" stroke-linecap="round" stroke-linejoin="round"/>
<path d="M6.66666 13.847H6.66866V13.849H6.66666V13.847Z" stroke="#C5C7C9" stroke-linecap="round" stroke-linejoin="round"/>
<path d="M13.3333 10.5137H13.3353V10.5157H13.3333V10.5137Z" stroke="#C5C7C9" stroke-linecap="round" stroke-linejoin="round"/>
<path d="M10 10.5137H10.002V10.5157H10V10.5137Z" stroke="#C5C7C9" stroke-linecap="round" stroke-linejoin="round"/>
<path d="M6.66666 10.5137H6.66866V10.5157H6.66666V10.5137Z" stroke="#C5C7C9" stroke-linecap="round" stroke-linejoin="round"/>
</svg>
