<svg width="20" height="20" viewBox="0 0 20 20" fill="none" xmlns="http://www.w3.org/2000/svg">
<path d="M9.60107 15.9198L15.95 15.8889" stroke="#787878" stroke-linecap="round" stroke-linejoin="round"/>
<path d="M12.7988 3.73623C12.9662 3.56721 13.1651 3.43282 13.3842 3.34071C13.6033 3.2486 13.8385 3.20062 14.0761 3.19947C14.3138 3.19832 14.5494 3.24402 14.7694 3.33398C14.9893 3.42393 15.1895 3.55639 15.3586 3.72377C15.5276 3.89115 15.6619 4.09018 15.7536 4.30951C15.8452 4.52882 15.8926 4.76414 15.8933 5.00199C15.894 5.23986 15.8478 5.47555 15.7574 5.6956C15.667 5.91567 15.5341 6.11543 15.3664 6.28445L6.76943 14.9729L3.25183 15.9506L4.19534 12.4237L12.7988 3.73623Z" stroke="#787878" stroke-linecap="round" stroke-linejoin="round"/>
</svg>
