<svg width="20" height="21" viewBox="0 0 20 21" fill="none" xmlns="http://www.w3.org/2000/svg">
<path d="M7.5 6.97205H10M10 6.97205H12.5M10 6.97205V13.6387" stroke="#C5C7C9" stroke-linecap="round" stroke-linejoin="round"/>
<path d="M2.5 7.93038C2.5 6.06354 2.5 5.13012 2.86331 4.41708C3.18289 3.78987 3.69282 3.27994 4.32003 2.96036C5.03307 2.59705 5.96649 2.59705 7.83333 2.59705H12.1667C14.0335 2.59705 14.9669 2.59705 15.68 2.96036C16.3072 3.27994 16.8171 3.78987 17.1367 4.41708C17.5 5.13012 17.5 6.06354 17.5 7.93038V12.2637C17.5 14.1306 17.5 15.064 17.1367 15.777C16.8171 16.4042 16.3072 16.9142 15.68 17.2337C14.9669 17.597 14.0335 17.597 12.1667 17.597H7.83333C5.96649 17.597 5.03307 17.597 4.32003 17.2337C3.69282 16.9142 3.18289 16.4042 2.86331 15.777C2.5 15.064 2.5 14.1306 2.5 12.2637V7.93038Z" stroke="#C5C7C9" stroke-linecap="round" stroke-linejoin="round"/>
</svg>
