<svg width="88" height="68" viewBox="184 0 88 68" fill="none" xmlns="http://www.w3.org/2000/svg">
<mask id="mask0_2900_51695" style="mask-type:alpha" maskUnits="userSpaceOnUse" x="184" y="0" width="88" height="68">
<path d="M192.186 67.7156L184.805 11.6653L207.799 34.7114L227.954 0L248.11 34.7114L271.104 11.6653L263.723 67.7156H248.11L227.954 44.385L207.799 67.7156H192.186Z" fill="#737774"/>
</mask>
<g mask="url(#mask0_2900_51695)">
<path d="M210.444 75.569C187.132 67.0079 151.485 50.5758 151.485 -55.7129L243.98 -37.4137C248.487 -7.7292 229.535 39.8298 210.444 75.569C221.771 79.7285 230.186 82.0299 230.186 91.8767C230.186 117.994 202.629 112.98 186.642 114.022C180.394 122.235 176.085 125.737 175.598 122.133C174.786 116.121 179.588 114.482 186.642 114.022C193.173 105.438 201.823 91.709 210.444 75.569Z" fill="white"/>
<path d="M210.444 75.569C187.132 67.0079 151.485 50.5758 151.485 -55.7129L243.98 -37.4137C248.487 -7.7292 229.535 39.8298 210.444 75.569C221.771 79.7285 230.186 82.0299 230.186 91.8767C230.186 117.994 202.629 112.98 186.642 114.022C180.394 122.235 176.085 125.737 175.598 122.133C174.786 116.121 179.588 114.482 186.642 114.022C193.173 105.438 201.823 91.709 210.444 75.569Z" fill="url(#paint0_linear_2900_51695)"/>
<path d="M226.863 3.48666C236.671 32.0063 195.025 79.8114 211.989 84.5964C211.989 84.5964 287.976 86.3994 291.801 35.5351C294.83 -4.74921 250.241 -46.7622 250.241 -46.7622C226.107 -77.0879 211.989 -69.614 211.989 -61.4656C211.989 -44.8188 217.348 -24.183 226.863 3.48666Z" fill="white"/>
<path d="M226.863 3.48666C236.671 32.0063 195.025 79.8114 211.989 84.5964C211.989 84.5964 287.976 86.3994 291.801 35.5351C294.83 -4.74921 250.241 -46.7622 250.241 -46.7622C226.107 -77.0879 211.989 -69.614 211.989 -61.4656C211.989 -44.8188 217.348 -24.183 226.863 3.48666Z" fill="url(#paint1_linear_2900_51695)"/>
<g filter="url(#filter0_d_2900_51695)">
<path d="M248.112 67.9994L271.106 11.6646C271.106 11.6646 260.46 21.765 233.066 50.217L248.112 67.9994Z" fill="white"/>
<path d="M248.112 67.9994L271.106 11.6646C271.106 11.6646 260.46 21.765 233.066 50.217L248.112 67.9994Z" fill="url(#paint2_linear_2900_51695)"/>
</g>
<g filter="url(#filter1_d_2900_51695)">
<path d="M250.453 10.4907C222.421 1.85003 207.76 -1.45966 207.76 -1.45966L207.801 68.2853L223.84 48.0844L250.453 10.4907Z" fill="#00D072"/>
</g>
<path d="M207.802 67.7154L184.808 11.665C184.808 11.665 171.221 66.6531 193.246 95.2537L207.802 67.7154Z" fill="white"/>
<path d="M207.802 67.7154L184.808 11.665C184.808 11.665 171.221 66.6531 193.246 95.2537L207.802 67.7154Z" fill="url(#paint3_linear_2900_51695)"/>
<g filter="url(#filter2_d_2900_51695)">
<path d="M207.8 67.7163L227.955 0.000664292L243.426 26.4609L207.8 67.7163Z" fill="white"/>
<path d="M207.8 67.7163L227.955 0.000664292L243.426 26.4609L207.8 67.7163Z" fill="url(#paint4_linear_2900_51695)"/>
</g>
<path d="M128.05 -42.8809C128.05 -42.8809 153.273 13.1649 172.137 45.7055C178.198 56.1597 179.893 83.4063 175.238 110.955L179.329 124.29C179.329 124.29 170.55 138.697 175.238 110.955L128.05 -42.8809Z" fill="#00D072"/>
</g>
<defs>
<filter id="filter0_d_2900_51695" x="190.162" y="-25.6671" width="123.848" height="142.142" filterUnits="userSpaceOnUse" color-interpolation-filters="sRGB">
<feFlood flood-opacity="0" result="BackgroundImageFix"/>
<feColorMatrix in="SourceAlpha" type="matrix" values="0 0 0 0 0 0 0 0 0 0 0 0 0 0 0 0 0 0 127 0" result="hardAlpha"/>
<feOffset dy="5.57197"/>
<feGaussianBlur stdDeviation="21.4521"/>
<feComposite in2="hardAlpha" operator="out"/>
<feColorMatrix type="matrix" values="0 0 0 0 0.0422944 0 0 0 0 0.551667 0 0 0 0 0.256231 0 0 0 0.3 0"/>
<feBlend mode="normal" in2="BackgroundImageFix" result="effect1_dropShadow_2900_51695"/>
<feBlend mode="normal" in="SourceGraphic" in2="effect1_dropShadow_2900_51695" result="shape"/>
</filter>
<filter id="filter1_d_2900_51695" x="164.856" y="-38.7921" width="128.501" height="155.553" filterUnits="userSpaceOnUse" color-interpolation-filters="sRGB">
<feFlood flood-opacity="0" result="BackgroundImageFix"/>
<feColorMatrix in="SourceAlpha" type="matrix" values="0 0 0 0 0 0 0 0 0 0 0 0 0 0 0 0 0 0 127 0" result="hardAlpha"/>
<feOffset dy="5.57197"/>
<feGaussianBlur stdDeviation="21.4521"/>
<feComposite in2="hardAlpha" operator="out"/>
<feColorMatrix type="matrix" values="0 0 0 0 0.751667 0 0 0 0 0.751667 0 0 0 0 0.751667 0 0 0 0.5 0"/>
<feBlend mode="normal" in2="BackgroundImageFix" result="effect1_dropShadow_2900_51695"/>
<feBlend mode="normal" in="SourceGraphic" in2="effect1_dropShadow_2900_51695" result="shape"/>
</filter>
<filter id="filter2_d_2900_51695" x="181.526" y="-22.8611" width="88.175" height="120.263" filterUnits="userSpaceOnUse" color-interpolation-filters="sRGB">
<feFlood flood-opacity="0" result="BackgroundImageFix"/>
<feColorMatrix in="SourceAlpha" type="matrix" values="0 0 0 0 0 0 0 0 0 0 0 0 0 0 0 0 0 0 127 0" result="hardAlpha"/>
<feOffset dy="3.41225"/>
<feGaussianBlur stdDeviation="13.1371"/>
<feComposite in2="hardAlpha" operator="out"/>
<feColorMatrix type="matrix" values="0 0 0 0 0.0431373 0 0 0 0 0.470588 0 0 0 0 0.278431 0 0 0 0.6 0"/>
<feBlend mode="normal" in2="BackgroundImageFix" result="effect1_dropShadow_2900_51695"/>
<feBlend mode="normal" in="SourceGraphic" in2="effect1_dropShadow_2900_51695" result="shape"/>
</filter>
<linearGradient id="paint0_linear_2900_51695" x1="184.43" y1="-13.2339" x2="209.182" y2="115.174" gradientUnits="userSpaceOnUse">
<stop stop-color="#00D074"/>
<stop offset="0.0001" stop-color="#00D074"/>
<stop offset="1" stop-color="#3CFFA9"/>
</linearGradient>
<linearGradient id="paint1_linear_2900_51695" x1="262.482" y1="65.3189" x2="273.492" y2="6.13586" gradientUnits="userSpaceOnUse">
<stop stop-color="#0A9759"/>
<stop offset="0.604677" stop-color="#00D074"/>
<stop offset="1" stop-color="#89E1AC"/>
</linearGradient>
<linearGradient id="paint2_linear_2900_51695" x1="223.529" y1="115.69" x2="325.91" y2="35.7189" gradientUnits="userSpaceOnUse">
<stop stop-color="#5ED6AE"/>
<stop offset="0.0001" stop-color="#00D074"/>
<stop offset="1" stop-color="#48FF91"/>
</linearGradient>
<linearGradient id="paint3_linear_2900_51695" x1="184.375" y1="18.4945" x2="241.587" y2="82.3513" gradientUnits="userSpaceOnUse">
<stop stop-color="#00D074"/>
<stop offset="0.0001" stop-color="#00D072"/>
<stop offset="1" stop-color="#009250"/>
</linearGradient>
<linearGradient id="paint4_linear_2900_51695" x1="218.328" y1="54.0283" x2="243.757" y2="49.9615" gradientUnits="userSpaceOnUse">
<stop offset="0.0001" stop-color="#00D074"/>
<stop offset="1" stop-color="#09DD96"/>
</linearGradient>
</defs>
</svg>
