<svg width="32" height="32" viewBox="0 0 32 32" fill="none" xmlns="http://www.w3.org/2000/svg">
<path d="M31.725 7.30149L24.6958 0.272367C24.3467 -0.0908203 23.719 -0.0907578 23.37 0.272367L16.3408 7.30149C16.2098 7.43263 16.1205 7.59967 16.0844 7.7815C16.0483 7.96334 16.0668 8.15181 16.1378 8.3231C16.2087 8.49438 16.3288 8.64079 16.483 8.74382C16.6371 8.84685 16.8183 8.90187 17.0037 8.90193H20.0829V31.0603C20.0829 31.578 20.5027 31.9978 21.0204 31.9978H27.0454C27.5632 31.9978 27.9829 31.578 27.9829 31.0603V8.90193H31.0621C31.2475 8.90193 31.4288 8.84694 31.5829 8.74393C31.7371 8.64091 31.8573 8.49449 31.9282 8.32318C31.9992 8.15187 32.0177 7.96336 31.9816 7.78151C31.9454 7.59965 31.8561 7.4326 31.725 7.30149Z" fill="white"/>
<path d="M17.0042 13.0518H10.9792C10.4614 13.0518 10.0417 13.4715 10.0417 13.9893V31.0601C10.0417 31.5778 10.4614 31.9976 10.9792 31.9976H17.0042C17.5219 31.9976 17.9417 31.5778 17.9417 31.0601V13.9893C17.9417 13.4715 17.5219 13.0518 17.0042 13.0518ZM6.9625 21.0851H0.9375C0.41975 21.0851 0 21.5048 0 22.0226V31.0601C0 31.5778 0.41975 31.9976 0.9375 31.9976H6.9625C7.48025 31.9976 7.9 31.5778 7.9 31.0601V22.0226C7.9 21.5048 7.48025 21.0851 6.9625 21.0851Z" fill="white"/>
</svg>
