<svg width="44" height="44" viewBox="0 0 44 44" fill="none" xmlns="http://www.w3.org/2000/svg">
<rect x="9.28125" y="12.375" width="19.9375" height="13.75" rx="1" fill="#E9EAEC" stroke="#1D1D1B"/>
<rect x="14.7812" y="18.2188" width="19.9375" height="13.75" rx="1" fill="white" stroke="#1D1D1B"/>
<path d="M24.6145 30.2217C24.4105 30.2217 24.2381 30.1498 24.0974 30.0059C23.9567 29.862 23.8864 29.6822 23.8864 29.4663V28.8629C23.8864 28.7883 23.9751 28.7494 24.0299 28.7999C24.0887 28.854 24.0479 28.9509 23.9682 28.9447C23.5948 28.9156 23.265 28.8593 22.9788 28.7757C22.6341 28.675 22.3527 28.5743 22.1346 28.4735C21.9517 28.3872 21.8216 28.2649 21.7442 28.1066C21.6738 27.9483 21.6457 27.7865 21.6598 27.621C21.6809 27.4555 21.7407 27.3045 21.8392 27.1678C21.9377 27.0311 22.0643 26.9411 22.2191 26.898C22.3809 26.8476 22.5673 26.8692 22.7783 26.9627C22.919 27.0419 23.1301 27.1246 23.4115 27.2109C23.6999 27.2901 24.0552 27.3296 24.4773 27.3296C24.7728 27.3296 25.005 27.3009 25.1738 27.2433C25.3497 27.1858 25.4728 27.1102 25.5431 27.0167C25.6205 26.916 25.6592 26.8081 25.6592 26.6929C25.6592 26.585 25.6311 26.4951 25.5748 26.4232C25.5256 26.344 25.4411 26.2757 25.3215 26.2181C25.2019 26.1534 25.0366 26.0958 24.8256 26.0455L23.6331 25.7865C22.9788 25.6354 22.4899 25.3836 22.1663 25.0311C21.8497 24.6713 21.6914 24.2073 21.6914 23.639C21.6914 23.2073 21.7934 22.8224 21.9975 22.4843C22.2085 22.139 22.5005 21.8584 22.8733 21.6425C23.1853 21.4653 23.5399 21.3415 23.9372 21.271C23.9971 21.2603 24.0232 21.3366 23.9706 21.3671C23.9332 21.3888 23.8864 21.3618 23.8864 21.3185V20.6929C23.8864 20.4771 23.9567 20.2972 24.0974 20.1533C24.2381 20.0094 24.4105 19.9375 24.6145 19.9375C24.8256 19.9375 25.0014 20.0094 25.1421 20.1533C25.2828 20.2972 25.3532 20.4771 25.3532 20.6929V21.2874C25.3532 21.3428 25.2918 21.3762 25.2453 21.3461C25.1861 21.3077 25.2144 21.2204 25.2846 21.2282C25.4801 21.2499 25.6859 21.2909 25.9019 21.3512C26.2115 21.4303 26.4823 21.5418 26.7145 21.6857C26.8763 21.772 26.9889 21.8908 27.0522 22.0418C27.1225 22.1929 27.1471 22.3476 27.126 22.5059C27.112 22.6569 27.0557 22.7936 26.9572 22.9159C26.8657 23.0382 26.7391 23.121 26.5773 23.1641C26.4225 23.2001 26.2361 23.1713 26.018 23.0778C25.8562 23.0059 25.6733 22.9483 25.4693 22.9051C25.2723 22.8548 25.019 22.8296 24.7095 22.8296C24.3366 22.8296 24.0482 22.898 23.8442 23.0346C23.6472 23.1713 23.5487 23.3476 23.5487 23.5634C23.5487 23.7073 23.605 23.8296 23.7175 23.9303C23.8371 24.0239 24.0517 24.1066 24.3612 24.1785L25.5642 24.4483C26.2326 24.5994 26.725 24.8512 27.0416 25.2037C27.3652 25.5491 27.527 25.9987 27.527 26.5527C27.527 26.9843 27.425 27.3656 27.221 27.6965C27.017 28.0275 26.7321 28.2973 26.3662 28.5059C26.0544 28.6873 25.6973 28.8143 25.2951 28.8869C25.2335 28.898 25.1955 28.8253 25.2383 28.7796C25.2795 28.7357 25.3532 28.7648 25.3532 28.8251V29.4663C25.3532 29.6822 25.2828 29.862 25.1421 30.0059C25.0085 30.1498 24.8326 30.2217 24.6145 30.2217Z" fill="#1D1D1B"/>
</svg>
