<svg width="64" height="64" viewBox="0 0 64 64" fill="none" xmlns="http://www.w3.org/2000/svg">
<rect width="64" height="64" rx="8" fill="white"/>
<rect x="23.1465" y="23.1465" width="17.7077" height="10.8154" fill="#00D072" stroke="#060606"/>
<path d="M46.3992 17.2998H17.5992C16.9629 17.3006 16.353 17.5537 15.903 18.0036C15.4531 18.4535 15.2 19.0635 15.1992 19.6998V38.5332C15.1999 39.1695 15.4529 39.7796 15.9029 40.2296C16.3528 40.6795 16.9629 40.9326 17.5992 40.9332H28.2144L25.9284 45.4998H22.3992C22.2401 45.4998 22.0875 45.563 21.975 45.6755C21.8624 45.7881 21.7992 45.9407 21.7992 46.0998C21.7992 46.2589 21.8624 46.4115 21.975 46.5241C22.0875 46.6366 22.2401 46.6998 22.3992 46.6998H41.5992C41.7583 46.6998 41.911 46.6366 42.0235 46.5241C42.136 46.4115 42.1992 46.2589 42.1992 46.0998C42.1992 45.9407 42.136 45.7881 42.0235 45.6755C41.911 45.563 41.7583 45.4998 41.5992 45.4998H38.07L35.79 40.9332H46.3992C47.0355 40.9326 47.6456 40.6795 48.0956 40.2296C48.5455 39.7796 48.7986 39.1695 48.7992 38.5332V19.6998C48.7984 19.0635 48.5453 18.4535 48.0954 18.0036C47.6455 17.5537 47.0355 17.3006 46.3992 17.2998ZM36.729 45.4998H27.27L29.556 40.9332H34.4478L36.729 45.4998ZM46.3992 39.7332H17.5992C17.2811 39.7329 16.976 39.6064 16.751 39.3814C16.5261 39.1564 16.3995 38.8514 16.3992 38.5332H47.5992C47.5989 38.8514 47.4724 39.1564 47.2474 39.3814C47.0224 39.6064 46.7174 39.7329 46.3992 39.7332ZM47.5992 37.3332H16.3992V19.6998C16.3995 19.3816 16.5261 19.0766 16.751 18.8516C16.976 18.6267 17.2811 18.5001 17.5992 18.4998H46.3992C46.7174 18.5001 47.0224 18.6267 47.2474 18.8516C47.4724 19.0766 47.5989 19.3816 47.5992 19.6998V37.3332Z" fill="#060606"/>
</svg>
