<svg width="64" height="64" viewBox="0 0 64 64" fill="none" xmlns="http://www.w3.org/2000/svg">
<rect width="64" height="64" rx="8" fill="white"/>
<path d="M51.5612 23.303H54V22H51.5612C47.271 22 43.7714 25.4415 43.6105 29.7305H43.0049C42.8424 25.8104 39.6234 22.6526 35.7005 22.6526H28.3802C24.4573 22.6526 21.2388 25.8104 21.0758 29.7305H20.3895C20.2281 25.4415 16.729 22 12.4383 22H10V23.303H12.4383C16.0142 23.303 18.9191 26.1633 19.0833 29.7305H15.9829C15.8204 27.9151 14.2732 26.4315 12.4383 26.4315H10V27.7345H12.4383C13.5797 27.7345 14.5466 28.6331 14.6926 29.7499C13.2662 29.848 12.1341 31.0374 12.1341 32.5006C12.1341 33.9637 13.2662 35.1531 14.6926 35.2512C14.5449 36.368 13.5781 37.2639 12.4383 37.2639H10V38.5669H12.4383C14.2715 38.5669 15.8187 37.0844 15.9829 35.2706H19.0822C18.918 38.8378 16.0147 41.697 12.4383 41.697H10V43H12.4383C16.7279 43 20.227 39.5597 20.3895 35.2711H21.0758C21.2383 39.1907 24.4573 42.3485 28.3802 42.3485H31.4921V37.917H28.3802C26.8972 37.917 25.6443 36.7326 25.484 35.2711H25.8601C27.3743 35.2711 28.6053 34.0296 28.6053 32.5011C28.6053 30.9726 27.3749 29.7311 25.8601 29.7311H25.484C25.6443 28.2691 26.8978 27.0846 28.3802 27.0846H35.7005C37.1835 27.0846 38.4364 28.2691 38.5967 29.7311H38.1405C36.6257 29.7311 35.3953 30.9726 35.3953 32.5011C35.3953 34.0296 36.6257 35.2711 38.1405 35.2711H38.5967C38.4364 36.7331 37.1835 37.917 35.7005 37.917H32.5886V42.3485H35.7005C39.6234 42.3485 42.8424 39.1907 43.0049 35.2711H43.6105C43.773 39.5597 47.2721 43 51.5612 43H54V41.697H51.5612C47.9853 41.697 45.0814 38.8383 44.9178 35.2706H48.0171C48.1813 37.0844 49.7279 38.5669 51.5612 38.5669H54V37.2639H51.5612C50.4219 37.2639 49.4545 36.368 49.3074 35.2512C50.7332 35.1526 51.8653 33.9637 51.8653 32.5006C51.8653 31.0374 50.7332 29.8474 49.3074 29.7499C49.454 28.6331 50.4203 27.7345 51.5612 27.7345H54V26.4315H51.5612C49.7268 26.4315 48.1796 27.9151 48.0171 29.7305H44.9167C45.0803 26.1633 47.9853 23.303 51.5612 23.303ZM25.8595 30.8374C26.7671 30.8374 27.5072 31.5842 27.5072 32.5006C27.5072 33.4163 26.7671 34.1631 25.8595 34.1631H14.8799C13.9717 34.1631 13.2322 33.4158 13.2322 32.5006C13.2322 31.5842 13.9723 30.8374 14.8799 30.8374H25.8595ZM49.1201 30.8374C50.0277 30.8374 50.7678 31.5842 50.7678 32.5006C50.7678 33.4163 50.0277 34.1631 49.1201 34.1631H38.1405C37.2323 34.1631 36.4922 33.4158 36.4922 32.5006C36.4922 31.5842 37.2323 30.8374 38.1405 30.8374H49.1201Z" fill="#060606"/>
<path d="M38.4984 35.2686H43.0583C42.3319 42.8549 37.086 42.3707 32.5664 42.3707L32.589 37.8915H35.1491C37.9527 37.8915 38.1352 36.4791 38.4984 35.2686Z" fill="#00D072"/>
<path d="M25.5837 35.2686H21.0238C21.7501 42.8549 26.9961 42.3707 31.5156 42.3707L31.4931 37.8915H28.933C26.1294 37.8915 25.9468 36.4791 25.5837 35.2686Z" fill="#00D072"/>
<path d="M38.4957 29.7871H43.0556C42.3293 22.2007 36.9219 22.5236 32.4023 22.5236L32.5863 27.1642H35.1464C37.95 27.1642 38.1325 28.5765 38.4957 29.7871Z" fill="#00D072"/>
<path d="M25.5834 29.7871H21.0235C21.7498 22.2007 27.5607 22.5173 32.8066 22.5173L32.6452 27.1642H28.9327C26.1291 27.1642 25.9466 28.5765 25.5834 29.7871Z" fill="#00D072"/>
</svg>
