<svg width="42" height="44" viewBox="0 0 42 44" fill="none" xmlns="http://www.w3.org/2000/svg">
<path d="M20.9989 21.1543C18.2972 21.1543 16.0918 23.321 16.0918 25.9932C16.0918 28.6654 18.289 30.8321 20.9989 30.8321C23.7088 30.8321 25.906 28.6654 25.906 25.9932C25.906 23.321 23.7088 21.1543 20.9989 21.1543ZM20.9989 29.219C19.1923 29.219 17.7194 27.7666 17.7194 25.9851C17.7194 24.2036 19.1923 22.7511 20.9989 22.7511C22.8055 22.7511 24.2785 24.2036 24.2785 25.9851C24.2785 27.7666 22.8055 29.219 20.9989 29.219Z" fill="#060606"/>
<path d="M16.5806 36.6911C16.1411 36.6109 15.7098 36.8998 15.6284 37.3331L14.6112 42.6697C14.5299 43.103 14.8228 43.5284 15.2623 43.6086C15.3111 43.6166 15.3599 43.6246 15.4169 43.6246C15.7994 43.6246 16.1411 43.3598 16.2144 42.9666L17.2316 37.63C17.313 37.1967 17.02 36.7713 16.5806 36.6911Z" fill="#060606"/>
<path d="M25.4185 36.6913C24.9791 36.7716 24.6861 37.1889 24.7675 37.6302L25.7847 42.9668C25.8579 43.352 26.1997 43.6168 26.5822 43.6168C26.631 43.6168 26.6798 43.6168 26.7368 43.6008C27.1762 43.5205 27.4692 43.1032 27.3878 42.6619L26.3706 37.3253C26.2892 36.8919 25.8661 36.6031 25.4185 36.6833L25.4185 36.6913Z" fill="#060606"/>
<path d="M9.30555 30.4874C11.6655 30.4874 13.5779 28.5936 13.5779 26.2745C13.5779 23.9553 11.6574 22.0615 9.30555 22.0615C6.95373 22.0615 5.0332 23.9553 5.0332 26.2745C5.0332 28.5936 6.95373 30.4874 9.30555 30.4874ZM9.30555 23.6666C10.7622 23.6666 11.9503 24.8381 11.9503 26.2746C11.9503 27.711 10.7622 28.8826 9.30555 28.8826C7.84887 28.8826 6.66077 27.711 6.66077 26.2746C6.66077 24.8381 7.84887 23.6666 9.30555 23.6666Z" fill="#060606"/>
<path d="M5.603 36.0807C5.16356 35.9924 4.73224 36.2733 4.64271 36.7066L3.78012 40.8875C3.69061 41.3208 3.97543 41.7461 4.4149 41.8344C4.47187 41.8424 4.52069 41.8505 4.57766 41.8505C4.96014 41.8505 5.29379 41.5857 5.37514 41.2085L6.23772 37.0276C6.32724 36.5943 6.04247 36.169 5.603 36.0807Z" fill="#060606"/>
<path d="M32.6942 30.4874C35.0542 30.4874 36.9666 28.5936 36.9666 26.2745C36.9666 23.9553 35.046 22.0615 32.6942 22.0615C30.3424 22.0615 28.4219 23.9553 28.4219 26.2745C28.4219 28.5936 30.3424 30.4874 32.6942 30.4874ZM32.6942 23.6666C34.1509 23.6666 35.339 24.8381 35.339 26.2746C35.339 27.711 34.1509 28.8826 32.6942 28.8826C31.2375 28.8826 30.0494 27.711 30.0494 26.2746C30.0494 24.8381 31.2375 23.6666 32.6942 23.6666Z" fill="#060606"/>
<path d="M40.1804 36.4586C39.8142 33.7463 37.4542 31.7 34.6795 31.7H30.692C29.4388 31.7 28.2506 32.1093 27.2822 32.8636C26.1917 32.021 24.8246 31.5234 23.3516 31.5234H18.6317C17.1587 31.5234 15.7916 32.021 14.7011 32.8636C13.7327 32.1092 12.5446 31.7 11.2913 31.7H7.30382C4.52884 31.7 2.16884 33.7463 1.81072 36.4105L0.931837 40.8963C0.850459 41.3297 1.13528 41.755 1.57474 41.8352C1.62357 41.8432 1.68053 41.8513 1.72936 41.8513C2.11184 41.8513 2.45361 41.5864 2.52684 41.2013L3.41385 36.6673C3.66613 34.7494 5.3425 33.305 7.29558 33.305H11.2831C12.105 33.305 12.8781 33.5537 13.5373 34.0111C12.8781 34.8617 12.4305 35.8729 12.2841 36.9883L11.2424 42.686C11.161 43.1193 11.454 43.5366 11.9016 43.6168C12.3491 43.6971 12.7642 43.4082 12.8456 42.9669L13.8872 37.2374C14.1964 34.9022 16.2309 33.1367 18.6234 33.1367H23.3434C25.7359 33.1367 27.7704 34.9022 28.0877 37.2775L29.1294 42.9751C29.2026 43.3603 29.5444 43.6331 29.9269 43.6331C29.9757 43.6331 30.0245 43.6331 30.0734 43.6171C30.5128 43.5368 30.8139 43.1195 30.7325 42.6862L29.699 37.0286C29.5525 35.8971 29.0968 34.878 28.4295 34.0193C29.0886 33.5619 29.8617 33.3132 30.6836 33.3132H34.6712C36.6324 33.3132 38.3007 34.7576 38.5611 36.7236L39.4399 41.2095C39.5132 41.5946 39.855 41.8594 40.2374 41.8594C40.2863 41.8594 40.3432 41.8594 40.3921 41.8434C40.8315 41.7631 41.1244 41.3378 41.035 40.9045L40.1642 36.4669L40.1804 36.4586Z" fill="#060606"/>
<path d="M37.3576 36.7066C37.2681 36.2733 36.8368 35.9924 36.3973 36.0807C35.9578 36.1689 35.6731 36.5942 35.7625 37.0276L36.6251 41.2085C36.7065 41.5856 37.0402 41.8504 37.4226 41.8504C37.4796 41.8504 37.5284 41.8504 37.5854 41.8344C38.0248 41.7461 38.3096 41.3208 38.2201 40.8874L37.3576 36.7066Z" fill="#060606"/>
<path d="M20.7157 19.5021C20.8052 19.5342 20.9029 19.5503 21.0005 19.5503C21.0982 19.5503 21.1958 19.5342 21.2853 19.5021C25.6798 17.8972 28.6419 13.7161 28.6419 9.09389V3.34026C28.6419 3.10754 28.5443 2.89087 28.3652 2.73839C28.1862 2.58591 27.9502 2.5137 27.7223 2.5458C26.6726 2.69024 25.574 2.60197 24.5649 2.29703C23.157 1.8637 22.1642 1.10137 21.5783 0.531599C21.2609 0.218634 20.7482 0.218634 20.4309 0.531599C19.8449 1.10137 18.8603 1.86372 17.4443 2.29703C16.4352 2.60197 15.3447 2.69024 14.2868 2.5458C14.0589 2.5137 13.8148 2.58592 13.6439 2.73839C13.473 2.89086 13.3672 3.10753 13.3672 3.34026V9.09389C13.3672 13.7161 16.3212 17.8972 20.7238 19.5021H20.7157ZM14.995 4.20718C15.9878 4.23928 16.9887 4.11088 17.9246 3.82199C19.0476 3.47693 20.0974 2.91522 21.0007 2.17695C21.904 2.91522 22.9538 3.48498 24.0767 3.82199C25.0207 4.11088 26.0136 4.23928 27.0064 4.20718V9.0942C27.0064 12.9461 24.6057 16.4446 21.0008 17.8893C17.3957 16.4448 14.9952 12.9461 14.9952 9.0942L14.995 4.20718Z" fill="#00D072"/>
<path d="M21.0006 1.62305L14.4531 3.63855V10.8944L15.6808 14.5223L21.0006 18.9564L25.502 16.1347L27.5481 11.2975V3.63855L21.0006 1.62305Z" fill="#00D072"/>
<path d="M20.3483 12.6888H20.3971C20.6331 12.6728 20.8447 12.5604 20.9911 12.3839L24.8241 7.54499C25.1008 7.1919 25.0357 6.6944 24.6857 6.42153C24.3277 6.14869 23.8232 6.21289 23.5464 6.55795L20.2751 10.6826L18.3952 8.8289C18.0778 8.51593 17.5651 8.51593 17.2478 8.8289C16.9304 9.14187 16.9304 9.64744 17.2478 9.96037L19.7787 12.4561C19.9333 12.6085 20.1367 12.6888 20.3565 12.6888L20.3483 12.6888Z" fill="#ECF5F1"/>
</svg>
