<svg width="80" height="80" viewBox="0 0 80 80" fill="none" xmlns="http://www.w3.org/2000/svg">
<path d="M68.1607 6.54665V2.40602C68.1607 1.084 67.0852 0.00852779 65.7632 0.00852779H59.2041C58.3731 0.00852779 57.6388 0.428215 57.2001 1.06634C46.5435 -1.79866 35.2164 1.19509 27.3945 9.0168C15.6558 20.7555 15.3772 39.6474 26.5729 51.7227L24.2381 53.996L22.8364 52.5942C21.649 51.4069 19.7162 51.4069 18.5289 52.5942L1.32984 69.7933C-0.443281 71.5664 -0.443281 74.4514 1.32984 76.2245L3.83171 78.7264C5.52999 80.4245 8.29296 80.4245 9.99139 78.7264L27.3261 61.3917C28.5134 60.2041 28.5132 58.2717 27.3261 57.0844L25.8948 55.6532L28.2289 53.3807C33.3704 58.1491 40.0023 61.0267 47.032 61.5131C47.3419 61.5345 47.6476 61.4319 47.8819 61.228C48.1162 61.024 48.2599 60.7354 48.2815 60.4255C48.3029 60.1155 48.2004 59.8098 47.9964 59.5755C47.7924 59.3411 47.5036 59.1974 47.1937 59.176C32.5743 58.1644 20.7292 46.071 20.7292 30.7985C20.7292 11.9526 38.6507 -1.62006 56.7727 3.3779V6.38993C40.2801 1.26056 23.5867 13.6744 23.5867 30.831C23.5867 44.8966 35.0017 56.4203 49.1762 56.4203C61.2335 56.4203 67.598 48.4561 67.8423 48.3339L67.8456 48.3302C67.8546 48.3206 67.8633 48.3109 67.8719 48.301C72.3179 43.5453 74.7654 37.343 74.7654 30.831C74.7654 24.4615 72.4237 18.3879 68.161 13.6751V9.59523C74.1377 14.944 77.623 22.5344 77.623 30.798C77.623 45.336 66.777 57.4138 52.4463 59.0567C52.1377 59.0922 51.8558 59.2488 51.6625 59.4921C51.4693 59.7354 51.3806 60.0454 51.4159 60.3541C51.4333 60.507 51.4808 60.6549 51.5554 60.7894C51.6301 60.9239 51.7305 61.0424 51.851 61.1381C51.9715 61.2338 52.1097 61.3049 52.2576 61.3471C52.4055 61.3894 52.5604 61.4021 52.7132 61.3846C68.2171 59.6071 79.9657 46.5416 79.9658 30.7983C79.9655 21.1821 75.6023 12.3784 68.1607 6.54665ZM8.33452 77.0694C7.54999 77.8539 6.27327 77.8539 5.48859 77.0694L2.98672 74.5675C2.12703 73.7078 2.12703 72.3092 2.98672 71.4495L12.0119 62.4244L17.4956 67.9081L8.33452 77.0694ZM19.1523 66.2517L13.6686 60.768L15.3272 59.1094L20.8109 64.5931L19.1523 66.2517ZM25.6693 59.7347L22.4678 62.9363L16.984 57.4525L20.1859 54.2508C20.4575 53.9791 20.9083 53.9792 21.1798 54.2508L25.6697 58.7406C25.9411 59.0127 25.9411 59.463 25.6693 59.7347ZM38.6823 51.5703C36.1569 50.2862 33.8859 48.5538 31.98 46.4577V29.0901C31.98 29.0408 32.02 29.0008 32.069 29.0008H38.6825L38.6823 51.5703ZM47.7274 54.0294C45.4346 53.8905 43.1755 53.4091 41.0253 52.6011V20.2066C41.0253 20.1831 41.0346 20.1605 41.0512 20.1438C41.0678 20.1271 41.0903 20.1177 41.1139 20.1176H47.7274V54.0294ZM47.7274 11.3235V17.7748H41.1139C39.7731 17.7748 38.6825 18.8657 38.6825 20.2066V26.6579H32.069C30.7279 26.6579 29.6372 27.7488 29.6372 29.0899V43.4122C19.6887 28.0163 30.8064 7.58446 49.176 7.58446C51.7828 7.58446 54.3342 8.01321 56.7727 8.85696V8.89149H50.1595C48.8182 8.89149 47.7274 9.98258 47.7274 11.3235ZM56.7727 52.805C54.613 53.5525 52.3543 53.9754 50.0704 54.06V11.3237C50.0704 11.2746 50.1104 11.2346 50.1595 11.2346H56.7729L56.7727 52.805ZM72.4223 30.831C72.4223 35.6822 70.9262 40.3439 68.1607 44.2471V33.4616C68.1607 33.3078 68.1304 33.1555 68.0715 33.0133C68.0127 32.8712 67.9264 32.7421 67.8176 32.6333C67.7088 32.5245 67.5797 32.4382 67.4376 32.3794C67.2955 32.3205 67.1431 32.2902 66.9893 32.2902C66.8355 32.2902 66.6831 32.3205 66.541 32.3794C66.3989 32.4382 66.2698 32.5245 66.161 32.6333C66.0522 32.7421 65.9659 32.8712 65.9071 33.0133C65.8482 33.1555 65.8179 33.3078 65.8179 33.4616V47.058C63.8787 49.0485 61.584 50.6753 59.1157 51.8472V2.4404C59.1157 2.41686 59.125 2.39428 59.1416 2.37759C59.1582 2.3609 59.1808 2.35146 59.2043 2.35134H65.7634C65.7934 2.35134 65.818 2.37587 65.818 2.40602V27.9951C65.818 28.1489 65.8484 28.3012 65.9072 28.4433C65.9661 28.5855 66.0524 28.7146 66.1611 28.8234C66.2699 28.9321 66.3991 29.0184 66.5412 29.0773C66.6833 29.1362 66.8356 29.1665 66.9895 29.1665C67.1433 29.1665 67.2956 29.1362 67.4377 29.0773C67.5798 29.0184 67.709 28.9321 67.8178 28.8234C67.9265 28.7146 68.0128 28.5855 68.0717 28.4433C68.1306 28.3012 68.1609 28.1489 68.1609 27.9951V17.4149C70.926 21.318 72.4223 25.9797 72.4223 30.831Z" fill="#1D1D1B"/>
</svg>
