<svg width="80" height="81" viewBox="0 0 80 81" fill="none" xmlns="http://www.w3.org/2000/svg">
<g clip-path="url(#clip0_2453_650)">
<path d="M66.0156 42.6089C65.7069 42.6089 65.4107 42.7316 65.1924 42.9499C64.9741 43.1683 64.8514 43.4644 64.8514 43.7732C64.8514 44.5883 64.1883 45.2514 63.3731 45.2514C62.5581 45.2514 61.8948 44.5883 61.8948 43.7732C61.8948 43.4644 61.7722 43.1683 61.5539 42.9499C61.3355 42.7316 61.0394 42.6089 60.7306 42.6089C60.4219 42.6089 60.1257 42.7316 59.9074 42.9499C59.6891 43.1683 59.5664 43.4644 59.5664 43.7732C59.5664 45.8722 61.2742 47.5799 63.3731 47.5799C65.472 47.5799 67.1798 45.8721 67.1798 43.7732C67.1799 43.6203 67.1498 43.4689 67.0913 43.3276C67.0328 43.1864 66.947 43.058 66.8389 42.9499C66.7308 42.8418 66.6024 42.756 66.4612 42.6975C66.3199 42.639 66.1685 42.6089 66.0156 42.6089Z" fill="#1D1D1B"/>
<path d="M76.9444 42.7993L73.6675 41.7496C73.2478 41.6151 72.917 41.2801 72.7828 40.8533C72.0922 38.6576 71.05 36.5962 69.6852 34.7262C69.0631 33.8738 68.3714 33.0599 67.6158 32.2851C68.0992 30.1643 68.362 27.7641 68.328 25.6905C68.2792 22.7241 67.6864 20.9843 66.5158 20.3712C65.8853 20.0405 63.9666 19.0362 53.5811 23.7902C53.3378 23.9021 53.1071 24.0394 52.8928 24.2001C52.1852 24.01 51.4731 23.8371 50.757 23.6816C50.6703 23.6627 50.5809 23.646 50.4936 23.6276C51.3437 21.7721 51.8276 19.77 51.9189 17.7312C51.9258 17.5784 51.9025 17.4258 51.8503 17.2821C51.7982 17.1383 51.7183 17.0062 51.6151 16.8934C51.5119 16.7806 51.3875 16.6891 51.249 16.6244C51.1105 16.5596 50.9606 16.5228 50.8078 16.516C50.167 16.4841 49.6213 16.9844 49.5927 17.6269C49.4409 21.0162 48.035 24.2051 45.6341 26.6062C44.2469 27.9951 42.5731 29.0643 40.7297 29.739C37.6211 29.3033 34.467 29.3033 31.3584 29.739C29.515 29.0643 27.8412 27.9951 26.4541 26.6062C23.8925 24.0446 22.4817 20.6388 22.4817 17.0162C22.4817 13.3933 23.8925 9.98772 26.4541 7.42616C29.0156 4.86444 32.4216 3.45366 36.0441 3.45366C39.6666 3.45366 43.0725 4.86444 45.6341 7.42616C46.6576 8.44756 47.5112 9.62616 48.1623 10.9173C48.2311 11.0538 48.3261 11.1755 48.4419 11.2754C48.5577 11.3753 48.692 11.4514 48.8372 11.4993C48.9824 11.5473 49.1356 11.5661 49.2881 11.5548C49.4406 11.5435 49.5894 11.5023 49.7259 11.4335C49.8625 11.3648 49.9842 11.2698 50.0841 11.154C50.1839 11.0382 50.26 10.9039 50.3079 10.7587C50.3559 10.6135 50.3747 10.4603 50.3635 10.3079C50.3522 10.1554 50.311 10.0066 50.2422 9.87006C49.4823 8.36084 48.4859 6.98475 47.2808 5.77944C44.2794 2.77803 40.2888 1.12506 36.0442 1.12506C31.7997 1.12506 27.8091 2.77803 24.8077 5.77944C21.8063 8.781 20.1533 12.7715 20.1533 17.016C20.1533 21.2605 21.8063 25.2512 24.8077 28.2526C25.655 29.1007 26.5956 29.8502 27.6116 30.4866L27.6125 30.4865C26.8879 30.6742 26.1698 30.8866 25.4597 31.1233C25.1682 31.2224 24.9278 31.4328 24.7911 31.7085C24.6543 31.9843 24.6324 32.303 24.7299 32.595C24.8275 32.8869 25.0368 33.1283 25.3119 33.2664C25.587 33.4045 25.9056 33.4281 26.198 33.3319C32.5473 31.2093 39.5411 31.2093 45.8905 33.3319C46.0355 33.3806 46.1886 33.4002 46.3412 33.3896C46.4938 33.3789 46.6428 33.3383 46.7796 33.27C46.9165 33.2017 47.0385 33.1071 47.1388 32.9916C47.239 32.8761 47.3155 32.7419 47.3638 32.5968C47.4617 32.3039 47.4392 31.9842 47.3014 31.7079C47.1636 31.4315 46.9216 31.2213 46.6288 31.1233C45.9186 30.8865 45.2006 30.6741 44.4759 30.4865L44.4769 30.4866C45.4929 29.8502 46.4335 29.1007 47.2808 28.2526C48.0393 27.4926 48.7191 26.6579 49.3098 25.7613C49.6308 25.8237 49.9494 25.889 50.2633 25.9571C50.6814 26.0479 51.0977 26.1454 51.5102 26.2477C51.4972 26.2983 51.4839 26.3488 51.4731 26.4002C50.9053 29.0948 50.9422 31.4779 51.5827 33.483C52.1583 35.2854 53.1972 36.7455 54.6702 37.8232C56.4063 39.0932 58.5022 39.6418 60.4008 39.6418C61.8297 39.6418 63.147 39.3308 64.1145 38.7829C65.2089 38.163 66.1258 36.8569 66.8516 34.896C67.1848 35.2846 67.5027 35.686 67.8047 36.0993C69.0199 37.764 69.9475 39.5987 70.5619 41.5521C70.9227 42.6994 71.8183 43.6023 72.9575 43.9674L76.2344 45.0171C76.6523 45.1499 77.017 45.4124 77.2755 45.7666C77.534 46.1209 77.6729 46.5483 77.6719 46.9868V52.4204C77.6729 52.8589 77.534 53.2863 77.2755 53.6405C77.017 53.9947 76.6523 54.2573 76.2344 54.3901L70.9548 56.0812C70.1102 56.3519 69.3953 56.9324 68.942 57.7158C66.8678 61.3005 63.6067 64.2669 59.2488 66.5327C59.0018 66.66 58.7872 66.8421 58.6213 67.0649C58.4555 67.2878 58.3427 67.5456 58.2916 67.8187L56.6006 76.7723C56.5779 76.8919 56.5141 76.9999 56.4203 77.0776C56.3265 77.1553 56.2085 77.1978 56.0867 77.1979H50.5888C50.467 77.1978 50.349 77.1553 50.2552 77.0776C50.1614 76.9999 50.0976 76.8919 50.0748 76.7723L49.1383 71.824C49.0509 71.3564 48.7848 70.9412 48.3964 70.6665C48.0081 70.3918 47.528 70.2792 47.058 70.3526C44.6897 70.7107 42.2494 70.8921 39.8052 70.8921C37.9867 70.8921 36.1916 70.7907 34.4692 70.5905C33.5169 70.481 32.6297 71.1302 32.4517 72.0705L31.5617 76.7723C31.539 76.8919 31.4752 76.9999 31.3814 77.0776C31.2876 77.1553 31.1696 77.1978 31.0478 77.1979H25.5498C25.4275 77.1976 25.309 77.1545 25.215 77.0761C25.1211 76.9977 25.0575 76.8889 25.0353 76.7685L23.4072 68.3119C23.3557 68.0433 23.2446 67.7896 23.082 67.5696C22.9194 67.3496 22.7095 67.1689 22.4678 67.0409C15.0391 63.0751 11.1125 56.4494 11.1125 47.8807C11.1125 43.5513 12.0597 39.723 13.9277 36.5018C15.6708 33.4957 18.2167 31.0102 21.4947 29.1141C21.762 28.9595 21.9569 28.705 22.0365 28.4066C22.1162 28.1083 22.0741 27.7905 21.9195 27.5232C21.7648 27.256 21.5104 27.0611 21.2121 26.9815C20.9138 26.9018 20.5961 26.9438 20.3288 27.0983C13.9727 30.7752 10.1391 36.4477 9.08359 43.6524V43.6523C8.97156 43.6421 8.85938 43.6324 8.74766 43.6208C8.76797 42.8435 8.62735 42.0591 8.32109 41.2979C7.64563 39.6188 6.25813 38.4069 4.78609 38.2105C3.62609 38.0552 2.52219 38.5477 1.75609 39.5599C0.645313 41.0277 0.826406 42.1893 1.17375 42.9052C1.76016 44.1135 3.2675 44.9682 5.76891 45.5055C5.69757 45.6121 5.62177 45.7156 5.54172 45.8158C4.06375 47.6694 2.3225 48.0793 1.19188 48.1179C0.53 48.1402 0 48.6716 0 49.334V49.3396C0 49.9929 0.515469 50.5257 1.16813 50.5555C1.25172 50.5594 1.33906 50.5615 1.43 50.5615C2.86063 50.5615 5.15672 50.0338 7.36266 47.2677C7.71094 46.8312 7.99469 46.3705 8.21281 45.8946C8.4325 45.9194 8.64359 45.9407 8.84578 45.9594L8.84594 45.9582C8.80522 46.5982 8.78463 47.2394 8.78422 47.8807C8.78422 52.7288 9.94 57.0515 12.2192 60.7291C14.3208 64.1198 17.3297 66.896 21.1653 68.9838L22.7481 77.2051C23.0027 78.5501 24.1809 79.5263 25.5498 79.5263H31.0478C32.4167 79.5263 33.595 78.5501 33.8495 77.2051L34.6542 72.9538C36.3255 73.1309 38.0558 73.2205 39.805 73.2205C42.205 73.2205 44.6022 73.0534 46.9384 72.7234L47.7867 77.2054C48.0414 78.5504 49.2197 79.5265 50.5884 79.5265H56.0864C57.4553 79.5265 58.6336 78.5502 58.8883 77.2048L60.5347 68.4874C65.1859 66.0279 68.6919 62.7969 70.9572 58.8819C71.1205 58.5998 71.3719 58.3927 71.665 58.2988L76.9444 56.6077C77.8328 56.3253 78.6081 55.767 79.1575 55.014C79.707 54.2609 80.0021 53.3523 80 52.4201V46.9865C80.0022 46.0543 79.7071 45.1457 79.1576 44.3927C78.6081 43.6397 77.8328 43.0816 76.9444 42.7993ZM65.8247 28.9622C65.3766 32.7944 64.1745 36.0726 62.9667 36.7566C61.5939 37.5343 58.4244 37.6844 56.0447 35.9437C53.6622 34.2008 52.8692 31.0668 53.7513 26.8802C53.8398 26.4597 54.1386 26.0958 54.5503 25.9074C60.3791 23.2393 63.7395 22.3666 64.988 22.3666C65.1764 22.3666 65.3167 22.3865 65.4102 22.423C65.7852 22.8227 66.277 25.0947 65.8247 28.9622ZM3.26891 41.8885C3.14844 41.6401 3.43281 41.2033 3.61313 40.9649C3.89891 40.5874 4.16219 40.5102 4.36109 40.5102C4.40313 40.5102 4.44234 40.5137 4.47828 40.5185C5.01359 40.5899 5.76359 41.179 6.16094 42.1666C6.30021 42.5173 6.38245 42.888 6.40453 43.2646C4.79281 42.9307 3.54063 42.4493 3.26891 41.8885Z" fill="#1D1D1B"/>
<path d="M37.1747 15.6816V11.5154C38.6115 11.6181 39.1452 12.2748 39.6377 12.2748C40.2535 12.2748 40.5408 11.4949 40.5408 11.1049C40.5408 10.0991 38.5704 9.66821 37.1747 9.62711V9.07274C37.1747 8.82649 36.8668 8.60071 36.559 8.60071C36.2099 8.60071 35.9636 8.82649 35.9636 9.07274V9.6679C34.0138 9.87321 32.064 10.8995 32.064 13.4856C32.064 16.1127 34.1165 16.8516 35.9636 17.5084V22.3316C33.87 22.1674 33.316 20.7307 32.6386 20.7307C32.1255 20.7307 31.6946 21.4081 31.6946 21.9007C31.6946 22.9063 33.4186 24.2815 35.9636 24.3226V24.9588C35.9636 25.2051 36.21 25.4309 36.559 25.4309C36.8669 25.4309 37.1747 25.2051 37.1747 24.9588V24.261C39.3915 23.9531 40.9102 22.5574 40.9102 20.0329C40.9102 17.2416 38.9604 16.3384 37.1747 15.6816ZM36.0868 15.2918C34.999 14.8813 34.1165 14.4504 34.1165 13.2806C34.1165 12.2132 34.9374 11.7001 36.0868 11.5565V15.2918ZM37.0515 22.2906V17.9599C38.0571 18.3909 38.8575 18.9656 38.8575 20.2585C38.8575 21.4287 38.1597 22.0854 37.0515 22.2906Z" fill="#1D1D1B"/>
</g>
<defs>
<clipPath id="clip0_2453_650">
<rect width="80" height="80" fill="white" transform="translate(0 0.325867)"/>
</clipPath>
</defs>
</svg>
