<svg width="80" height="80" viewBox="0 0 80 80" fill="none" xmlns="http://www.w3.org/2000/svg">
<g clip-path="url(#clip0_2453_1558)">
<path d="M20.5889 11.8447C10.963 11.8447 3.13159 19.6761 3.13159 29.3021C3.13159 38.928 10.9628 46.7594 20.5889 46.7594C30.2149 46.7594 38.0463 38.928 38.0463 29.3021C38.0463 19.6761 30.215 11.8447 20.5889 11.8447ZM20.5889 44.411C12.258 44.411 5.48003 37.6332 5.48003 29.3021C5.48003 20.971 12.2577 14.1932 20.5889 14.1932C28.92 14.1932 35.6978 20.971 35.6978 29.3021C35.6978 37.6332 28.92 44.411 20.5889 44.411Z" fill="#1D1D1B"/>
<path d="M25.8184 26.7188C26.1298 26.7188 26.4284 26.5951 26.6486 26.3749C26.8688 26.1547 26.9926 25.856 26.9926 25.5446V24.2921C26.9926 21.5727 24.7801 19.3602 22.0607 19.3602H21.9825V16.7768C21.9774 16.4687 21.8515 16.1749 21.6318 15.9588C21.4122 15.7427 21.1164 15.6216 20.8082 15.6216C20.5001 15.6216 20.2043 15.7427 19.9846 15.9588C19.765 16.1749 19.639 16.4687 19.634 16.7768V19.3874C16.8254 19.6637 14.6239 22.0384 14.6239 24.9184C14.6239 27.9832 17.1171 30.4765 20.182 30.4765H21.4345C23.2043 30.4765 24.6442 31.9163 24.6442 33.6862C24.6442 35.456 23.2043 36.8958 21.4345 36.8958H19.5557C18.1312 36.8958 16.9723 35.7369 16.9723 34.3124C16.9673 34.0043 16.8414 33.7105 16.6217 33.4944C16.402 33.2783 16.1062 33.1572 15.7981 33.1572C15.4899 33.1572 15.1941 33.2783 14.9745 33.4944C14.7548 33.7105 14.6289 34.0043 14.6239 34.3124C14.6239 37.0318 16.8364 39.2443 19.5557 39.2443H19.634V41.8277C19.639 42.1358 19.765 42.4296 19.9846 42.6457C20.2043 42.8618 20.5001 42.9829 20.8082 42.9829C21.1164 42.9829 21.4122 42.8618 21.6318 42.6457C21.8515 42.4296 21.9774 42.1358 21.9825 41.8277V39.2171C24.7911 38.9408 26.9926 36.5662 26.9926 33.6862C26.9926 30.6213 24.4993 28.128 21.4345 28.128H20.182C18.4121 28.128 16.9723 26.6882 16.9723 24.9184C16.9723 23.1485 18.4121 21.7087 20.182 21.7087H22.0607C23.4853 21.7087 24.6442 22.8676 24.6442 24.2921V25.5446C24.6442 25.856 24.7679 26.1547 24.9881 26.3749C25.2083 26.5951 25.507 26.7188 25.8184 26.7188ZM39.3773 56.7801C39.6887 56.78 39.9874 56.6563 40.2076 56.4361C40.4278 56.2159 40.5515 55.9173 40.5515 55.6059V48.0905C40.5515 47.7791 40.4278 47.4805 40.2076 47.2603C39.9874 47.0401 39.6887 46.9164 39.3773 46.9163H6.81105C6.49964 46.9164 6.201 47.0401 5.9808 47.2603C5.7606 47.4805 5.63688 47.7791 5.63684 48.0905V54.4316H4.30605C3.99465 54.4317 3.696 54.5554 3.4758 54.7756C3.2556 54.9958 3.13188 55.2944 3.13184 55.6059V63.1212C3.13188 63.4326 3.2556 63.7312 3.4758 63.9514C3.696 64.1716 3.99465 64.2953 4.30605 64.2954H5.63684V69.4621H4.30605C3.99465 69.4621 3.696 69.5859 3.4758 69.8061C3.2556 70.0263 3.13188 70.3249 3.13184 70.6363V78.1516C3.13188 78.463 3.2556 78.7617 3.4758 78.9819C3.696 79.2021 3.99465 79.3258 4.30605 79.3259H36.8723C37.1837 79.3258 37.4824 79.2021 37.7026 78.9819C37.9228 78.7617 38.0465 78.463 38.0465 78.1516V71.8105H39.3773C39.6887 71.8105 39.9874 71.6868 40.2076 71.4666C40.4278 71.2464 40.5515 70.9477 40.5515 70.6363V63.121C40.5515 62.8096 40.4278 62.511 40.2076 62.2908C39.9874 62.0706 39.6887 61.9468 39.3773 61.9468H38.0465V56.7801H39.3773ZM5.48012 61.9468V56.7801H35.6979V61.9468H5.48012ZM35.6979 76.9774H5.48012V71.8107H35.6979V76.9774ZM38.2031 64.2954V69.4621H7.98527V64.2954H38.2031ZM7.98527 54.4315V49.2648H38.2031V54.4315H7.98527ZM76.6076 21.0404L59.0718 -0.2529C58.6093 -0.814463 57.7214 -0.814463 57.2589 -0.2529L39.7232 21.0404C39.1043 21.7919 39.6581 22.9612 40.6298 22.9612H48.2234V59.3633C48.2234 59.6748 48.3472 59.9734 48.5674 60.1936C48.7876 60.4138 49.0862 60.5375 49.3976 60.5376H66.9332C67.2446 60.5375 67.5433 60.4138 67.7635 60.1936C67.9837 59.9734 68.1074 59.6748 68.1075 59.3633V54.4315C68.1024 54.1234 67.9765 53.8296 67.7568 53.6135C67.5372 53.3974 67.2414 53.2763 66.9332 53.2763C66.6251 53.2763 66.3293 53.3974 66.1096 53.6135C65.89 53.8296 65.764 54.1234 65.759 54.4315V58.1891H50.572V21.7869C50.5719 21.4755 50.4482 21.1769 50.228 20.9567C50.0078 20.7365 49.7092 20.6128 49.3978 20.6127H43.1182L58.1656 2.34085L73.2129 20.6127H66.9334C66.622 20.6128 66.3233 20.7365 66.1031 20.9567C65.8829 21.1769 65.7592 21.4755 65.7592 21.7869V48.8734C65.7642 49.1815 65.8901 49.4752 66.1098 49.6913C66.3294 49.9075 66.6252 50.0286 66.9334 50.0286C67.2415 50.0286 67.5373 49.9075 67.757 49.6913C67.9767 49.4752 68.1026 49.1815 68.1076 48.8734V22.9612H75.7012C76.6726 22.9612 77.2267 21.7921 76.6076 21.0404ZM66.9334 64.452H49.3976C49.0895 64.457 48.7957 64.5829 48.5796 64.8026C48.3635 65.0222 48.2424 65.318 48.2424 65.6262C48.2424 65.9343 48.3635 66.2301 48.5796 66.4498C48.7957 66.6694 49.0895 66.7954 49.3976 66.8004H66.9332C67.2413 66.7954 67.5351 66.6695 67.7513 66.4498C67.9674 66.2302 68.0885 65.9344 68.0885 65.6262C68.0886 65.3181 67.9675 65.0223 67.7514 64.8026C67.5353 64.5829 67.2415 64.457 66.9334 64.452ZM66.9334 70.7146H49.3976C49.0895 70.7196 48.7957 70.8456 48.5796 71.0652C48.3635 71.2849 48.2424 71.5807 48.2424 71.8888C48.2424 72.197 48.3635 72.4928 48.5796 72.7124C48.7957 72.9321 49.0895 73.058 49.3976 73.063H66.9332C67.2413 73.058 67.5351 72.9321 67.7513 72.7125C67.9674 72.4928 68.0885 72.197 68.0885 71.8889C68.0886 71.5807 67.9675 71.2849 67.7514 71.0653C67.5353 70.8456 67.2415 70.7197 66.9334 70.7146ZM66.9334 76.9774H49.3976C49.0895 76.9824 48.7957 77.1084 48.5796 77.328C48.3635 77.5477 48.2424 77.8435 48.2424 78.1516C48.2424 78.4598 48.3635 78.7556 48.5796 78.9752C48.7957 79.1949 49.0895 79.3208 49.3976 79.3259H66.9332C67.2413 79.3208 67.5351 79.1949 67.7513 78.9753C67.9674 78.7556 68.0885 78.4599 68.0885 78.1517C68.0886 77.8436 67.9675 77.5478 67.7514 77.3281C67.5353 77.1084 67.2415 76.9825 66.9334 76.9774Z" fill="#1D1D1B"/>
</g>
<defs>
<clipPath id="clip0_2453_1558">
<rect width="80" height="80" fill="white"/>
</clipPath>
</defs>
</svg>
