<svg width="80" height="80" viewBox="0 0 80 80" fill="none" xmlns="http://www.w3.org/2000/svg">
<path d="M13.645 48.0969H20.2472C20.5373 48.0969 20.8155 47.9816 21.0206 47.7765C21.2257 47.5714 21.3409 47.2932 21.3409 47.0031C21.3409 46.713 21.2257 46.4348 21.0206 46.2297C20.8155 46.0246 20.5373 45.9094 20.2472 45.9094H16.3222L30.1906 32.0409C32.6795 33.8225 35.6705 34.9448 38.9064 35.1527V44.3627L36.1048 41.5612C36.0038 41.4573 35.8831 41.3745 35.7498 41.3176C35.6165 41.2608 35.4732 41.2309 35.3283 41.2299C35.1834 41.2289 35.0397 41.2567 34.9056 41.3117C34.7715 41.3667 34.6496 41.4478 34.5472 41.5503C34.4447 41.6528 34.3636 41.7746 34.3086 41.9087C34.2536 42.0428 34.2258 42.1865 34.2269 42.3315C34.2279 42.4764 34.2577 42.6197 34.3146 42.753C34.3715 42.8863 34.4543 43.007 34.5583 43.108L39.2269 47.7764C39.4403 47.99 39.7203 48.0967 40.0002 48.0967C40.28 48.0967 40.56 47.9898 40.7736 47.7764L45.442 43.108C45.6471 42.9028 45.7624 42.6246 45.7623 42.3346C45.7623 42.0445 45.6471 41.7663 45.442 41.5612C45.2368 41.3561 44.9586 41.2408 44.6685 41.2409C44.3785 41.2409 44.1003 41.3561 43.8952 41.5612L41.0939 44.3625V35.1525C44.3297 34.9447 47.3206 33.8225 49.8095 32.0408L63.678 45.9092H59.753C59.4629 45.9092 59.1847 46.0245 58.9796 46.2296C58.7745 46.4347 58.6592 46.7129 58.6592 47.003C58.6592 47.293 58.7745 47.5712 58.9796 47.7764C59.1847 47.9815 59.4629 48.0967 59.753 48.0967H66.3552C66.6452 48.0967 66.9234 47.9815 67.1286 47.7764C67.3337 47.5712 67.4489 47.293 67.4489 47.003V40.4008C67.4489 40.1107 67.3337 39.8325 67.1286 39.6274C66.9234 39.4223 66.6452 39.307 66.3552 39.307C66.0651 39.307 65.7869 39.4223 65.5818 39.6274C65.3766 39.8325 65.2614 40.1107 65.2614 40.4008V44.3989L51.5103 30.6478C54.8189 27.5622 56.8914 23.1677 56.8914 18.2975C56.8914 8.98359 49.3141 1.40625 40.0002 1.40625C30.6863 1.40625 23.1087 8.98359 23.1087 18.2977C23.1087 23.1678 25.1814 27.5623 28.49 30.648L14.7389 44.3991V40.4009C14.7389 40.1109 14.6237 39.8327 14.4186 39.6275C14.2134 39.4224 13.9352 39.3072 13.6452 39.3072C13.3551 39.3072 13.0769 39.4224 12.8718 39.6275C12.6666 39.8327 12.5514 40.1109 12.5514 40.4009V47.0031C12.5514 47.2932 12.6666 47.5714 12.8717 47.7765C13.0768 47.9816 13.3549 48.0968 13.645 48.0969ZM65.2614 45.9094H65.118L65.2614 45.7659V45.9094ZM30.5781 29.5769C31.6712 25.3105 35.5373 22.2744 40.0005 22.2744C44.4633 22.2744 48.3292 25.3105 49.422 29.5769C46.8686 31.7134 43.5822 33.0016 40.0002 33.0016C36.4181 33.0016 33.1316 31.7134 30.5781 29.5769ZM25.2962 18.2977C25.2962 10.1898 31.8925 3.59375 40.0002 3.59375C48.1078 3.59375 54.7039 10.1898 54.7039 18.2977C54.7039 21.94 53.3722 25.2767 51.1706 27.848C49.4647 23.2531 45.0433 20.0869 40.0003 20.0869C34.9572 20.0869 30.5355 23.2531 28.8292 27.848C26.628 25.2767 25.2962 21.94 25.2962 18.2977ZM14.8823 45.9094H14.7389V45.7659L14.8823 45.9094ZM12.5266 61.7445C15.6848 61.7445 18.2542 59.1752 18.2542 56.0169C18.2542 52.8591 15.6848 50.29 12.5266 50.29C9.36828 50.29 6.79891 52.8591 6.79891 56.0169C6.79891 59.1752 9.36828 61.7445 12.5266 61.7445ZM12.5266 52.4775C14.4786 52.4775 16.0667 54.0653 16.0667 56.0169C16.0667 57.9689 14.4786 59.557 12.5266 59.557C10.5745 59.557 8.98641 57.9689 8.98641 56.0169C8.98641 54.0653 10.5745 52.4775 12.5266 52.4775ZM12.5266 62.2277C6.39484 62.2277 1.40625 67.2158 1.40625 73.347C1.40625 74.5897 2.07391 76.3169 5.25531 77.4881C7.19172 78.2012 9.77391 78.5938 12.5262 78.5938C15.2786 78.5938 17.8608 78.2011 19.7972 77.4881C22.9784 76.3169 23.6462 74.5897 23.6462 73.347C23.6462 67.2158 18.658 62.2277 12.5266 62.2277ZM12.5262 76.4062C7.60094 76.4062 3.59375 75.0339 3.59375 73.347C3.59375 68.4219 7.60094 64.4152 12.5266 64.4152C17.4517 64.4152 21.4587 68.422 21.4587 73.347C21.4587 75.0339 17.4516 76.4062 12.5262 76.4062ZM61.7466 56.0169C61.7466 59.1752 64.3159 61.7445 67.4742 61.7445C70.6325 61.7445 73.2019 59.1752 73.2019 56.0169C73.2019 52.8591 70.6325 50.29 67.4742 50.29C64.3159 50.29 61.7466 52.8591 61.7466 56.0169ZM67.4742 52.4775C69.4262 52.4775 71.0144 54.0653 71.0144 56.0169C71.0144 57.9689 69.4262 59.557 67.4742 59.557C65.5222 59.557 63.9341 57.9689 63.9341 56.0169C63.9341 54.0653 65.5222 52.4775 67.4742 52.4775ZM67.4742 62.2277C61.3425 62.2277 56.3539 67.2158 56.3539 73.347C56.3539 74.5897 57.0216 76.3169 60.203 77.4881C62.1394 78.2011 64.7216 78.5938 67.4737 78.5938C70.2261 78.5938 72.8084 78.2011 74.7447 77.4881C77.9259 76.3169 78.5938 74.5897 78.5938 73.347C78.5938 67.2158 73.6055 62.2277 67.4742 62.2277ZM67.4737 76.4062C62.5486 76.4062 58.5414 75.0339 58.5414 73.347C58.5414 68.4219 62.5486 64.4152 67.4742 64.4152C72.3994 64.4152 76.4062 68.422 76.4062 73.347C76.4062 75.0339 72.3991 76.4062 67.4737 76.4062ZM40.0005 50.29C36.8422 50.29 34.2728 52.8591 34.2728 56.0169C34.2728 59.1752 36.8422 61.7445 40.0005 61.7445C43.1587 61.7445 45.7281 59.1752 45.7281 56.0169C45.7281 52.8591 43.1587 50.29 40.0005 50.29ZM40.0005 59.557C38.0484 59.557 36.4603 57.9689 36.4603 56.0169C36.4603 54.0653 38.0484 52.4775 40.0005 52.4775C41.9525 52.4775 43.5406 54.0653 43.5406 56.0169C43.5406 57.9689 41.9525 59.557 40.0005 59.557ZM40.0005 62.2277C33.8687 62.2277 28.8802 67.2158 28.8802 73.347C28.8802 74.5897 29.5478 76.3169 32.7292 77.4881C34.6655 78.2012 37.2478 78.5938 40 78.5938C42.7523 78.5938 45.3347 78.2011 47.2709 77.4881C50.4522 76.3169 51.12 74.5897 51.12 73.347C51.12 67.2158 46.1317 62.2277 40.0005 62.2277ZM40 76.4062C35.0748 76.4062 31.0677 75.0339 31.0677 73.347C31.0677 68.4219 35.0748 64.4152 40.0005 64.4152C44.9256 64.4152 48.9325 68.422 48.9325 73.347C48.9325 75.0339 44.9253 76.4062 40 76.4062ZM40.0005 19.3914C43.362 19.3914 46.0967 16.6567 46.0967 13.2952C46.0967 9.93406 43.362 7.19953 40.0005 7.19953C36.6389 7.19953 33.9041 9.93391 33.9041 13.2952C33.9041 16.6566 36.6389 19.3914 40.0005 19.3914ZM40.0005 9.38703C42.1558 9.38703 43.9092 11.1402 43.9092 13.2952C43.9092 15.4505 42.1558 17.2039 40.0005 17.2039C37.8452 17.2039 36.0916 15.4505 36.0916 13.2952C36.0916 11.1403 37.8452 9.38703 40.0005 9.38703Z" fill="#1D1D1B"/>
</svg>
