<svg width="80" height="80" viewBox="0 0 80 80" fill="none" xmlns="http://www.w3.org/2000/svg">
<path d="M8.22609 44.6783V45.8378C8.22609 46.0864 8.12732 46.3249 7.95151 46.5007C7.77569 46.6765 7.53723 46.7753 7.28859 46.7753C7.03995 46.7753 6.8015 46.6765 6.62568 46.5007C6.44987 46.3249 6.35109 46.0864 6.35109 45.8378V44.6783C6.35109 44.4296 6.44987 44.1912 6.62568 44.0153C6.8015 43.8395 7.03995 43.7408 7.28859 43.7408C7.53723 43.7408 7.77569 43.8395 7.95151 44.0153C8.12732 44.1912 8.22609 44.4296 8.22609 44.6783ZM78.4375 35.7083C78.4337 39.1085 77.0812 42.3683 74.6769 44.7726C72.2726 47.177 69.0127 48.5294 65.6125 48.5332C65.3594 48.5332 65.1084 48.5239 64.8587 48.5093C62.6164 54.3687 59.4802 59.659 55.7587 63.8414C51.5222 68.6028 46.6016 71.9493 41.1338 73.7882C40.7062 73.9349 40.2576 74.0105 39.8056 74.0123C39.2419 74.0098 38.6849 73.8906 38.1695 73.6622C32.5733 71.2582 28.0891 68.5445 24.4688 65.375H17.0605C16.1037 65.375 13.8298 65.3115 11.7875 65.0781C11.1739 65.4883 10.4511 65.7046 9.71297 65.6989H4.86438C3.04375 65.6987 1.5625 64.4501 1.5625 62.9154V43.1417C1.5625 41.607 3.04375 40.3586 4.86438 40.3586H9.71297C10.4728 40.3522 11.2158 40.5819 11.8395 41.0159C10.8817 35.1565 10.5989 28.6226 10.4861 20.767C10.4666 19.9436 10.6976 19.1337 11.1483 18.4443C11.599 17.755 12.2484 17.2186 13.0105 16.9062L38.037 6.32372C38.5459 6.1031 39.0947 5.98938 39.6494 5.98962C40.204 5.98987 40.7527 6.10406 41.2614 6.32513L65.9177 16.7804C66.5871 17.0541 67.1708 17.5023 67.6081 18.0783C68.0454 18.6543 68.3203 19.337 68.4041 20.0553C68.5397 21.1022 68.6433 22.1803 68.7166 23.2651C71.4909 23.961 73.9536 25.5628 75.7145 27.8168C77.4754 30.0708 78.4337 32.848 78.4375 35.7083ZM12.3609 20.7422C12.4717 28.4672 12.747 34.8898 13.6734 40.6126C15.1078 39.0165 16.3677 37.1028 17.0005 33.3064C16.9742 32.8678 16.8598 30.9339 16.8486 30.7304C16.6875 27.854 16.6308 25.0226 16.5966 22.6323C16.5939 22.4458 16.6469 22.2627 16.7488 22.1065C16.8507 21.9502 16.9969 21.828 17.1687 21.7553L39.2812 12.4053C39.3969 12.3564 39.5212 12.3312 39.6468 12.3312C39.7724 12.3312 39.8967 12.3564 40.0123 12.4053L61.9844 21.7226C62.1405 21.7888 62.2758 21.8962 62.3758 22.0332C62.4757 22.1702 62.5367 22.3318 62.552 22.5008C62.5739 22.7414 62.5939 22.9893 62.6125 23.2412C63.5949 23.0039 64.6019 22.8837 65.6125 22.8833C66.0188 22.8833 66.4186 22.9043 66.8147 22.9414C66.748 22.0574 66.6578 21.1754 66.5444 20.2962C66.5014 19.9027 66.3521 19.5282 66.1127 19.2129C65.8732 18.8977 65.5526 18.6534 65.185 18.5064L40.5288 8.05138C40.2516 7.92722 39.9514 7.86297 39.6477 7.86284C39.344 7.8627 39.0437 7.92668 38.7664 8.05059L13.7406 18.6333C13.322 18.8006 12.965 19.0928 12.7182 19.4701C12.4713 19.8474 12.3466 20.2915 12.3609 20.7422ZM32.945 61.7926C32.945 61.817 32.9436 61.8412 32.9431 61.8656C35.1764 63.3341 37.5191 64.629 39.9506 65.7389C41.0384 65.2936 42.0919 64.7688 43.1025 64.1687C50.8823 59.5551 55.1845 51.6242 57.4547 45.5972C55.7421 44.1863 54.4251 42.3549 53.6327 40.2823C52.8402 38.2097 52.5995 35.9668 52.934 33.7732C53.2685 31.5797 54.1668 29.5105 55.541 27.7683C56.9152 26.0261 58.7181 24.6705 60.7734 23.8342C60.7607 23.632 60.7466 23.4299 60.7312 23.2279L39.6452 14.2868L18.4806 23.2364C18.508 24.9739 18.5508 26.915 18.6369 28.9136C18.9155 28.6379 19.2503 28.4254 19.6184 28.2908C20.5741 27.9483 21.6389 28.2275 22.5403 29.0564C24.1281 30.5176 25.3488 33.9193 24.2764 37.9348C24.2665 37.972 24.2543 38.0085 24.24 38.0442C23.5131 39.8448 23.2262 41.3125 23.3909 42.3461H32.3541C32.9994 42.3456 33.6329 42.5195 34.1874 42.8496C34.7419 43.1797 35.1969 43.6535 35.5041 44.221C35.8114 44.7885 35.9595 45.4285 35.9327 46.0733C35.906 46.7181 35.7054 47.3436 35.3522 47.8837C36.0406 48.1543 36.6284 48.6314 37.0347 49.2495C37.441 49.8677 37.6459 50.5964 37.6212 51.3357C37.5965 52.075 37.3435 52.7885 36.897 53.3782C36.4504 53.9679 35.8321 54.4048 35.1272 54.6289C35.4439 55.141 35.6261 55.7249 35.6569 56.3263C35.6877 56.9276 35.5661 57.527 35.3034 58.0689C35.0407 58.6107 34.6454 59.0774 34.1542 59.4257C33.6629 59.774 33.0917 59.9925 32.4934 60.0611C32.7896 60.5901 32.9451 61.1863 32.945 61.7926ZM9.71297 63.8239C10.5297 63.8239 11.1398 63.3443 11.1398 62.9156V43.1417C11.1398 42.7129 10.5297 42.2336 9.71297 42.2336H4.86438C4.04766 42.2336 3.4375 42.7129 3.4375 43.1417V62.9154C3.4375 63.3442 4.04766 63.8237 4.86438 63.8237L9.71297 63.8239ZM17.0605 63.4993H29.3634C29.8145 63.5005 30.2476 63.3231 30.5682 63.0058C30.8888 62.6886 31.0707 62.2573 31.0743 61.8063C31.0779 61.3553 30.9028 60.9212 30.5872 60.5989C30.2717 60.2766 29.8414 60.0924 29.3905 60.0864H24.978C24.8549 60.0864 24.7329 60.0621 24.6192 60.015C24.5055 59.9679 24.4021 59.8988 24.3151 59.8118C24.228 59.7247 24.1589 59.6214 24.1118 59.5076C24.0647 59.3939 24.0405 59.272 24.0405 59.1489C24.0405 59.0258 24.0647 58.9039 24.1118 58.7901C24.1589 58.6764 24.228 58.573 24.3151 58.486C24.4021 58.3989 24.5055 58.3299 24.6192 58.2827C24.7329 58.2356 24.8549 58.2114 24.978 58.2114H32.0797C32.5323 58.2133 32.9671 58.0353 33.2885 57.7166C33.6099 57.3979 33.7915 56.9645 33.7934 56.5119C33.7952 56.0593 33.6173 55.6245 33.2985 55.3031C32.9798 54.9817 32.5465 54.8001 32.0939 54.7983H26.082C25.8334 54.7983 25.5949 54.6995 25.4191 54.5237C25.2433 54.3478 25.1445 54.1094 25.1445 53.8608C25.1445 53.6121 25.2433 53.3737 25.4191 53.1978C25.5949 53.022 25.8334 52.9233 26.082 52.9233H34.0414C34.4912 52.9189 34.9211 52.7372 35.2377 52.4177C35.5542 52.0981 35.7318 51.6664 35.7318 51.2166C35.7318 50.7668 35.5542 50.3352 35.2377 50.0156C34.9211 49.696 34.4912 49.5143 34.0414 49.51H27.1863C26.9376 49.51 26.6992 49.4112 26.5233 49.2354C26.3475 49.0596 26.2488 48.8211 26.2488 48.5725C26.2488 48.3238 26.3475 48.0854 26.5233 47.9096C26.6992 47.7337 26.9376 47.635 27.1863 47.635H32.3537C32.8064 47.635 33.2404 47.4552 33.5605 47.1351C33.8805 46.8151 34.0603 46.381 34.0603 45.9284C34.0603 45.4758 33.8805 45.0417 33.5605 44.7217C33.2404 44.4016 32.8064 44.2218 32.3537 44.2218H22.6797C22.4941 44.2217 22.3127 44.1666 22.1585 44.0633C22.0043 43.96 21.8842 43.8133 21.8134 43.6417C21.1873 42.1218 21.4048 40.0792 22.4788 37.3984C23.288 34.3026 22.487 31.557 21.2703 30.4373C21.0523 30.2368 20.6297 29.9204 20.2506 30.0565C19.7961 30.2193 19.2181 31.055 18.9584 32.912C18.145 38.7312 16.012 40.9264 13.9491 43.0493C13.6253 43.3825 13.3169 43.7012 13.0148 44.0315V62.9154C13.0136 63.0485 13.0011 63.1813 12.9773 63.3123C14.7188 63.4622 16.4375 63.5 17.0605 63.5V63.4993ZM62.9494 48.2536C61.5683 47.9605 60.2454 47.4399 59.035 46.7131C56.6131 52.9659 52.1078 61.0087 44.0591 65.7817C42.847 66.5014 41.5779 67.1203 40.2645 67.6323C40.1482 67.6775 40.0239 67.699 39.8991 67.6955C39.7743 67.6921 39.6515 67.6637 39.5378 67.6122C37.057 66.497 34.6616 65.2009 32.3709 63.7343C32.0467 64.2374 31.6015 64.6511 31.0761 64.9377C30.5508 65.2243 29.9619 65.3746 29.3634 65.375H27.4156C30.5695 67.8223 34.3531 69.9829 38.9125 71.9415C39.4234 72.177 40.0063 72.2023 40.5356 72.012C50.1694 68.7712 58.2931 60.1415 62.9494 48.2534V48.2536ZM76.5625 35.7083C76.5625 33.5425 75.9203 31.4255 74.7171 29.6248C73.5139 27.824 71.8037 26.4205 69.8029 25.5918C67.802 24.763 65.6004 24.5461 63.4763 24.9687C61.3522 25.3912 59.4011 26.434 57.8697 27.9654C56.3383 29.4968 55.2954 31.4479 54.8729 33.572C54.4504 35.6961 54.6672 37.8978 55.496 39.8986C56.3248 41.8995 57.7283 43.6096 59.529 44.8128C61.3297 46.016 63.4468 46.6582 65.6125 46.6582C68.5156 46.6549 71.2989 45.5002 73.3517 43.4474C75.4045 41.3946 76.5592 38.6114 76.5625 35.7083ZM73.0405 34.3856C71.8705 35.5556 70.6878 36.7508 69.5441 37.9067C68.4003 39.0626 67.2213 40.2542 66.0514 41.4239C65.468 42.006 64.6775 42.3329 63.8534 42.3329C63.0292 42.3329 62.2387 42.006 61.6553 41.4239C61.0989 40.8675 60.5505 40.2495 59.97 39.5957C59.3895 38.942 58.7903 38.2662 58.1852 37.6609C57.6071 37.0769 57.2838 36.2878 57.286 35.4662C57.2881 34.6445 57.6154 33.8571 58.1965 33.2761C58.7775 32.6951 59.5649 32.3678 60.3866 32.3658C61.2083 32.3637 61.9973 32.6871 62.5812 33.2651L63.9778 34.6615L68.6467 29.9926C68.9352 29.7041 69.2777 29.4753 69.6546 29.3191C70.0316 29.163 70.4355 29.0826 70.8435 29.0826C71.2515 29.0826 71.6555 29.163 72.0325 29.3191C72.4094 29.4752 72.7519 29.7041 73.0404 29.9925C73.3289 30.281 73.5577 30.6235 73.7139 31.0005C73.87 31.3774 73.9504 31.7814 73.9504 32.1894C73.9504 32.5974 73.87 33.0014 73.7139 33.3783C73.5578 33.7552 73.329 34.0977 73.0405 34.3862V34.3856ZM72.0728 32.1889C72.0735 31.9452 72.0018 31.7069 71.8668 31.5041C71.7318 31.3013 71.5396 31.1431 71.3145 31.0498C71.0895 30.9564 70.8418 30.9321 70.6029 30.9798C70.3639 31.0275 70.1446 31.1452 69.9727 31.3178L64.6406 36.6497C64.4648 36.8255 64.2264 36.9242 63.9777 36.9242C63.7291 36.9242 63.4907 36.8255 63.3148 36.6497L61.2552 34.5901C61.0233 34.3616 60.7105 34.234 60.3849 34.2352C60.0593 34.2364 59.7475 34.3662 59.5173 34.5964C59.287 34.8266 59.1572 35.1385 59.156 35.4641C59.1547 35.7896 59.2823 36.1024 59.5108 36.3343C60.1556 36.9792 60.7742 37.6764 61.3723 38.35C61.9338 38.9828 62.4641 39.5804 62.9817 40.0975C63.2133 40.3284 63.527 40.4581 63.854 40.4581C64.181 40.4581 64.4947 40.3284 64.7262 40.0975C65.8925 38.9312 67.0716 37.7397 68.2119 36.5873C69.3573 35.4297 70.5419 34.2326 71.7153 33.0592C71.8294 32.9449 71.9198 32.8092 71.9812 32.6598C72.0425 32.5104 72.0737 32.3504 72.0728 32.1889Z" fill="#1D1D1B"/>
</svg>
