<svg width="80" height="80" viewBox="0 0 80 80" fill="none" xmlns="http://www.w3.org/2000/svg">
<path d="M76.5898 33.7475C75.3687 26.3371 72.0317 19.4844 66.9398 13.93C61.7221 8.23831 54.9773 4.28565 47.4343 2.49909C37.4173 0.126901 27.0762 1.79737 18.3159 7.20284C9.55558 12.6082 3.42449 21.1016 1.05199 31.1183C-1.32035 41.135 0.350115 51.4763 5.75543 60.2367C11.1609 68.9971 19.6542 75.1283 29.6711 77.5008C32.6442 78.2049 35.6443 78.553 38.6248 78.5527C45.6859 78.5525 52.6293 76.5983 58.7895 72.7972C59.088 72.6095 59.3003 72.3115 59.3801 71.968C59.4599 71.6246 59.4008 71.2635 59.2156 70.9634C59.0305 70.6633 58.7342 70.4485 58.3914 70.3658C58.0486 70.2831 57.687 70.3392 57.3854 70.5219C49.2326 75.5524 39.6093 77.1069 30.2871 74.8991C11.0437 70.3414 -0.903948 50.9778 3.65371 31.7346C8.21136 12.4913 27.5751 0.543307 46.8182 5.10096C53.8379 6.76362 60.1143 10.4413 64.969 15.7367C69.709 20.9074 72.8153 27.2857 73.9517 34.1822C74.0717 34.9108 74.7607 35.4033 75.4881 35.2839C75.8379 35.2262 76.1505 35.032 76.3571 34.7439C76.5637 34.4557 76.6474 34.0974 76.5898 33.7475Z" fill="#1D1D1B"/>
<path d="M79.9437 48.1722C79.8763 47.9475 79.751 47.7444 79.5803 47.5834C79.4096 47.4224 79.1995 47.3092 78.9712 47.255L76.5093 46.6721C76.9585 44.1313 77.1516 41.5519 77.0857 38.9725C77.0698 38.6228 76.9174 38.2933 76.6612 38.0547C76.405 37.8162 76.0654 37.6876 75.7155 37.6967C75.3655 37.7057 75.033 37.8517 74.7895 38.1032C74.546 38.3547 74.4108 38.6917 74.4131 39.0417C74.4857 41.8338 74.2273 44.6461 73.6451 47.4003C73.5729 47.7417 73.637 48.0978 73.8238 48.3925C74.0106 48.6872 74.3053 48.8971 74.6448 48.9775L76.1018 49.3228L69.0884 56.7591L66.1551 46.9671L67.586 47.306C67.7602 47.3473 67.9408 47.3532 68.1173 47.3234C68.2938 47.2936 68.4624 47.2286 68.6133 47.1324C68.7642 47.0361 68.8942 46.9105 68.9956 46.7631C69.097 46.6156 69.1678 46.4493 69.2037 46.2739C70.844 38.2819 69.3304 30.0847 64.9418 23.1924C60.544 16.2853 53.7329 11.4419 45.7631 9.55425C28.9753 5.57862 12.0831 16.0016 8.10681 32.7892C6.85916 38.0575 6.99681 43.5736 8.50494 48.7413C9.96713 53.7508 12.6845 58.3578 16.3632 62.0644C16.4873 62.1898 16.6351 62.2892 16.798 62.357C16.9609 62.4248 17.1356 62.4596 17.312 62.4594C17.5759 62.4593 17.8339 62.3811 18.0534 62.2346C18.273 62.0882 18.4443 61.88 18.5458 61.6364C18.6473 61.3927 18.6744 61.1245 18.6237 60.8655C18.573 60.6065 18.4468 60.3682 18.261 60.1808C11.2371 53.1042 8.41353 43.0949 10.7084 33.4055C14.3446 18.0524 29.7938 8.52003 45.147 12.1561C52.4356 13.8825 58.6645 18.3119 62.6867 24.6286C66.4521 30.5425 67.9035 37.5064 66.8299 44.3796L64.5184 43.8322C64.29 43.778 64.0514 43.785 63.8266 43.8523C63.6018 43.9196 63.3986 44.0449 63.2376 44.2156C63.0765 44.3863 62.9633 44.5964 62.9092 44.8248C62.8552 45.0532 62.8622 45.2918 62.9296 45.5166L67.1917 59.7446C67.2591 59.9693 67.3844 60.1724 67.5551 60.3334C67.7258 60.4944 67.9358 60.6076 68.1642 60.6617C68.3925 60.7157 68.631 60.7087 68.8558 60.6414C69.0806 60.5741 69.2837 60.4488 69.4448 60.2782L79.6356 49.4733C79.7966 49.3025 79.9098 49.0924 79.9639 48.864C80.018 48.6357 80.011 48.3971 79.9437 48.1722ZM55.4179 64.7875C55.3257 64.6381 55.205 64.5083 55.0627 64.4056C54.9204 64.3028 54.7592 64.2291 54.5884 64.1887C54.4176 64.1482 54.2404 64.1418 54.0671 64.1698C53.8938 64.1978 53.7278 64.2597 53.5784 64.3519C47.0738 68.3655 39.3959 69.6058 31.9582 67.8441C28.2295 66.9611 24.7824 65.3796 21.7124 63.1436C21.4256 62.9409 21.0704 62.8591 20.7238 62.9162C20.3772 62.9732 20.0669 63.1643 19.8601 63.4483C19.6533 63.7322 19.5666 64.0862 19.6187 64.4336C19.6708 64.781 19.8575 65.0939 20.1385 65.3047C23.4968 67.7507 27.2663 69.4803 31.3421 70.4457C33.7559 71.0174 36.1917 71.2997 38.6113 71.2997C44.344 71.2997 49.981 69.713 54.9824 66.6271C55.2841 66.4408 55.4994 66.1424 55.5811 65.7975C55.6627 65.4525 55.604 65.0892 55.4179 64.7875Z" fill="#1D1D1B"/>
<path d="M51.9685 38.7111H42.9598C42.7361 37.9429 42.3214 37.2439 41.7544 36.6793C41.1898 36.1123 40.4908 35.6976 39.7226 35.474V30.0668C39.7226 29.7122 39.5817 29.3722 39.3311 29.1216C39.0804 28.8709 38.7404 28.73 38.3858 28.73C38.0313 28.73 37.6913 28.8709 37.4406 29.1216C37.19 29.3722 37.0491 29.7122 37.0491 30.0668V35.474C36.2809 35.6976 35.5819 36.1123 35.0173 36.6793C33.1596 38.5369 33.1596 41.5593 35.0173 43.4168C35.9169 44.3166 37.1135 44.8122 38.386 44.8122C39.6587 44.8122 40.8549 44.3168 41.7548 43.4168C42.3217 42.8521 42.7363 42.153 42.9601 41.3847H51.9688C52.1444 41.3847 52.3182 41.3501 52.4804 41.2829C52.6426 41.2157 52.7899 41.1172 52.914 40.9931C53.0382 40.8689 53.1366 40.7216 53.2038 40.5594C53.2709 40.3972 53.3055 40.2233 53.3055 40.0478C53.3054 39.8722 53.2708 39.6984 53.2036 39.5362C53.1364 39.374 53.038 39.2267 52.9138 39.1026C52.7897 38.9784 52.6423 38.88 52.4801 38.8128C52.3179 38.7457 52.1441 38.7111 51.9685 38.7111ZM39.864 41.5263C39.469 41.9211 38.9441 42.1386 38.3857 42.1386C37.8273 42.1386 37.3024 41.9211 36.9074 41.5263C36.0924 40.7111 36.0924 39.3847 36.9074 38.5697C37.1011 38.375 37.3315 38.2206 37.5852 38.1154C37.839 38.0103 38.111 37.9565 38.3857 37.9572C38.6604 37.9565 38.9324 38.0102 39.1862 38.1154C39.44 38.2205 39.6703 38.3749 39.864 38.5697C40.0588 38.7634 40.2132 38.9938 40.3183 39.2475C40.4234 39.5013 40.4771 39.7734 40.4763 40.048C40.4763 40.6065 40.259 41.1315 39.864 41.5263ZM38.3858 57.7058C38.2103 57.7058 38.0365 57.7404 37.8743 57.8076C37.7121 57.8748 37.5648 57.9732 37.4406 58.0973C37.3165 58.2215 37.2181 58.3688 37.1509 58.531C37.0837 58.6932 37.0491 58.867 37.0491 59.0425V63.8268C37.0491 64.1813 37.19 64.5213 37.4406 64.772C37.6913 65.0227 38.0313 65.1635 38.3858 65.1635C38.7404 65.1635 39.0804 65.0227 39.3311 64.772C39.5817 64.5213 39.7226 64.1813 39.7226 63.8268V59.0425C39.7226 58.688 39.5817 58.348 39.3311 58.0973C39.0804 57.8467 38.7404 57.7058 38.3858 57.7058ZM38.3858 14.7975C38.0313 14.7975 37.6913 14.9384 37.4406 15.1891C37.19 15.4397 37.0491 15.7797 37.0491 16.1343V20.9185C37.0491 21.273 37.19 21.613 37.4406 21.8637C37.6913 22.1144 38.0313 22.2552 38.3858 22.2552C38.7404 22.2552 39.0804 22.1144 39.3311 21.8637C39.5817 21.613 39.7226 21.273 39.7226 20.9185V16.1343C39.7226 15.7797 39.5817 15.4397 39.3311 15.1891C39.0804 14.9384 38.7404 14.7975 38.3858 14.7975ZM51.4666 59.9636L50.8876 58.9607C50.7998 58.8086 50.683 58.6753 50.5437 58.5684C50.4044 58.4615 50.2455 58.3831 50.0759 58.3377C49.9063 58.2923 49.7294 58.2807 49.5554 58.3037C49.3813 58.3266 49.2135 58.3836 49.0615 58.4715C48.9094 58.5592 48.7762 58.6761 48.6693 58.8154C48.5625 58.9546 48.4841 59.1136 48.4386 59.2832C48.3932 59.4527 48.3816 59.6296 48.4046 59.8036C48.4275 59.9777 48.4845 60.1455 48.5723 60.2975L49.1513 61.3005C49.239 61.4526 49.3558 61.5859 49.4951 61.6929C49.6344 61.7998 49.7934 61.8782 49.963 61.9237C50.1326 61.9691 50.3094 61.9807 50.4835 61.9577C50.6576 61.9347 50.8254 61.8776 50.9774 61.7897C51.1294 61.702 51.2627 61.5851 51.3696 61.4458C51.4764 61.3065 51.5548 61.1476 51.6002 60.978C51.6457 60.8084 51.6573 60.6316 51.6343 60.4575C51.6114 60.2835 51.5544 60.1157 51.4666 59.9636ZM28.1994 19.6636L27.6204 18.6608C27.5326 18.5088 27.4157 18.3755 27.2765 18.2687C27.1372 18.1618 26.9782 18.0834 26.8087 18.038C26.6391 17.9926 26.4622 17.981 26.2882 18.0039C26.1141 18.0268 25.9463 18.0838 25.7943 18.1716C25.6423 18.2594 25.509 18.3762 25.4021 18.5155C25.2953 18.6548 25.2169 18.8138 25.1715 18.9833C25.126 19.1529 25.1144 19.3298 25.1374 19.5038C25.1603 19.6779 25.2173 19.8457 25.3051 19.9977L25.8841 21.0005C25.9718 21.1526 26.0887 21.286 26.2279 21.3929C26.3672 21.4998 26.5262 21.5782 26.6958 21.6237C26.8654 21.6691 27.0423 21.6807 27.2163 21.6577C27.3904 21.6347 27.5582 21.5776 27.7102 21.4897C28.0172 21.3124 28.2412 21.0204 28.3329 20.678C28.4247 20.3355 28.3767 19.9707 28.1994 19.6636ZM59.7057 50.746L58.7027 50.1669C58.396 49.9947 58.0337 49.9503 57.6945 50.0434C57.3552 50.1364 57.0664 50.3595 56.8905 50.6641C56.7146 50.9688 56.6658 51.3305 56.7548 51.6708C56.8438 52.0111 57.0633 52.3027 57.3659 52.4822L58.3688 53.0613C58.5208 53.1491 58.6887 53.2061 58.8627 53.2291C59.0368 53.252 59.2136 53.2405 59.3832 53.195C59.5528 53.1496 59.7118 53.0712 59.8511 52.9643C59.9903 52.8574 60.1072 52.7241 60.1949 52.5721C60.2827 52.4201 60.3397 52.2522 60.3626 52.0782C60.3855 51.9041 60.374 51.7273 60.3285 51.5577C60.2831 51.3881 60.2047 51.2292 60.0978 51.0899C59.991 50.9506 59.8577 50.8338 59.7057 50.746ZM19.4055 27.479L18.4027 26.8999C18.096 26.7277 17.7337 26.6833 17.3945 26.7763C17.0552 26.8694 16.7664 27.0925 16.5905 27.3971C16.4146 27.7017 16.3658 28.0634 16.4548 28.4038C16.5438 28.7441 16.7633 29.0357 17.0658 29.2152L18.0687 29.7943C18.2207 29.8821 18.3885 29.9392 18.5626 29.9622C18.7366 29.9851 18.9135 29.9736 19.0831 29.9281C19.2527 29.8827 19.4117 29.8043 19.5509 29.6974C19.6902 29.5905 19.807 29.4571 19.8948 29.305C19.9825 29.153 20.0395 28.9852 20.0625 28.8111C20.0854 28.6371 20.0738 28.4602 20.0284 28.2907C19.9829 28.1211 19.9046 27.9621 19.7977 27.8229C19.6908 27.6836 19.5576 27.5667 19.4055 27.479ZM62.2319 38.6436H57.4477C57.0932 38.6436 56.7532 38.7845 56.5025 39.0352C56.2518 39.2858 56.111 39.6258 56.111 39.9804C56.111 40.3349 56.2518 40.6749 56.5025 40.9256C56.7532 41.1762 57.0932 41.3171 57.4477 41.3171H62.2319C62.4075 41.3171 62.5813 41.2825 62.7435 41.2154C62.9057 41.1482 63.0531 41.0497 63.1772 40.9256C63.3013 40.8015 63.3998 40.6541 63.467 40.4919C63.5341 40.3297 63.5687 40.1559 63.5687 39.9804C63.5687 39.8048 63.5341 39.631 63.4669 39.4688C63.3997 39.3066 63.3013 39.1593 63.1771 39.0352C63.053 38.911 62.9057 38.8126 62.7435 38.7454C62.5813 38.6782 62.4075 38.6436 62.2319 38.6436ZM19.3238 38.6436H14.5396C14.1851 38.6436 13.8451 38.7845 13.5944 39.0352C13.3437 39.2858 13.2029 39.6258 13.2029 39.9804C13.2029 40.3349 13.3437 40.6749 13.5944 40.9256C13.8451 41.1762 14.1851 41.3171 14.5396 41.3171H19.3238C19.6783 41.3171 20.0183 41.1762 20.269 40.9256C20.5197 40.6749 20.6605 40.3349 20.6605 39.9804C20.6605 39.6258 20.5197 39.2858 20.269 39.0352C20.0183 38.7845 19.6783 38.6436 19.3238 38.6436ZM60.1949 27.3891C60.1071 27.2371 59.9903 27.1038 59.851 26.997C59.7117 26.8901 59.5528 26.8117 59.3832 26.7663C59.2136 26.7209 59.0368 26.7093 58.8627 26.7322C58.6887 26.7551 58.5208 26.8121 58.3688 26.8999L57.3659 27.479C57.2138 27.5667 57.0806 27.6836 56.9737 27.8229C56.8668 27.9621 56.7884 28.1211 56.743 28.2907C56.6976 28.4602 56.686 28.6371 56.7089 28.8111C56.7319 28.9852 56.7888 29.153 56.8766 29.305C56.9643 29.4572 57.0812 29.5905 57.2204 29.6974C57.3597 29.8043 57.5187 29.8828 57.6883 29.9282C57.8579 29.9736 58.0348 29.9852 58.2088 29.9622C58.3829 29.9392 58.5507 29.8822 58.7027 29.7943L59.7057 29.2152C59.8577 29.1274 59.991 29.0106 60.0978 28.8713C60.2047 28.732 60.2831 28.5731 60.3285 28.4035C60.374 28.2339 60.3855 28.0571 60.3626 27.883C60.3397 27.709 60.2827 27.5411 60.1949 27.3891ZM19.8948 50.6561C19.807 50.5041 19.6901 50.3709 19.5508 50.264C19.4116 50.1571 19.2526 50.0787 19.083 50.0333C18.9135 49.9879 18.7366 49.9763 18.5626 49.9992C18.3885 50.0221 18.2207 50.0791 18.0687 50.1669L17.0658 50.746C16.9138 50.8338 16.7806 50.9506 16.6737 51.0899C16.5668 51.2292 16.4884 51.3881 16.443 51.5577C16.3976 51.7273 16.386 51.9041 16.4089 52.0782C16.4319 52.2522 16.4888 52.4201 16.5766 52.5721C16.6643 52.7242 16.7812 52.8575 16.9204 52.9644C17.0597 53.0714 17.2187 53.1498 17.3883 53.1952C17.5579 53.2407 17.7348 53.2522 17.9088 53.2292C18.0829 53.2063 18.2507 53.1492 18.4027 53.0613L19.4055 52.4822C19.5576 52.3945 19.6908 52.2776 19.7977 52.1383C19.9046 51.999 19.9829 51.8401 20.0284 51.6705C20.0738 51.5009 20.0854 51.3241 20.0625 51.15C20.0395 50.976 19.9825 50.8082 19.8948 50.6561ZM50.9774 18.1718C50.8254 18.0839 50.6576 18.0269 50.4835 18.004C50.3095 17.981 50.1326 17.9926 49.963 18.038C49.7934 18.0835 49.6345 18.1619 49.4952 18.2687C49.3559 18.3756 49.2391 18.5089 49.1513 18.661L48.5723 19.6638C48.455 19.8669 48.3932 20.0974 48.3932 20.3319C48.3931 20.5665 48.4548 20.7969 48.5719 21.0001C48.6891 21.2033 48.8577 21.3721 49.0607 21.4896C49.2637 21.607 49.4941 21.669 49.7287 21.6693C49.9636 21.6695 50.1944 21.6079 50.3978 21.4905C50.6013 21.3731 50.7702 21.2042 50.8876 21.0007L51.4666 19.9979C51.5544 19.8458 51.6114 19.678 51.6343 19.504C51.6573 19.3299 51.6457 19.1531 51.6002 18.9835C51.5548 18.8139 51.4764 18.655 51.3696 18.5157C51.2627 18.3764 51.1294 18.2595 50.9774 18.1718ZM27.7101 58.4715C27.5581 58.3836 27.3902 58.3266 27.2162 58.3037C27.0421 58.2808 26.8653 58.2923 26.6957 58.3378C26.5261 58.3832 26.3671 58.4616 26.2279 58.5685C26.0886 58.6754 25.9717 58.8086 25.884 58.9607L25.3049 59.9636C25.1876 60.1668 25.1259 60.3972 25.1258 60.6318C25.1258 60.8663 25.1874 61.0968 25.3046 61.3C25.4218 61.5032 25.5903 61.672 25.7934 61.7894C25.9964 61.9069 26.2268 61.9688 26.4613 61.9691C26.6962 61.9694 26.927 61.9077 27.1305 61.7903C27.3339 61.6729 27.5029 61.504 27.6202 61.3005L28.1993 60.2975C28.2871 60.1455 28.3441 59.9777 28.367 59.8036C28.3899 59.6296 28.3783 59.4527 28.3329 59.2832C28.2875 59.1136 28.2091 58.9546 28.1022 58.8154C27.9954 58.6761 27.8621 58.5592 27.7101 58.4715Z" fill="#1D1D1B"/>
</svg>
