<svg width="16" height="16" viewBox="0 0 16 16" fill="none" xmlns="http://www.w3.org/2000/svg">
<path d="M14.3337 8.63341V7.36675C14.3337 4.67974 14.3337 3.33624 13.4062 2.50149C12.4787 1.66675 10.9859 1.66675 8.00033 1.66675C5.01476 1.66675 3.52198 1.66675 2.59449 2.50149C1.66699 3.33624 1.66699 4.67974 1.66699 7.36675V8.63341C1.66699 11.3204 1.66699 12.6639 2.59449 13.4987C3.52198 14.3334 5.01476 14.3334 8.00033 14.3334C10.9859 14.3334 12.4787 14.3334 13.4062 13.4987C14.3337 12.6639 14.3337 11.3204 14.3337 8.63341Z" stroke="#8E8E8E"/>
<path d="M11.9997 5.33333H9.33301M10.6663 4L10.6663 6.66667" stroke="#8E8E8E" stroke-linecap="round" stroke-linejoin="round"/>
<path d="M11.9997 11.6667H9.33301" stroke="#8E8E8E" stroke-linecap="round" stroke-linejoin="round"/>
<path d="M11.9997 9.66675H9.33301" stroke="#8E8E8E" stroke-linecap="round" stroke-linejoin="round"/>
<path d="M6.66634 11.6666L5.49967 10.4999M5.49967 10.4999L4.33301 9.33325M5.49967 10.4999L6.66634 9.33325M5.49967 10.4999L4.33301 11.6666" stroke="#8E8E8E" stroke-linecap="round" stroke-linejoin="round"/>
<path d="M6.66667 5.33325H4" stroke="#8E8E8E" stroke-linecap="round" stroke-linejoin="round"/>
</svg>
