<svg width="16" height="16" viewBox="0 0 16 16" fill="none" xmlns="http://www.w3.org/2000/svg">
<path d="M5.37418 14.3999H10.625C13.2636 14.3999 13.7362 13.3695 13.874 12.1151L14.3663 6.99511C14.5435 5.43351 14.084 4.15991 11.2814 4.15991H4.71783C1.91519 4.15991 1.45574 5.43351 1.63295 6.99511L2.12522 12.1151C2.26306 13.3695 2.73563 14.3999 5.37418 14.3999Z" stroke="#8E8E8E" stroke-miterlimit="10" stroke-linecap="round" stroke-linejoin="round"/>
<path d="M5.375 4.1601V3.6481C5.375 2.5153 5.375 1.6001 7.47534 1.6001H8.52551C10.6258 1.6001 10.6258 2.5153 10.6258 3.6481V4.1601" stroke="#8E8E8E" stroke-miterlimit="10" stroke-linecap="round" stroke-linejoin="round"/>
<path d="M6.44348 8.9468C4.80693 8.76812 3.2008 8.20983 1.76562 7.28906" stroke="#8E8E8E" stroke-miterlimit="10" stroke-linecap="round" stroke-linejoin="round"/>
<path d="M9.58789 8.9468C11.2244 8.76812 12.8306 8.20983 14.2657 7.28906" stroke="#8E8E8E" stroke-miterlimit="10" stroke-linecap="round" stroke-linejoin="round"/>
<circle cx="8.00035" cy="9.06651" r="1.42222" stroke="#8E8E8E" stroke-linecap="round" stroke-linejoin="round"/>
</svg>
