<svg width="16" height="16" viewBox="0 0 16 16" fill="none" xmlns="http://www.w3.org/2000/svg">
<path d="M1.33301 8C1.33301 5.17157 1.33301 3.75736 2.30932 2.87868C3.28563 2 4.85698 2 7.99967 2C11.1424 2 12.7137 2 13.69 2.87868C14.6663 3.75736 14.6663 5.17157 14.6663 8C14.6663 10.8284 14.6663 12.2426 13.69 13.1213C12.7137 14 11.1424 14 7.99967 14C4.85698 14 3.28563 14 2.30932 13.1213C1.33301 12.2426 1.33301 10.8284 1.33301 8Z" stroke="#8E8E8E" stroke-linecap="round" stroke-linejoin="round"/>
<path d="M3.33301 11C4.13855 9.27929 7.14113 9.16606 7.99967 11M6.99967 6.33333C6.99967 7.06971 6.40272 7.66667 5.66634 7.66667C4.92996 7.66667 4.33301 7.06971 4.33301 6.33333C4.33301 5.59695 4.92996 5 5.66634 5C6.40272 5 6.99967 5.59695 6.99967 6.33333Z" stroke="#8E8E8E" stroke-linecap="round"/>
<path d="M10 6.66675H12.6667" stroke="#8E8E8E" stroke-linecap="round" stroke-linejoin="round"/>
<path d="M10 9.33325H12.6667" stroke="#8E8E8E" stroke-linecap="round" stroke-linejoin="round"/>
</svg>
