<svg width="16" height="16" viewBox="0 0 16 16" fill="none" xmlns="http://www.w3.org/2000/svg">
<g clip-path="url(#clip0_14282_150574)">
<path d="M2.33398 12C2.33398 11.0572 2.33398 10.5858 2.62688 10.2929C2.91977 10 3.39118 10 4.33398 10H4.66732C5.29586 10 5.61013 10 5.80539 10.1953C6.00065 10.3905 6.00065 10.7048 6.00065 11.3333V14.6667H2.33398V12Z" stroke="#8E8E8E" stroke-linecap="round" stroke-linejoin="round"/>
<path d="M10 12.6666C10 12.038 10 11.7238 10.1953 11.5285C10.3905 11.3333 10.7048 11.3333 11.3333 11.3333H11.6667C12.6095 11.3333 13.0809 11.3333 13.3738 11.6261C13.6667 11.919 13.6667 12.3904 13.6667 13.3333V14.6666H10V12.6666Z" stroke="#8E8E8E" stroke-linecap="round" stroke-linejoin="round"/>
<path d="M1.33398 14.6667H14.6673" stroke="#8E8E8E" stroke-linecap="round" stroke-linejoin="round"/>
<path d="M6 10.6667C6 9.72394 6 9.25253 6.29289 8.95964C6.58579 8.66675 7.05719 8.66675 8 8.66675C8.94281 8.66675 9.41421 8.66675 9.70711 8.95964C10 9.25253 10 9.72394 10 10.6667V14.6667H6V10.6667Z" stroke="#8E8E8E" stroke-linecap="round" stroke-linejoin="round"/>
<path d="M8.46135 1.71837L8.93064 2.66469C8.99463 2.79642 9.16528 2.92277 9.30926 2.94697L10.1598 3.08945C10.7038 3.18086 10.8318 3.57874 10.4398 3.97125L9.77854 4.63798C9.66655 4.75089 9.60523 4.96865 9.63989 5.12458L9.8292 5.94992C9.97852 6.6032 9.63456 6.85591 9.06129 6.51448L8.26404 6.03864C8.12006 5.95261 7.88275 5.95261 7.7361 6.03864L6.93886 6.51448C6.36825 6.85591 6.02162 6.60051 6.17094 5.94992L6.36025 5.12458C6.39492 4.96865 6.33359 4.75089 6.2216 4.63798L5.56034 3.97125C5.17105 3.57874 5.29637 3.18086 5.84031 3.08945L6.69088 2.94697C6.8322 2.92277 7.00285 2.79642 7.06684 2.66469L7.53612 1.71837C7.79209 1.20488 8.20805 1.20488 8.46135 1.71837Z" stroke="#8E8E8E" stroke-linecap="round" stroke-linejoin="round"/>
</g>
<defs>
<clipPath id="clip0_14282_150574">
<rect width="16" height="16" fill="white"/>
</clipPath>
</defs>
</svg>
