<svg width="16" height="17" viewBox="0 0 16 17" fill="none" xmlns="http://www.w3.org/2000/svg">
<path d="M1.6665 8.50008C1.6665 5.51452 1.6665 4.02174 2.594 3.09424C3.52149 2.16675 5.01428 2.16675 7.99984 2.16675C10.9854 2.16675 12.4782 2.16675 13.4057 3.09424C14.3332 4.02174 14.3332 5.51452 14.3332 8.50008C14.3332 11.4856 14.3332 12.9784 13.4057 13.9059C12.4782 14.8334 10.9854 14.8334 7.99984 14.8334C5.01428 14.8334 3.52149 14.8334 2.594 13.9059C1.6665 12.9784 1.6665 11.4856 1.6665 8.50008Z" stroke="#C5C7C9"/>
<path d="M8.1613 11.8335L8.1613 8.50016C8.1613 8.18589 8.1613 8.02876 8.06366 7.93113C7.96603 7.8335 7.8089 7.8335 7.49463 7.8335" stroke="#C5C7C9" stroke-linecap="round" stroke-linejoin="round"/>
<path d="M7.9945 5.8335H8.00049" stroke="#C5C7C9" stroke-linecap="round" stroke-linejoin="round"/>
</svg>
