<svg width="16" height="16" viewBox="0 0 16 16" fill="none" xmlns="http://www.w3.org/2000/svg">
<path d="M8.26693 5.53205L10.2135 4.88318C10.8044 4.68624 11.0998 4.58777 11.2557 4.74371C11.4117 4.89965 11.3132 5.19506 11.1162 5.78589L10.4674 7.7325C10.1318 8.7393 9.96398 9.2427 9.60297 9.6037C9.24196 9.96471 8.73856 10.1325 7.73177 10.4681L5.78516 11.117C5.19433 11.3139 4.89891 11.4124 4.74298 11.2565C4.58704 11.1005 4.68551 10.8051 4.88245 10.2143L5.53132 8.26766C5.86692 7.26087 6.03472 6.75747 6.39573 6.39646C6.75673 6.03545 7.26013 5.86765 8.26693 5.53205Z" stroke="#8E8E8E" stroke-linecap="round" stroke-linejoin="round"/>
<path d="M8 8L7.99577 8.00423" stroke="#8E8E8E" stroke-linecap="round" stroke-linejoin="round"/>
<path d="M1.66602 8.00008C1.66602 5.01452 1.66602 3.52174 2.59351 2.59424C3.52101 1.66675 5.01379 1.66675 7.99935 1.66675C10.9849 1.66675 12.4777 1.66675 13.4052 2.59424C14.3327 3.52174 14.3327 5.01452 14.3327 8.00008C14.3327 10.9856 14.3327 12.4784 13.4052 13.4059C12.4777 14.3334 10.9849 14.3334 7.99935 14.3334C5.01379 14.3334 3.52101 14.3334 2.59351 13.4059C1.66602 12.4784 1.66602 10.9856 1.66602 8.00008Z" stroke="#8E8E8E" stroke-linecap="round" stroke-linejoin="round"/>
</svg>
