<svg width="16" height="16" viewBox="0 0 16 16" fill="none" xmlns="http://www.w3.org/2000/svg">
<g clip-path="url(#clip0_41_1493)">
<path d="M8 10C9.10457 10 10 9.10457 10 8C10 6.89543 9.10457 6 8 6C6.89543 6 6 6.89543 6 8C6 9.10457 6.89543 10 8 10Z" stroke="#8E8E8E" stroke-linecap="round" stroke-linejoin="round"/>
<path d="M12.4845 9.8181C12.4038 10.0009 12.3798 10.2037 12.4154 10.4003C12.4511 10.5969 12.5448 10.7783 12.6845 10.9211L12.7209 10.9575C12.8336 11.0701 12.923 11.2038 12.984 11.3509C13.045 11.498 13.0764 11.6558 13.0764 11.8151C13.0764 11.9744 13.045 12.1321 12.984 12.2792C12.923 12.4264 12.8336 12.5601 12.7209 12.6726C12.6083 12.7853 12.4746 12.8747 12.3275 12.9357C12.1803 12.9967 12.0226 13.0281 11.8633 13.0281C11.704 13.0281 11.5463 12.9967 11.3991 12.9357C11.252 12.8747 11.1183 12.7853 11.0057 12.6726L10.9694 12.6363C10.8265 12.4966 10.6451 12.4028 10.4485 12.3672C10.2519 12.3315 10.0491 12.3556 9.86634 12.4363C9.68709 12.5131 9.53421 12.6407 9.42653 12.8033C9.31884 12.9659 9.26106 13.1564 9.26028 13.3514V13.4545C9.26028 13.7759 9.13257 14.0842 8.90526 14.3116C8.67794 14.5389 8.36963 14.6666 8.04816 14.6666C7.72668 14.6666 7.41838 14.5389 7.19106 14.3116C6.96374 14.0842 6.83604 13.7759 6.83604 13.4545V13.3999C6.83135 13.1993 6.76641 13.0048 6.64968 12.8416C6.53295 12.6783 6.36982 12.554 6.18149 12.4848C5.99869 12.4041 5.79592 12.38 5.59932 12.4157C5.40271 12.4513 5.2213 12.545 5.07846 12.6848L5.0421 12.7211C4.92953 12.8338 4.79584 12.9232 4.64869 12.9842C4.50154 13.0452 4.34381 13.0766 4.18452 13.0766C4.02523 13.0766 3.8675 13.0452 3.72035 12.9842C3.5732 12.9232 3.43952 12.8338 3.32695 12.7211C3.21425 12.6086 3.12484 12.4749 3.06384 12.3277C3.00285 12.1806 2.97145 12.0228 2.97145 11.8636C2.97145 11.7043 3.00285 11.5465 3.06384 11.3994C3.12484 11.2522 3.21425 11.1186 3.32695 11.006L3.36331 10.9696C3.50303 10.8268 3.59676 10.6454 3.6324 10.4488C3.66805 10.2522 3.64399 10.0494 3.56331 9.86658C3.48648 9.68733 3.35892 9.53445 3.19632 9.42677C3.03372 9.31909 2.84318 9.2613 2.64816 9.26052H2.54513C2.22365 9.26052 1.91535 9.13282 1.68803 8.9055C1.46071 8.67819 1.33301 8.36988 1.33301 8.0484C1.33301 7.72693 1.46071 7.41862 1.68803 7.1913C1.91535 6.96399 2.22365 6.83628 2.54513 6.83628H2.59967C2.80028 6.83159 2.99483 6.76666 3.15804 6.64992C3.32125 6.53319 3.44556 6.37006 3.51483 6.18174C3.5955 5.99894 3.61957 5.79616 3.58392 5.59956C3.54827 5.40296 3.45455 5.22154 3.31483 5.07871L3.27846 5.04234C3.16576 4.92977 3.07636 4.79609 3.01536 4.64894C2.95436 4.50179 2.92296 4.34406 2.92296 4.18477C2.92296 4.02548 2.95436 3.86775 3.01536 3.7206C3.07636 3.57345 3.16576 3.43976 3.27846 3.32719C3.39104 3.21449 3.52472 3.12509 3.67187 3.06409C3.81902 3.00309 3.97675 2.97169 4.13604 2.97169C4.29533 2.97169 4.45306 3.00309 4.60021 3.06409C4.74736 3.12509 4.88104 3.21449 4.99361 3.32719L5.02998 3.36355C5.17281 3.50327 5.35423 3.597 5.55083 3.63265C5.74744 3.6683 5.95021 3.64423 6.13301 3.56355H6.18149C6.36075 3.48673 6.51362 3.35916 6.62131 3.19656C6.72899 3.03396 6.78678 2.84343 6.78755 2.6484V2.54537C6.78755 2.2239 6.91526 1.91559 7.14258 1.68827C7.36989 1.46096 7.6782 1.33325 7.99967 1.33325C8.32115 1.33325 8.62946 1.46096 8.85677 1.68827C9.08409 1.91559 9.2118 2.2239 9.2118 2.54537V2.59992C9.21257 2.79494 9.27036 2.98548 9.37804 3.14808C9.48572 3.31068 9.6386 3.43824 9.81786 3.51507C10.0007 3.59575 10.2034 3.61981 10.4 3.58416C10.5966 3.54852 10.7781 3.45479 10.9209 3.31507L10.9572 3.27871C11.0698 3.16601 11.2035 3.0766 11.3507 3.0156C11.4978 2.9546 11.6555 2.92321 11.8148 2.92321C11.9741 2.92321 12.1318 2.9546 12.279 3.0156C12.4261 3.0766 12.5598 3.16601 12.6724 3.27871C12.7851 3.39128 12.8745 3.52496 12.9355 3.67211C12.9965 3.81926 13.0279 3.97699 13.0279 4.13628C13.0279 4.29557 12.9965 4.4533 12.9355 4.60045C12.8745 4.7476 12.7851 4.88128 12.6724 4.99386L12.636 5.03022C12.4963 5.17306 12.4026 5.35447 12.3669 5.55108C12.3313 5.74768 12.3554 5.95045 12.436 6.13325V6.18174C12.5129 6.36099 12.6404 6.51387 12.803 6.62155C12.9656 6.72923 13.1562 6.78702 13.3512 6.7878H13.4542C13.7757 6.7878 14.084 6.9155 14.3113 7.14282C14.5386 7.37014 14.6663 7.67844 14.6663 7.99992C14.6663 8.32139 14.5386 8.6297 14.3113 8.85702C14.084 9.08433 13.7757 9.21204 13.4542 9.21204H13.3997C13.2047 9.21282 13.0141 9.2706 12.8515 9.37829C12.6889 9.48597 12.5613 9.63885 12.4845 9.8181Z" stroke="#8E8E8E" stroke-linecap="round" stroke-linejoin="round"/>
</g>
<defs>
<clipPath id="clip0_41_1493">
<rect width="16" height="16" fill="white"/>
</clipPath>
</defs>
</svg>
