<svg width="16" height="17" viewBox="0 0 16 17" fill="none" xmlns="http://www.w3.org/2000/svg">
<path d="M12.6667 6.8335V6.0335C12.6613 4.16491 12.6034 3.1743 11.978 2.53644C11.2888 1.8335 10.1796 1.8335 7.96107 1.8335L6.70614 1.8335C4.48764 1.8335 3.3784 1.8335 2.6892 2.53644C2 3.23938 2 4.37075 2 6.6335L2 9.70016C2 11.9629 2 13.0943 2.6892 13.7972C3.30103 14.4213 4.2439 14.4913 6 14.4992" stroke="#C5C7C9" stroke-linecap="round"/>
<path d="M12.4504 13.6258L14.0002 15.1667M13.3335 11.5C13.3335 9.84315 11.9904 8.5 10.3335 8.5C8.67664 8.5 7.3335 9.84315 7.3335 11.5C7.3335 13.1569 8.67664 14.5 10.3335 14.5C11.9904 14.5 13.3335 13.1569 13.3335 11.5Z" stroke="#C5C7C9" stroke-linecap="round" stroke-linejoin="round"/>
<path d="M4.6665 5.16675L9.99984 5.16675" stroke="#C5C7C9" stroke-linecap="round"/>
<path d="M4.6665 7.8335L6.6665 7.8335" stroke="#C5C7C9" stroke-linecap="round"/>
</svg>
