<svg width="16" height="17" viewBox="0 0 16 17" fill="none" xmlns="http://www.w3.org/2000/svg">
<path d="M3.3335 4.47693H5.4335M8.00016 4.47693H6.8335M5.4335 4.47693H6.8335M5.4335 4.47693V3.83325M6.8335 4.47693C6.58733 5.3572 6.07186 6.18932 5.4835 6.92061M3.9835 8.49992C4.45912 8.06257 4.9963 7.52616 5.4835 6.92061M5.4835 6.92061C5.1835 6.56888 4.7635 5.99981 4.6435 5.74234M5.4835 6.92061L6.3835 7.85624" stroke="#C5C7C9" stroke-linecap="round" stroke-linejoin="round"/>
<path d="M4.6817 11.8184C4.71799 12.9651 4.84281 13.6685 5.27214 14.1916C5.38295 14.3267 5.50676 14.4505 5.64178 14.5613C6.37935 15.1666 7.47518 15.1666 9.66683 15.1666C11.8585 15.1666 12.9543 15.1666 13.6919 14.5613C13.8269 14.4505 13.9507 14.3267 14.0615 14.1916C14.6668 13.4541 14.6668 12.3582 14.6668 10.1666C14.6668 7.97493 14.6668 6.8791 14.0615 6.14154C13.9507 6.00651 13.8269 5.8827 13.6919 5.77189C13.171 5.34443 12.4715 5.21884 11.3335 5.18194M4.6817 11.8184C3.53494 11.7821 2.83158 11.6573 2.30845 11.2279C2.17342 11.1171 2.04961 10.9933 1.9388 10.8583C1.3335 10.1207 1.3335 9.02491 1.3335 6.83325C1.3335 4.6416 1.3335 3.54577 1.9388 2.8082C2.04961 2.67318 2.17342 2.54937 2.30845 2.43856C3.04601 1.83325 4.14184 1.83325 6.3335 1.83325C8.52515 1.83325 9.62098 1.83325 10.3585 2.43856C10.4936 2.54937 10.6174 2.67318 10.7282 2.8082C11.1575 3.33134 11.2823 4.0347 11.3186 5.18146C11.3186 5.18146 11.3186 5.18146 11.3335 5.18194M4.6817 11.8184L11.3335 5.18194" stroke="#C5C7C9"/>
<path d="M8.6665 13.1667L9.22206 11.8334M11.9998 13.1667L11.4443 11.8334M9.22206 11.8334L10.3332 9.16675L11.4443 11.8334M9.22206 11.8334H11.4443" stroke="#C5C7C9" stroke-linecap="round" stroke-linejoin="round"/>
</svg>
