<svg width="49" height="48" viewBox="0 0 49 48" fill="none" xmlns="http://www.w3.org/2000/svg">
<rect x="0.5" width="48" height="48" rx="24" fill="white"/>
<path d="M33.5 30.2222C33.5 30.6937 33.3104 31.1459 32.9728 31.4793C32.6352 31.8127 32.1774 32 31.7 32H17.3C16.8226 32 16.3648 31.8127 16.0272 31.4793C15.6896 31.1459 15.5 30.6937 15.5 30.2222V17.7778C15.5 17.3063 15.6896 16.8541 16.0272 16.5207C16.3648 16.1873 16.8226 16 17.3 16H21.8L23.6 18.6667H31.7C32.1774 18.6667 32.6352 18.854 32.9728 19.1874C33.3104 19.5208 33.5 19.9729 33.5 20.4444V30.2222Z" stroke="#00D072" stroke-width="1.5" stroke-linecap="round" stroke-linejoin="round"/>
<path d="M21.5 26L24.5 29M24.5 29L27.5 26M24.5 29L24.5 22" stroke="#00D072" stroke-width="1.5" stroke-linecap="round" stroke-linejoin="round"/>
</svg>
