<svg width="40" height="38" viewBox="0 0 40 38" fill="none" xmlns="http://www.w3.org/2000/svg">
<path d="M39.6469 9.00347L39.3472 10.6535C38.4484 15.8535 36.7494 20.6535 34.2504 25.0535C32.0513 28.9535 29.852 32.4535 27.6527 35.5535C26.9531 37.1535 25.8033 37.9535 24.2033 37.9535C23.8032 37.7535 23.5531 37.4035 23.453 36.9035C23.4529 36.3035 23.7027 35.6035 24.2026 34.8035L25.5521 32.8535C25.7521 32.8535 26.7017 30.8035 28.4008 26.7035C29.9999 22.8035 30.799 18.8535 30.7981 14.8535C30.7971 9.95347 29.2962 6.25347 26.2957 3.75347C25.3956 3.15347 24.9454 2.35347 24.9452 1.35347L25.395 0.75347C25.595 0.553467 25.9949 0.403466 26.5949 0.303467L28.245 0.75347L29.8951 1.05347L31.5452 1.50347C33.2453 1.80347 34.6454 2.30347 35.7455 3.00347C36.2455 3.00347 36.9957 3.60347 37.9959 4.80347C39.0962 6.20347 39.6465 7.60347 39.6469 9.00347ZM16.5466 7.95347C16.5468 8.95347 16.447 9.85347 16.2472 10.6535C15.4484 15.8535 13.6994 20.7535 11.0005 25.3535C8.1016 30.4535 5.95235 33.8535 4.55273 35.5535C3.85308 37.1535 2.70326 37.9535 1.10326 37.9535C0.803238 37.8535 0.55316 37.5035 0.353027 36.9035C0.352894 36.3035 0.602739 35.6035 1.10256 34.8035L2.45213 32.8535L2.90196 32.1035L3.95143 29.7035C4.95094 27.5035 5.80041 25.1035 6.49984 22.5035C7.29917 19.5035 7.69861 16.9535 7.69814 14.8535C7.69706 9.95347 6.19624 6.25347 3.19568 3.75347C2.29555 3.15347 1.84537 2.35347 1.84515 1.35347L2.29502 0.75347C2.49498 0.553467 2.89494 0.403466 3.49492 0.303467L5.14502 0.75347L6.79509 1.05347L8.44519 1.50347C10.1453 1.80347 11.5454 2.30347 12.6455 3.00347C13.1455 3.00347 13.9456 3.40347 15.0458 4.20347C16.0459 4.60347 16.5462 5.85347 16.5466 7.95347Z" fill="#E9EAEC"/>
</svg>
