<svg width="20" height="20" viewBox="0 0 20 20" fill="none" xmlns="http://www.w3.org/2000/svg">
<rect width="20" height="20" fill="white"/>
<path d="M9.36523 1.32104C11.2468 1.32128 12.7723 2.84731 12.7725 4.73022C12.7725 6.61326 11.2469 8.14015 9.36523 8.14038C7.48338 8.14038 5.95703 6.61341 5.95703 4.73022C5.95717 2.84716 7.48346 1.32104 9.36523 1.32104Z" stroke="#363633"/>
<path d="M13 10C11.5 9.49997 10.9291 10.0178 9.43862 10.0177C7.80113 10.0177 7.0568 8.86352 4.861 10.0922C2.29297 11.5292 2.29299 13.8899 2.29297 16.0122C2.29295 17.6504 3.40957 18.2089 5.27033 18.2089M5.27033 18.2089C8.09897 18.2089 9.95176 18.1965 10.5224 18.2089M5.27033 18.2089V14.4484" stroke="#363633" stroke-linecap="round"/>
<path d="M17.0027 15.567C16.958 15.6683 16.9447 15.7807 16.9644 15.8896C16.9842 15.9986 17.0361 16.0991 17.1136 16.1783L17.1337 16.1984C17.1962 16.2608 17.2457 16.3349 17.2795 16.4164C17.3133 16.4979 17.3307 16.5854 17.3307 16.6736C17.3307 16.7619 17.3133 16.8493 17.2795 16.9308C17.2457 17.0124 17.1962 17.0865 17.1337 17.1488C17.0713 17.2113 16.9973 17.2608 16.9157 17.2946C16.8342 17.3284 16.7468 17.3458 16.6585 17.3458C16.5702 17.3458 16.4828 17.3284 16.4013 17.2946C16.3197 17.2608 16.2457 17.2113 16.1833 17.1488L16.1631 17.1287C16.084 17.0513 15.9835 16.9993 15.8745 16.9796C15.7656 16.9598 15.6532 16.9732 15.5519 17.0179C15.4526 17.0604 15.3679 17.1311 15.3082 17.2212C15.2485 17.3113 15.2165 17.4169 15.2161 17.525V17.5821C15.2161 17.7602 15.1453 17.9311 15.0193 18.057C14.8934 18.183 14.7225 18.2538 14.5444 18.2538C14.3662 18.2538 14.1954 18.183 14.0694 18.057C13.9435 17.9311 13.8727 17.7602 13.8727 17.5821V17.5519C13.8701 17.4407 13.8341 17.3329 13.7694 17.2424C13.7047 17.152 13.6143 17.0831 13.51 17.0447C13.4087 17 13.2963 16.9867 13.1874 17.0064C13.0784 17.0262 12.9779 17.0781 12.8987 17.1556L12.8786 17.1757C12.8162 17.2382 12.7421 17.2877 12.6606 17.3215C12.5791 17.3553 12.4916 17.3727 12.4034 17.3727C12.3151 17.3727 12.2277 17.3553 12.1462 17.3215C12.0646 17.2877 11.9905 17.2382 11.9282 17.1757C11.8657 17.1133 11.8162 17.0392 11.7824 16.9577C11.7486 16.8762 11.7312 16.7888 11.7312 16.7005C11.7312 16.6122 11.7486 16.5248 11.7824 16.4433C11.8162 16.3617 11.8657 16.2877 11.9282 16.2253L11.9483 16.2051C12.0257 16.126 12.0777 16.0254 12.0974 15.9165C12.1172 15.8076 12.1038 15.6952 12.0591 15.5939C12.0166 15.4946 11.9459 15.4098 11.8558 15.3502C11.7657 15.2905 11.6601 15.2585 11.552 15.258H11.4949C11.3168 15.258 11.1459 15.1873 11.02 15.0613C10.894 14.9354 10.8232 14.7645 10.8232 14.5864C10.8232 14.4082 10.894 14.2374 11.02 14.1114C11.1459 13.9854 11.3168 13.9147 11.4949 13.9147H11.5252C11.6363 13.9121 11.7441 13.8761 11.8346 13.8114C11.925 13.7467 11.9939 13.6563 12.0323 13.552C12.077 13.4507 12.0903 13.3383 12.0706 13.2294C12.0508 13.1204 11.9989 13.0199 11.9214 12.9407L11.9013 12.9206C11.8388 12.8582 11.7893 12.7841 11.7555 12.7026C11.7217 12.621 11.7043 12.5336 11.7043 12.4454C11.7043 12.3571 11.7217 12.2697 11.7555 12.1882C11.7893 12.1066 11.8388 12.0325 11.9013 11.9702C11.9637 11.9077 12.0378 11.8582 12.1193 11.8244C12.2008 11.7906 12.2882 11.7732 12.3765 11.7732C12.4648 11.7732 12.5522 11.7906 12.6337 11.8244C12.7153 11.8582 12.7893 11.9077 12.8517 11.9702L12.8719 11.9903C12.951 12.0677 13.0516 12.1197 13.1605 12.1394C13.2695 12.1592 13.3818 12.1458 13.4831 12.1011H13.51C13.6093 12.0586 13.694 11.9879 13.7537 11.8978C13.8134 11.8077 13.8454 11.7021 13.8458 11.594V11.5369C13.8458 11.3588 13.9166 11.1879 14.0426 11.062C14.1685 10.936 14.3394 10.8652 14.5175 10.8652C14.6956 10.8652 14.8665 10.936 14.9925 11.062C15.1184 11.1879 15.1892 11.3588 15.1892 11.5369V11.5671C15.1896 11.6752 15.2216 11.7808 15.2813 11.8709C15.341 11.961 15.4257 12.0317 15.525 12.0743C15.6263 12.119 15.7387 12.1323 15.8476 12.1126C15.9566 12.0928 16.0571 12.0409 16.1363 11.9634L16.1564 11.9433C16.2188 11.8808 16.2929 11.8313 16.3744 11.7975C16.456 11.7637 16.5434 11.7463 16.6316 11.7463C16.7199 11.7463 16.8073 11.7637 16.8888 11.7975C16.9704 11.8313 17.0445 11.8808 17.1068 11.9433C17.1693 12.0057 17.2188 12.0797 17.2526 12.1613C17.2864 12.2428 17.3038 12.3302 17.3038 12.4185C17.3038 12.5068 17.2864 12.5942 17.2526 12.6757C17.2188 12.7573 17.1693 12.8313 17.1068 12.8937L17.0867 12.9139C17.0093 12.993 16.9573 13.0936 16.9376 13.2025C16.9178 13.3114 16.9312 13.4238 16.9759 13.5251V13.552C17.0184 13.6513 17.0891 13.736 17.1792 13.7957C17.2693 13.8554 17.3749 13.8874 17.483 13.8878H17.5401C17.7182 13.8878 17.8891 13.9586 18.015 14.0845C18.141 14.2105 18.2118 14.3814 18.2118 14.5595C18.2118 14.7376 18.141 14.9085 18.015 15.0344C17.8891 15.1604 17.7182 15.2312 17.5401 15.2312H17.5099C17.4018 15.2316 17.2962 15.2636 17.2061 15.3233C17.116 15.383 17.0453 15.4677 17.0027 15.567Z" stroke="#363633" stroke-width="1.00372" stroke-linecap="round" stroke-linejoin="round"/>
<path d="M14.5175 15.6677C15.1295 15.6677 15.6257 15.1715 15.6257 14.5595C15.6257 13.9474 15.1295 13.4512 14.5175 13.4512C13.9054 13.4512 13.4092 13.9474 13.4092 14.5595C13.4092 15.1715 13.9054 15.6677 14.5175 15.6677Z" stroke="#363633" stroke-width="1.00372" stroke-linecap="round" stroke-linejoin="round"/>
</svg>
