<svg width="20" height="20" viewBox="0 0 20 20" fill="none" xmlns="http://www.w3.org/2000/svg">
<rect width="20" height="20" fill="none"/>
<path d="M10.0547 1.32104C11.9366 1.32112 13.4629 2.8479 13.4629 4.7312C13.4627 6.61431 11.9365 8.14031 10.0547 8.14038C8.1728 8.14038 6.64671 6.61436 6.64648 4.7312C6.64648 2.84785 8.17266 1.32104 10.0547 1.32104Z" stroke="#363633"/>
<path d="M15.2158 10.0928C12.9454 8.78959 11.698 10.0184 10.2074 10.0184C8.56979 10.0183 7.11673 8.86404 4.92077 10.0928C2.35254 11.5299 2.35256 13.8908 2.35254 16.0133C2.35253 17.6516 3.46922 18.2102 5.33013 18.2102M5.33013 18.2102C8.15898 18.2102 9.11413 18.1978 9.68483 18.2102M5.33013 18.2102V14.4494" stroke="#363633" stroke-linecap="round"/>
<path d="M4.74371 10.197C7.01412 8.89377 8.67295 10.0185 10.1636 10.0185C11.8012 10.0185 13.018 8.8642 15.214 10.093C17.7822 11.5301 17.7822 13.891 17.7822 16.0134C17.7822 17.6518 16.6655 18.2103 14.8046 18.2103M14.8046 18.2103C11.9758 18.2103 9.48764 18.1979 8.91694 18.2103M14.8046 18.2103V14.4495" stroke="#363633" stroke-linecap="round"/>
<path d="M8.67902 14.6482L9.76243 10.2785C9.79726 10.138 9.92338 10.0393 10.0681 10.0393H10.3627C10.5075 10.0393 10.6336 10.138 10.6684 10.2785L11.7518 14.6482C11.776 14.7456 11.7523 14.8486 11.6881 14.9257L10.4574 16.4025C10.3315 16.5536 10.0994 16.5536 9.97347 16.4025L8.74277 14.9257C8.67856 14.8486 8.65488 14.7456 8.67902 14.6482Z" stroke="#363633"/>
</svg>
