<svg width="20" height="20" viewBox="0 0 20 20" fill="none" xmlns="http://www.w3.org/2000/svg">
<path d="M6.71822 18H13.2818C16.58 18 17.1707 16.712 17.343 15.144L17.9583 8.74395C18.1798 6.79195 17.6055 5.19995 14.1022 5.19995H5.89777C2.39447 5.19995 1.82016 6.79195 2.04168 8.74395L2.65702 15.144C2.82931 16.712 3.42003 18 6.71822 18Z" stroke="#363633" stroke-miterlimit="10" stroke-linecap="round" stroke-linejoin="round"/>
<path d="M6.71777 5.2V4.56C6.71777 3.144 6.71777 2 9.3432 2H10.6559C13.2813 2 13.2813 3.144 13.2813 4.56V5.2" stroke="#363633" stroke-miterlimit="10" stroke-linecap="round" stroke-linejoin="round"/>
<path d="M8.05533 11.1833C6.00964 10.9599 4.00197 10.262 2.20801 9.11108" stroke="#363633" stroke-miterlimit="10" stroke-linecap="round" stroke-linejoin="round"/>
<path d="M11.9854 11.1833C14.031 10.9599 16.0387 10.262 17.8327 9.11108" stroke="#363633" stroke-miterlimit="10" stroke-linecap="round" stroke-linejoin="round"/>
<circle cx="10.0004" cy="11.3332" r="1.77778" stroke="#363633" stroke-linecap="round" stroke-linejoin="round"/>
</svg>
