<svg width="20" height="20" viewBox="0 0 20 20" fill="none" xmlns="http://www.w3.org/2000/svg">
<path d="M8.33366 9.67051L4.22948 14.4885C3.67875 15.135 2.69367 15.1743 2.09314 14.5738C1.49261 13.9732 1.53195 12.9882 2.17846 12.4374L6.99641 8.33325" stroke="#363633" stroke-linejoin="round"/>
<path d="M15.0003 8.3731L10.8733 12.5001M8.29398 1.66675L4.16699 5.79373M7.77813 2.18259L4.68289 5.27783C4.68289 5.27783 6.23051 7.34132 7.77813 8.88894C9.32575 10.4366 11.3892 11.9842 11.3892 11.9842L14.4845 8.88894C14.4845 8.88894 12.9369 6.82545 11.3892 5.27783C9.84163 3.73021 7.77813 2.18259 7.77813 2.18259Z" stroke="#363633" stroke-linecap="round" stroke-linejoin="round"/>
<path d="M9.65584 18.0904C9.52173 18.3318 9.6087 18.6362 9.8501 18.7703C10.0915 18.9044 10.3959 18.8175 10.53 18.5761L9.65584 18.0904ZM10.6536 17.324L11.0907 17.5668L11.0907 17.5668L10.6536 17.324ZM16.1373 18.5761C16.2714 18.8175 16.5758 18.9044 16.8172 18.7703C17.0586 18.6362 17.1456 18.3318 17.0115 18.0904L16.1373 18.5761ZM16.0137 17.324L16.4508 17.0811L16.4508 17.0811L16.0137 17.324ZM15.3235 16.2976L15.6504 15.9193L15.6504 15.9193L15.3235 16.2976ZM14.6623 15.9298L14.5097 16.406L14.5097 16.406L14.6623 15.9298ZM11.3438 16.2976L11.0169 15.9193L11.0169 15.9193L11.3438 16.2976ZM12.005 15.9298L11.8524 15.4537L11.8524 15.4537L12.005 15.9298ZM9.16699 17.8333C8.89085 17.8333 8.66699 18.0571 8.66699 18.3333C8.66699 18.6094 8.89085 18.8333 9.16699 18.8333L9.16699 17.8333ZM17.5003 18.8333C17.7765 18.8333 18.0003 18.6094 18.0003 18.3333C18.0003 18.0571 17.7765 17.8333 17.5003 17.8333L17.5003 18.8333ZM10.0929 18.3333L10.53 18.5761L11.0907 17.5668L10.6536 17.324L10.2166 17.0811L9.65584 18.0904L10.0929 18.3333ZM16.5744 18.3333L17.0115 18.0904L16.4508 17.0811L16.0137 17.324L15.5766 17.5668L16.1373 18.5761L16.5744 18.3333ZM16.0137 17.324L16.4508 17.0811C16.1622 16.5617 15.9639 16.1902 15.6504 15.9193L15.3235 16.2976L14.9966 16.676C15.1446 16.8039 15.2526 16.9837 15.5766 17.5668L16.0137 17.324ZM13.3337 15.8333V16.3333C14.0527 16.3333 14.3006 16.339 14.5097 16.406L14.6623 15.9298L14.8149 15.4537C14.4212 15.3275 13.9843 15.3333 13.3337 15.3333V15.8333ZM15.3235 16.2976L15.6504 15.9193C15.4085 15.7103 15.1234 15.5526 14.8149 15.4537L14.6623 15.9298L14.5097 16.406C14.6949 16.4654 14.8604 16.5583 14.9966 16.676L15.3235 16.2976ZM10.6536 17.324L11.0907 17.5668C11.4147 16.9837 11.5227 16.8039 11.6707 16.676L11.3438 16.2976L11.0169 15.9193C10.7034 16.1902 10.5051 16.5617 10.2166 17.0811L10.6536 17.324ZM13.3337 15.8333V15.3333C12.683 15.3333 12.2461 15.3275 11.8524 15.4537L12.005 15.9298L12.1576 16.406C12.3667 16.339 12.6146 16.3333 13.3337 16.3333V15.8333ZM11.3438 16.2976L11.6707 16.676C11.8069 16.5583 11.9724 16.4654 12.1576 16.406L12.005 15.9298L11.8524 15.4537C11.544 15.5526 11.2588 15.7103 11.0169 15.9193L11.3438 16.2976ZM9.16699 18.3333L9.16699 18.8333L17.5003 18.8333L17.5003 18.3333L17.5003 17.8333L9.16699 17.8333L9.16699 18.3333Z" fill="#363633"/>
<path d="M16.667 9.69689L18.3337 8.33325M16.667 12.4242L18.3337 13.3333" stroke="#363633" stroke-linecap="round" stroke-linejoin="round"/>
</svg>
