<svg width="20" height="20" viewBox="0 0 20 20" fill="none" xmlns="http://www.w3.org/2000/svg">
<g clip-path="url(#clip0_13469_266458)">
<path d="M9.05176 1.32129C10.9337 1.32136 12.46 2.84814 12.46 4.73145C12.4597 6.61456 10.9336 8.14055 9.05176 8.14062C7.16987 8.14062 5.64378 6.6146 5.64355 4.73145C5.64355 2.8481 7.16974 1.32129 9.05176 1.32129Z" stroke="#363633"/>
<path d="M14.0001 10.5C11.5001 9 11.0001 10.0184 9.12569 10.0183C7.48808 10.0182 6.74369 8.86397 4.54772 10.0928C1.97949 11.5298 1.97951 13.8908 1.97949 16.0132C1.97948 17.6516 3.09617 18.2101 4.95708 18.2101M4.95708 18.2101C7.78594 18.2101 9.63872 18.1977 10.2094 18.2101M4.95708 18.2101V14.4493" stroke="#363633" stroke-linecap="round"/>
<path d="M14.0244 12.082C14.1741 11.6214 14.8259 11.6214 14.9756 12.082L15.2598 12.9551C15.4606 13.5728 16.0359 13.9911 16.6855 13.9912H17.6045C18.0885 13.9915 18.2896 14.6107 17.8984 14.8955L17.1553 15.4355C16.6296 15.8174 16.4097 16.4944 16.6104 17.1123L16.8936 17.9863C17.0431 18.4469 16.5168 18.8293 16.125 18.5449L15.3818 18.0049C14.8562 17.623 14.1439 17.623 13.6182 18.0049L12.875 18.5449C12.4832 18.8293 11.9569 18.4469 12.1064 17.9863L12.3896 17.1123C12.5903 16.4944 12.3704 15.8174 11.8447 15.4355L11.1016 14.8955C10.7104 14.6107 10.9115 13.9915 11.3955 13.9912H12.3145C12.9641 13.9911 13.5394 13.5728 13.7402 12.9551L14.0244 12.082Z" stroke="#363633"/>
</g>
<defs>
<clipPath id="clip0_13469_266458">
<rect width="20" height="20" fill="white"/>
</clipPath>
</defs>
</svg>
