<svg width="20" height="20" viewBox="0 0 20 20" fill="none" xmlns="http://www.w3.org/2000/svg">
<rect width="20" height="20" fill="none"/>
<path d="M9.05176 1.32129C10.9337 1.32136 12.46 2.84814 12.46 4.73145C12.4597 6.61456 10.9336 8.14055 9.05176 8.14062C7.16987 8.14062 5.64378 6.6146 5.64355 4.73145C5.64355 2.8481 7.16974 1.32129 9.05176 1.32129Z" stroke="#363633"/>
<path d="M13.708 10.0928C11.4376 8.78959 10.6163 10.0184 9.12569 10.0184C7.48808 10.0183 6.74369 8.86404 4.54772 10.0928C1.97949 11.5299 1.97951 13.8908 1.97949 16.0133C1.97948 17.6516 3.09617 18.2102 4.95708 18.2102M4.95708 18.2102C7.78594 18.2102 7.63872 18.1978 8.20943 18.2102M4.95708 18.2102V14.4494" stroke="#363633" stroke-linecap="round"/>
<path d="M13.1494 11.811V13.7008C13.1494 13.8747 13.2904 14.0158 13.4644 14.0158H15.0392C15.2131 14.0158 15.3541 13.8747 15.3541 13.7008V11.811" stroke="#363633"/>
<path d="M10.5117 18.0315V12.126C10.5117 11.952 10.6527 11.811 10.8267 11.811H17.5983C17.7723 11.811 17.9133 11.952 17.9133 12.126V18.0315C17.9133 18.2055 17.7723 18.3465 17.5983 18.3465H10.8267C10.6527 18.3465 10.5117 18.2055 10.5117 18.0315Z" stroke="#363633"/>
</svg>
