<svg width="626" height="129" viewBox="0 0 626 129" fill="none" xmlns="http://www.w3.org/2000/svg">
<mask id="mask0_2898_51134" style="mask-type:alpha" maskUnits="userSpaceOnUse" x="348" y="0" width="165" height="129">
<path d="M362.788 128.107L348.793 22.0688L392.392 65.6681L430.609 0L468.826 65.6681L512.425 22.0688L498.43 128.107H468.826L430.609 83.969L392.392 128.107H362.788Z" fill="#858785"/>
</mask>
<g mask="url(#mask0_2898_51134)">
<path d="M397.406 142.962C353.203 126.766 285.613 95.6789 285.613 -105.401L460.994 -70.7824C469.539 -14.6243 433.604 75.3494 397.406 142.962C418.882 150.831 434.838 155.185 434.838 173.813C434.838 223.223 382.587 213.737 352.274 215.709C340.427 231.246 332.258 237.872 331.335 231.054C329.795 219.679 338.899 216.578 352.274 215.709C364.657 199.47 381.058 173.496 397.406 142.962Z" fill="white"/>
<path d="M428.541 6.59567C447.137 60.55 368.172 150.989 400.339 160.042C400.339 160.042 544.419 163.453 551.671 67.226C557.415 -8.98519 472.868 -88.4666 472.868 -88.4666C427.106 -145.838 400.339 -131.699 400.339 -116.283C400.339 -84.79 410.5 -45.7506 428.541 6.59567Z" fill="white"/>
<g filter="url(#filter0_d_2898_51134)">
<path d="M468.826 128.645L512.426 22.0685C512.426 22.0685 492.241 41.1768 440.298 95.0031L468.826 128.645Z" fill="white"/>
</g>
<g filter="url(#filter1_d_2898_51134)">
<path d="M473.267 19.8451C420.115 3.49835 392.316 -2.76302 392.316 -2.76302L392.394 129.183L422.806 90.9661L473.267 19.8451Z" fill="white"/>
</g>
<path d="M392.395 128.106L348.796 22.0679C348.796 22.0679 323.035 126.096 364.796 180.203L392.395 128.106Z" fill="white"/>
<g filter="url(#filter2_d_2898_51134)">
<path d="M392.393 128.106L430.61 -0.000278582L459.945 50.0581L392.393 128.106Z" fill="white"/>
</g>
<path d="M241.178 -81.125C241.178 -81.125 289.002 24.9042 324.772 86.4655C336.263 106.243 339.478 157.789 330.651 209.906L338.408 235.135C338.408 235.135 321.763 262.389 330.651 209.906L241.178 -81.125Z" fill="white"/>
</g>
<path d="M0 74.2703C0 67.8326 1.14117 61.5434 3.4235 55.4028C5.80506 49.1631 9.22856 43.5177 13.694 38.4665C18.1594 33.3163 23.6172 29.2556 30.0672 26.2843C36.5173 23.214 43.8605 21.6788 52.0967 21.6788C61.8214 21.6788 70.2065 23.8082 77.252 28.0671C84.3967 32.3259 89.7056 37.8723 93.1787 44.7062L77.4008 55.5513C75.6147 51.5896 73.2827 48.4698 70.405 46.1918C67.5273 43.8148 64.4511 42.1806 61.1764 41.2892C57.9018 40.2988 54.6767 39.8036 51.5013 39.8036C46.3413 39.8036 41.8262 40.8435 37.9562 42.9234C34.1854 45.0033 31.0099 47.727 28.4299 51.0944C25.8499 54.4619 23.9149 58.2255 22.6249 62.3852C21.4341 66.545 20.8387 70.7048 20.8387 74.8646C20.8387 79.5196 21.5829 84.026 23.0714 88.3839C24.5599 92.6427 26.6437 96.4558 29.323 99.8233C32.1015 103.092 35.3761 105.716 39.147 107.697C43.017 109.579 47.2343 110.52 51.799 110.52C55.0737 110.52 58.3979 109.975 61.7718 108.886C65.1457 107.796 68.2715 106.063 71.1492 103.686C74.0269 101.309 76.2597 98.2386 77.8474 94.475L94.6672 104.132C92.5833 109.381 89.1598 113.838 84.3967 117.502C79.7328 121.167 74.4735 123.94 68.6188 125.822C62.7641 127.704 56.9591 128.645 51.2036 128.645C43.662 128.645 36.7654 127.109 30.5138 124.039C24.2622 120.87 18.854 116.71 14.2894 111.56C9.82395 106.311 6.30122 100.467 3.72119 94.0293C1.2404 87.4925 0 80.9062 0 74.2703Z" fill="white"/>
<path d="M116.447 128.106L116.237 22.0685H162.975C167.837 22.0685 172.303 23.2635 176.371 25.2444C180.539 27.2252 184.111 29.8994 187.088 33.2668C190.164 36.6342 192.496 40.3978 194.084 44.5576C195.771 48.7174 196.614 52.9762 196.614 57.3341C196.614 61.791 195.821 66.0993 194.233 70.2591C192.744 74.3198 190.561 77.8854 187.684 80.9557C184.806 84.026 181.432 86.403 177.562 88.0867L201.885 128.106H179.261L157.319 92.3951H136.778L136.988 128.106H116.447ZM136.778 74.4189H162.528C165.108 74.4189 167.391 73.6761 169.375 72.1904C171.36 70.6058 172.948 68.5259 174.138 65.9508C175.329 63.3757 175.925 60.5034 175.925 57.3341C175.925 53.9666 175.23 51.0449 173.841 48.5688C172.451 45.9937 170.665 43.9634 168.482 42.4777C166.398 40.9921 164.116 40.2493 161.635 40.2493H136.778V74.4189Z" fill="white"/>
<path d="M276.152 128.496C268.412 128.496 261.366 127.01 255.015 124.039C248.764 121.068 243.356 117.057 238.791 112.005C234.326 106.855 230.853 101.111 228.372 94.7721C225.891 88.3343 224.651 81.748 224.651 75.0131C224.651 67.9811 225.941 61.2958 228.521 54.9571C231.2 48.5193 234.822 42.8244 239.386 37.8723C244.05 32.8211 249.508 28.8594 255.76 25.9872C262.111 23.0159 269.057 21.5303 276.598 21.5303C284.239 21.5303 291.185 23.0654 297.437 26.1357C303.788 29.2061 309.196 33.3163 313.662 38.4665C318.127 43.6167 321.6 49.3612 324.081 55.6999C326.562 62.0386 327.802 68.5754 327.802 75.3103C327.802 82.2432 326.512 88.9286 323.932 95.3663C321.352 101.705 317.73 107.4 313.066 112.451C308.501 117.403 303.044 121.315 296.693 124.188C290.441 127.06 283.594 128.496 276.152 128.496ZM245.489 75.0131C245.489 79.5691 246.184 83.9765 247.573 88.2353C248.962 92.4941 250.947 96.3072 253.527 99.6747C256.206 102.943 259.431 105.568 263.202 107.549C267.072 109.43 271.438 110.371 276.301 110.371C281.262 110.371 285.678 109.381 289.548 107.4C293.418 105.32 296.643 102.596 299.223 99.229C301.803 95.7625 303.738 91.9494 305.028 87.7896C306.418 83.5308 307.112 79.272 307.112 75.0131C307.112 70.4572 306.368 66.0993 304.879 61.9396C303.49 57.6807 301.456 53.9171 298.777 50.6487C296.197 47.2813 292.972 44.6567 289.102 42.7749C285.331 40.794 281.064 39.8036 276.301 39.8036C271.24 39.8036 266.774 40.8435 262.904 42.9234C259.134 44.9043 255.958 47.5784 253.378 50.9459C250.798 54.3133 248.813 58.0769 247.424 62.2367C246.134 66.3965 245.489 70.6553 245.489 75.0131Z" fill="white"/>
<path d="M554.949 59.7472V128.107H534.496L534.496 22.0688H550.644L605.547 92.043V22.0688H626.001V128.107H609.156L554.949 59.7472Z" fill="white"/>
<defs>
<filter id="filter0_d_2898_51134" x="359.07" y="-48.6115" width="234.585" height="269.034" filterUnits="userSpaceOnUse" color-interpolation-filters="sRGB">
<feFlood flood-opacity="0" result="BackgroundImageFix"/>
<feColorMatrix in="SourceAlpha" type="matrix" values="0 0 0 0 0 0 0 0 0 0 0 0 0 0 0 0 0 0 127 0" result="hardAlpha"/>
<feOffset dy="10.5492"/>
<feGaussianBlur stdDeviation="40.6146"/>
<feComposite in2="hardAlpha" operator="out"/>
<feColorMatrix type="matrix" values="0 0 0 0 0.0422944 0 0 0 0 0.551667 0 0 0 0 0.256231 0 0 0 0.3 0"/>
<feBlend mode="normal" in2="BackgroundImageFix" result="effect1_dropShadow_2898_51134"/>
<feBlend mode="normal" in="SourceGraphic" in2="effect1_dropShadow_2898_51134" result="shape"/>
</filter>
<filter id="filter1_d_2898_51134" x="311.087" y="-73.4431" width="243.407" height="294.404" filterUnits="userSpaceOnUse" color-interpolation-filters="sRGB">
<feFlood flood-opacity="0" result="BackgroundImageFix"/>
<feColorMatrix in="SourceAlpha" type="matrix" values="0 0 0 0 0 0 0 0 0 0 0 0 0 0 0 0 0 0 127 0" result="hardAlpha"/>
<feOffset dy="10.5492"/>
<feGaussianBlur stdDeviation="40.6146"/>
<feComposite in2="hardAlpha" operator="out"/>
<feColorMatrix type="matrix" values="0 0 0 0 0.751667 0 0 0 0 0.751667 0 0 0 0 0.751667 0 0 0 0.5 0"/>
<feBlend mode="normal" in2="BackgroundImageFix" result="effect1_dropShadow_2898_51134"/>
<feBlend mode="normal" in="SourceGraphic" in2="effect1_dropShadow_2898_51134" result="shape"/>
</filter>
<filter id="filter2_d_2898_51134" x="311.163" y="-70.6804" width="230.011" height="290.565" filterUnits="userSpaceOnUse" color-interpolation-filters="sRGB">
<feFlood flood-opacity="0" result="BackgroundImageFix"/>
<feColorMatrix in="SourceAlpha" type="matrix" values="0 0 0 0 0 0 0 0 0 0 0 0 0 0 0 0 0 0 127 0" result="hardAlpha"/>
<feOffset dy="10.5492"/>
<feGaussianBlur stdDeviation="40.6146"/>
<feComposite in2="hardAlpha" operator="out"/>
<feColorMatrix type="matrix" values="0 0 0 0 0 0 0 0 0 0 0 0 0 0 0 0 0 0 0.4 0"/>
<feBlend mode="normal" in2="BackgroundImageFix" result="effect1_dropShadow_2898_51134"/>
<feBlend mode="normal" in="SourceGraphic" in2="effect1_dropShadow_2898_51134" result="shape"/>
</filter>
</defs>
</svg>
