<svg width="91" height="22" viewBox="0 0 91 22" fill="none" xmlns="http://www.w3.org/2000/svg">
<mask id="mask0_1834_5999" style="mask-type:alpha" maskUnits="userSpaceOnUse" x="50" y="0" width="25" height="22">
<path d="M52.5504 21.8865L50.4761 3.79231L56.8528 11.2252L62.4681 0.0383301L68.0698 11.2252L74.4465 3.79231L72.3721 21.8865H68.0698L62.4681 15.1085L56.8528 21.8865H52.5504Z" fill="#727272"/>
</mask>
<g mask="url(#mask0_1834_5999)">
<path d="M57.6118 24.4181C51.1472 21.6562 41.2622 16.3549 41.2622 -17.9358L66.9115 -12.0321C68.1612 -2.45538 62.9058 12.888 57.6118 24.4181C60.7527 25.7601 63.0862 26.5026 63.0862 29.6793C63.0862 38.1053 55.4446 36.4876 51.0113 36.8238C49.2786 39.4734 48.0839 40.6033 47.9489 39.4406C47.7237 37.5009 49.0552 36.9721 51.0113 36.8238C52.8223 34.0545 55.221 29.6252 57.6118 24.4181Z" fill="#1D1D1B"/>
<path d="M62.1659 1.16386C64.8856 10.3648 53.337 25.7876 58.0413 27.3313C58.0413 27.3313 79.1129 27.913 80.1735 11.5033C81.0135 -1.49318 68.6486 -15.0473 68.6486 -15.0473C61.956 -24.831 58.0413 -22.4198 58.0413 -19.7909C58.0413 -14.4203 59.5273 -7.76287 62.1659 1.16386Z" fill="#1D1D1B"/>
<g filter="url(#filter0_d_1834_5999)">
<path d="M68.0577 21.9762L74.4341 3.80152C74.4341 3.80152 71.0563 7.56422 63.4598 16.7433L68.0577 21.9762Z" fill="#1D1D1B"/>
</g>
<g filter="url(#filter1_d_1834_5999)">
<path d="M70.8732 0.751612C63.0998 -2.03603 56.8672 -0.432731 56.8672 -0.432731L56.852 21.8866L61.3263 15.5511L70.8732 0.751612Z" fill="#1D1D1B"/>
</g>
<path d="M56.8523 21.8865L50.5026 3.80176C50.5026 3.80176 46.7351 21.5419 52.8426 30.769L56.8523 21.8865Z" fill="#1D1D1B"/>
<path d="M56.8534 21.887L62.4688 0.0388301L67.302 9.23608L56.8534 21.887Z" fill="#1D1D1B"/>
<path d="M34.7639 -13.7957C34.7639 -13.7957 41.7582 4.28574 46.9895 14.7839C48.6701 18.1566 49.1402 26.9469 47.8493 35.8345L48.9837 40.1368C48.9837 40.1368 46.5494 44.7846 47.8493 35.8345L34.7639 -13.7957Z" fill="#1D1D1B"/>
</g>
<path fill-rule="evenodd" clip-rule="evenodd" d="M80.0199 21.887V12.4487L87.666 21.887H90.0421V7.24648H87.157V16.9077L79.4128 7.24648H77.135L77.135 21.887H80.0199ZM37.5787 21.3304C38.4694 21.7377 39.4575 21.9413 40.5431 21.9413C41.5869 21.9413 42.5472 21.7445 43.424 21.3508C44.3148 20.9571 45.0802 20.4209 45.7204 19.7422C46.3746 19.0499 46.8825 18.2693 47.2444 17.4005C47.6063 16.5182 47.7872 15.6019 47.7872 14.6516C47.7872 13.7285 47.6132 12.8326 47.2653 11.9638C46.9173 11.095 46.4302 10.3077 45.8039 9.60179C45.1776 8.8959 44.4191 8.33255 43.5284 7.91173C42.6516 7.49091 41.6774 7.2805 40.6057 7.2805C39.548 7.2805 38.5738 7.48412 37.6831 7.89137C36.8062 8.28504 36.0408 8.82803 35.3867 9.52034C34.7464 10.1991 34.2385 10.9796 33.8627 11.862C33.5008 12.7308 33.3199 13.6471 33.3199 14.6109C33.3199 15.534 33.4939 16.4367 33.8418 17.3191C34.1897 18.1879 34.6769 18.9752 35.3032 19.6811C35.9434 20.3734 36.7019 20.9232 37.5787 21.3304ZM36.5349 16.4231C36.34 15.8394 36.2426 15.2353 36.2426 14.6109C36.2426 14.0136 36.333 13.4299 36.514 12.8597C36.7088 12.2896 36.9872 11.7738 37.349 11.3122C37.7109 10.8507 38.1562 10.4842 38.6851 10.2127C39.2279 9.92759 39.8542 9.78505 40.564 9.78505C41.232 9.78505 41.8305 9.9208 42.3593 10.1923C42.9021 10.4502 43.3544 10.81 43.7163 11.2715C44.0921 11.7195 44.3774 12.2353 44.5722 12.819C44.781 13.3892 44.8854 13.9865 44.8854 14.6109C44.8854 15.1946 44.788 15.7783 44.5931 16.362C44.4122 16.9322 44.1408 17.4548 43.7789 17.9299C43.4171 18.3915 42.9648 18.7648 42.422 19.0499C41.8792 19.3214 41.2599 19.4571 40.564 19.4571C39.882 19.4571 39.2696 19.3281 38.7269 19.0702C38.198 18.7987 37.7457 18.439 37.3699 17.991C37.008 17.5295 36.7297 17.0069 36.5349 16.4231ZM0 14.5091C0 13.6267 0.160052 12.7647 0.480155 11.9231C0.814176 11.0679 1.29433 10.2941 1.92062 9.60179C2.54691 8.8959 3.31237 8.33934 4.21701 7.93209C5.12165 7.51127 6.15155 7.30086 7.30671 7.30086C8.67063 7.30086 9.84666 7.59272 10.8348 8.17644C11.8369 8.76016 12.5815 9.52034 13.0686 10.457L10.8557 11.9434C10.6052 11.4005 10.2781 10.9728 9.87449 10.6606C9.47089 10.3348 9.03944 10.1108 8.58016 9.98868C8.12088 9.85293 7.66856 9.78505 7.2232 9.78505C6.49949 9.78505 5.86624 9.92759 5.32346 10.2127C4.79459 10.4977 4.34923 10.871 3.98738 11.3326C3.62552 11.7941 3.35413 12.31 3.1732 12.8801C3.00619 13.4503 2.92268 14.0204 2.92268 14.5905C2.92268 15.2286 3.02706 15.8462 3.23583 16.4435C3.44459 17.0272 3.73686 17.5498 4.11263 18.0114C4.50232 18.4594 4.9616 18.8191 5.49047 19.0906C6.03325 19.3485 6.62475 19.4775 7.26496 19.4775C7.72423 19.4775 8.19047 19.4028 8.66367 19.2535C9.13686 19.1042 9.57527 18.8666 9.97888 18.5408C10.3825 18.215 10.6956 17.7942 10.9183 17.2783L13.2773 18.6019C12.9851 19.3214 12.5049 19.9322 11.8369 20.4345C11.1827 20.9368 10.4451 21.3169 9.62398 21.5748C8.80284 21.8327 7.98867 21.9617 7.18145 21.9617C6.12372 21.9617 5.15645 21.7512 4.27964 21.3304C3.40284 20.896 2.64433 20.3259 2.00413 19.62C1.37784 18.9005 0.883764 18.0996 0.521908 17.2173C0.173969 16.3213 0 15.4186 0 14.5091ZM17.4526 21.8879L17.4231 7.35428H23.9782C24.6602 7.35428 25.2865 7.51806 25.8571 7.78956C26.4417 8.06105 26.9427 8.42757 27.3602 8.88912C27.7917 9.35066 28.1187 9.8665 28.3414 10.4366C28.578 11.0068 28.6963 11.5905 28.6963 12.1878C28.6963 12.7987 28.585 13.3892 28.3623 13.9593C28.1535 14.5159 27.8473 15.0046 27.4437 15.4254C27.0401 15.8462 26.5669 16.172 26.0241 16.4028L29.4356 21.8879H26.2624L23.185 16.9933H20.304L20.3335 21.8879H17.4526ZM20.304 14.5294H23.9156C24.2775 14.5294 24.5976 14.4276 24.8759 14.224C25.1543 14.0068 25.377 13.7217 25.544 13.3688C25.711 13.0159 25.7945 12.6222 25.7945 12.1878C25.7945 11.7263 25.6971 11.3258 25.5022 10.9864C25.3074 10.6335 25.0569 10.3552 24.7507 10.1516C24.4584 9.94795 24.1383 9.84614 23.7904 9.84614H20.304V14.5294Z" fill="#1D1D1B"/>
<defs>
<filter id="filter0_d_1834_5999" x="53.2456" y="-5.08609" width="31.4026" height="38.6028" filterUnits="userSpaceOnUse" color-interpolation-filters="sRGB">
<feFlood flood-opacity="0" result="BackgroundImageFix"/>
<feColorMatrix in="SourceAlpha" type="matrix" values="0 0 0 0 0 0 0 0 0 0 0 0 0 0 0 0 0 0 127 0" result="hardAlpha"/>
<feOffset dy="1.32651"/>
<feGaussianBlur stdDeviation="5.10705"/>
<feComposite in2="hardAlpha" operator="out"/>
<feColorMatrix type="matrix" values="0 0 0 0 0.585 0 0 0 0 0.585 0 0 0 0 0.585 0 0 0 0.4 0"/>
<feBlend mode="normal" in2="BackgroundImageFix" result="effect1_dropShadow_1834_5999"/>
<feBlend mode="normal" in="SourceGraphic" in2="effect1_dropShadow_1834_5999" result="shape"/>
</filter>
<filter id="filter1_d_1834_5999" x="46.6379" y="-9.7792" width="34.4495" height="43.2063" filterUnits="userSpaceOnUse" color-interpolation-filters="sRGB">
<feFlood flood-opacity="0" result="BackgroundImageFix"/>
<feColorMatrix in="SourceAlpha" type="matrix" values="0 0 0 0 0 0 0 0 0 0 0 0 0 0 0 0 0 0 127 0" result="hardAlpha"/>
<feOffset dy="1.32651"/>
<feGaussianBlur stdDeviation="5.10705"/>
<feComposite in2="hardAlpha" operator="out"/>
<feColorMatrix type="matrix" values="0 0 0 0 0.751667 0 0 0 0 0.751667 0 0 0 0 0.751667 0 0 0 0.5 0"/>
<feBlend mode="normal" in2="BackgroundImageFix" result="effect1_dropShadow_1834_5999"/>
<feBlend mode="normal" in="SourceGraphic" in2="effect1_dropShadow_1834_5999" result="shape"/>
</filter>
</defs>
</svg>
