<svg width="20" height="20" viewBox="0 0 20 20" fill="none" xmlns="http://www.w3.org/2000/svg">
<path d="M1.66602 13.3333C1.66602 11.3842 1.66602 10.4096 2.11307 9.69816C2.34619 9.32715 2.65991 9.01343 3.03092 8.78031C3.74241 8.33325 4.71694 8.33325 6.66602 8.33325H13.3327C15.2818 8.33325 16.2563 8.33325 16.9678 8.78031C17.3388 9.01343 17.6525 9.32715 17.8856 9.69816C18.3327 10.4096 18.3327 11.3842 18.3327 13.3333C18.3327 15.2823 18.3327 16.2569 17.8856 16.9683C17.6525 17.3394 17.3388 17.6531 16.9678 17.8862C16.2563 18.3333 15.2818 18.3333 13.3327 18.3333H6.66602C4.71694 18.3333 3.74241 18.3333 3.03092 17.8862C2.65991 17.6531 2.34619 17.3394 2.11307 16.9683C1.66602 16.2569 1.66602 15.2823 1.66602 13.3333Z" stroke="#787878" stroke-linecap="round" stroke-linejoin="round"/>
<path d="M16.6663 8.33333C16.6663 7.16656 16.6663 6.58317 16.4393 6.13752C16.2395 5.74552 15.9208 5.42681 15.5288 5.22707C15.0832 5 14.4998 5 13.333 5H6.66634C5.49957 5 4.91618 5 4.47053 5.22707C4.07852 5.42681 3.75981 5.74552 3.56008 6.13752C3.33301 6.58317 3.33301 7.16656 3.33301 8.33333" stroke="#787878" stroke-linecap="round" stroke-linejoin="round"/>
<path d="M15 5.00008C15 3.42873 15 2.64306 14.5118 2.1549C14.0237 1.66675 13.238 1.66675 11.6667 1.66675H8.33333C6.76198 1.66675 5.97631 1.66675 5.48816 2.1549C5 2.64306 5 3.42873 5 5.00008" stroke="#787878" stroke-linecap="round" stroke-linejoin="round"/>
<path d="M12.5 11.6667C12.5 12.5872 11.7538 13.3334 10.8333 13.3334H9.16667C8.24619 13.3334 7.5 12.5872 7.5 11.6667" stroke="#787878" stroke-linecap="round"/>
</svg>
