<svg width="20" height="20" viewBox="0 0 20 20" fill="none" xmlns="http://www.w3.org/2000/svg">
<path d="M18.55 12.2499L15.5 7.2999C15.2 6.6999 14.65 6.2499 14 6.0999C13.4 5.9999 12.75 6.2499 12 6.8499L9.85 8.3499L7.1 5.5999C6.45 4.9999 5.4 4.9999 4.8 5.5999C4.15 6.2499 4.15 7.2999 4.8 7.8999L10 13.1499V13.1999L9.95 13.2499L7.4 13.1499H7.25C6.55 13.2499 6 13.8999 5.95 14.5999C5.9 15.3499 6.35 15.9999 7.05 16.1999L11.75 17.6499C12.65 17.9499 13.6 17.6999 14.25 17.0499L16.05 15.2499C16.25 15.0499 16.3 14.7499 16.1 14.5499C15.9 14.3499 15.6 14.2999 15.4 14.4999L15.35 14.5499L13.55 16.3499C13.15 16.7499 12.6 16.8999 12.05 16.6999L7.35 15.2499C7.1 15.1999 6.9 14.8999 6.95 14.6499C6.95 14.3999 7.15 14.1999 7.4 14.1499L9.85 14.2499C10.45 14.2499 10.9 13.7999 10.95 13.2499C10.95 12.9499 10.85 12.6999 10.65 12.4499L5.45 7.1999C5.2 6.9499 5.2 6.5499 5.45 6.2999C5.7 6.0499 6.1 6.0499 6.35 6.2999L9.4 9.3499C9.55 9.4999 9.85 9.5499 10.05 9.3999L12.6 7.6499C13.15 7.1999 13.55 6.9999 13.85 7.0499C14.15 7.0999 14.35 7.3499 14.65 7.7999L17.7 12.6999C17.85 12.9499 18.15 12.9999 18.4 12.8499C18.65 12.7999 18.7 12.4499 18.55 12.2499Z" fill="#787878"/>
<path d="M4.30028 9.69988C2.60028 8.84988 1.90028 6.79988 2.75028 5.09988C3.60028 3.39988 5.65028 2.69988 7.35028 3.54988C8.00028 3.89988 8.55027 4.39988 8.90027 5.09988C9.05027 5.34988 9.35028 5.44988 9.60028 5.29988C9.85028 5.14988 9.90028 4.89988 9.80028 4.64988C8.65028 2.44988 6.00028 1.59988 3.80028 2.74988C1.60028 3.89988 0.750275 6.54988 1.90028 8.74988C2.35028 9.59988 3.00028 10.2499 3.85028 10.6499C3.90028 10.6999 4.00028 10.6999 4.05028 10.6999C4.35028 10.6999 4.55028 10.4999 4.55028 10.1999C4.60028 9.99988 4.50028 9.79988 4.30028 9.69988Z" fill="#787878"/>
</svg>
