<svg width="20" height="21" viewBox="0 0 20 21" fill="none" xmlns="http://www.w3.org/2000/svg">
<path d="M7.14318 6.33333V4.5C7.14318 4.10218 7.29369 3.72064 7.5616 3.43934C7.82951 3.15804 8.19287 3 8.57175 3H11.4289C11.8078 3 12.1711 3.15804 12.439 3.43934C12.707 3.72064 12.8575 4.10218 12.8575 4.5V6.33333M15.8337 6.33333L15.0003 16.5C15.0003 16.8978 14.8498 17.2794 14.5819 17.5607C14.314 17.842 13.9506 18 13.5718 18H6.4289C6.05002 18 5.68665 17.842 5.41874 17.5607C5.15084 17.2794 5.00033 16.8978 5.00033 16.5L4.16699 6.33333H15.8337Z" stroke="#787878" stroke-linecap="round" stroke-linejoin="round"/>
<path d="M3.33301 6.33301H4.81449H16.6663" stroke="#787878" stroke-linecap="round" stroke-linejoin="round"/>
<path d="M8.33301 9.66699V13.8337" stroke="#787878" stroke-linecap="round" stroke-linejoin="round"/>
<path d="M11.667 9.66699V13.8337" stroke="#787878" stroke-linecap="round" stroke-linejoin="round"/>
</svg>
