<svg width="20" height="21" viewBox="0 0 20 21" fill="none" xmlns="http://www.w3.org/2000/svg">
<path d="M7.5 6.76392L12.5 13.4306M7.5 13.4306L12.5 6.76392" stroke="#787878" stroke-linecap="round" stroke-linejoin="round"/>
<path d="M2.5 7.9305C2.5 6.06366 2.5 5.13024 2.86331 4.4172C3.18289 3.78999 3.69282 3.28006 4.32003 2.96048C5.03307 2.59717 5.96649 2.59717 7.83333 2.59717H12.1667C14.0335 2.59717 14.9669 2.59717 15.68 2.96048C16.3072 3.28006 16.8171 3.78999 17.1367 4.4172C17.5 5.13024 17.5 6.06366 17.5 7.9305V12.2638C17.5 14.1307 17.5 15.0641 17.1367 15.7771C16.8171 16.4043 16.3072 16.9143 15.68 17.2339C14.9669 17.5972 14.0335 17.5972 12.1667 17.5972H7.83333C5.96649 17.5972 5.03307 17.5972 4.32003 17.2339C3.69282 16.9143 3.18289 16.4043 2.86331 15.7771C2.5 15.0641 2.5 14.1307 2.5 12.2638V7.9305Z" stroke="#787878" stroke-linecap="round" stroke-linejoin="round"/>
</svg>
