<svg width="20" height="21" viewBox="0 0 20 21" fill="none" xmlns="http://www.w3.org/2000/svg">
<path d="M17.3573 10.8147C17.5 10.4701 17.5 10.0333 17.5 9.15967C17.5 8.28603 17.5 7.84921 17.3573 7.50464C17.167 7.04521 16.802 6.6802 16.3425 6.48989C15.998 6.34717 15.5611 6.34717 14.6875 6.34717H9.25C8.1999 6.34717 7.67485 6.34717 7.27377 6.55153C6.92096 6.73129 6.63413 7.01813 6.45436 7.37094C6.25 7.77202 6.25 8.29707 6.25 9.34717V14.7847C6.25 15.6583 6.25 16.0951 6.39273 16.4397C6.58303 16.8991 6.94804 17.2641 7.40747 17.4544C7.75204 17.5972 8.18886 17.5972 9.0625 17.5972C9.93614 17.5972 10.373 17.5972 10.7175 17.4544M17.3573 10.8147C17.167 11.2741 16.802 11.6391 16.3425 11.8294C15.998 11.9722 15.5611 11.9722 14.6875 11.9722C13.8139 11.9722 13.377 11.9722 13.0325 12.1149C12.573 12.3052 12.208 12.6702 12.0177 13.1296C11.875 13.4742 11.875 13.911 11.875 14.7847C11.875 15.6583 11.875 16.0951 11.7323 16.4397C11.542 16.8991 11.177 17.2641 10.7175 17.4544M17.3573 10.8147C16.447 13.9545 14.0211 16.4274 10.8994 17.3979L10.7175 17.4544M13.75 6.34717L13.75 5.59717C13.75 4.54707 13.75 4.02202 13.5456 3.62094C13.3659 3.26813 13.079 2.98129 12.7262 2.80153C12.3251 2.59717 11.8001 2.59717 10.75 2.59717H5.5C4.4499 2.59717 3.92485 2.59717 3.52377 2.80153C3.17096 2.98129 2.88413 3.26813 2.70436 3.62094C2.5 4.02202 2.5 4.54707 2.5 5.59717V10.8472C2.5 11.8973 2.5 12.4223 2.70436 12.8234C2.88413 13.1762 3.17096 13.463 3.52377 13.6428C3.92485 13.8472 4.45008 13.8472 5.50055 13.8472H6.25" stroke="#787878" stroke-linecap="round" stroke-linejoin="round"/>
</svg>
