<svg width="21" height="21" viewBox="0 0 21 21" fill="none" xmlns="http://www.w3.org/2000/svg">
<path d="M10.0811 17.166L16.7476 17.1336" stroke="#787878" stroke-linecap="round" stroke-linejoin="round"/>
<path d="M13.4387 4.37323C13.6145 4.19577 13.8235 4.05465 14.0537 3.95795C14.284 3.86125 14.5311 3.81085 14.7809 3.80964C15.0306 3.80842 15.2782 3.85641 15.5094 3.95087C15.7406 4.04533 15.951 4.1844 16.1284 4.36015C16.3059 4.5359 16.447 4.74488 16.5437 4.97517C16.6404 5.20546 16.6908 5.45253 16.692 5.7023C16.6933 5.95206 16.6453 6.19962 16.5508 6.43083C16.4563 6.66205 16.3173 6.87239 16.1415 7.04986L7.1079 16.1718L3.41446 17.1984L4.40511 13.4952L13.4387 4.37323Z" stroke="#787878" stroke-linecap="round" stroke-linejoin="round"/>
</svg>
