<svg width="308" height="332" viewBox="0 0 308 332" fill="none" xmlns="http://www.w3.org/2000/svg">
<path d="M29.3659 160L62.6122 125.391L83.3151 140.433L118.754 105.335" stroke="black"/>
<path d="M62.2468 122.344C64.2555 122.345 65.8875 123.98 65.8875 126.003C65.8873 128.025 64.2554 129.661 62.2468 129.661C60.2383 129.661 58.6063 128.025 58.6062 126.003C58.6062 123.98 60.2382 122.344 62.2468 122.344Z" fill="#BEF5DF" stroke="black"/>
<path d="M83.9241 136.531C85.9327 136.531 87.5647 138.167 87.5647 140.189C87.5646 142.211 85.9326 143.847 83.9241 143.847C81.9155 143.847 80.2836 142.211 80.2835 140.189C80.2835 138.167 81.9154 136.531 83.9241 136.531Z" fill="#BEF5DF" stroke="black"/>
<path d="M121.754 111.573L113.697 103.603L124.179 101.009L121.754 111.573Z" fill="#BEF5DF" stroke="black"/>
<rect x="143.716" y="98.5" width="163.784" height="100" rx="2.29898" fill="white" stroke="black"/>
<line y1="-0.255182" x2="144.567" y2="-0.255182" transform="matrix(1 -0.00088126 0.000879703 1 153.978 187.529)" stroke="black" stroke-width="0.510363"/>
<line x1="154.282" y1="187.389" x2="154.282" y2="119.263" stroke="black" stroke-width="0.510363"/>
<path d="M156.699 110.781C156.699 110.978 156.653 111.165 156.56 111.34C156.466 111.516 156.317 111.66 156.112 111.771C155.906 111.88 155.643 111.934 155.322 111.934L154.617 111.934L154.617 113.512L153.979 113.512L153.979 109.622L155.322 109.622C155.621 109.622 155.873 109.674 156.078 109.779C156.287 109.879 156.442 110.017 156.543 110.193C156.647 110.368 156.699 110.564 156.699 110.781ZM155.322 111.413C155.565 111.413 155.746 111.359 155.865 111.251C155.985 111.139 156.045 110.982 156.045 110.781C156.045 110.355 155.804 110.142 155.322 110.142L154.617 110.142L154.617 111.413L155.322 111.413ZM157.946 110.876C158.04 110.719 158.163 110.598 158.316 110.512C158.473 110.422 158.657 110.378 158.87 110.378L158.87 111.038L158.708 111.038C158.458 111.038 158.267 111.102 158.137 111.228C158.01 111.355 157.946 111.576 157.946 111.889L157.946 113.512L157.308 113.512L157.308 110.428L157.946 110.428L157.946 110.876ZM159.781 110.019C159.666 110.019 159.569 109.98 159.49 109.902C159.412 109.823 159.373 109.726 159.373 109.611C159.373 109.495 159.412 109.398 159.49 109.32C159.569 109.241 159.666 109.202 159.781 109.202C159.893 109.202 159.988 109.241 160.067 109.32C160.145 109.398 160.184 109.495 160.184 109.611C160.184 109.726 160.145 109.823 160.067 109.902C159.988 109.98 159.893 110.019 159.781 110.019ZM160.095 110.428L160.095 113.512L159.457 113.512L159.457 110.428L160.095 110.428ZM160.72 111.967C160.72 111.65 160.783 111.372 160.91 111.133C161.041 110.891 161.22 110.704 161.448 110.574C161.675 110.443 161.937 110.378 162.231 110.378C162.605 110.378 162.912 110.467 163.155 110.646C163.401 110.822 163.567 111.074 163.653 111.402L162.965 111.402C162.909 111.249 162.819 111.13 162.696 111.044C162.573 110.958 162.418 110.915 162.231 110.915C161.97 110.915 161.761 111.008 161.604 111.195C161.451 111.378 161.375 111.635 161.375 111.967C161.375 112.3 161.451 112.559 161.604 112.746C161.761 112.932 161.97 113.025 162.231 113.025C162.601 113.025 162.845 112.863 162.965 112.538L163.653 112.538C163.564 112.852 163.396 113.102 163.149 113.289C162.903 113.471 162.597 113.563 162.231 113.563C161.937 113.563 161.675 113.498 161.448 113.367C161.22 113.233 161.041 113.046 160.91 112.807C160.783 112.565 160.72 112.285 160.72 111.967ZM167.116 111.895C167.116 112.01 167.109 112.115 167.094 112.208L164.737 112.208C164.756 112.454 164.847 112.652 165.011 112.802C165.176 112.951 165.377 113.025 165.616 113.025C165.959 113.025 166.202 112.882 166.344 112.594L167.032 112.594C166.939 112.878 166.769 113.111 166.523 113.294C166.28 113.473 165.978 113.563 165.616 113.563C165.321 113.563 165.056 113.498 164.821 113.367C164.59 113.233 164.407 113.046 164.272 112.807C164.142 112.565 164.076 112.285 164.076 111.967C164.076 111.65 164.14 111.372 164.267 111.133C164.397 110.891 164.578 110.704 164.81 110.574C165.045 110.443 165.314 110.378 165.616 110.378C165.907 110.378 166.166 110.441 166.394 110.568C166.622 110.695 166.799 110.874 166.926 111.105C167.053 111.333 167.116 111.596 167.116 111.895ZM166.45 111.693C166.446 111.458 166.362 111.27 166.198 111.128C166.034 110.986 165.831 110.915 165.588 110.915C165.368 110.915 165.179 110.986 165.023 111.128C164.866 111.266 164.772 111.454 164.743 111.693L166.45 111.693ZM170.609 114.554C170.243 114.203 169.962 113.757 169.764 113.216C169.57 112.675 169.473 112.094 169.473 111.475C169.473 110.84 169.577 110.241 169.786 109.678C169.999 109.114 170.31 108.65 170.721 108.284L171.382 108.284L171.382 108.346C170.952 108.741 170.63 109.215 170.413 109.767C170.197 110.32 170.088 110.889 170.088 111.475C170.088 112.038 170.189 112.583 170.391 113.109C170.592 113.636 170.885 114.097 171.27 114.492L171.27 114.554L170.609 114.554ZM172.592 110.137L172.592 111.279L173.935 111.279L173.935 111.799L172.592 111.799L172.592 112.992L174.103 112.992L174.103 113.512L171.954 113.512L171.954 109.616L174.103 109.616L174.103 110.137L172.592 110.137ZM175.522 109.622L175.522 112.102C175.522 112.397 175.598 112.619 175.751 112.768C175.908 112.917 176.125 112.992 176.401 112.992C176.681 112.992 176.897 112.917 177.05 112.768C177.207 112.619 177.285 112.397 177.285 112.102L177.285 109.622L177.923 109.622L177.923 112.091C177.923 112.408 177.854 112.677 177.716 112.897C177.578 113.117 177.393 113.281 177.162 113.389C176.931 113.498 176.675 113.552 176.395 113.552C176.115 113.552 175.86 113.498 175.628 113.389C175.401 113.281 175.22 113.117 175.085 112.897C174.951 112.677 174.884 112.408 174.884 112.091L174.884 109.622L175.522 109.622ZM180.775 113.512L179.879 111.956L179.392 111.956L179.392 113.512L178.754 113.512L178.754 109.622L180.098 109.622C180.396 109.622 180.648 109.674 180.853 109.779C181.062 109.883 181.217 110.023 181.318 110.198C181.423 110.374 181.475 110.57 181.475 110.786C181.475 111.04 181.4 111.271 181.251 111.48C181.105 111.686 180.88 111.826 180.574 111.9L181.536 113.512L180.775 113.512ZM179.392 111.447L180.098 111.447C180.337 111.447 180.516 111.387 180.635 111.268C180.758 111.148 180.82 110.988 180.82 110.786C180.82 110.585 180.76 110.428 180.641 110.316C180.521 110.2 180.34 110.142 180.098 110.142L179.392 110.142L179.392 111.447ZM182.134 114.554L182.134 114.492C182.519 114.097 182.812 113.636 183.013 113.109C183.215 112.583 183.316 112.038 183.316 111.475C183.316 110.889 183.207 110.32 182.991 109.767C182.775 109.215 182.452 108.741 182.023 108.346L182.023 108.284L182.683 108.284C183.094 108.65 183.403 109.114 183.612 109.678C183.825 110.241 183.931 110.84 183.931 111.475C183.931 112.094 183.833 112.675 183.635 113.216C183.441 113.757 183.161 114.203 182.795 114.554L182.134 114.554Z" fill="black"/>
<path d="M285.965 178.927C286.379 178.927 286.741 179.007 287.051 179.168C287.364 179.324 287.605 179.552 287.773 179.85C287.945 180.145 288.03 180.491 288.03 180.886C288.03 181.282 287.945 181.625 287.773 181.916C287.605 182.207 287.364 182.431 287.051 182.588C286.741 182.741 286.379 182.817 285.965 182.817L284.694 182.817L284.694 178.927L285.965 178.927ZM285.965 182.297C286.42 182.297 286.769 182.174 287.012 181.927C287.254 181.681 287.375 181.334 287.375 180.886C287.375 180.435 287.254 180.082 287.012 179.828C286.769 179.574 286.42 179.447 285.965 179.447L285.332 179.447L285.332 182.297L285.965 182.297ZM288.45 181.261C288.45 180.951 288.514 180.677 288.641 180.438C288.771 180.199 288.947 180.015 289.167 179.884C289.391 179.75 289.637 179.683 289.906 179.683C290.148 179.683 290.359 179.731 290.538 179.828C290.721 179.921 290.867 180.039 290.975 180.181L290.975 179.733L291.619 179.733L291.619 182.817L290.975 182.817L290.975 182.358C290.867 182.504 290.719 182.625 290.533 182.722C290.346 182.819 290.133 182.868 289.894 182.868C289.629 182.868 289.387 182.801 289.167 182.666C288.947 182.528 288.771 182.338 288.641 182.095C288.514 181.849 288.45 181.571 288.45 181.261ZM290.975 181.272C290.975 181.06 290.93 180.875 290.841 180.718C290.755 180.561 290.641 180.442 290.499 180.36C290.357 180.278 290.204 180.237 290.04 180.237C289.876 180.237 289.723 180.278 289.581 180.36C289.439 180.438 289.323 180.556 289.234 180.713C289.148 180.866 289.105 181.048 289.105 181.261C289.105 181.474 289.148 181.66 289.234 181.821C289.323 181.981 289.439 182.105 289.581 182.19C289.727 182.273 289.88 182.314 290.04 182.314C290.204 182.314 290.357 182.273 290.499 182.19C290.641 182.108 290.755 181.989 290.841 181.832C290.93 181.672 290.975 181.485 290.975 181.272ZM295.233 179.733L293.341 184.267L292.681 184.267L293.308 182.767L292.093 179.733L292.804 179.733L293.672 182.084L294.573 179.733L295.233 179.733ZM296.835 182.868C296.592 182.868 296.374 182.825 296.18 182.739C295.989 182.649 295.838 182.53 295.726 182.381C295.614 182.228 295.555 182.058 295.547 181.871L296.208 181.871C296.219 182.002 296.28 182.112 296.392 182.202C296.508 182.287 296.652 182.33 296.823 182.33C297.003 182.33 297.141 182.297 297.238 182.23C297.338 182.159 297.389 182.069 297.389 181.961C297.389 181.845 297.333 181.759 297.221 181.703C297.113 181.647 296.939 181.586 296.7 181.519C296.469 181.455 296.28 181.394 296.135 181.334C295.989 181.274 295.862 181.183 295.754 181.06C295.65 180.936 295.597 180.774 295.597 180.573C295.597 180.408 295.646 180.259 295.743 180.125C295.84 179.987 295.978 179.878 296.157 179.8C296.34 179.722 296.549 179.683 296.784 179.683C297.135 179.683 297.417 179.772 297.63 179.951C297.846 180.127 297.962 180.367 297.977 180.673L297.338 180.673C297.327 180.535 297.271 180.425 297.17 180.343C297.07 180.261 296.934 180.22 296.762 180.22C296.594 180.22 296.465 180.252 296.376 180.315C296.286 180.379 296.241 180.463 296.241 180.567C296.241 180.649 296.271 180.718 296.331 180.774C296.391 180.83 296.463 180.875 296.549 180.908C296.635 180.938 296.762 180.978 296.93 181.026C297.154 181.086 297.337 181.147 297.478 181.211C297.624 181.27 297.749 181.36 297.853 181.479C297.958 181.599 298.012 181.758 298.016 181.955C298.016 182.131 297.967 182.287 297.87 182.426C297.773 182.564 297.635 182.672 297.456 182.75C297.281 182.829 297.073 182.868 296.835 182.868Z" fill="black"/>
<rect x="266.07" y="107.512" width="32.4256" height="9.11959" rx="4.5598" fill="#E3E0FF"/>
<path d="M272.559 113.102C272.364 113.102 272.187 113.068 272.03 113.001C271.874 112.931 271.751 112.833 271.661 112.707C271.571 112.581 271.527 112.434 271.527 112.266L272.039 112.266C272.05 112.392 272.099 112.496 272.186 112.577C272.275 112.658 272.4 112.699 272.559 112.699C272.725 112.699 272.853 112.659 272.946 112.581C273.038 112.5 273.084 112.396 273.084 112.27C273.084 112.172 273.055 112.093 272.996 112.031C272.94 111.969 272.869 111.922 272.782 111.888C272.698 111.855 272.58 111.818 272.429 111.779C272.239 111.729 272.084 111.678 271.963 111.628C271.846 111.575 271.745 111.494 271.661 111.384C271.577 111.275 271.535 111.13 271.535 110.948C271.535 110.78 271.577 110.633 271.661 110.507C271.745 110.381 271.862 110.284 272.014 110.217C272.165 110.15 272.34 110.117 272.538 110.117C272.821 110.117 273.052 110.188 273.231 110.331C273.413 110.471 273.514 110.664 273.533 110.91L273.004 110.91C272.996 110.804 272.946 110.713 272.853 110.637C272.761 110.562 272.639 110.524 272.488 110.524C272.351 110.524 272.239 110.559 272.152 110.629C272.065 110.699 272.022 110.8 272.022 110.931C272.022 111.021 272.049 111.095 272.102 111.154C272.158 111.21 272.228 111.254 272.312 111.288C272.396 111.322 272.51 111.358 272.656 111.397C272.849 111.45 273.006 111.503 273.126 111.557C273.249 111.61 273.353 111.692 273.437 111.804C273.524 111.914 273.567 112.06 273.567 112.245C273.567 112.394 273.526 112.533 273.445 112.665C273.367 112.797 273.251 112.903 273.097 112.984C272.946 113.062 272.767 113.102 272.559 113.102ZM276.227 110.759L276.227 113.072L275.748 113.072L275.748 112.799C275.673 112.895 275.573 112.97 275.45 113.026C275.33 113.079 275.201 113.106 275.064 113.106C274.882 113.106 274.718 113.068 274.573 112.993C274.43 112.917 274.317 112.805 274.233 112.657C274.151 112.508 274.111 112.329 274.111 112.119L274.111 110.759L274.585 110.759L274.585 112.048C274.585 112.255 274.637 112.415 274.741 112.526C274.844 112.636 274.986 112.69 275.165 112.69C275.344 112.69 275.485 112.636 275.589 112.526C275.695 112.415 275.748 112.255 275.748 112.048L275.748 110.759L276.227 110.759ZM277.337 111.099C277.418 110.993 277.529 110.903 277.669 110.83C277.809 110.758 277.967 110.721 278.143 110.721C278.345 110.721 278.528 110.772 278.693 110.872C278.861 110.97 278.993 111.109 279.088 111.288C279.183 111.467 279.231 111.673 279.231 111.905C279.231 112.137 279.183 112.346 279.088 112.531C278.993 112.713 278.861 112.855 278.693 112.959C278.528 113.06 278.345 113.11 278.143 113.11C277.967 113.11 277.81 113.075 277.673 113.005C277.536 112.932 277.424 112.843 277.337 112.736L277.337 114.172L276.858 114.172L276.858 110.759L277.337 110.759L277.337 111.099ZM278.743 111.905C278.743 111.746 278.71 111.608 278.643 111.494C278.578 111.376 278.492 111.288 278.382 111.229C278.276 111.168 278.161 111.137 278.038 111.137C277.918 111.137 277.803 111.168 277.694 111.229C277.588 111.291 277.501 111.38 277.434 111.498C277.369 111.615 277.337 111.754 277.337 111.914C277.337 112.073 277.369 112.213 277.434 112.333C277.501 112.451 277.588 112.54 277.694 112.602C277.803 112.664 277.918 112.694 278.038 112.694C278.161 112.694 278.276 112.664 278.382 112.602C278.492 112.538 278.578 112.445 278.643 112.325C278.71 112.205 278.743 112.065 278.743 111.905ZM280.182 111.099C280.264 110.993 280.374 110.903 280.514 110.83C280.654 110.758 280.812 110.721 280.989 110.721C281.19 110.721 281.373 110.772 281.539 110.872C281.706 110.97 281.838 111.109 281.933 111.288C282.028 111.467 282.076 111.673 282.076 111.905C282.076 112.137 282.028 112.346 281.933 112.531C281.838 112.713 281.706 112.855 281.539 112.959C281.373 113.06 281.19 113.11 280.989 113.11C280.812 113.11 280.655 113.075 280.518 113.005C280.381 112.932 280.269 112.843 280.182 112.736L280.182 114.172L279.704 114.172L279.704 110.759L280.182 110.759L280.182 111.099ZM281.589 111.905C281.589 111.746 281.555 111.608 281.488 111.494C281.424 111.376 281.337 111.288 281.228 111.229C281.122 111.168 281.007 111.137 280.884 111.137C280.763 111.137 280.648 111.168 280.539 111.229C280.433 111.291 280.346 111.38 280.279 111.498C280.215 111.615 280.182 111.754 280.182 111.914C280.182 112.073 280.215 112.213 280.279 112.333C280.346 112.451 280.433 112.54 280.539 112.602C280.648 112.664 280.763 112.694 280.884 112.694C281.007 112.694 281.122 112.664 281.228 112.602C281.337 112.538 281.424 112.445 281.488 112.325C281.555 112.205 281.589 112.065 281.589 111.905ZM283.028 109.965L283.028 113.072L282.549 113.072L282.549 109.965L283.028 109.965ZM283.9 110.452C283.813 110.452 283.74 110.423 283.681 110.364C283.623 110.305 283.593 110.233 283.593 110.146C283.593 110.059 283.623 109.986 283.681 109.928C283.74 109.869 283.813 109.839 283.9 109.839C283.984 109.839 284.055 109.869 284.114 109.928C284.173 109.986 284.202 110.059 284.202 110.146C284.202 110.233 284.173 110.305 284.114 110.364C284.055 110.423 283.984 110.452 283.9 110.452ZM284.135 110.759L284.135 113.072L283.656 113.072L283.656 110.759L284.135 110.759ZM286.884 111.859C286.884 111.946 286.878 112.024 286.867 112.094L285.099 112.094C285.113 112.279 285.182 112.427 285.305 112.539C285.428 112.651 285.579 112.707 285.758 112.707C286.016 112.707 286.198 112.599 286.304 112.384L286.821 112.384C286.751 112.596 286.623 112.771 286.439 112.909C286.257 113.043 286.03 113.11 285.758 113.11C285.537 113.11 285.339 113.061 285.162 112.963C284.989 112.862 284.851 112.722 284.751 112.543C284.653 112.361 284.604 112.151 284.604 111.914C284.604 111.676 284.651 111.467 284.747 111.288C284.844 111.106 284.98 110.966 285.154 110.868C285.33 110.77 285.532 110.721 285.758 110.721C285.977 110.721 286.171 110.769 286.342 110.864C286.513 110.959 286.646 111.093 286.741 111.267C286.836 111.438 286.884 111.635 286.884 111.859ZM286.384 111.708C286.381 111.531 286.318 111.39 286.195 111.284C286.072 111.177 285.919 111.124 285.737 111.124C285.572 111.124 285.431 111.177 285.313 111.284C285.196 111.387 285.126 111.529 285.103 111.708L286.384 111.708ZM287.833 111.095C287.903 110.977 287.996 110.886 288.11 110.822C288.228 110.755 288.366 110.721 288.526 110.721L288.526 111.217L288.404 111.217C288.217 111.217 288.074 111.264 287.976 111.359C287.881 111.454 287.833 111.62 287.833 111.855L287.833 113.072L287.355 113.072L287.355 110.759L287.833 110.759L287.833 111.095ZM291.816 112.476L290.594 112.476L290.384 113.072L289.884 113.072L290.93 110.15L291.484 110.15L292.529 113.072L292.026 113.072L291.816 112.476ZM291.681 112.086L291.207 110.73L290.728 112.086L291.681 112.086Z" fill="black"/>
<rect x="266.07" y="118.451" width="32.4256" height="9.11959" rx="4.5598" fill="#FDFFD2"/>
<path d="M272.559 124.041C272.364 124.041 272.187 124.007 272.03 123.94C271.874 123.87 271.751 123.772 271.661 123.646C271.571 123.52 271.527 123.373 271.527 123.205L272.039 123.205C272.05 123.331 272.099 123.435 272.186 123.516C272.275 123.597 272.4 123.638 272.559 123.638C272.725 123.638 272.853 123.598 272.946 123.52C273.038 123.439 273.084 123.335 273.084 123.209C273.084 123.111 273.055 123.032 272.996 122.97C272.94 122.908 272.869 122.861 272.782 122.827C272.698 122.794 272.58 122.757 272.429 122.718C272.239 122.668 272.084 122.617 271.963 122.567C271.846 122.514 271.745 122.433 271.661 122.323C271.577 122.214 271.535 122.069 271.535 121.887C271.535 121.719 271.577 121.572 271.661 121.446C271.745 121.32 271.862 121.223 272.014 121.156C272.165 121.089 272.34 121.056 272.538 121.056C272.821 121.056 273.052 121.127 273.231 121.27C273.413 121.41 273.514 121.603 273.533 121.849L273.004 121.849C272.996 121.743 272.946 121.652 272.853 121.576C272.761 121.501 272.639 121.463 272.488 121.463C272.351 121.463 272.239 121.498 272.152 121.568C272.065 121.638 272.022 121.738 272.022 121.87C272.022 121.96 272.049 122.034 272.102 122.093C272.158 122.149 272.228 122.193 272.312 122.227C272.396 122.26 272.51 122.297 272.656 122.336C272.849 122.389 273.006 122.442 273.126 122.496C273.249 122.549 273.353 122.631 273.437 122.743C273.524 122.852 273.567 122.999 273.567 123.184C273.567 123.332 273.526 123.472 273.445 123.604C273.367 123.736 273.251 123.842 273.097 123.923C272.946 124.001 272.767 124.041 272.559 124.041ZM276.227 121.698L276.227 124.011L275.748 124.011L275.748 123.738C275.673 123.834 275.573 123.909 275.45 123.965C275.33 124.018 275.201 124.045 275.064 124.045C274.882 124.045 274.718 124.007 274.573 123.931C274.43 123.856 274.317 123.744 274.233 123.596C274.151 123.447 274.111 123.268 274.111 123.058L274.111 121.698L274.585 121.698L274.585 122.987C274.585 123.194 274.637 123.353 274.741 123.465C274.844 123.575 274.986 123.629 275.165 123.629C275.344 123.629 275.485 123.575 275.589 123.465C275.695 123.353 275.748 123.194 275.748 122.987L275.748 121.698L276.227 121.698ZM277.337 122.038C277.418 121.932 277.529 121.842 277.669 121.769C277.809 121.696 277.967 121.66 278.143 121.66C278.345 121.66 278.528 121.71 278.693 121.811C278.861 121.909 278.993 122.048 279.088 122.227C279.183 122.406 279.231 122.612 279.231 122.844C279.231 123.076 279.183 123.285 279.088 123.47C278.993 123.652 278.861 123.794 278.693 123.898C278.528 123.999 278.345 124.049 278.143 124.049C277.967 124.049 277.81 124.014 277.673 123.944C277.536 123.871 277.424 123.782 277.337 123.675L277.337 125.111L276.858 125.111L276.858 121.698L277.337 121.698L277.337 122.038ZM278.743 122.844C278.743 122.685 278.71 122.547 278.643 122.433C278.578 122.315 278.492 122.227 278.382 122.168C278.276 122.107 278.161 122.076 278.038 122.076C277.918 122.076 277.803 122.107 277.694 122.168C277.588 122.23 277.501 122.319 277.434 122.437C277.369 122.554 277.337 122.693 277.337 122.852C277.337 123.012 277.369 123.152 277.434 123.272C277.501 123.39 277.588 123.479 277.694 123.541C277.803 123.603 277.918 123.633 278.038 123.633C278.161 123.633 278.276 123.603 278.382 123.541C278.492 123.477 278.578 123.384 278.643 123.264C278.71 123.144 278.743 123.004 278.743 122.844ZM280.182 122.038C280.264 121.932 280.374 121.842 280.514 121.769C280.654 121.696 280.812 121.66 280.989 121.66C281.19 121.66 281.373 121.71 281.539 121.811C281.706 121.909 281.838 122.048 281.933 122.227C282.028 122.406 282.076 122.612 282.076 122.844C282.076 123.076 282.028 123.285 281.933 123.47C281.838 123.652 281.706 123.794 281.539 123.898C281.373 123.999 281.19 124.049 280.989 124.049C280.812 124.049 280.655 124.014 280.518 123.944C280.381 123.871 280.269 123.782 280.182 123.675L280.182 125.111L279.704 125.111L279.704 121.698L280.182 121.698L280.182 122.038ZM281.589 122.844C281.589 122.685 281.555 122.547 281.488 122.433C281.424 122.315 281.337 122.227 281.228 122.168C281.122 122.107 281.007 122.076 280.884 122.076C280.763 122.076 280.648 122.107 280.539 122.168C280.433 122.23 280.346 122.319 280.279 122.437C280.215 122.554 280.182 122.693 280.182 122.852C280.182 123.012 280.215 123.152 280.279 123.272C280.346 123.39 280.433 123.479 280.539 123.541C280.648 123.603 280.763 123.633 280.884 123.633C281.007 123.633 281.122 123.603 281.228 123.541C281.337 123.477 281.424 123.384 281.488 123.264C281.555 123.144 281.589 123.004 281.589 122.844ZM283.028 120.904L283.028 124.011L282.549 124.011L282.549 120.904L283.028 120.904ZM283.9 121.391C283.813 121.391 283.74 121.362 283.681 121.303C283.623 121.244 283.593 121.172 283.593 121.085C283.593 120.998 283.623 120.925 283.681 120.867C283.74 120.808 283.813 120.778 283.9 120.778C283.984 120.778 284.055 120.808 284.114 120.867C284.173 120.925 284.202 120.998 284.202 121.085C284.202 121.172 284.173 121.244 284.114 121.303C284.055 121.362 283.984 121.391 283.9 121.391ZM284.135 121.698L284.135 124.011L283.656 124.011L283.656 121.698L284.135 121.698ZM286.884 122.798C286.884 122.885 286.878 122.963 286.867 123.033L285.099 123.033C285.113 123.218 285.182 123.366 285.305 123.478C285.428 123.59 285.579 123.646 285.758 123.646C286.016 123.646 286.198 123.538 286.304 123.323L286.821 123.323C286.751 123.535 286.623 123.71 286.439 123.848C286.257 123.982 286.03 124.049 285.758 124.049C285.537 124.049 285.339 124 285.162 123.902C284.989 123.801 284.851 123.661 284.751 123.482C284.653 123.3 284.604 123.09 284.604 122.852C284.604 122.615 284.651 122.406 284.747 122.227C284.844 122.045 284.98 121.905 285.154 121.807C285.33 121.709 285.532 121.66 285.758 121.66C285.977 121.66 286.171 121.708 286.342 121.803C286.513 121.898 286.646 122.032 286.741 122.206C286.836 122.377 286.884 122.574 286.884 122.798ZM286.384 122.647C286.381 122.47 286.318 122.329 286.195 122.223C286.072 122.116 285.919 122.063 285.737 122.063C285.572 122.063 285.431 122.116 285.313 122.223C285.196 122.326 285.126 122.468 285.103 122.647L286.384 122.647ZM287.833 122.034C287.903 121.916 287.996 121.825 288.11 121.761C288.228 121.694 288.366 121.66 288.526 121.66L288.526 122.156L288.404 122.156C288.217 122.156 288.074 122.203 287.976 122.298C287.881 122.393 287.833 122.559 287.833 122.794L287.833 124.011L287.355 124.011L287.355 121.698L287.833 121.698L287.833 122.034ZM291.618 122.512C291.775 122.54 291.908 122.623 292.017 122.76C292.126 122.897 292.181 123.053 292.181 123.226C292.181 123.374 292.142 123.509 292.063 123.629C291.988 123.747 291.877 123.841 291.732 123.91C291.586 123.978 291.417 124.011 291.224 124.011L290.057 124.011L290.057 121.093L291.169 121.093C291.368 121.093 291.539 121.127 291.681 121.194C291.824 121.261 291.932 121.352 292.005 121.467C292.077 121.579 292.114 121.705 292.114 121.845C292.114 122.013 292.069 122.153 291.979 122.265C291.89 122.377 291.769 122.459 291.618 122.512ZM290.535 122.319L291.127 122.319C291.284 122.319 291.406 122.284 291.492 122.214C291.582 122.142 291.627 122.038 291.627 121.904C291.627 121.772 291.582 121.67 291.492 121.597C291.406 121.522 291.284 121.484 291.127 121.484L290.535 121.484L290.535 122.319ZM291.182 123.621C291.344 123.621 291.471 123.582 291.564 123.503C291.656 123.425 291.702 123.316 291.702 123.176C291.702 123.033 291.653 122.92 291.555 122.836C291.457 122.752 291.327 122.71 291.165 122.71L290.535 122.71L290.535 123.621L291.182 123.621Z" fill="black"/>
<rect x="266.07" y="129.39" width="32.4256" height="9.11959" rx="4.5598" fill="#FFE5D2"/>
<path d="M272.559 134.98C272.364 134.98 272.187 134.946 272.03 134.879C271.874 134.809 271.751 134.711 271.661 134.585C271.571 134.459 271.527 134.312 271.527 134.144L272.039 134.144C272.05 134.27 272.099 134.374 272.186 134.455C272.275 134.536 272.4 134.577 272.559 134.577C272.725 134.577 272.853 134.537 272.946 134.459C273.038 134.378 273.084 134.274 273.084 134.148C273.084 134.05 273.055 133.971 272.996 133.909C272.94 133.847 272.869 133.8 272.782 133.766C272.698 133.733 272.58 133.696 272.429 133.657C272.239 133.607 272.084 133.556 271.963 133.506C271.846 133.453 271.745 133.372 271.661 133.262C271.577 133.153 271.535 133.008 271.535 132.826C271.535 132.658 271.577 132.511 271.661 132.385C271.745 132.259 271.862 132.162 272.014 132.095C272.165 132.028 272.34 131.994 272.538 131.994C272.821 131.994 273.052 132.066 273.231 132.209C273.413 132.349 273.514 132.542 273.533 132.788L273.004 132.788C272.996 132.682 272.946 132.591 272.853 132.515C272.761 132.44 272.639 132.402 272.488 132.402C272.351 132.402 272.239 132.437 272.152 132.507C272.065 132.577 272.022 132.677 272.022 132.809C272.022 132.899 272.049 132.973 272.102 133.032C272.158 133.087 272.228 133.132 272.312 133.166C272.396 133.199 272.51 133.236 272.656 133.275C272.849 133.328 273.006 133.381 273.126 133.435C273.249 133.488 273.353 133.57 273.437 133.682C273.524 133.791 273.567 133.938 273.567 134.123C273.567 134.271 273.526 134.411 273.445 134.543C273.367 134.675 273.251 134.781 273.097 134.862C272.946 134.94 272.767 134.98 272.559 134.98ZM276.227 132.637L276.227 134.95L275.748 134.95L275.748 134.677C275.673 134.772 275.573 134.848 275.45 134.904C275.33 134.957 275.201 134.984 275.064 134.984C274.882 134.984 274.718 134.946 274.573 134.87C274.43 134.795 274.317 134.683 274.233 134.535C274.151 134.386 274.111 134.207 274.111 133.997L274.111 132.637L274.585 132.637L274.585 133.926C274.585 134.133 274.637 134.292 274.741 134.404C274.844 134.514 274.986 134.568 275.165 134.568C275.344 134.568 275.485 134.514 275.589 134.404C275.695 134.292 275.748 134.133 275.748 133.926L275.748 132.637L276.227 132.637ZM277.337 132.977C277.418 132.871 277.529 132.781 277.669 132.708C277.809 132.635 277.967 132.599 278.143 132.599C278.345 132.599 278.528 132.649 278.693 132.75C278.861 132.848 278.993 132.987 279.088 133.166C279.183 133.345 279.231 133.551 279.231 133.783C279.231 134.015 279.183 134.224 279.088 134.409C278.993 134.591 278.861 134.733 278.693 134.837C278.528 134.938 278.345 134.988 278.143 134.988C277.967 134.988 277.81 134.953 277.673 134.883C277.536 134.81 277.424 134.721 277.337 134.614L277.337 136.05L276.858 136.05L276.858 132.637L277.337 132.637L277.337 132.977ZM278.743 133.783C278.743 133.623 278.71 133.486 278.643 133.372C278.578 133.254 278.492 133.166 278.382 133.107C278.276 133.046 278.161 133.015 278.038 133.015C277.918 133.015 277.803 133.046 277.694 133.107C277.588 133.169 277.501 133.258 277.434 133.376C277.369 133.493 277.337 133.632 277.337 133.791C277.337 133.951 277.369 134.091 277.434 134.211C277.501 134.329 277.588 134.418 277.694 134.48C277.803 134.542 277.918 134.572 278.038 134.572C278.161 134.572 278.276 134.542 278.382 134.48C278.492 134.416 278.578 134.323 278.643 134.203C278.71 134.083 278.743 133.943 278.743 133.783ZM280.182 132.977C280.264 132.871 280.374 132.781 280.514 132.708C280.654 132.635 280.812 132.599 280.989 132.599C281.19 132.599 281.373 132.649 281.539 132.75C281.706 132.848 281.838 132.987 281.933 133.166C282.028 133.345 282.076 133.551 282.076 133.783C282.076 134.015 282.028 134.224 281.933 134.409C281.838 134.591 281.706 134.733 281.539 134.837C281.373 134.938 281.19 134.988 280.989 134.988C280.812 134.988 280.655 134.953 280.518 134.883C280.381 134.81 280.269 134.721 280.182 134.614L280.182 136.05L279.704 136.05L279.704 132.637L280.182 132.637L280.182 132.977ZM281.589 133.783C281.589 133.623 281.555 133.486 281.488 133.372C281.424 133.254 281.337 133.166 281.228 133.107C281.122 133.046 281.007 133.015 280.884 133.015C280.763 133.015 280.648 133.046 280.539 133.107C280.433 133.169 280.346 133.258 280.279 133.376C280.215 133.493 280.182 133.632 280.182 133.791C280.182 133.951 280.215 134.091 280.279 134.211C280.346 134.329 280.433 134.418 280.539 134.48C280.648 134.542 280.763 134.572 280.884 134.572C281.007 134.572 281.122 134.542 281.228 134.48C281.337 134.416 281.424 134.323 281.488 134.203C281.555 134.083 281.589 133.943 281.589 133.783ZM283.028 131.843L283.028 134.95L282.549 134.95L282.549 131.843L283.028 131.843ZM283.9 132.33C283.813 132.33 283.74 132.301 283.681 132.242C283.623 132.183 283.593 132.111 283.593 132.024C283.593 131.937 283.623 131.864 283.681 131.806C283.74 131.747 283.813 131.717 283.9 131.717C283.984 131.717 284.055 131.747 284.114 131.806C284.173 131.864 284.202 131.937 284.202 132.024C284.202 132.111 284.173 132.183 284.114 132.242C284.055 132.301 283.984 132.33 283.9 132.33ZM284.135 132.637L284.135 134.95L283.656 134.95L283.656 132.637L284.135 132.637ZM286.884 133.737C286.884 133.824 286.878 133.902 286.867 133.972L285.099 133.972C285.113 134.157 285.182 134.305 285.305 134.417C285.428 134.529 285.579 134.585 285.758 134.585C286.016 134.585 286.198 134.477 286.304 134.262L286.821 134.262C286.751 134.474 286.623 134.649 286.439 134.786C286.257 134.921 286.03 134.988 285.758 134.988C285.537 134.988 285.339 134.939 285.162 134.841C284.989 134.74 284.851 134.6 284.751 134.421C284.653 134.239 284.604 134.029 284.604 133.791C284.604 133.554 284.651 133.345 284.747 133.166C284.844 132.984 284.98 132.844 285.154 132.746C285.33 132.648 285.532 132.599 285.758 132.599C285.977 132.599 286.171 132.647 286.342 132.742C286.513 132.837 286.646 132.971 286.741 133.145C286.836 133.316 286.884 133.513 286.884 133.737ZM286.384 133.586C286.381 133.409 286.318 133.268 286.195 133.162C286.072 133.055 285.919 133.002 285.737 133.002C285.572 133.002 285.431 133.055 285.313 133.162C285.196 133.265 285.126 133.407 285.103 133.586L286.384 133.586ZM287.833 132.973C287.903 132.855 287.996 132.764 288.11 132.7C288.228 132.633 288.366 132.599 288.526 132.599L288.526 133.094L288.404 133.094C288.217 133.094 288.074 133.142 287.976 133.237C287.881 133.332 287.833 133.498 287.833 133.733L287.833 134.95L287.355 134.95L287.355 132.637L287.833 132.637L287.833 132.973ZM289.897 133.485C289.897 133.199 289.963 132.943 290.094 132.717C290.229 132.49 290.409 132.314 290.636 132.188C290.865 132.059 291.116 131.994 291.387 131.994C291.698 131.994 291.974 132.071 292.215 132.225C292.458 132.377 292.634 132.592 292.744 132.872L292.168 132.872C292.093 132.718 291.988 132.603 291.853 132.528C291.719 132.452 291.564 132.414 291.387 132.414C291.194 132.414 291.022 132.458 290.871 132.544C290.72 132.631 290.601 132.756 290.514 132.918C290.43 133.08 290.388 133.269 290.388 133.485C290.388 133.7 290.43 133.889 290.514 134.052C290.601 134.214 290.72 134.34 290.871 134.43C291.022 134.516 291.194 134.56 291.387 134.56C291.564 134.56 291.719 134.522 291.853 134.446C291.988 134.371 292.093 134.256 292.168 134.102L292.744 134.102C292.634 134.382 292.458 134.598 292.215 134.749C291.974 134.9 291.698 134.975 291.387 134.975C291.113 134.975 290.863 134.912 290.636 134.786C290.409 134.658 290.229 134.48 290.094 134.253C289.963 134.027 289.897 133.77 289.897 133.485Z" fill="black"/>
<path d="M172.015 129.629L173.796 129.629C174.219 129.629 174.562 129.972 174.562 130.395L174.562 187.276L171.25 187.276L171.25 130.395C171.25 129.972 171.593 129.629 172.015 129.629Z" fill="#E3E0FF" stroke="black" stroke-width="0.510363"/>
<path d="M222.22 142.255L224.001 142.255C224.424 142.255 224.767 142.598 224.767 143.021L224.767 187.275L221.454 187.275L221.454 143.021C221.454 142.598 221.797 142.255 222.22 142.255Z" fill="#E3E0FF" stroke="black" stroke-width="0.510363"/>
<path d="M262.741 159.217L264.522 159.217C264.945 159.217 265.287 159.56 265.288 159.983L265.288 187.275L261.975 187.275L261.975 159.983C261.975 159.56 262.318 159.217 262.741 159.217Z" fill="#E3E0FF" stroke="black" stroke-width="0.510363"/>
<path d="M188.962 142.255L190.744 142.255C191.166 142.255 191.509 142.598 191.509 143.021L191.509 187.275L188.197 187.275L188.197 143.021C188.197 142.598 188.54 142.255 188.962 142.255Z" fill="#FDFFD2" stroke="black" stroke-width="0.510363"/>
<path d="M246.431 153.223L248.212 153.223C248.635 153.223 248.977 153.566 248.977 153.989L248.977 187.275L245.665 187.275L245.665 153.989C245.665 153.566 246.008 153.223 246.431 153.223Z" fill="#FDFFD2" stroke="black" stroke-width="0.510363"/>
<path d="M229.993 138.812L231.774 138.812C232.197 138.812 232.54 139.154 232.54 139.577L232.54 187.275L229.227 187.275L229.227 139.577C229.227 139.155 229.57 138.812 229.993 138.812Z" fill="#FFE5D2" stroke="black" stroke-width="0.510363"/>
<rect x="0.500015" y="173.5" width="258.659" height="158" rx="3.90443" fill="white" stroke="#1D1D1B"/>
<line x1="16.9581" y1="313.54" x2="240.058" y2="313.54" stroke="black" stroke-width="0.803099"/>
<line x1="17.4376" y1="313.722" x2="17.4376" y2="206.474" stroke="black" stroke-width="0.803099"/>
<path d="M21.2392 192.676C21.2392 192.988 21.1657 193.281 21.0189 193.557C20.8721 193.833 20.6372 194.059 20.3142 194.236C19.9912 194.406 19.5772 194.491 19.0722 194.491L17.9623 194.491L17.9623 196.975L16.958 196.975L16.958 190.853L19.0722 190.853C19.542 190.853 19.9384 190.935 20.2614 191.1C20.5902 191.258 20.8339 191.475 20.9925 191.751C21.1569 192.027 21.2392 192.336 21.2392 192.676ZM19.0722 193.672C19.4539 193.672 19.7387 193.587 19.9266 193.416C20.1146 193.24 20.2085 192.994 20.2085 192.676C20.2085 192.007 19.8297 191.672 19.0722 191.672L17.9623 191.672L17.9623 193.672L19.0722 193.672ZM23.2011 192.826C23.3479 192.579 23.5417 192.389 23.7825 192.254C24.0292 192.113 24.3198 192.042 24.6546 192.042L24.6546 193.082L24.3991 193.082C24.0057 193.082 23.7062 193.181 23.5006 193.381C23.301 193.581 23.2011 193.927 23.2011 194.421L23.2011 196.975L22.1969 196.975L22.1969 192.121L23.2011 192.121L23.2011 192.826ZM26.0886 191.478C25.9065 191.478 25.7538 191.417 25.6305 191.293C25.5072 191.17 25.4455 191.017 25.4455 190.835C25.4455 190.653 25.5072 190.501 25.6305 190.377C25.7538 190.254 25.9065 190.192 26.0886 190.192C26.2647 190.192 26.4145 190.254 26.5378 190.377C26.6611 190.501 26.7228 190.653 26.7228 190.835C26.7228 191.017 26.6611 191.17 26.5378 191.293C26.4145 191.417 26.2647 191.478 26.0886 191.478ZM26.5819 192.121L26.5819 196.975L25.5777 196.975L25.5777 192.121L26.5819 192.121ZM27.5656 194.544C27.5656 194.045 27.6654 193.607 27.8651 193.231C28.0706 192.85 28.3525 192.556 28.7107 192.35C29.0689 192.145 29.48 192.042 29.944 192.042C30.5312 192.042 31.0157 192.183 31.3974 192.465C31.785 192.741 32.0463 193.137 32.1814 193.654L31.0979 193.654C31.0098 193.413 30.8689 193.225 30.6751 193.09C30.4813 192.955 30.2376 192.888 29.944 192.888C29.5329 192.888 29.204 193.035 28.9574 193.328C28.7166 193.616 28.5962 194.021 28.5962 194.544C28.5962 195.067 28.7166 195.475 28.9574 195.768C29.204 196.062 29.5329 196.209 29.944 196.209C30.5253 196.209 30.91 195.953 31.0979 195.442L32.1814 195.442C32.0405 195.936 31.7762 196.329 31.3886 196.623C31.001 196.911 30.5195 197.054 29.944 197.054C29.48 197.054 29.0689 196.952 28.7107 196.746C28.3525 196.535 28.0706 196.241 27.8651 195.865C27.6654 195.483 27.5656 195.043 27.5656 194.544ZM37.6307 194.429C37.6307 194.611 37.6189 194.776 37.5954 194.923L33.8869 194.923C33.9163 195.31 34.0601 195.621 34.3185 195.856C34.5769 196.091 34.894 196.209 35.2699 196.209C35.8102 196.209 36.1919 195.983 36.415 195.53L37.4985 195.53C37.3517 195.977 37.0845 196.344 36.6969 196.632C36.3152 196.913 35.8395 197.054 35.2699 197.054C34.806 197.054 34.389 196.952 34.019 196.746C33.6549 196.535 33.3672 196.241 33.1558 195.865C32.9502 195.483 32.8474 195.043 32.8474 194.544C32.8474 194.045 32.9473 193.607 33.1469 193.231C33.3525 192.85 33.6373 192.556 34.0014 192.35C34.3714 192.145 34.7942 192.042 35.2699 192.042C35.7279 192.042 36.1361 192.142 36.4943 192.342C36.8525 192.541 37.1315 192.823 37.3312 193.187C37.5308 193.546 37.6307 193.96 37.6307 194.429ZM36.5824 194.112C36.5765 193.742 36.4444 193.446 36.186 193.223C35.9276 192.999 35.6076 192.888 35.2258 192.888C34.8794 192.888 34.5828 192.999 34.3361 193.223C34.0895 193.44 33.9427 193.736 33.8957 194.112L36.5824 194.112ZM43.127 198.614C42.5515 198.062 42.1081 197.36 41.7968 196.508C41.4915 195.657 41.3388 194.744 41.3388 193.769C41.3388 192.77 41.5032 191.828 41.8321 190.941C42.1668 190.054 42.6572 189.323 43.3032 188.748L44.3426 188.748L44.3426 188.845C43.6673 189.467 43.1593 190.213 42.8187 191.082C42.4781 191.951 42.3078 192.847 42.3078 193.769C42.3078 194.655 42.4663 195.513 42.7834 196.341C43.1006 197.169 43.5615 197.894 44.1664 198.517L44.1664 198.614L43.127 198.614ZM46.247 191.663L46.247 193.46L48.3611 193.46L48.3611 194.28L46.247 194.28L46.247 196.156L48.6254 196.156L48.6254 196.975L45.2428 196.975L45.2428 190.844L48.6254 190.844L48.6254 191.663L46.247 191.663ZM50.8576 190.853L50.8576 194.755C50.8576 195.219 50.978 195.569 51.2188 195.804C51.4655 196.038 51.8061 196.156 52.2406 196.156C52.6811 196.156 53.0217 196.038 53.2625 195.804C53.5091 195.569 53.6324 195.219 53.6324 194.755L53.6324 190.853L54.6367 190.853L54.6367 194.738C54.6367 195.237 54.528 195.66 54.3107 196.006C54.0934 196.353 53.8027 196.611 53.4386 196.781C53.0745 196.952 52.6723 197.037 52.2318 197.037C51.7914 197.037 51.3891 196.952 51.025 196.781C50.6668 196.611 50.382 196.353 50.1706 196.006C49.9591 195.66 49.8534 195.237 49.8534 194.738L49.8534 190.853L50.8576 190.853ZM59.1241 196.975L57.7147 194.526L56.9484 194.526L56.9484 196.975L55.9441 196.975L55.9441 190.853L58.0583 190.853C58.5281 190.853 58.9245 190.935 59.2475 191.1C59.5763 191.264 59.8201 191.484 59.9786 191.76C60.143 192.036 60.2253 192.345 60.2253 192.685C60.2253 193.085 60.1078 193.449 59.8729 193.777C59.6439 194.1 59.2886 194.321 58.807 194.438L60.3222 196.975L59.1241 196.975ZM56.9484 193.725L58.0583 193.725C58.4341 193.725 58.716 193.631 58.9039 193.443C59.0977 193.255 59.1946 193.002 59.1946 192.685C59.1946 192.368 59.1007 192.121 58.9127 191.945C58.7248 191.763 58.44 191.672 58.0583 191.672L56.9484 191.672L56.9484 193.725ZM61.2633 198.614L61.2633 198.517C61.8681 197.894 62.3291 197.169 62.6463 196.341C62.9634 195.513 63.1219 194.655 63.1219 193.769C63.1219 192.847 62.9516 191.951 62.611 191.082C62.2704 190.213 61.7624 189.467 61.0871 188.845L61.0871 188.748L62.1265 188.748C62.7725 189.323 63.2599 190.054 63.5888 190.941C63.9235 191.828 64.0909 192.77 64.0909 193.769C64.0909 194.744 63.9353 195.657 63.624 196.508C63.3187 197.36 62.8782 198.062 62.3027 198.614L61.2633 198.614Z" fill="black"/>
<path d="M90.9578 253.932L90.7703 254.287L90.8451 254.326L90.9295 254.332L90.9578 253.932ZM175.088 259.878L175.309 259.542L175.221 259.484L175.117 259.477L175.088 259.878ZM203.8 278.808L201.724 274.663L199.172 278.534L203.8 278.808ZM24.0059 218.586L23.8184 218.941L90.7703 254.287L90.9578 253.932L91.1453 253.576L24.1933 218.231L24.0059 218.586ZM175.088 259.878L174.867 260.213L200.562 277.154L200.783 276.819L201.004 276.484L175.309 259.542L175.088 259.878ZM90.9578 253.932L90.9295 254.332L175.06 260.278L175.088 259.878L175.117 259.477L90.9861 253.531L90.9578 253.932Z" fill="black"/>
<path d="M24.0059 233.781L68.7139 230.147L117.056 250.188L145.907 277.825" stroke="black" stroke-width="0.803099"/>
<path d="M69.0443 267.475L68.8964 267.849L68.9615 267.875L69.0316 267.877L69.0443 267.475ZM155.928 270.228L156.207 269.94L156.095 269.832L155.94 269.827L155.928 270.228ZM193.478 306.565L192.205 302.106L188.98 305.438L193.478 306.565ZM24.0059 249.637L23.858 250.011L68.8964 267.849L69.0443 267.475L69.1921 267.102L24.1537 249.264L24.0059 249.637ZM155.928 270.228L155.648 270.517L190.602 304.34L190.881 304.052L191.16 303.763L156.207 269.94L155.928 270.228ZM69.0443 267.475L69.0316 267.877L155.915 270.63L155.928 270.228L155.94 269.827L69.057 267.074L69.0443 267.475Z" fill="black"/>
<path d="M25.8777 215.464C27.6629 215.464 29.1101 216.911 29.1101 218.696C29.1101 220.481 27.6629 221.928 25.8777 221.928C24.0926 221.928 22.6453 220.481 22.6453 218.696C22.6453 216.911 24.0925 215.464 25.8777 215.464Z" fill="#CABFFD" stroke="black" stroke-width="0.803099"/>
<path d="M25.8777 231.76C27.6629 231.76 29.1101 233.208 29.1101 234.993C29.1101 236.778 27.6629 238.225 25.8777 238.225C24.0926 238.225 22.6453 236.778 22.6453 234.993C22.6453 233.208 24.0925 231.76 25.8777 231.76Z" fill="#FDF6B2" stroke="black" stroke-width="0.803099"/>
<path d="M68.8239 226.916C70.6091 226.916 72.0563 228.363 72.0563 230.148C72.0562 231.933 70.609 233.38 68.8239 233.38C67.0388 233.38 65.5915 231.933 65.5914 230.148C65.5914 228.363 67.0387 226.916 68.8239 226.916Z" fill="#FDF6B2" stroke="black" stroke-width="0.803099"/>
<path d="M25.8777 246.295C27.6629 246.295 29.1101 247.742 29.1101 249.527C29.1101 251.312 27.6629 252.76 25.8777 252.76C24.0926 252.759 22.6453 251.312 22.6453 249.527C22.6453 247.742 24.0925 246.295 25.8777 246.295Z" fill="#FFCEB1" stroke="black" stroke-width="0.803099"/>
<path d="M68.8239 264.133C70.6091 264.133 72.0563 265.58 72.0563 267.365C72.0562 269.15 70.609 270.598 68.8239 270.598C67.0388 270.598 65.5915 269.15 65.5914 267.365C65.5914 265.58 67.0387 264.133 68.8239 264.133Z" fill="#FFCEB1" stroke="black" stroke-width="0.803099"/>
<path d="M155.157 266.555C156.942 266.555 158.389 268.002 158.389 269.787C158.389 271.572 156.942 273.02 155.157 273.02C153.372 273.02 151.924 271.572 151.924 269.787C151.924 268.002 153.371 266.555 155.157 266.555Z" fill="#FFCEB1" stroke="black" stroke-width="0.803099"/>
<path d="M191.572 300.893C193.357 300.893 194.804 302.341 194.804 304.126C194.804 305.911 193.357 307.358 191.572 307.358C189.787 307.358 188.34 305.911 188.339 304.126C188.339 302.341 189.787 300.893 191.572 300.893Z" fill="#FFCEB1" stroke="black" stroke-width="0.803099"/>
<path d="M116.175 245.634C117.96 245.634 119.407 247.081 119.407 248.866C119.407 250.651 117.96 252.099 116.175 252.099C114.39 252.099 112.942 250.651 112.942 248.866C112.942 247.081 114.389 245.634 116.175 245.634Z" fill="#FDF6B2" stroke="black" stroke-width="0.803099"/>
<path d="M145.466 274.703C147.251 274.703 148.699 276.151 148.699 277.936C148.699 279.721 147.251 281.168 145.466 281.168C143.681 281.168 142.234 279.721 142.234 277.936C142.234 276.151 143.681 274.703 145.466 274.703Z" fill="#FDF6B2" stroke="black" stroke-width="0.803099"/>
<path d="M90.6275 250.259C92.4127 250.259 93.8599 251.706 93.8599 253.491C93.8599 255.276 92.4127 256.724 90.6275 256.724C88.8424 256.724 87.3952 255.276 87.3951 253.491C87.3951 251.706 88.8424 250.259 90.6275 250.259Z" fill="#CABFFD" stroke="black" stroke-width="0.803099"/>
<path d="M174.978 256.865C176.763 256.865 178.21 258.313 178.21 260.098C178.21 261.883 176.763 263.33 174.978 263.33C173.193 263.33 171.745 261.883 171.745 260.098C171.745 258.313 173.193 256.865 174.978 256.865Z" fill="#CABFFD" stroke="black" stroke-width="0.803099"/>
<path d="M202.214 274.592C203.999 274.592 205.446 276.039 205.446 277.824C205.446 279.609 203.999 281.057 202.214 281.057C200.429 281.057 198.981 279.609 198.981 277.824C198.981 276.039 200.429 274.592 202.214 274.592Z" fill="#CABFFD" stroke="black" stroke-width="0.803099"/>
<path d="M230.904 8.73732L227.881 28.8428L185.73 20.5723L188.873 0.589857L230.904 8.73732Z" fill="#EBFFF7" stroke="black"/>
<path d="M201.528 10.8647C200.64 9.60152 198.737 8.21162 196.58 10.233C194.084 12.5724 195.057 16.8023 197.722 17.3078C199.115 17.5721 200.006 17.0551 200.513 16.5498M193.535 13.3913L198.483 14.1493M193.789 11.37L199.244 12.507M204.192 12.507C204.657 11.749 205.943 10.4351 207.364 11.2437C208.785 12.0522 208.76 13.5176 208.506 14.1493L203.431 18.1919L207.998 18.8235M211.043 13.5176C211.466 12.928 212.617 11.85 213.835 12.2543C215.357 12.7596 216.499 14.6546 214.088 16.2969C212.16 17.6107 210.663 18.6972 210.155 19.0762L214.85 19.9605M221.066 13.3913C220.136 13.307 218.301 13.8461 217.895 16.6759C217.387 20.2132 218.598 21.1243 219.798 21.2238C221.32 21.3502 222.716 19.8342 222.716 17.4339C222.716 15.0336 222.969 13.7703 221.066 13.3913Z" stroke="black" stroke-linecap="round"/>
<path d="M253.271 66.5557C255.089 67.9032 258.092 71.23 257.965 77.0412C257.852 82.2299 256.781 84.4948 256.569 85.0001M256.569 85.0001L259.868 81.5892M256.569 85.0001L254.92 79.5679" stroke="black" stroke-linecap="round"/>
<path d="M288.055 50.1538C289.028 50.7434 290.973 52.8068 291.608 57.6074C292.06 61.0275 291.227 64.8926 290.973 67.0823M290.973 67.0823L294.018 63.4187M290.973 67.0823L289.07 61.7764" stroke="black" stroke-linecap="round"/>
<path d="M291.912 25.7393L287.45 44.4727L249.365 34.7461L254.67 16.377L291.912 25.7393Z" fill="#DFF0FF" stroke="black"/>
<path d="M264.855 26.2601C264.221 24.9967 261.201 23.3038 259.272 26.1336C257.344 28.9635 258.638 31.1871 260.034 31.8187C260.71 32.0714 262.343 32.3493 263.459 31.4397M257.116 26.1337L262.444 27.6498M256.735 28.0288L261.556 29.2921M267.139 27.397L270.057 26.639L268.027 34.0926M271.199 33.84C272.34 35.7349 275.893 35.9876 276.147 32.9556C276.35 30.5301 273.609 30.5974 272.213 30.9343L273.355 27.397L277.288 28.2813M282.236 29.4183C281.264 29.292 279.445 29.5447 278.684 32.703C277.813 36.318 279.318 36.7456 280.206 36.9983C281.095 37.2509 282.871 36.9983 283.759 34.0926C284.647 31.187 283.505 29.671 282.236 29.4183Z" stroke="black" stroke-linecap="round"/>
<path d="M247.524 71.9295L219.746 72.5398L219.029 56.9705L246.09 55.3855L247.524 71.9295Z" fill="#FFF1E3" stroke="black"/>
<path d="M229.419 61.933C228.361 61.0066 226.24 60.3344 225.105 62.3119C223.582 64.9648 225.351 66.9815 226.12 67.4916C226.881 67.9968 228.404 68.3759 229.926 66.6073M222.948 63.8279L227.896 63.7015M223.202 65.4702L227.516 65.3438M231.956 61.1749L236.143 61.1749L233.225 67.7441M240.076 60.5432C239.272 60.5853 237.742 61.3516 238.046 64.0805C238.351 66.8094 239.78 67.4073 240.457 67.3651C241.176 67.4073 242.588 66.7588 242.487 63.8279C242.385 60.8969 240.837 60.4169 240.076 60.5432Z" stroke="black" stroke-linecap="round"/>
</svg>

