<svg width="20" height="20" viewBox="0 0 20 20" fill="none" xmlns="http://www.w3.org/2000/svg">
<path d="M4.43508 8.06902C6.44648 4.50991 7.45218 2.73035 8.83221 2.27226C9.59142 2.02025 10.4092 2.02025 11.1684 2.27226C12.5485 2.73035 13.5542 4.50991 15.5656 8.06902C17.577 11.6281 18.5827 13.4077 18.281 14.8577C18.115 15.6554 17.7061 16.379 17.1129 16.9247C16.0345 17.9166 14.0231 17.9166 10.0003 17.9166C5.97753 17.9166 3.96613 17.9166 2.88779 16.9247C2.29456 16.379 1.88565 15.6554 1.71968 14.8577C1.41799 13.4077 2.42369 11.6281 4.43508 8.06902Z" stroke="#1D1D1B"/>
<path d="M9.99398 13.3333H10.0015" stroke="#1D1D1B" stroke-linecap="round" stroke-linejoin="round"/>
<path d="M10 10.8333L10 7.49992" stroke="#1D1D1B" stroke-linecap="round" stroke-linejoin="round"/>
</svg>
