<svg width="20" height="20" viewBox="0 0 20 20" fill="none" xmlns="http://www.w3.org/2000/svg">
<path d="M7.5 7.33845L10.468 10.6209C10.7402 10.9219 11.231 10.8997 11.473 10.5755L17.5 2.5" stroke="#1D1D1B" stroke-linecap="round" stroke-linejoin="round"/>
<path d="M7.83333 2.5C5.96649 2.5 5.03307 2.5 4.32003 2.86331C3.69282 3.18289 3.18289 3.69282 2.86331 4.32003C2.5 5.03307 2.5 5.96649 2.5 7.83333V12.1667C2.5 14.0335 2.5 14.9669 2.86331 15.68C3.18289 16.3072 3.69282 16.8171 4.32003 17.1367C5.03307 17.5 5.96649 17.5 7.83333 17.5H12.1667C14.0335 17.5 14.9669 17.5 15.68 17.1367C16.3072 16.8171 16.8171 16.3072 17.1367 15.68C17.5 14.9669 17.5 14.0335 17.5 12.1667V11.25" stroke="#1D1D1B" stroke-linecap="round" stroke-linejoin="round"/>
</svg>
