<svg width="20" height="21" viewBox="0 0 20 21" fill="none" xmlns="http://www.w3.org/2000/svg">
<path d="M2.08398 10.5C2.08398 6.76809 2.08398 4.90211 3.24335 3.74274C4.40272 2.58337 6.2687 2.58337 10.0007 2.58337C13.7326 2.58337 15.5986 2.58337 16.7579 3.74274C17.9173 4.90211 17.9173 6.76809 17.9173 10.5C17.9173 14.232 17.9173 16.098 16.7579 17.2573C15.5986 18.4167 13.7326 18.4167 10.0007 18.4167C6.2687 18.4167 4.40272 18.4167 3.24335 17.2573C2.08398 16.098 2.08398 14.232 2.08398 10.5Z" stroke="#1D1D1B"/>
<path d="M10.2025 14.6667V10.5001C10.2025 10.1072 10.2025 9.91083 10.0804 9.78879C9.9584 9.66675 9.76198 9.66675 9.36914 9.66675" stroke="#1D1D1B" stroke-linecap="round" stroke-linejoin="round"/>
<path d="M9.99398 7.16675H10.0015" stroke="#1D1D1B" stroke-linecap="round" stroke-linejoin="round"/>
</svg>
