<svg width="20" height="20" viewBox="0 0 20 20" fill="none" xmlns="http://www.w3.org/2000/svg">
<path fill-rule="evenodd" clip-rule="evenodd" d="M14.8957 13.818L16.4107 8.05205L14.1967 9.46205C13.7552 9.74353 13.2209 9.84067 12.7086 9.7326C12.1963 9.62453 11.7468 9.31987 11.4567 8.88405L9.99966 6.69505L8.54166 8.88505C8.25134 9.32071 7.80177 9.62516 7.28948 9.73304C6.77718 9.84092 6.24301 9.74363 5.80166 9.46205L3.58966 8.05205L5.10466 13.818H14.8957ZM4.12566 7.20805C3.35866 6.71905 2.38966 7.42605 2.62066 8.30605L4.13666 14.072C4.19278 14.2858 4.3181 14.4749 4.49304 14.6098C4.66799 14.7448 4.8827 14.818 5.10366 14.818H14.8957C15.1166 14.818 15.3313 14.7448 15.5063 14.6098C15.6812 14.4749 15.8065 14.2858 15.8627 14.072L17.3787 8.30605C17.6087 7.42605 16.6407 6.72005 15.8737 7.20805L13.6597 8.61805C13.439 8.75889 13.172 8.80761 12.9159 8.75377C12.6597 8.69992 12.4349 8.54779 12.2897 8.33005L10.8317 6.14005C10.7403 6.00309 10.6166 5.8908 10.4715 5.81313C10.3263 5.73546 10.1643 5.69482 9.99966 5.69482C9.83504 5.69482 9.67298 5.73546 9.52784 5.81313C9.3827 5.8908 9.25898 6.00309 9.16766 6.14005L7.70966 8.33005C7.56458 8.54796 7.33983 8.70029 7.08367 8.75432C6.82752 8.80836 6.5604 8.75979 6.33966 8.61905L4.12566 7.20805Z" fill="#1D1D1B"/>
<path d="M10.944 3.94498C10.9443 4.19561 10.845 4.43608 10.6679 4.61349C10.4909 4.7909 10.2507 4.89071 10 4.89098C9.74939 4.89124 9.50892 4.79193 9.33151 4.6149C9.15411 4.43787 9.05429 4.19761 9.05402 3.94698C9.05376 3.69635 9.15307 3.45588 9.3301 3.27847C9.50713 3.10106 9.74739 3.00124 9.99802 3.00098C10.2487 3.00071 10.4891 3.10002 10.6665 3.27705C10.8439 3.45409 10.9438 3.69435 10.944 3.94498ZM18.5 5.83598C18.5002 6.08661 18.4007 6.32702 18.2236 6.50434C18.0465 6.68166 17.8062 6.78134 17.5555 6.78148C17.3049 6.78161 17.0645 6.68217 16.8872 6.50505C16.7098 6.32792 16.6102 6.08761 16.61 5.83698C16.61 5.58635 16.7096 5.34598 16.8868 5.16876C17.064 4.99154 17.3044 4.89198 17.555 4.89198C17.8057 4.89198 18.046 4.99154 18.2232 5.16876C18.4005 5.34598 18.5 5.58535 18.5 5.83598ZM3.38902 5.83598C3.38909 5.96008 3.36471 6.08297 3.31728 6.19765C3.26985 6.31233 3.2003 6.41654 3.11259 6.50434C3.02489 6.59214 2.92075 6.6618 2.80612 6.70935C2.69149 6.7569 2.56862 6.78141 2.44452 6.78148C2.32042 6.78154 2.19753 6.75716 2.08285 6.70973C1.96817 6.6623 1.86396 6.59275 1.77616 6.50505C1.68836 6.41734 1.6187 6.3132 1.57115 6.19858C1.5236 6.08395 1.49909 5.96108 1.49902 5.83698C1.49902 5.58635 1.59859 5.34598 1.77581 5.16876C1.95303 4.99154 2.19339 4.89198 2.44402 4.89198C2.69465 4.89198 2.93502 4.99154 3.11224 5.16876C3.28946 5.34598 3.38902 5.58535 3.38902 5.83598Z" fill="#1D1D1B"/>
<path fill-rule="evenodd" clip-rule="evenodd" d="M5.25 16C5.25 15.8674 5.30268 15.7402 5.39645 15.6464C5.49021 15.5527 5.61739 15.5 5.75 15.5H14.487C14.6196 15.5 14.7468 15.5527 14.8406 15.6464C14.9343 15.7402 14.987 15.8674 14.987 16C14.987 16.1326 14.9343 16.2598 14.8406 16.3536C14.7468 16.4473 14.6196 16.5 14.487 16.5H5.75C5.61739 16.5 5.49021 16.4473 5.39645 16.3536C5.30268 16.2598 5.25 16.1326 5.25 16Z" fill="#1D1D1B"/>
</svg>
