<svg width="20" height="20" viewBox="0 0 20 20" fill="none" xmlns="http://www.w3.org/2000/svg">
<path d="M9.99935 14.1667C8.60464 14.1667 7.39077 15.221 6.76406 16.7761C6.46473 17.5188 6.89426 18.3334 7.46499 18.3334H12.5337C13.1044 18.3334 13.534 17.5188 13.2346 16.7761C12.6079 15.221 11.3941 14.1667 9.99935 14.1667Z" stroke="#1D1D1B" stroke-linecap="round"/>
<path d="M15.4173 4.16669H16.4192C17.4199 4.16669 17.9202 4.16669 18.1813 4.48116C18.4423 4.79562 18.3338 5.26763 18.1167 6.21165L17.7911 7.62758C17.3014 9.75717 15.5097 11.3407 13.334 11.6667" stroke="#1D1D1B" stroke-linecap="round" stroke-linejoin="round"/>
<path d="M4.58268 4.16669H3.58084C2.58012 4.16669 2.07976 4.16669 1.81872 4.48116C1.55767 4.79562 1.66622 5.26763 1.8833 6.21165L2.20891 7.62758C2.69864 9.75717 4.49028 11.3407 6.66602 11.6667" stroke="#1D1D1B" stroke-linecap="round" stroke-linejoin="round"/>
<path d="M10.0007 14.1667C12.518 14.1667 14.6381 10.2816 15.2754 4.99243C15.4517 3.52967 15.5398 2.7983 15.073 2.23249C14.6062 1.66669 13.8525 1.66669 12.3452 1.66669H7.65614C6.14877 1.66669 5.39509 1.66669 4.92829 2.23249C4.46149 2.7983 4.54961 3.52967 4.72586 4.99243C5.36315 10.2816 7.48334 14.1667 10.0007 14.1667Z" stroke="#1D1D1B" stroke-linecap="round"/>
</svg>
