<svg width="331" height="68" viewBox="0 0 331 68" fill="none" xmlns="http://www.w3.org/2000/svg">
<mask id="mask0_2900_51695" style="mask-type:alpha" maskUnits="userSpaceOnUse" x="184" y="0" width="88" height="68">
<path d="M192.186 67.7156L184.805 11.6653L207.799 34.7114L227.954 0L248.11 34.7114L271.104 11.6653L263.723 67.7156H248.11L227.954 44.385L207.799 67.7156H192.186Z" fill="#737774"/>
</mask>
<g mask="url(#mask0_2900_51695)">
<path d="M210.444 75.569C187.132 67.0079 151.485 50.5758 151.485 -55.7129L243.98 -37.4137C248.487 -7.7292 229.535 39.8298 210.444 75.569C221.771 79.7285 230.186 82.0299 230.186 91.8767C230.186 117.994 202.629 112.98 186.642 114.022C180.394 122.235 176.085 125.737 175.598 122.133C174.786 116.121 179.588 114.482 186.642 114.022C193.173 105.438 201.823 91.709 210.444 75.569Z" fill="white"/>
<path d="M210.444 75.569C187.132 67.0079 151.485 50.5758 151.485 -55.7129L243.98 -37.4137C248.487 -7.7292 229.535 39.8298 210.444 75.569C221.771 79.7285 230.186 82.0299 230.186 91.8767C230.186 117.994 202.629 112.98 186.642 114.022C180.394 122.235 176.085 125.737 175.598 122.133C174.786 116.121 179.588 114.482 186.642 114.022C193.173 105.438 201.823 91.709 210.444 75.569Z" fill="url(#paint0_linear_2900_51695)"/>
<path d="M226.863 3.48666C236.671 32.0063 195.025 79.8114 211.989 84.5964C211.989 84.5964 287.976 86.3994 291.801 35.5351C294.83 -4.74921 250.241 -46.7622 250.241 -46.7622C226.107 -77.0879 211.989 -69.614 211.989 -61.4656C211.989 -44.8188 217.348 -24.183 226.863 3.48666Z" fill="white"/>
<path d="M226.863 3.48666C236.671 32.0063 195.025 79.8114 211.989 84.5964C211.989 84.5964 287.976 86.3994 291.801 35.5351C294.83 -4.74921 250.241 -46.7622 250.241 -46.7622C226.107 -77.0879 211.989 -69.614 211.989 -61.4656C211.989 -44.8188 217.348 -24.183 226.863 3.48666Z" fill="url(#paint1_linear_2900_51695)"/>
<g filter="url(#filter0_d_2900_51695)">
<path d="M248.112 67.9994L271.106 11.6646C271.106 11.6646 260.46 21.765 233.066 50.217L248.112 67.9994Z" fill="white"/>
<path d="M248.112 67.9994L271.106 11.6646C271.106 11.6646 260.46 21.765 233.066 50.217L248.112 67.9994Z" fill="url(#paint2_linear_2900_51695)"/>
</g>
<g filter="url(#filter1_d_2900_51695)">
<path d="M250.453 10.4907C222.421 1.85003 207.76 -1.45966 207.76 -1.45966L207.801 68.2853L223.84 48.0844L250.453 10.4907Z" fill="#00D072"/>
</g>
<path d="M207.802 67.7154L184.808 11.665C184.808 11.665 171.221 66.6531 193.246 95.2537L207.802 67.7154Z" fill="white"/>
<path d="M207.802 67.7154L184.808 11.665C184.808 11.665 171.221 66.6531 193.246 95.2537L207.802 67.7154Z" fill="url(#paint3_linear_2900_51695)"/>
<g filter="url(#filter2_d_2900_51695)">
<path d="M207.8 67.7163L227.955 0.000664292L243.426 26.4609L207.8 67.7163Z" fill="white"/>
<path d="M207.8 67.7163L227.955 0.000664292L243.426 26.4609L207.8 67.7163Z" fill="url(#paint4_linear_2900_51695)"/>
</g>
<path d="M128.05 -42.8809C128.05 -42.8809 153.273 13.1649 172.137 45.7055C178.198 56.1597 179.893 83.4063 175.238 110.955L179.329 124.29C179.329 124.29 170.55 138.697 175.238 110.955L128.05 -42.8809Z" fill="#00D072"/>
</g>
<path d="M0 39.2576C0 35.8547 0.601843 32.5303 1.80553 29.2845C3.06155 25.9863 4.86708 23.0022 7.22212 20.3322C9.57716 17.6098 12.4555 15.4634 15.8573 13.8928C19.259 12.2699 23.1317 11.4584 27.4755 11.4584C32.6042 11.4584 37.0265 12.584 40.7422 14.8352C44.5103 17.0863 47.3101 20.0181 49.1418 23.6304L40.8207 29.363C39.8787 27.2689 38.6488 25.6198 37.1311 24.4157C35.6134 23.1592 33.9911 22.2954 32.2641 21.8242C30.537 21.3007 28.8362 21.0389 27.1615 21.0389C24.4401 21.0389 22.0589 21.5886 20.0178 22.688C18.0291 23.7875 16.3544 25.2271 14.9938 27.0071C13.6331 28.7871 12.6125 30.7765 11.9322 32.9753C11.3042 35.1741 10.9902 37.373 10.9902 39.5718C10.9902 42.0323 11.3827 44.4144 12.1677 46.7179C12.9527 48.9691 14.0517 50.9846 15.4648 52.7646C16.9301 54.4923 18.6572 55.8796 20.6459 56.9267C22.6869 57.9214 24.9111 58.4187 27.3185 58.4187C29.0455 58.4187 30.7987 58.1308 32.5781 57.5549C34.3574 56.979 36.006 56.0628 37.5236 54.8064C39.0413 53.5499 40.2189 51.927 41.0562 49.9376L49.9269 55.042C48.8278 57.8167 47.0223 60.1725 44.5103 62.1096C42.0506 64.0466 39.2768 65.5125 36.1891 66.5072C33.1014 67.5019 30.0398 67.9992 27.0045 67.9992C23.0271 67.9992 19.3898 67.1878 16.0928 65.5648C12.7957 63.8896 9.9435 61.6907 7.53613 58.9684C5.18109 56.1937 3.32322 53.1049 1.96253 49.702C0.654178 46.2467 0 42.7653 0 39.2576Z" fill="#00D072"/>
<path d="M61.4134 67.7147L61.3024 11.6644H85.9519C88.5162 11.6644 90.8713 12.2961 93.017 13.3431C95.215 14.3902 97.0991 15.8037 98.6691 17.5837C100.291 19.3637 101.521 21.3531 102.359 23.5519C103.248 25.7507 103.693 28.0018 103.693 30.3054C103.693 32.6612 103.274 34.9386 102.437 37.1374C101.652 39.2838 100.501 41.1685 98.9831 42.7915C97.4654 44.4144 95.686 45.6708 93.645 46.5608L106.473 67.7147H94.5409L82.9688 48.8382H72.1356L72.2465 67.7147H61.4134ZM72.1356 39.3362H85.7164C87.0771 39.3362 88.2807 38.9435 89.3274 38.1582C90.3741 37.3206 91.2115 36.2212 91.8395 34.86C92.4675 33.4989 92.7815 31.9806 92.7815 30.3054C92.7815 28.5254 92.4151 26.981 91.6825 25.6721C90.9498 24.311 90.0078 23.2378 88.8564 22.4525C87.7574 21.6672 86.5537 21.2745 85.2454 21.2745H72.1356V39.3362Z" fill="#00D072"/>
<path d="M145.641 67.9207C141.559 67.9207 137.843 67.1354 134.494 65.5648C131.196 63.9943 128.344 61.874 125.937 59.204C123.582 56.4817 121.75 53.4452 120.442 50.0946C119.133 46.6917 118.479 43.2103 118.479 39.6503C118.479 35.9333 119.16 32.3995 120.52 29.0489C121.933 25.646 123.844 22.6357 126.251 20.0181C128.711 17.3481 131.589 15.254 134.886 13.7357C138.235 12.1652 141.899 11.3799 145.876 11.3799C149.906 11.3799 153.569 12.1913 156.866 13.8143C160.216 15.4372 163.068 17.6098 165.423 20.3322C167.778 23.0545 169.61 26.091 170.918 29.4415C172.227 32.7921 172.881 36.2474 172.881 39.8074C172.881 43.472 172.2 47.0058 170.84 50.4088C169.479 53.7593 167.569 56.7696 165.109 59.4396C162.702 62.0572 159.823 64.1251 156.474 65.6434C153.177 67.1616 149.566 67.9207 145.641 67.9207ZM129.469 39.6503C129.469 42.0585 129.836 44.3882 130.568 46.6394C131.301 48.8905 132.348 50.9061 133.709 52.6861C135.122 54.4137 136.822 55.8011 138.811 56.8481C140.852 57.8428 143.155 58.3402 145.719 58.3402C148.336 58.3402 150.665 57.8167 152.706 56.7696C154.747 55.6702 156.448 54.2305 157.808 52.4505C159.169 50.6182 160.19 48.6026 160.87 46.4038C161.603 44.1526 161.969 41.9015 161.969 39.6503C161.969 37.2421 161.577 34.9386 160.791 32.7397C160.059 30.4886 158.986 28.4992 157.573 26.7715C156.212 24.9916 154.511 23.6042 152.47 22.6095C150.482 21.5625 148.231 21.0389 145.719 21.0389C143.05 21.0389 140.695 21.5886 138.654 22.688C136.665 23.7351 134.991 25.1486 133.63 26.9286C132.269 28.7086 131.223 30.698 130.49 32.8968C129.81 35.0956 129.469 37.3468 129.469 39.6503Z" fill="#00D072"/>
<path d="M293.527 31.5824V67.7163H282.741L282.741 11.666H291.257L320.213 48.6535V11.666H331V67.7163H322.116L293.527 31.5824Z" fill="#00D072"/>
<defs>
<filter id="filter0_d_2900_51695" x="190.162" y="-25.6671" width="123.848" height="142.142" filterUnits="userSpaceOnUse" color-interpolation-filters="sRGB">
<feFlood flood-opacity="0" result="BackgroundImageFix"/>
<feColorMatrix in="SourceAlpha" type="matrix" values="0 0 0 0 0 0 0 0 0 0 0 0 0 0 0 0 0 0 127 0" result="hardAlpha"/>
<feOffset dy="5.57197"/>
<feGaussianBlur stdDeviation="21.4521"/>
<feComposite in2="hardAlpha" operator="out"/>
<feColorMatrix type="matrix" values="0 0 0 0 0.0422944 0 0 0 0 0.551667 0 0 0 0 0.256231 0 0 0 0.3 0"/>
<feBlend mode="normal" in2="BackgroundImageFix" result="effect1_dropShadow_2900_51695"/>
<feBlend mode="normal" in="SourceGraphic" in2="effect1_dropShadow_2900_51695" result="shape"/>
</filter>
<filter id="filter1_d_2900_51695" x="164.856" y="-38.7921" width="128.501" height="155.553" filterUnits="userSpaceOnUse" color-interpolation-filters="sRGB">
<feFlood flood-opacity="0" result="BackgroundImageFix"/>
<feColorMatrix in="SourceAlpha" type="matrix" values="0 0 0 0 0 0 0 0 0 0 0 0 0 0 0 0 0 0 127 0" result="hardAlpha"/>
<feOffset dy="5.57197"/>
<feGaussianBlur stdDeviation="21.4521"/>
<feComposite in2="hardAlpha" operator="out"/>
<feColorMatrix type="matrix" values="0 0 0 0 0.751667 0 0 0 0 0.751667 0 0 0 0 0.751667 0 0 0 0.5 0"/>
<feBlend mode="normal" in2="BackgroundImageFix" result="effect1_dropShadow_2900_51695"/>
<feBlend mode="normal" in="SourceGraphic" in2="effect1_dropShadow_2900_51695" result="shape"/>
</filter>
<filter id="filter2_d_2900_51695" x="181.526" y="-22.8611" width="88.175" height="120.263" filterUnits="userSpaceOnUse" color-interpolation-filters="sRGB">
<feFlood flood-opacity="0" result="BackgroundImageFix"/>
<feColorMatrix in="SourceAlpha" type="matrix" values="0 0 0 0 0 0 0 0 0 0 0 0 0 0 0 0 0 0 127 0" result="hardAlpha"/>
<feOffset dy="3.41225"/>
<feGaussianBlur stdDeviation="13.1371"/>
<feComposite in2="hardAlpha" operator="out"/>
<feColorMatrix type="matrix" values="0 0 0 0 0.0431373 0 0 0 0 0.470588 0 0 0 0 0.278431 0 0 0 0.6 0"/>
<feBlend mode="normal" in2="BackgroundImageFix" result="effect1_dropShadow_2900_51695"/>
<feBlend mode="normal" in="SourceGraphic" in2="effect1_dropShadow_2900_51695" result="shape"/>
</filter>
<linearGradient id="paint0_linear_2900_51695" x1="184.43" y1="-13.2339" x2="209.182" y2="115.174" gradientUnits="userSpaceOnUse">
<stop stop-color="#00D074"/>
<stop offset="0.0001" stop-color="#00D074"/>
<stop offset="1" stop-color="#3CFFA9"/>
</linearGradient>
<linearGradient id="paint1_linear_2900_51695" x1="262.482" y1="65.3189" x2="273.492" y2="6.13586" gradientUnits="userSpaceOnUse">
<stop stop-color="#0A9759"/>
<stop offset="0.604677" stop-color="#00D074"/>
<stop offset="1" stop-color="#89E1AC"/>
</linearGradient>
<linearGradient id="paint2_linear_2900_51695" x1="223.529" y1="115.69" x2="325.91" y2="35.7189" gradientUnits="userSpaceOnUse">
<stop stop-color="#5ED6AE"/>
<stop offset="0.0001" stop-color="#00D074"/>
<stop offset="1" stop-color="#48FF91"/>
</linearGradient>
<linearGradient id="paint3_linear_2900_51695" x1="184.375" y1="18.4945" x2="241.587" y2="82.3513" gradientUnits="userSpaceOnUse">
<stop stop-color="#00D074"/>
<stop offset="0.0001" stop-color="#00D072"/>
<stop offset="1" stop-color="#009250"/>
</linearGradient>
<linearGradient id="paint4_linear_2900_51695" x1="218.328" y1="54.0283" x2="243.757" y2="49.9615" gradientUnits="userSpaceOnUse">
<stop offset="0.0001" stop-color="#00D074"/>
<stop offset="1" stop-color="#09DD96"/>
</linearGradient>
</defs>
</svg>
