<svg width="30" height="32" viewBox="0 0 30 32" fill="none" xmlns="http://www.w3.org/2000/svg">
<g id="Group">
<path id="Vector" d="M15.9975 5.53258L15.9975 5.53257C16.5053 5.02472 17.1778 4.74609 17.896 4.74609H26.7539C28.234 4.74609 29.4388 5.95099 29.4388 7.43097V16.2885C29.4388 17.0066 29.1602 17.6792 28.6524 18.187L16.1249 30.7145L16.1248 30.7146C15.6018 31.2376 14.9152 31.4995 14.2263 31.4995C13.5375 31.4995 12.8508 31.2377 12.3278 30.7147L11.9743 31.0682L12.3278 30.7147L3.47008 21.8572L3.47007 21.8571C2.96222 21.3494 2.68359 20.6767 2.68359 19.9586C2.68359 19.2405 2.96222 18.5678 3.47007 18.06L3.47009 18.06L15.9975 5.53258ZM18.8223 11.6777C18.8223 13.71 20.475 15.3626 22.5073 15.3626C24.5396 15.3626 26.1922 13.71 26.1922 11.6777C26.1922 9.64533 24.5396 7.99272 22.5073 7.99272C20.475 7.99272 18.8223 9.64533 18.8223 11.6777Z" fill="#263027" stroke="#263027"/>
<path id="Vector_2" d="M13.8744 1.28649L13.8744 1.28647C14.3822 0.778623 15.0548 0.5 15.773 0.5H24.6309C25.5281 0.5 26.3252 0.943395 26.8131 1.62362C26.7934 1.62342 26.7738 1.62331 26.754 1.62331H17.8963C16.3457 1.62331 14.8856 2.22818 13.7892 3.32451L1.26211 15.8518C1.26205 15.8518 1.26199 15.8519 1.26193 15.8519C1.05247 16.0612 0.859614 16.2859 0.684881 16.5238C0.603073 16.2651 0.560547 15.9924 0.560547 15.7125C0.560547 14.9944 0.839173 14.3217 1.34702 13.8139L1.34704 13.8139L13.8744 1.28649Z" fill="#263027" stroke="#263027"/>
</g>
</svg>
