<svg width="32" height="28" viewBox="0 0 32 28" fill="none" xmlns="http://www.w3.org/2000/svg">
<g id="Group">
<path id="Vector" d="M29.3333 4.66608H22.6667V3.3327C22.6667 1.86202 21.4708 0.666016 20 0.666016H12C10.5293 0.666016 9.33331 1.86195 9.33331 3.3327V4.66602H2.66669C1.19594 4.66608 2.77207e-08 5.86202 2.77207e-08 7.3327V11.3327C2.77207e-08 12.8035 1.19594 13.9994 2.66669 13.9994H13.3334V13.3327C13.3333 13.2451 13.3505 13.1584 13.384 13.0775C13.4175 12.9966 13.4666 12.9231 13.5285 12.8612C13.5904 12.7992 13.664 12.7501 13.7449 12.7166C13.8258 12.6832 13.9125 12.666 14.0001 12.666H18.0001C18.0876 12.666 18.1743 12.6832 18.2553 12.7166C18.3362 12.7501 18.4097 12.7992 18.4716 12.8612C18.5335 12.9231 18.5826 12.9966 18.6161 13.0775C18.6496 13.1584 18.6668 13.2451 18.6667 13.3327V13.9994H29.3334C30.8041 13.9994 32 12.8035 32 11.3327V7.3327C32 5.86202 30.8041 4.66608 29.3333 4.66608ZM20 4.66608H12V3.3327H20V4.66608ZM31.6302 14.7188C31.519 14.6637 31.3947 14.6406 31.2712 14.6522C31.1477 14.6639 31.0299 14.7097 30.9309 14.7845C30.457 15.1433 29.9049 15.3327 29.3333 15.3327H18.6667V17.3327C18.6667 17.4203 18.6495 17.507 18.6161 17.5879C18.5826 17.6688 18.5335 17.7423 18.4715 17.8042C18.4096 17.8662 18.3361 17.9153 18.2552 17.9488C18.1743 17.9822 18.0876 17.9994 18 17.9994H14C13.9124 17.9994 13.8257 17.9822 13.7448 17.9488C13.6639 17.9153 13.5904 17.8662 13.5285 17.8042C13.4665 17.7423 13.4174 17.6688 13.3839 17.5879C13.3505 17.507 13.3333 17.4203 13.3333 17.3327V15.3327H2.66669C2.09506 15.3327 1.543 15.1433 1.069 14.7845C0.970345 14.7091 0.852461 14.6629 0.728812 14.6513C0.605164 14.6397 0.480738 14.663 0.36975 14.7188C0.258663 14.774 0.165199 14.8592 0.0998764 14.9647C0.0345538 15.0701 -3.5746e-05 15.1918 2.77207e-08 15.3158L2.77207e-08 24.6661C2.77207e-08 26.1368 1.19594 27.3328 2.66669 27.3328H29.3334C30.8041 27.3328 32.0001 26.1368 32.0001 24.6661V15.3158C32.0001 15.1917 31.9655 15.0701 31.9001 14.9646C31.8348 14.8592 31.7413 14.774 31.6302 14.7188Z" fill="#263027"/>
</g>
</svg>
