<svg width="170" height="170" viewBox="0 0 170 170" fill="none" xmlns="http://www.w3.org/2000/svg">
<path d="M80.4673 102.114C82.8359 101.338 85.3878 101.327 87.7633 102.081L132.601 116.311C133.452 116.581 134.029 117.374 134.025 118.269L133.953 134.644C133.949 135.516 133.394 136.29 132.569 136.571L85.9237 152.46C84.4736 152.954 82.8996 152.944 81.4562 152.43L36.9196 136.589C36.0992 136.297 35.5539 135.516 35.5616 134.644L35.706 118.234C35.7137 117.356 36.2799 116.581 37.1128 116.309L80.4673 102.114Z" fill="#F3F2FF"/>
<path d="M36.5318 120.077L65.8261 130.545L82.862 135.956C82.9524 135.985 83.0491 135.988 83.1412 135.965L97.8884 132.246L132.57 120.375C132.637 120.352 132.699 120.315 132.752 120.266L133.7 119.386C133.804 119.289 133.863 119.154 133.863 119.012V117.933C133.863 117.839 133.837 117.746 133.787 117.666L133.273 116.83C133.214 116.735 133.126 116.661 133.021 116.621L129.866 115.407L105.628 107.753L87.938 102.31L85.4438 101.728C85.4058 101.719 85.3669 101.715 85.3279 101.715H82.894C82.855 101.715 82.816 101.719 82.778 101.728L80.2839 102.31L36.6941 116.445C36.5608 116.488 36.4511 116.585 36.3908 116.711L35.7308 118.097C35.6696 118.226 35.6648 118.374 35.7177 118.506L36.2297 119.786C36.284 119.922 36.394 120.028 36.5318 120.077Z" fill="white"/>
<path d="M35.6339 118.213L35.5557 134.656C35.5516 135.522 36.0943 136.296 36.9097 136.588L80.3224 152.106C82.4993 152.884 84.8759 152.9 87.0631 152.152L132.567 136.574C133.392 136.291 133.947 135.515 133.947 134.643V118.128" stroke="black" stroke-width="0.5"/>
<path d="M36.8667 120.161C49.3854 124.845 79.6547 136 84 136C89.5 136 104.011 130.139 104.011 130.139L132.629 120.23C134.487 119.587 134.451 116.948 132.577 116.355L88.1892 102.323C85.4812 101.467 82.5732 101.48 79.8728 102.359L36.9702 116.335C35.1389 116.932 35.0629 119.486 36.8667 120.161Z" stroke="black" stroke-width="0.5" stroke-linecap="round"/>
<circle cx="84.0092" cy="128.009" r="16.669" fill="white" stroke="black" stroke-width="0.680367"/>
<rect x="76.4941" y="127.481" width="15" height="1" fill="#1D1D1B"/>
<rect x="50.25" y="47.25" width="71.5" height="44.5" rx="6.75" fill="#ECDAF6" stroke="black" stroke-width="0.5"/>
<rect x="46.25" y="44.25" width="71.5" height="45.5" rx="6.75" fill="white" stroke="black" stroke-width="0.5"/>
<path d="M67.2788 72.4498C66.2518 73.2476 66.0734 74.7435 66.8833 75.7621C67.7002 76.7894 69.1973 76.9234 70.1835 76.057L79.725 67.6746L77.0396 64.8671L67.2788 72.4498ZM80.1016 67.3438L81.7405 65.9032L79.3979 63.034L77.4369 64.5585L80.1016 67.3438Z" fill="#F3F2FF" stroke="#1D1D1B" stroke-width="0.5"/>
<rect x="-0.349829" y="-0.0321144" width="11.648" height="8.32766" transform="matrix(-0.634609 -0.772834 -0.764709 0.644376 90.5755 63.7032)" fill="#F3F2FF" stroke="#1D1D1B" stroke-width="0.5"/>
<rect x="-0.0482472" y="0.35246" width="12.6847" height="3.69068" rx="1.84534" transform="matrix(-0.792695 0.609619 0.599706 0.80022 83.3828 51.0998)" fill="#F3F2FF" stroke="#1D1D1B" stroke-width="0.5"/>
<rect x="-0.0482472" y="0.35246" width="12.6847" height="3.69068" rx="1.84534" transform="matrix(-0.792695 0.609619 0.599706 0.80022 91.7598 61.8664)" fill="#F3F2FF" stroke="#1D1D1B" stroke-width="0.5"/>
<path d="M96.9648 75.3281H86.6377C85.0994 75.3281 83.8517 76.5751 83.8516 78.1133V79.75H99.75V78.1133C99.7498 76.5752 98.503 75.3283 96.9648 75.3281Z" fill="#F3F2FF" stroke="#1D1D1B" stroke-width="0.5"/>
</svg>
