<svg width="150" height="150" viewBox="0 0 150 150" fill="none" xmlns="http://www.w3.org/2000/svg">
<path d="M73.7321 92.9408C74.5881 92.4886 75.6081 92.4859 76.4665 92.9337L124.803 118.146C126.182 118.866 126.056 120.901 124.599 121.441L77.64 138.842C74.9595 139.835 72.0152 139.819 69.346 138.795L25.3132 121.903C23.8754 121.352 23.7572 119.34 25.1202 118.62L73.7321 92.9408Z" fill="#ECDAF6"/>
<path d="M71.001 90.1005C73.0909 89.4162 75.3425 89.406 77.4386 90.0712L117.001 102.627C117.752 102.866 118.261 103.565 118.258 104.355L118.194 118.804C118.191 119.573 117.701 120.256 116.973 120.503L75.8155 134.524C74.536 134.96 73.1471 134.95 71.8735 134.497L32.5765 120.52C31.8526 120.262 31.3715 119.573 31.3783 118.804L31.5056 104.324C31.5125 103.55 32.012 102.866 32.747 102.625L71.001 90.1005Z" fill="#DDFBEE"/>
<path d="M32.2335 105.95L58.0195 115.165C58.0606 115.18 58.1036 115.188 58.1471 115.191L86.2846 116.683C86.3421 116.686 86.3997 116.678 86.4542 116.66L116.973 106.213C117.032 106.193 117.087 106.16 117.133 106.117L117.97 105.34C118.062 105.255 118.114 105.136 118.114 105.01V104.058C118.114 103.975 118.091 103.893 118.047 103.822L117.593 103.085C117.542 103.001 117.464 102.936 117.371 102.901L114.587 101.83L93.2004 95.0762L77.592 90.2736L75.3912 89.7601C75.3577 89.7523 75.3234 89.7484 75.2889 89.7484H73.1414C73.1069 89.7484 73.0726 89.7523 73.0391 89.7601L70.8383 90.2736L32.3768 102.746C32.2591 102.784 32.1623 102.869 32.1092 102.98L31.5268 104.203C31.4728 104.317 31.4686 104.448 31.5152 104.564L31.967 105.694C32.0149 105.813 32.112 105.907 32.2335 105.95Z" fill="#FEFDF8"/>
<path d="M31.442 104.306L31.373 118.814C31.3694 119.578 31.8483 120.261 32.5677 120.519L70.8731 134.211C72.7938 134.898 74.8908 134.912 76.8207 134.251L116.971 120.506C117.699 120.257 118.189 119.572 118.189 118.802V104.231" stroke="black" stroke-width="0.450243"/>
<path d="M55.0797 114.302L32.6332 106.026C31.0303 105.435 31.0741 103.153 32.6984 102.624L70.4761 90.317C72.8588 89.5408 75.4247 89.5296 77.8141 90.2849L116.98 102.666C118.633 103.189 118.665 105.518 117.026 106.085L91.7745 114.828" stroke="black" stroke-width="0.450243" stroke-linecap="round"/>
<circle cx="73.6899" cy="110.76" r="14.7079" fill="white" stroke="black" stroke-width="0.600324"/>
<path d="M73.2995 116.829C72.6751 116.829 72.0448 116.721 71.4084 116.505C70.7721 116.289 70.2018 115.977 69.6975 115.568C69.2052 115.16 68.8571 114.656 68.6529 114.056L71.3904 113.407C71.5705 113.719 71.8107 113.954 72.1108 114.11C72.423 114.254 72.7532 114.326 73.1013 114.326C73.6296 114.326 74.0559 114.17 74.38 113.857C74.7162 113.533 74.8843 113.101 74.8843 112.561C74.8843 112.069 74.7222 111.654 74.398 111.318C74.0859 110.97 73.6536 110.796 73.1013 110.796C72.7652 110.796 72.465 110.874 72.2009 111.03C71.9487 111.186 71.7626 111.372 71.6426 111.588L69.0312 111.012L69.8596 104.006H77.1715V106.636H72.3089L71.9487 109.211C72.2609 109.031 72.6151 108.893 73.0113 108.797C73.4075 108.689 73.8397 108.635 74.308 108.635C74.9563 108.647 75.5507 108.815 76.091 109.139C76.6433 109.463 77.0815 109.907 77.4057 110.472C77.7298 111.024 77.8919 111.666 77.8919 112.399C77.8919 113.275 77.6938 114.05 77.2976 114.722C76.9014 115.382 76.3611 115.899 75.6767 116.271C74.9924 116.643 74.1999 116.829 73.2995 116.829Z" fill="#1D1D1B"/>
<path d="M52.2699 38.114C45.0661 44.4174 36.8574 58.5491 43.8654 73.6082C50.9195 88.7664 67.7282 89.2166 77.3333 88.7664C85.1876 89.1416 101.673 84.6474 106.149 69.631C110.801 54.0226 100.696 42.1162 95.4931 37.1385" stroke="black" stroke-width="0.450243"/>
<path d="M58.0486 29.8596C57.2493 31.7127 56.0648 33.6602 55.2678 34.8039C55.1125 35.0268 55.3007 35.3357 55.5672 35.2831C62.2695 33.9589 64.1524 29.1216 64.4059 25.7872C64.42 25.6017 64.2608 25.4561 64.0783 25.4926C62.9556 25.7168 59.4281 26.6618 58.0486 29.8596Z" fill="#BEF5DF" stroke="black" stroke-width="0.450243"/>
<path d="M51.0214 40.0354C55.7013 40.3907 59.4106 39.8784 62.3314 36.3114C62.4712 36.1407 62.3748 35.8861 62.1577 35.8467C56.5755 34.8329 53.1303 36.8277 50.8186 39.5609C50.6648 39.7428 50.7838 40.0173 51.0214 40.0354Z" fill="#BEF5DF" stroke="black" stroke-width="0.450243"/>
<path d="M50.8511 38.93C54.2629 35.8823 56.494 33.1448 55.5919 28.7089C55.55 28.503 55.3094 28.4124 55.139 28.5354C50.6544 31.7712 50.7886 34.9186 50.3483 38.6636C50.3158 38.94 50.6436 39.1153 50.8511 38.93Z" fill="#BEF5DF" stroke="black" stroke-width="0.450243"/>
<path d="M44.6252 47.6345C47.6074 42.4404 49.4504 38.1854 48.3657 30.781C48.3338 30.563 48.0842 30.4541 47.9086 30.5872C43.2014 34.1535 41.9778 41.6096 44.0989 47.5913C44.1826 47.8273 44.5005 47.8517 44.6252 47.6345Z" fill="#BEF5DF" stroke="black" stroke-width="0.450243"/>
<path d="M40.9639 57.0102C42.8154 52.6593 42.4159 45.6798 38.5822 40.1343C38.4477 39.9396 38.1528 39.9791 38.0707 40.2011C35.5489 47.0137 36.1488 52.5111 40.4905 57.0919C40.6335 57.2428 40.8825 57.2015 40.9639 57.0102Z" fill="#BEF5DF" stroke="black" stroke-width="0.450243"/>
<path d="M42.2972 65.4604C51.0091 56.1981 48.6789 55.9635 50.3937 50.6998C50.4749 50.4505 50.2265 50.2149 49.9887 50.3254C43.2669 53.4498 40.9296 59.1235 41.7858 65.3118C41.8196 65.5567 42.1278 65.6405 42.2972 65.4604Z" fill="#BEF5DF" stroke="black" stroke-width="0.450243"/>
<path d="M48.3644 79.4577C52.1143 71.4377 49.517 65.3683 48.117 62.1381C48.0264 61.9291 47.7453 61.8969 47.6112 62.081C43.2209 68.1079 45.5878 75.556 47.852 79.4853C47.9696 79.6895 48.2646 79.6712 48.3644 79.4577Z" fill="#BEF5DF" stroke="black" stroke-width="0.450243"/>
<path d="M89.7027 85.9479C96.4465 83.6394 96.8724 75.8369 95.809 72.943C95.7377 72.749 95.4941 72.7117 95.35 72.8599C92.7737 75.5111 89.0568 79.4704 89.3194 85.6861C89.3275 85.8789 89.52 86.0104 89.7027 85.9479Z" fill="#BEF5DF" stroke="black" stroke-width="0.450243"/>
<path d="M100.071 79.2182C105.631 74.52 103.479 64.8576 100.653 62.0873C100.511 61.9488 100.282 62.0053 100.207 62.1883C98.7556 65.7085 96.8651 72.475 99.6192 79.1069C99.694 79.2871 99.9221 79.3442 100.071 79.2182Z" fill="#BEF5DF" stroke="black" stroke-width="0.450243"/>
<path d="M106.656 66.1053C109.113 57.9627 102.102 50.7052 98.2895 50.5363C98.1164 50.5287 97.9902 50.6878 98.0151 50.8593C99.2114 59.1084 104.416 62.9638 106.041 66.1289C106.172 66.3827 106.574 66.3785 106.656 66.1053Z" fill="#BEF5DF" stroke="black" stroke-width="0.450243"/>
<path d="M104.089 49.8451C103.562 44.494 97.2376 42.4088 93.4563 42.447C93.226 42.4493 93.105 42.7116 93.2346 42.902C98.5166 50.6676 101.544 49.0074 103.548 50.1334C103.781 50.2643 104.115 50.1112 104.089 49.8451Z" fill="#BEF5DF" stroke="black" stroke-width="0.450243"/>
<path d="M94.143 36.0128C91.0606 32.0498 89.5573 26.1489 83.9474 25.5329C83.7534 25.5116 83.5974 25.6923 83.6358 25.8837C85.5396 35.3757 92.143 34.0134 94.143 36.0128Z" fill="#BEF5DF" stroke="black" stroke-width="0.450243"/>
<path d="M98.5703 39.6898C97.0951 34.913 98.4931 32.8925 93.3939 28.701C93.2115 28.5511 92.9359 28.6705 92.916 28.9057C92.184 37.5693 97.4151 37.1306 98.5703 39.6898Z" fill="#BEF5DF" stroke="black" stroke-width="0.450243"/>
<path d="M97.3063 39.4623C94.3362 36.696 91.833 34.3645 85.8895 35.8552C85.6606 35.9126 85.5943 36.2048 85.7718 36.3604C91.5014 41.3876 94.5286 40.1499 97.0294 40.1221C97.3348 40.1187 97.538 39.6781 97.3145 39.4699L97.3063 39.4623Z" fill="#BEF5DF" stroke="black" stroke-width="0.450243"/>
<path d="M90.6586 86.93C96.4231 91.1592 105.118 86.5382 107.088 83.9894C107.214 83.8259 107.109 83.6044 106.906 83.5641C103.364 82.8595 99.458 81.3615 90.6926 86.4444C90.5119 86.5492 90.4901 86.8065 90.6586 86.93Z" fill="#BEF5DF" stroke="black" stroke-width="0.450243"/>
<path d="M100.565 80.247C107.526 81.893 113.853 74.071 114.685 70.9413C114.738 70.7416 114.555 70.5787 114.352 70.6211C110.806 71.3643 106.508 71.6877 100.407 79.7867C100.281 79.9536 100.362 80.1989 100.565 80.247Z" fill="#BEF5DF" stroke="black" stroke-width="0.450243"/>
<path d="M107.462 69.4238C114.735 65.6765 115.208 60.4695 115.509 54.8204C115.523 54.565 115.231 54.4085 115.026 54.5614C111.969 56.8415 106.807 60.5616 107.033 69.1701C107.038 69.386 107.27 69.5227 107.462 69.4238Z" fill="#BEF5DF" stroke="black" stroke-width="0.450243"/>
<path d="M108.061 57.2399C114.727 47.317 111.485 45.5223 110.669 40.1351C110.631 39.8822 110.324 39.7785 110.165 39.9793C107.662 43.1507 104.471 51.736 107.566 57.2337C107.672 57.4215 107.941 57.4188 108.061 57.2399Z" fill="#BEF5DF" stroke="black" stroke-width="0.450243"/>
<path d="M104.496 47.7115C107.354 35.6433 103.245 32.5009 100.63 30.3371C100.423 30.1652 100.09 30.3263 100.089 30.5959C100.081 33.9068 99.0511 41.0888 103.976 47.8252C104.123 48.0272 104.439 47.9551 104.496 47.7115Z" fill="#BEF5DF" stroke="black" stroke-width="0.450243"/>
<path d="M42.2314 69.586C40.5345 62.3654 39.193 58.1038 33.5148 54.5507C33.3356 54.4385 33.0993 54.5475 33.0691 54.7568C31.9784 62.3115 36.0325 67.3336 41.8281 69.9253C42.0512 70.025 42.2873 69.8238 42.2314 69.586Z" fill="#BEF5DF" stroke="black" stroke-width="0.450243"/>
<path d="M47.5601 79.7471C43.0684 73.9145 40.9413 71.2507 34.3402 70.3982C34.1304 70.3711 33.9601 70.5688 34.0187 70.772C36.1248 78.0726 41.0373 80.3073 47.3335 80.2257C47.5778 80.2225 47.7092 79.9407 47.5601 79.7471Z" fill="#BEF5DF" stroke="black" stroke-width="0.450243"/>
<path d="M57.4573 86.4023C50.7839 83.4178 48.0426 81.5759 41.8738 83.9559C41.6765 84.0321 41.621 84.287 41.7713 84.4358C47.032 89.6451 54.024 88.3888 57.4625 86.9318C57.6976 86.8321 57.6904 86.5065 57.4573 86.4023Z" fill="#BEF5DF" stroke="black" stroke-width="0.450243"/>
<path d="M58.8119 86.5456C58.0847 79.5165 58.401 80.2542 53.1284 73.1453C52.981 72.9466 52.6673 72.9985 52.6062 73.2382C50.8183 80.2628 55.3908 84.6892 58.3508 86.8214C58.558 86.9706 58.8381 86.7996 58.8119 86.5456Z" fill="#BEF5DF"/>
<path d="M58.8793 92.1432C56.413 94.3849 58.4418 95.4407 59.5546 95.0698C63.3819 93.7941 65.7088 90.8675 73.0628 90.4173C81.3923 89.9073 86.1199 94.3944 88.6712 94.8447C91.2226 95.2949 91.5978 93.0437 87.7699 91.2427C83.344 89.1604 76.7648 88.4662 73.2879 88.4662C69.711 88.6163 62.1818 89.1416 58.8793 92.1432Z" fill="#BEF5DF"/>
<path d="M58.8119 86.5456C58.0847 79.5165 58.401 80.2542 53.1284 73.1453C52.981 72.9466 52.6673 72.9985 52.6062 73.2382C50.8183 80.2628 55.3908 84.6892 58.3508 86.8214C58.558 86.9706 58.8381 86.7996 58.8119 86.5456Z" stroke="black" stroke-width="0.450243"/>
<path d="M58.8793 92.1432C56.413 94.3849 58.4418 95.4407 59.5546 95.0698C63.3819 93.7941 65.7088 90.8675 73.0628 90.4173C81.3923 89.9073 86.1199 94.3944 88.6712 94.8447C91.2226 95.2949 91.5978 93.0437 87.7699 91.2427C83.344 89.1604 76.7648 88.4662 73.2879 88.4662C69.711 88.6163 62.1818 89.1416 58.8793 92.1432Z" stroke="black" stroke-width="0.450243"/>
<path d="M44.749 50.0211C48.0476 49.7067 53.5337 46.3903 55.4911 42.7822C55.6015 42.5788 55.4338 42.3452 55.2033 42.3668C50.4644 42.8111 48.5256 42.5876 44.4963 49.5965C44.3821 49.795 44.521 50.0429 44.749 50.0211Z" fill="#BEF5DF" stroke="black" stroke-width="0.450243"/>
</svg>
