<svg width="150" height="150" viewBox="0 0 150 150" fill="none" xmlns="http://www.w3.org/2000/svg">
<path d="M73.7321 92.9408C74.5881 92.4886 75.6081 92.4859 76.4665 92.9337L124.803 118.146C126.182 118.866 126.056 120.901 124.599 121.441L77.64 138.842C74.9595 139.835 72.0152 139.819 69.346 138.795L25.3132 121.903C23.8754 121.352 23.7572 119.34 25.1202 118.62L73.7321 92.9408Z" fill="#ECDAF6"/>
<path d="M71.001 90.1005C73.0909 89.4162 75.3425 89.406 77.4386 90.0712L117.001 102.627C117.752 102.866 118.261 103.565 118.258 104.355L118.194 118.804C118.191 119.573 117.701 120.256 116.973 120.503L75.8155 134.524C74.536 134.96 73.1471 134.95 71.8735 134.497L32.5765 120.52C31.8526 120.262 31.3715 119.573 31.3783 118.804L31.5056 104.324C31.5125 103.55 32.012 102.866 32.747 102.625L71.001 90.1005Z" fill="white"/>
<path d="M31.442 104.306L31.373 118.814C31.3694 119.578 31.8483 120.261 32.5677 120.519L70.8731 134.211C72.7938 134.898 74.8908 134.912 76.8207 134.251L116.971 120.506C117.699 120.257 118.189 119.572 118.189 118.802V104.231" stroke="black" stroke-width="0.450243"/>
<path d="M55.0797 114.302L32.6332 106.026C31.0303 105.435 31.0741 103.153 32.6984 102.624L70.4761 90.317C72.8588 89.5408 75.4247 89.5296 77.8141 90.2849L116.98 102.666C118.633 103.189 118.665 105.518 117.026 106.085L91.7745 114.828" stroke="black" stroke-width="0.450243" stroke-linecap="round"/>
<circle cx="73.3897" cy="110.159" r="16.2087" fill="#FAB880" stroke="black" stroke-width="0.600324"/>
<circle cx="73.4646" cy="110.234" r="11.9314" fill="white" stroke="black" stroke-width="0.600324"/>
<path d="M73.2873 116.379C72.4949 116.379 71.7685 116.259 71.1081 116.018C70.4598 115.778 69.9195 115.43 69.4873 114.974C69.067 114.506 68.7909 113.935 68.6588 113.263L71.3963 112.597C71.4683 112.741 71.5584 112.915 71.6664 113.119C71.7865 113.323 71.9606 113.503 72.1887 113.659C72.4168 113.803 72.723 113.875 73.1072 113.875C73.6115 113.875 74.0077 113.743 74.2959 113.479C74.584 113.203 74.7281 112.843 74.7281 112.398C74.7281 112.134 74.6621 111.888 74.53 111.66C74.4099 111.42 74.1818 111.234 73.8456 111.102C73.5214 110.958 73.0592 110.886 72.4589 110.886H71.5224V109.013H72.3508C73.0592 109.013 73.7255 109.103 74.3499 109.283C74.9862 109.451 75.5505 109.703 76.0428 110.039C76.5351 110.375 76.9193 110.772 77.1954 111.228C77.4836 111.684 77.6277 112.2 77.6277 112.777C77.6277 113.545 77.4235 114.199 77.0153 114.74C76.6071 115.28 76.0728 115.688 75.4125 115.964C74.7521 116.241 74.0437 116.379 73.2873 116.379ZM71.5224 110.291V108.544H72.4589C73.2153 108.544 73.7496 108.418 74.0617 108.166C74.3739 107.914 74.53 107.572 74.53 107.14C74.53 106.888 74.47 106.665 74.3499 106.473C74.2298 106.281 74.0617 106.131 73.8456 106.023C73.6295 105.903 73.3834 105.843 73.1072 105.843C72.9031 105.843 72.693 105.879 72.4769 105.951C72.2608 106.023 72.0627 106.149 71.8826 106.329C71.7025 106.509 71.5644 106.767 71.4683 107.104L68.7669 106.455C68.8989 105.771 69.1871 105.201 69.6313 104.744C70.0876 104.276 70.6279 103.928 71.2522 103.7C71.8766 103.46 72.5189 103.34 73.1793 103.34C73.9717 103.34 74.6861 103.49 75.3224 103.79C75.9708 104.078 76.481 104.486 76.8532 105.015C77.2374 105.531 77.4295 106.137 77.4295 106.833C77.4295 107.434 77.2795 107.95 76.9793 108.382C76.6911 108.815 76.3009 109.175 75.8087 109.463C75.3284 109.739 74.7881 109.949 74.1878 110.093C73.5875 110.225 72.9751 110.291 72.3508 110.291H71.5224Z" fill="#1D1D1B"/>
<path d="M97.6678 18.7427C97.8659 20.1733 98.991 21.2984 100.422 21.4966L100.711 21.5366L100.422 21.5767C98.991 21.7748 97.8659 22.8999 97.6678 24.3306L97.6277 24.6196L97.5877 24.3306C97.3896 22.8999 96.2645 21.7748 94.8338 21.5767L94.5438 21.5366L94.8338 21.4966C96.2645 21.2984 97.3896 20.1733 97.5877 18.7427L97.6277 18.4526L97.6678 18.7427Z" stroke="black" stroke-width="0.450243"/>
<path d="M28.2989 72.5399C28.5398 74.5854 30.0759 76.2328 32.086 76.6259C30.0759 77.0189 28.5398 78.6663 28.2989 80.7118L28.2901 80.786L28.2813 80.7118C28.0404 78.6659 26.5038 77.0185 24.4932 76.6259C26.5038 76.2331 28.0404 74.5858 28.2813 72.5399L28.2901 72.4647L28.2989 72.5399Z" stroke="black" stroke-width="0.450243"/>
<path d="M55.1842 16.0587L57.0704 23.6804" stroke="black" stroke-width="0.450243" stroke-linecap="round"/>
<path d="M118.264 75.4908L121.866 66.9362" stroke="black" stroke-width="0.450243" stroke-linecap="round"/>
<path d="M106.708 80.4434C106.708 82.3498 92.6641 83.8953 75.3406 83.8953C58.0171 83.8953 43.9737 82.3498 43.9737 80.4434C43.9737 78.537 57.717 77.2917 75.0405 77.2917C92.3639 77.2917 106.708 78.537 106.708 80.4434Z" fill="#D9D9D9"/>
<path d="M44.349 76.3162L43.9738 71.5136L38.7209 42.548C40.8971 46.225 47.7258 52.3783 47.7258 52.3783C47.7258 52.3783 50.5049 54.994 52.5284 56.3555L57.406 44.2739L64.2347 54.9297C69.4125 47.6508 72.1139 44.6491 75.4908 36.4697C77.8834 42.9877 82.0735 49.2163 86.5217 54.5545L93.4254 44.6491L98.0779 56.5055C99.5071 55.5332 101.258 54.058 102.805 52.7535C108.058 48.3261 110.41 44.6241 111.81 42.9232L109.559 55.53L106.633 71.1384C106.357 72.6643 105.882 75.7909 106.032 76.8415C106.1 77.3172 107.233 76.6164 106.633 79.9182C106.032 83.22 85.4711 83.8953 75.5658 83.8953C71.6845 83.8953 46.375 83.8953 43.7486 79.9182C43.5985 78.5674 43.7486 76.7665 44.349 76.3162Z" fill="#FAB880"/>
<path d="M44.349 76.3162L43.9738 71.5136L38.7209 42.548C40.8971 46.225 47.7258 52.3783 47.7258 52.3783C47.7258 52.3783 50.5049 54.994 52.5284 56.3555M44.349 76.3162C44.349 76.3162 54.6295 74.0429 75.5658 74.2901C101.453 74.5959 106.032 76.8415 106.032 76.8415M44.349 76.3162C43.7486 76.7665 43.5985 78.5674 43.7486 79.9182M106.032 76.8415C105.882 75.7909 106.357 72.6643 106.633 71.1384L109.559 55.53L111.81 42.9232C110.41 44.6241 108.058 48.3261 102.805 52.7535C101.258 54.058 99.5071 55.5332 98.0779 56.5055M106.032 76.8415C106.1 77.3172 107.233 76.6164 106.633 79.9182M106.633 79.9182C106.032 83.22 85.4711 83.8953 75.5658 83.8953C71.6845 83.8953 46.375 83.8953 43.7486 79.9182M106.633 79.9182C104.832 79.2178 96.0969 77.712 75.5658 77.2918C56.0553 76.8924 45.7997 78.8676 43.7486 79.9182M86.5217 54.5545C88.4071 56.8171 89.6734 58.3065 91.6245 60.0324C92.9752 59.4321 95.2785 58.4101 98.0779 56.5055M86.5217 54.5545L93.4254 44.6491L98.0779 56.5055M86.5217 54.5545C82.0735 49.2163 77.8834 42.9877 75.4908 36.4697C72.1139 44.6491 69.4125 47.6508 64.2347 54.9297M52.5284 56.3555C54.945 57.9814 56.9558 59.132 59.282 60.1825C60.4934 58.9711 62.3463 57.0525 64.2347 54.9297M52.5284 56.3555L57.406 44.2739L64.2347 54.9297" stroke="black" stroke-width="0.450243"/>
<path d="M106.333 80.0683C106.032 82.1694 91.7323 83.7453 74.7403 83.7453C52.1533 83.5201 45.2495 81.494 44.1239 79.9932C45.9249 78.9427 57.8563 77.0666 74.7403 77.4419C91.6996 78.1172 100.404 78.4924 106.333 80.0683Z" fill="#D28D58" fill-opacity="0.6"/>
<path d="M75.4905 31.5925C77.4342 31.5925 79.0179 33.2006 79.0179 35.1941C79.0178 37.1876 77.4342 38.7957 75.4905 38.7957C73.5469 38.7956 71.9642 37.1876 71.9642 35.1941C71.9642 33.2006 73.5469 31.5926 75.4905 31.5925Z" fill="#FAB880" stroke="black" stroke-width="0.450243"/>
<path d="M39.0207 39.847C40.8812 39.847 42.3975 41.3875 42.3976 43.2982C42.3976 45.209 40.8813 46.7503 39.0207 46.7503C37.1603 46.7501 35.6447 45.2088 35.6447 43.2982C35.6448 41.3876 37.1603 39.8472 39.0207 39.847Z" fill="#FAB880" stroke="black" stroke-width="0.450243"/>
<path d="M111.36 39.847C113.22 39.847 114.737 41.3875 114.737 43.2982C114.737 45.209 113.22 46.7503 111.36 46.7503C109.499 46.7501 107.984 45.2088 107.984 43.2982C107.984 41.3876 109.499 39.8472 111.36 39.847Z" fill="#FAB880" stroke="black" stroke-width="0.450243"/>
<path d="M93.6505 40.7475C95.0903 40.7475 96.2765 41.9794 96.2765 43.5239C96.2763 45.0681 95.0902 46.3002 93.6505 46.3002C92.2108 46.3002 91.0247 45.0681 91.0245 43.5239C91.0245 41.9794 92.2107 40.7475 93.6505 40.7475Z" fill="#FAB880" stroke="black" stroke-width="0.450243"/>
<path d="M57.0308 41.0476C58.4706 41.0476 59.6568 42.2795 59.6568 43.824C59.6566 45.3682 58.4705 46.6003 57.0308 46.6003C55.5911 46.6003 54.405 45.3683 54.4048 43.824C54.4048 42.2795 55.591 41.0476 57.0308 41.0476Z" fill="#FAB880" stroke="black" stroke-width="0.450243"/>
<path d="M74.687 55.8277L71.5097 59.8533C71.3801 60.0176 71.3807 60.2496 71.5113 60.4131L74.6885 64.3941C74.8687 64.6199 75.212 64.6199 75.3923 64.3941L78.5695 60.4131C78.7 60.2496 78.7007 60.0176 78.571 59.8533L75.3938 55.8277C75.2135 55.5993 74.8672 55.5993 74.687 55.8277Z" fill="#FD8B61" stroke="black" stroke-width="0.450243" stroke-linecap="round"/>
</svg>
