<svg width="150" height="150" viewBox="0 0 150 150" fill="none" xmlns="http://www.w3.org/2000/svg">
<path d="M75.866 44.7789V49.8898L72.5642 54.7753L70.9133 54.625L68.8872 54.3995L74.9655 45.3051L75.866 44.7789Z" fill="#A6B6C9" stroke="black" stroke-width="0.450243" stroke-linecap="round"/>
<path d="M41.7226 81.9834C41.9477 78.4509 42.398 78.6012 41.9477 75.0686C38.9461 72.8138 42.1729 71.7616 42.1729 71.7616L39.5464 56.7295L36.4698 41.2464C39.3213 44.0274 43.6755 49.5597 48.026 52.3702C48.9524 52.8713 51.1177 52.4453 52.3784 47.9357C53.6391 43.4261 53.9042 41.046 54.0293 40.2693L63.1842 49.6644C71.5137 40.9458 75.8661 30.6488 75.8661 30.6488C78.4155 36.3818 83.4451 43.3509 88.4729 49.8899L98.078 40.9458C98.2781 44.4976 99.5939 52.1378 102.055 53.0466C106.575 50.9873 110.472 45.5605 112.186 43.5012L106.633 71.6864C109.409 72.3012 107.083 74.6928 107.083 74.6928C106.633 76.1961 106.483 77.9398 107.083 80.1044C107.833 82.8102 106.633 83.3363 104.231 84.0127C101.83 84.6892 86.0804 86.2676 74.5904 86.2676C65.2853 86.2676 42.6981 85.8166 41.7226 81.9834Z" fill="url(#paint0_linear_12252_33903)"/>
<path d="M41.9477 75.0686C42.398 78.6012 41.9477 78.4509 41.7226 81.9834C42.6981 85.8166 65.2853 86.2676 74.5904 86.2676C86.0804 86.2676 101.83 84.6892 104.231 84.0127C106.633 83.3363 107.833 82.8102 107.083 80.1044C106.483 77.9398 106.633 76.1961 107.083 74.6928M41.9477 75.0686C38.9461 72.8138 42.1729 71.7616 42.1729 71.7616M41.9477 75.0686C42.1729 72.1374 60.933 71.1603 74.6654 71.3106C92.4546 71.5054 104.006 72.5132 107.083 74.6928M42.1729 71.7616C49.0016 69.5819 66.934 69.131 75.4158 69.131C84.4957 69.131 99.5038 70.1081 106.633 71.6864M42.1729 71.7616L39.5464 56.7295L36.4698 41.2464C39.3213 44.0274 43.6755 49.5597 48.026 52.3702M106.633 71.6864L112.186 43.5012C110.472 45.5605 106.575 50.9873 102.055 53.0466M106.633 71.6864C109.409 72.3012 107.083 74.6928 107.083 74.6928M48.026 52.3702C50.4645 53.9455 53.4618 54.5947 55.2299 54.2492C57.0432 53.8948 60.3794 52.8145 63.1842 49.6644M48.026 52.3702C48.9524 52.8713 51.1177 52.4453 52.3784 47.9357C53.6391 43.4261 53.9042 41.046 54.0293 40.2693L63.1842 49.6644M63.1842 49.6644C71.5137 40.9458 75.8661 30.6488 75.8661 30.6488C78.4155 36.3818 83.4451 43.3509 88.4729 49.8899M88.4729 49.8899C90.8742 52.0695 93.9875 53.9434 96.2771 54.2492C98.5283 54.5498 100.306 53.8435 102.055 53.0466M88.4729 49.8899L98.078 40.9458C98.2781 44.4976 99.5939 52.1378 102.055 53.0466" stroke="black" stroke-width="0.450243"/>
<path d="M46.7505 75.5947C47.2217 75.595 47.6508 76.0378 47.6509 76.6465C47.6509 77.2553 47.2218 77.699 46.7505 77.6992C46.2792 77.6992 45.8502 77.2555 45.8502 76.6465C45.8503 76.0377 46.2793 75.5947 46.7505 75.5947Z" fill="#FEE489" stroke="black" stroke-width="0.450243"/>
<path d="M54.2548 74.5425C54.7259 74.5427 55.155 74.9856 55.1552 75.5942C55.1552 76.2031 54.726 76.6467 54.2548 76.647C53.7834 76.647 53.3544 76.2032 53.3544 75.5942C53.3546 74.9854 53.7835 74.5425 54.2548 74.5425Z" fill="#FEE489" stroke="black" stroke-width="0.450243"/>
<path d="M63.7842 73.9412C64.4177 73.9412 64.91 74.4234 64.9102 74.9929C64.9102 75.5626 64.4178 76.0457 63.7842 76.0457C63.1507 76.0456 62.6592 75.5626 62.6592 74.9929C62.6595 74.4234 63.1508 73.9412 63.7842 73.9412Z" fill="#FEE489" stroke="black" stroke-width="0.450243"/>
<path d="M75.4907 73.9412C76.1242 73.9412 76.6165 74.4234 76.6167 74.9929C76.6167 75.5626 76.1243 76.0457 75.4907 76.0457C74.8572 76.0456 74.3657 75.5626 74.3657 74.9929C74.3659 74.4234 74.8573 73.9412 75.4907 73.9412Z" fill="#FEE489" stroke="black" stroke-width="0.450243"/>
<path d="M85.6959 74.0916C86.2215 74.0916 86.6713 74.5488 86.6714 75.1434C86.6714 75.7381 86.2216 76.1961 85.6959 76.1961C85.1703 76.1958 84.7213 75.7379 84.7213 75.1434C84.7214 74.549 85.1704 74.0919 85.6959 74.0916Z" fill="#FEE489" stroke="black" stroke-width="0.450243"/>
<path d="M95.3768 74.5425C95.8479 74.5427 96.277 74.9856 96.2772 75.5942C96.2772 76.2031 95.848 76.6467 95.3768 76.647C94.9055 76.647 94.4764 76.2032 94.4764 75.5942C94.4766 74.9854 94.9056 74.5425 95.3768 74.5425Z" fill="#FEE489" stroke="black" stroke-width="0.450243"/>
<path d="M102.506 75.7451C102.922 75.7453 103.331 76.1726 103.331 76.7969C103.331 77.4213 102.922 77.8495 102.506 77.8496C102.089 77.8496 101.68 77.4214 101.68 76.7969C101.681 76.1725 102.089 75.7451 102.506 75.7451Z" fill="#FEE489" stroke="black" stroke-width="0.450243"/>
<path d="M74.6656 78.9018C83.0529 78.9018 90.6431 79.2376 96.1334 79.7807C98.8796 80.0524 101.093 80.3756 102.617 80.7319C103.38 80.9105 103.959 81.0948 104.341 81.2797C104.533 81.3724 104.663 81.4593 104.743 81.5366C104.822 81.6136 104.832 81.662 104.832 81.683C104.831 81.7043 104.821 81.7521 104.743 81.8286C104.663 81.9058 104.533 81.9927 104.341 82.0854C103.959 82.2703 103.38 82.4546 102.617 82.6332C101.093 82.9895 98.8796 83.3127 96.1334 83.5844C90.6431 84.1275 83.0529 84.4643 74.6656 84.4643C66.2783 84.4643 58.6881 84.1275 53.1978 83.5844C50.4513 83.3127 48.237 82.9896 46.7134 82.6332C45.95 82.4547 45.3722 82.2702 44.9898 82.0854C44.7981 81.9927 44.6678 81.9058 44.5884 81.8286C44.5099 81.752 44.4997 81.7043 44.4996 81.683C44.4996 81.662 44.5093 81.6136 44.5884 81.5366C44.6678 81.4593 44.7982 81.3724 44.9898 81.2797C45.3722 81.0949 45.95 80.9104 46.7134 80.7319C48.237 80.3755 50.4513 80.0524 53.1978 79.7807C58.6881 79.2376 66.2783 78.9018 74.6656 78.9018Z" stroke="black" stroke-width="0.450243"/>
<path d="M37.2197 38.1648C39.0843 38.1648 40.5965 39.6783 40.5967 41.5466C40.5967 43.4151 39.0844 44.9294 37.2197 44.9294C35.3553 44.9292 33.8438 43.415 33.8438 41.5466C33.8439 39.6784 35.3554 38.165 37.2197 38.1648Z" fill="#FFE469" stroke="black" stroke-width="0.450243"/>
<path d="M45.2064 57.4785C46.1841 57.3386 46.9539 57.6605 47.4847 58.2393C48.0212 58.8242 48.3265 59.6867 48.3265 60.6377C48.3265 61.5857 48.0146 62.4406 47.5609 63.0547C47.1031 63.6743 46.5248 64.0203 46.0004 64.0205C45.4563 64.0205 44.7407 63.692 44.1547 63.1045C43.5741 62.5224 43.1488 61.7129 43.1488 60.7881C43.1488 59.8275 43.3917 58.9883 43.7719 58.3965C44.1531 57.803 44.6539 57.4806 45.1742 57.4805H45.1908L45.2064 57.4785Z" fill="#FFBFEB" stroke="black" stroke-width="0.450243"/>
<path d="M58.413 58.9413C59.3908 58.8014 60.1615 59.1233 60.6923 59.7021C61.2286 60.2871 61.5331 61.1497 61.5331 62.1005C61.5331 63.0746 61.3596 63.8892 61.0517 64.4511C60.7473 65.0066 60.3252 65.2977 59.8076 65.2978C58.6736 65.2978 57.0012 64.322 56.499 62.2382C56.0016 60.1737 57.3104 58.9433 58.3818 58.9433H58.3974L58.413 58.9413Z" fill="#9BE7DD" stroke="black" stroke-width="0.450243"/>
<path d="M92.3434 59.0917C91.3657 58.9518 90.595 59.2737 90.0641 59.8525C89.5278 60.4374 89.2233 61.3 89.2233 62.2509C89.2233 63.225 89.3969 64.0395 89.7048 64.6015C90.0092 65.157 90.4313 65.4481 90.9489 65.4482C92.0829 65.4482 93.7553 64.4724 94.2575 62.3886C94.7549 60.3241 93.446 59.0937 92.3747 59.0937H92.3591L92.3434 59.0917Z" fill="#FFC7EA" stroke="black" stroke-width="0.450243"/>
<path d="M104.799 57.4381C103.822 57.2983 103.052 57.6201 102.521 58.1989C101.985 58.7838 101.68 59.6463 101.68 60.5973C101.68 61.5694 101.863 62.3356 102.24 62.8805C102.61 63.4168 103.187 63.7656 104.034 63.8717C104.927 63.9835 105.522 63.693 105.932 63.1569C106.356 62.6023 106.598 61.7641 106.709 60.7633C106.816 59.7931 106.61 58.9518 106.242 58.36C105.872 57.7658 105.354 57.4401 104.832 57.4401H104.815L104.799 57.4381Z" fill="#9EE6D7" stroke="black" stroke-width="0.450243"/>
<path d="M110.759 41.9229C112.624 41.9229 114.136 43.4364 114.136 45.3047C114.136 47.1732 112.624 48.6876 110.759 48.6876C108.895 48.6874 107.383 47.1731 107.383 45.3047C107.384 43.4365 108.895 41.9231 110.759 41.9229Z" fill="#FFE469" stroke="black" stroke-width="0.450243"/>
<path d="M54.4043 37.1125C56.0616 37.1125 57.406 38.4577 57.4062 40.1184C57.4062 41.7793 56.0617 43.1252 54.4043 43.1252C52.747 43.1251 51.4033 41.7793 51.4033 40.1184C51.4036 38.4577 52.7471 37.1126 54.4043 37.1125Z" fill="#FED0C0" stroke="black" stroke-width="0.450243"/>
<path d="M97.4774 37.1125C99.1347 37.1125 100.479 38.4577 100.479 40.1184C100.479 41.7793 99.1348 43.1252 97.4774 43.1252C95.8201 43.1251 94.4764 41.7793 94.4764 40.1184C94.4767 38.4577 95.8202 37.1126 97.4774 37.1125Z" fill="#FED0C0" stroke="black" stroke-width="0.450243"/>
<path d="M75.7905 25.5379C77.8961 25.5379 79.6176 27.3129 79.6176 29.5213C79.6176 31.7297 77.8961 33.5047 75.7905 33.5047C73.685 33.5045 71.9643 31.7295 71.9643 29.5213C71.9643 27.3131 73.685 25.5381 75.7905 25.5379Z" fill="#FFE469" stroke="black" stroke-width="0.450243"/>
<path d="M72.4892 54.7001L68.9623 54.4747L74.9656 45.3051L75.791 44.7038L75.9411 49.8147L72.4892 54.7001Z" fill="#ABC1C5"/>
<path d="M75.8661 65.448L74.6654 64.0951L68.9623 54.5497L72.6393 54.8503L75.8661 60.4122V65.448Z" fill="#ABC1C5"/>
<path d="M76.0161 65.2977V60.2619L75.791 49.5891L76.0161 44.6285L76.9166 45.3801L82.9949 54.5497L76.7665 64.6964L76.0161 65.2977Z" fill="#A4E5CC"/>
<path d="M75.1311 45.156C75.5198 44.5892 76.3562 44.5911 76.7415 45.1602L82.6767 53.93C82.8906 54.2461 82.9008 54.6583 82.703 54.9846L76.7677 64.7773C76.3895 65.4014 75.4861 65.4041 75.1042 64.7822L69.091 54.9902C68.8891 54.6613 68.8997 54.2434 69.1179 53.9252L75.1311 45.156Z" stroke="black" stroke-width="0.450243"/>
<path d="M75.732 49.937C75.8237 49.7985 76.029 49.8043 76.1136 49.9473L78.9922 54.8167C79.033 54.8859 79.0343 54.9719 78.9949 55.042L76.1253 60.1512C76.0404 60.3016 75.8247 60.3038 75.7361 60.1553L72.6022 54.9031C72.5579 54.8287 72.5607 54.7355 72.6085 54.6633L75.732 49.937Z" fill="#A7E4C9" stroke="black" stroke-width="0.450243"/>
<path d="M75.8659 49.8147V44.7038" stroke="black" stroke-width="0.450243"/>
<path d="M72.6393 54.7752L68.9623 54.5497" stroke="black" stroke-width="0.450243"/>
<path d="M75.941 60.2619V65.2977" stroke="black" stroke-width="0.450243"/>
<path d="M78.9426 54.9255L82.6946 54.6249" stroke="black" stroke-width="0.450243"/>
<path d="M38.4208 40.1189C38.4208 40.617 37.1665 41.3967 36.5448 41.3967C35.9231 41.3967 35.4192 40.9928 35.4192 40.4947C35.4192 39.9966 35.5693 39.2922 36.5448 38.9915C37.1665 38.9915 38.4208 39.1418 38.4208 40.1189Z" fill="#FFEB9E"/>
<path d="M112.561 43.9474C112.561 44.4766 111.056 45.305 110.31 45.305C109.564 45.305 108.959 44.8759 108.959 44.3467C108.959 43.8174 109.139 43.0689 110.31 42.7495C111.056 42.7495 112.561 42.9092 112.561 43.9474Z" fill="#FFEB9E"/>
<path d="M55.4549 38.6908C55.4549 39.0333 54.5758 39.8934 53.9541 39.8934C53.3324 39.8934 52.8285 39.6158 52.8285 39.2733C52.8285 38.9308 52.8285 38.1459 53.804 37.9392C54.4257 37.9392 55.4549 38.0191 55.4549 38.6908Z" fill="#FDEAE4"/>
<path d="M98.8284 38.5406C98.8284 38.8831 97.9492 39.7432 97.3276 39.7432C96.7059 39.7432 96.202 39.4656 96.202 39.1231C96.202 38.7806 96.202 37.9957 97.1775 37.789C97.7991 37.789 98.8284 37.8689 98.8284 38.5406Z" fill="#FDEAE4"/>
<path d="M77.2917 27.7127C77.2917 28.242 75.7865 29.0703 75.0405 29.0703C74.2945 29.0703 73.6898 28.6412 73.6898 28.112C73.6898 27.5827 73.8699 26.8343 75.0405 26.5148C75.7865 26.5148 77.2917 26.6745 77.2917 27.7127Z" fill="#FFEB9E"/>
<path d="M27.1647 24.5608C27.1397 24.3353 24.6383 25.9638 24.2381 25.9137C25.2136 27.8679 27.1647 31.4756 28.8906 31.3253C29.5293 31.2696 29.566 30.6488 31.2169 29.6717C28.8906 28.394 27.3898 26.5901 27.1647 24.5608Z" fill="#FEE266" stroke="black" stroke-width="0.450243" stroke-linecap="round"/>
<path d="M74.3905 92.9068C75.256 92.4543 76.2872 92.4516 77.155 92.8997L126.022 118.131C127.416 118.851 127.289 120.888 125.816 121.428L78.3414 138.842C75.6315 139.836 72.6548 139.819 69.9564 138.794L25.44 121.891C23.9864 121.339 23.8669 119.325 25.2449 118.605L74.3905 92.9068Z" fill="#EDEBFE"/>
<path d="M71.1511 90.1005C73.241 89.4163 75.4926 89.406 77.5887 90.0712L117.151 102.627C117.902 102.866 118.412 103.566 118.408 104.355L118.345 118.804C118.341 119.573 117.851 120.256 117.124 120.504L75.9656 134.524C74.6861 134.96 73.2972 134.95 72.0236 134.497L32.7266 120.52C32.0028 120.262 31.5216 119.573 31.5284 118.804L31.6558 104.324C31.6626 103.55 32.1621 102.866 32.8971 102.625L71.1511 90.1005Z" fill="white"/>
<path d="M31.5921 104.306L31.5231 118.814C31.5195 119.578 31.9983 120.262 32.7178 120.519L71.0232 134.211C72.9439 134.898 75.0409 134.912 76.9708 134.251L117.121 120.506C117.85 120.257 118.339 119.572 118.339 118.802V104.231" stroke="black" stroke-width="0.450243"/>
<path d="M55.2299 114.302L32.7834 106.026C31.1806 105.435 31.2243 103.153 32.8486 102.624L70.6263 90.317C73.0091 89.5408 75.5749 89.5296 77.9643 90.285L117.13 102.666C118.784 103.189 118.815 105.518 117.176 106.085L91.9247 114.828" stroke="black" stroke-width="0.450243" stroke-linecap="round"/>
<circle cx="73.8398" cy="110.16" r="16.2838" fill="#FFE063" stroke="black" stroke-width="0.450243"/>
<circle cx="73.9149" cy="110.234" r="12.0065" fill="white" stroke="black" stroke-width="0.450243"/>
<path d="M73.2695 116.53V105.472L73.5577 103.923H76.025V116.53H73.2695ZM70.6761 108.245V105.616C71.0003 105.64 71.3305 105.568 71.6667 105.4C72.0149 105.232 72.3511 105.01 72.6752 104.733C73.0114 104.445 73.3056 104.163 73.5577 103.887L75.3947 105.67C74.9505 106.174 74.4762 106.636 73.9719 107.057C73.4677 107.465 72.9454 107.783 72.4051 108.011C71.8648 108.227 71.2885 108.305 70.6761 108.245Z" fill="#1D1D1B"/>
<path d="M29.9051 68.428C30.0661 69.5926 30.9818 70.5087 32.1463 70.6702L32.4285 70.7093L32.1463 70.7484C30.9818 70.9099 30.0661 71.8259 29.9051 72.9905L29.866 73.2728L29.827 72.9905C29.666 71.8259 28.7503 70.9099 27.5858 70.7484L27.3035 70.7093L27.5858 70.6702C28.7503 70.5087 29.666 69.5926 29.827 68.428L29.866 68.1448L29.9051 68.428Z" fill="#FBC651" stroke="black" stroke-width="0.450243"/>
<path d="M120.064 32.2411C120.225 33.4056 121.14 34.3217 122.304 34.4833L123.377 34.6317L122.304 34.7811C121.14 34.9427 120.225 35.8588 120.064 37.0233L119.914 38.0995L119.766 37.0233C119.605 35.8587 118.689 34.9426 117.525 34.7811L116.451 34.6317L117.525 34.4833C118.689 34.3218 119.605 33.4057 119.766 32.2411L119.914 31.1649L120.064 32.2411Z" fill="#FEE367" stroke="black" stroke-width="0.450243"/>
<path d="M45.4746 22.2307L53.4289 29.5213" stroke="black" stroke-width="0.450243" stroke-linecap="round"/>
<path d="M59.8823 17.9466L63.4092 21.7046" stroke="black" stroke-width="0.450243" stroke-linecap="round"/>
<path d="M75.941 10.5057V17.7963" stroke="black" stroke-width="0.450243" stroke-linecap="round"/>
<path d="M88.6979 21.4791L91.8496 17.8714" stroke="black" stroke-width="0.450243" stroke-linecap="round"/>
<path d="M98.8284 29.2959L106.858 22.4563" stroke="black" stroke-width="0.450243" stroke-linecap="round"/>
<path d="M131.096 50.1154L128.244 48.6873C128.244 48.6873 129.968 47.4234 130.796 46.3573C131.846 45.0045 131.846 43.4261 131.846 43.4261C131.846 43.4261 132.626 44.0157 133.197 44.2529C133.781 44.4955 134.773 44.6287 134.773 44.6287C134.773 44.6287 134.248 48.3867 131.096 50.1154Z" fill="#FFE469" stroke="black" stroke-width="0.450243" stroke-linecap="round"/>
<path d="M23.4661 88.3978L21.7617 87.5327C21.7617 87.5327 22.7919 86.767 23.2867 86.1213C23.9146 85.3017 23.9146 84.3456 23.9146 84.3456C23.9146 84.3456 24.3806 84.7028 24.7219 84.8464C25.0712 84.9934 25.6638 85.0741 25.6638 85.0741C25.6638 85.0741 25.3499 87.3506 23.4661 88.3978Z" fill="#FFE469" stroke="black" stroke-width="0.450243" stroke-linecap="round"/>
<path d="M24.6971 47.6076C24.938 49.6531 26.4741 51.3005 28.4843 51.6935C26.4741 52.0866 24.938 53.734 24.6971 55.7795L24.6884 55.8537L24.6796 55.7795C24.4386 53.7336 22.9021 52.0862 20.8915 51.6935C22.9021 51.3008 24.4386 49.6535 24.6796 47.6076L24.6884 47.5324L24.6971 47.6076Z" stroke="black" stroke-width="0.450243"/>
<path d="M120.214 81.2227C120.645 82.711 121.782 83.8958 123.248 84.3887C121.782 84.8814 120.645 86.0657 120.214 87.5537C119.784 86.0655 118.647 84.8813 117.181 84.3887C118.648 83.896 119.784 82.7112 120.214 81.2227Z" stroke="black" stroke-width="0.450243"/>
<path d="M123.517 68.7552C123.517 68.7552 120.915 69.3064 120.44 69.582C121.04 66.8762 119.54 64.3959 118.714 63.494C119.239 63.043 120.899 62.511 121.416 62.8175C123.442 64.0201 123.892 66.9514 123.517 68.7552Z" fill="#FFE469" stroke="black" stroke-width="0.450243" stroke-linecap="round"/>
<defs>
<linearGradient id="paint0_linear_12252_33903" x1="74.2902" y1="64.1598" x2="74.3277" y2="86.2676" gradientUnits="userSpaceOnUse">
<stop stop-color="#FFEA8C"/>
<stop offset="1" stop-color="#FFE164"/>
</linearGradient>
</defs>
</svg>
