<svg width="150" height="150" viewBox="0 0 150 150" fill="none" xmlns="http://www.w3.org/2000/svg">
<path d="M25.6638 24.5607C25.6388 24.3353 23.1375 25.9637 22.7372 25.9136C23.7128 27.8678 25.6638 31.4755 27.3898 31.3252C28.0285 31.2696 28.0651 30.6487 29.716 29.6717C27.3898 28.3939 25.8889 26.5901 25.6638 24.5607Z" fill="#E8E8ED" stroke="black" stroke-width="0.450243" stroke-linecap="round"/>
<path d="M73.732 92.9408C74.5881 92.4886 75.6081 92.4859 76.4664 92.9337L124.803 118.146C126.182 118.866 126.056 120.901 124.599 121.441L77.6399 138.842C74.9595 139.835 72.0151 139.819 69.346 138.795L25.3131 121.903C23.8753 121.352 23.7571 119.34 25.1202 118.62L73.732 92.9408Z" fill="#ECDAF6"/>
<path d="M71.0009 90.1005C73.0909 89.4162 75.3425 89.406 77.4385 90.0712L117.001 102.627C117.752 102.866 118.261 103.565 118.258 104.355L118.194 118.804C118.191 119.573 117.701 120.256 116.973 120.503L75.8154 134.524C74.5359 134.96 73.147 134.95 71.8735 134.497L32.5765 120.52C31.8526 120.262 31.3715 119.573 31.3782 118.804L31.5056 104.324C31.5124 103.55 32.012 102.866 32.7469 102.625L71.0009 90.1005Z" fill="white"/>
<path d="M31.442 104.306L31.3731 118.814C31.3694 119.578 31.8483 120.261 32.5678 120.519L70.8731 134.211C72.7939 134.898 74.8909 134.912 76.8207 134.251L116.971 120.506C117.7 120.257 118.189 119.572 118.189 118.802V104.231" stroke="black" stroke-width="0.450243"/>
<path d="M55.0796 114.302L32.6331 106.026C31.0303 105.435 31.074 103.153 32.6984 102.624L70.4761 90.317C72.8588 89.5408 75.4246 89.5296 77.814 90.2849L116.98 102.666C118.633 103.189 118.665 105.518 117.026 106.085L91.7744 114.828" stroke="black" stroke-width="0.450243" stroke-linecap="round"/>
<circle cx="73.3897" cy="110.159" r="16.2087" fill="#E6E6ED" stroke="black" stroke-width="0.600324"/>
<circle cx="73.4647" cy="110.234" r="11.9314" fill="white" stroke="black" stroke-width="0.600324"/>
<path d="M69.0013 116.079V113.99C69.0013 113.666 69.1213 113.294 69.3615 112.874C69.6016 112.441 69.9318 112.003 70.352 111.559C70.7842 111.115 71.2705 110.706 71.8108 110.334L73.3956 109.254C73.6358 109.098 73.8759 108.918 74.116 108.713C74.3562 108.497 74.5543 108.269 74.7104 108.029C74.8664 107.777 74.9445 107.525 74.9445 107.273C74.9445 107.008 74.8784 106.774 74.7464 106.57C74.6263 106.354 74.4402 106.192 74.1881 106.084C73.9479 105.964 73.6298 105.904 73.2336 105.904C72.9334 105.904 72.6632 105.97 72.4231 106.102C72.195 106.222 72.0029 106.39 71.8468 106.606C71.7027 106.81 71.5947 107.039 71.5226 107.291L68.533 106.786C68.6531 106.162 68.9112 105.58 69.3074 105.039C69.7157 104.499 70.2499 104.067 70.9103 103.743C71.5827 103.407 72.3511 103.238 73.2155 103.238C74.2001 103.238 75.0405 103.413 75.7369 103.761C76.4333 104.097 76.9676 104.565 77.3398 105.166C77.724 105.766 77.9161 106.462 77.9161 107.255C77.9161 108.095 77.682 108.821 77.2137 109.434C76.7575 110.046 76.1511 110.61 75.3947 111.127L74.008 112.081C73.7198 112.273 73.4557 112.489 73.2155 112.73C72.9754 112.97 72.7653 113.24 72.5852 113.54H78.0602V116.079H69.0013Z" fill="#1D1D1B"/>
<path d="M97.6677 18.7426C97.8658 20.1732 98.9909 21.2983 100.422 21.4965L100.711 21.5365L100.422 21.5765C98.9909 21.7747 97.8658 22.8998 97.6677 24.3304L97.6276 24.6195L97.5876 24.3304C97.3894 22.8998 96.2643 21.7747 94.8337 21.5765L94.5436 21.5365L94.8337 21.4965C96.2644 21.2983 97.3894 20.1732 97.5876 18.7426L97.6276 18.4525L97.6677 18.7426Z" stroke="black" stroke-width="0.450243"/>
<path d="M128.823 79.0927L127.119 78.2276C127.119 78.2276 128.149 77.462 128.644 76.8162C129.272 75.9967 129.272 75.0405 129.272 75.0405C129.272 75.0405 129.738 75.3977 130.079 75.5414C130.428 75.6883 131.021 75.769 131.021 75.769C131.021 75.769 130.707 78.0455 128.823 79.0927Z" fill="#E8E8ED" stroke="black" stroke-width="0.450243" stroke-linecap="round"/>
<path d="M25.2974 77.0425C25.5382 79.088 27.0744 80.7353 29.0845 81.1284C27.0744 81.5215 25.5383 83.1688 25.2974 85.2144L25.2886 85.2886L25.2798 85.2144C25.0388 83.1685 23.5023 81.5211 21.4917 81.1284C23.5023 80.7357 25.0389 79.0884 25.2798 77.0425L25.2886 76.9673L25.2974 77.0425Z" stroke="black" stroke-width="0.450243"/>
<path d="M21.0114 57.0308L25.2887 66.9361" stroke="black" stroke-width="0.450243" stroke-linecap="round"/>
<path d="M55.1841 16.0587L57.0703 23.6804" stroke="black" stroke-width="0.450243" stroke-linecap="round"/>
<path d="M115.562 87.7223L123.066 69.1873" stroke="black" stroke-width="0.450243" stroke-linecap="round"/>
<path d="M125.468 63.034L129.07 54.4794" stroke="black" stroke-width="0.450243" stroke-linecap="round"/>
<path d="M106.708 80.4434C106.708 82.3498 92.6641 83.8953 75.3406 83.8953C58.0171 83.8953 43.9737 82.3498 43.9737 80.4434C43.9737 78.537 57.717 77.2917 75.0405 77.2917C92.3639 77.2917 106.708 78.537 106.708 80.4434Z" fill="#D9D9D9"/>
<path d="M44.349 76.3162L43.9738 71.5136L38.7209 42.548C40.8971 46.225 47.7258 52.3783 47.7258 52.3783C47.7258 52.3783 50.5049 54.994 52.5284 56.3555L57.406 44.2739L64.2347 54.9297C69.4125 47.6508 72.114 44.6491 75.4908 36.4697C77.8835 42.9877 82.0735 49.2163 86.5217 54.5545L93.4255 44.6491L98.078 56.5055C99.5071 55.5332 101.258 54.058 102.806 52.7535C108.058 48.3261 110.41 44.6241 111.81 42.9232L109.559 55.53L106.633 71.1384C106.357 72.6643 105.882 75.7909 106.032 76.8415C106.1 77.3172 107.233 76.6164 106.633 79.9182C106.032 83.22 85.4712 83.8953 75.5658 83.8953C71.6846 83.8953 46.3751 83.8953 43.7487 79.9182C43.5986 78.5674 43.7487 76.7665 44.349 76.3162Z" fill="url(#paint0_linear_12252_33901)"/>
<path d="M44.349 76.3162L43.9738 71.5136L38.7209 42.548C40.8971 46.225 47.7258 52.3783 47.7258 52.3783C47.7258 52.3783 50.5049 54.994 52.5284 56.3555M44.349 76.3162C44.349 76.3162 54.6295 74.0429 75.5658 74.2901C101.453 74.5959 106.032 76.8415 106.032 76.8415M44.349 76.3162C43.7487 76.7665 43.5986 78.5674 43.7487 79.9182M106.032 76.8415C105.882 75.7909 106.357 72.6643 106.633 71.1384L109.559 55.53L111.81 42.9232C110.41 44.6241 108.058 48.3261 102.806 52.7535C101.258 54.058 99.5071 55.5332 98.078 56.5055M106.032 76.8415C106.1 77.3172 107.233 76.6164 106.633 79.9182M106.633 79.9182C106.032 83.22 85.4712 83.8953 75.5658 83.8953C71.6846 83.8953 46.3751 83.8953 43.7487 79.9182M106.633 79.9182C104.832 79.2178 96.0969 77.712 75.5658 77.2918C56.0553 76.8924 45.7998 78.8676 43.7487 79.9182M86.5217 54.5545C88.4071 56.8171 89.6734 58.3065 91.6245 60.0324C92.9752 59.4321 95.2786 58.4101 98.078 56.5055M86.5217 54.5545L93.4255 44.6491L98.078 56.5055M86.5217 54.5545C82.0735 49.2163 77.8835 42.9877 75.4908 36.4697C72.114 44.6491 69.4125 47.6508 64.2347 54.9297M52.5284 56.3555C54.945 57.9814 56.9558 59.132 59.282 60.1825C60.4935 58.9711 62.3464 57.0525 64.2347 54.9297M52.5284 56.3555L57.406 44.2739L64.2347 54.9297" stroke="black" stroke-width="0.450243"/>
<path d="M75.4907 31.5925C77.4343 31.5925 79.018 33.2006 79.018 35.1941C79.018 37.1876 77.4343 38.7957 75.4907 38.7957C73.547 38.7956 71.9643 37.1876 71.9643 35.1941C71.9643 33.2006 73.547 31.5926 75.4907 31.5925Z" fill="#E2E4E7" stroke="black" stroke-width="0.450243"/>
<path d="M39.0208 39.847C40.8813 39.847 42.3976 41.3875 42.3977 43.2982C42.3977 45.209 40.8814 46.7503 39.0208 46.7503C37.1603 46.7501 35.6448 45.2088 35.6448 43.2982C35.6449 41.3876 37.1604 39.8472 39.0208 39.847Z" fill="#E2E4E7" stroke="black" stroke-width="0.450243"/>
<path d="M111.36 39.847C113.22 39.847 114.737 41.3875 114.737 43.2982C114.737 45.209 113.22 46.7503 111.36 46.7503C109.499 46.7501 107.984 45.2088 107.984 43.2982C107.984 41.3876 109.499 39.8472 111.36 39.847Z" fill="#E2E4E7" stroke="black" stroke-width="0.450243"/>
<path d="M93.6506 40.7475C95.0904 40.7475 96.2766 41.9794 96.2766 43.5239C96.2764 45.0681 95.0903 46.3002 93.6506 46.3002C92.2109 46.3002 91.0248 45.0681 91.0247 43.5239C91.0247 41.9794 92.2108 40.7475 93.6506 40.7475Z" fill="#E2E4E7" stroke="black" stroke-width="0.450243"/>
<path d="M57.0308 41.0476C58.4706 41.0476 59.6568 42.2795 59.6568 43.824C59.6566 45.3682 58.4705 46.6003 57.0308 46.6003C55.5911 46.6003 54.405 45.3683 54.4048 43.824C54.4048 42.2795 55.591 41.0476 57.0308 41.0476Z" fill="#E2E4E7" stroke="black" stroke-width="0.450243"/>
<path d="M47.9853 66.4489L50.0614 61.4789C50.1928 61.1644 50.6124 61.1043 50.8268 61.3692L54.0046 65.2946C54.1117 65.4269 54.135 65.6083 54.0649 65.7634L51.9877 70.3583C51.8537 70.6549 51.4589 70.7156 51.2419 70.4731L48.0652 66.9227C47.9495 66.7934 47.9184 66.6091 47.9853 66.4489Z" fill="#FEBABD" stroke="black" stroke-width="0.450243"/>
<path d="M70.3479 59.819L74.8847 51.0163C75.0485 50.6984 75.4998 50.6892 75.6764 51.0002L80.4644 59.4298C80.5443 59.5703 80.5426 59.7429 80.4601 59.8819L75.5174 68.2102C75.3396 68.5096 74.9038 68.5026 74.7358 68.1976L70.3538 60.2425C70.2814 60.1111 70.2792 59.9523 70.3479 59.819Z" fill="#FEBABD" stroke="black" stroke-width="0.450243"/>
<path d="M96.6891 65.6744L100.079 61.845C100.299 61.5965 100.703 61.6634 100.831 61.9695L102.768 66.5929C102.837 66.7561 102.803 66.9443 102.682 67.0738L99.2296 70.7776C99.0064 71.0169 98.6105 70.9458 98.4846 70.6437L96.6106 66.146C96.5442 65.9867 96.5747 65.8035 96.6891 65.6744Z" fill="#FEBABD" stroke="black" stroke-width="0.450243"/>
<defs>
<linearGradient id="paint0_linear_12252_33901" x1="75.3407" y1="55.455" x2="75.2657" y2="83.8953" gradientUnits="userSpaceOnUse">
<stop stop-color="#E8E8ED"/>
<stop offset="1" stop-color="#D6D9DA"/>
</linearGradient>
</defs>
</svg>
