<svg width="150" height="150" viewBox="0 0 150 150" fill="none" xmlns="http://www.w3.org/2000/svg">
<path d="M73.732 92.9408C74.5881 92.4886 75.6081 92.4859 76.4664 92.9337L124.803 118.146C126.182 118.866 126.056 120.901 124.599 121.441L77.6399 138.842C74.9595 139.835 72.0151 139.819 69.346 138.795L25.3131 121.903C23.8753 121.352 23.7571 119.34 25.1202 118.62L73.732 92.9408Z" fill="#ECDAF6"/>
<path d="M71.0007 90.1005C73.0906 89.4162 75.3423 89.406 77.4383 90.0712L117.001 102.627C117.752 102.866 118.261 103.565 118.258 104.355L118.194 118.804C118.191 119.573 117.7 120.256 116.973 120.503L75.8152 134.524C74.5357 134.96 73.1468 134.95 71.8732 134.497L32.5762 120.52C31.8524 120.262 31.3712 119.573 31.378 118.804L31.5054 104.324C31.5122 103.55 32.0118 102.866 32.7467 102.625L71.0007 90.1005Z" fill="#EAEAEA"/>
<path d="M32.2332 105.95L58.0192 115.165C58.0603 115.18 58.1033 115.188 58.1469 115.191L86.2843 116.683C86.3418 116.686 86.3994 116.678 86.454 116.66L116.973 106.213C117.032 106.193 117.087 106.16 117.133 106.117L117.97 105.34C118.061 105.255 118.114 105.136 118.114 105.01V104.058C118.114 103.975 118.09 103.893 118.047 103.822L117.593 103.085C117.541 103.001 117.463 102.936 117.371 102.901L114.587 101.83L93.2001 95.0762L77.5917 90.2736L75.3909 89.7601C75.3574 89.7523 75.3231 89.7484 75.2886 89.7484H73.1411C73.1066 89.7484 73.0723 89.7523 73.0388 89.7601L70.838 90.2736L32.3765 102.746C32.2588 102.784 32.1621 102.869 32.1089 102.98L31.5265 104.203C31.4725 104.317 31.4683 104.448 31.5149 104.564L31.9667 105.694C32.0146 105.813 32.1117 105.907 32.2332 105.95Z" fill="#FEFDF8"/>
<path d="M31.4417 104.306L31.3727 118.814C31.3691 119.578 31.848 120.261 32.5674 120.519L70.8728 134.211C72.7935 134.898 74.8905 134.912 76.8204 134.251L116.971 120.506C117.699 120.257 118.188 119.572 118.188 118.802V104.231" stroke="black" stroke-width="0.450243"/>
<path d="M55.0794 114.302L32.6329 106.026C31.03 105.435 31.0738 103.153 32.6981 102.624L70.4758 90.317C72.8585 89.5408 75.4244 89.5296 77.8138 90.2849L116.979 102.666C118.633 103.189 118.665 105.518 117.026 106.085L91.7742 114.828" stroke="black" stroke-width="0.450243" stroke-linecap="round"/>
<circle cx="73.6901" cy="110.76" r="14.7079" fill="white" stroke="black" stroke-width="0.600324"/>
<path d="M67.4164 116.613V105.555L67.7046 104.006H70.1719V116.613H67.4164ZM64.823 108.329V105.699C65.1472 105.723 65.4774 105.651 65.8135 105.483C66.1617 105.315 66.4979 105.093 66.8221 104.817C67.1583 104.529 67.4524 104.246 67.7046 103.97L69.5415 105.753C69.0973 106.257 68.623 106.72 68.1188 107.14C67.6145 107.548 67.0922 107.866 66.5519 108.094C66.0116 108.311 65.4353 108.389 64.823 108.329Z" fill="#1D1D1B"/>
<path d="M77.606 116.829C76.5734 116.829 75.6549 116.553 74.8505 116.001C74.046 115.436 73.4157 114.668 72.9595 113.696C72.5152 112.711 72.2931 111.582 72.2931 110.31C72.2931 109.037 72.5152 107.914 72.9595 106.942C73.4157 105.957 74.04 105.189 74.8325 104.637C75.6369 104.072 76.5554 103.79 77.5879 103.79C78.6325 103.79 79.557 104.072 80.3614 104.637C81.1659 105.189 81.7962 105.957 82.2525 106.942C82.7207 107.914 82.9548 109.037 82.9548 110.31C82.9548 111.582 82.7267 112.711 82.2705 113.696C81.8142 114.668 81.1839 115.436 80.3795 116.001C79.575 116.553 78.6505 116.829 77.606 116.829ZM77.624 114.2C78.1042 114.2 78.5305 114.032 78.9027 113.696C79.2869 113.359 79.587 112.903 79.8031 112.327C80.0193 111.738 80.1273 111.066 80.1273 110.31C80.1273 109.541 80.0193 108.863 79.8031 108.275C79.587 107.686 79.2869 107.224 78.9027 106.888C78.5185 106.552 78.0802 106.384 77.5879 106.384C77.1077 106.384 76.6815 106.552 76.3093 106.888C75.9371 107.224 75.6429 107.686 75.4268 108.275C75.2227 108.863 75.1206 109.541 75.1206 110.31C75.1206 111.066 75.2227 111.738 75.4268 112.327C75.6429 112.915 75.9371 113.377 76.3093 113.714C76.6935 114.038 77.1317 114.2 77.624 114.2Z" fill="#1D1D1B"/>
<path d="M52.2701 38.114C45.0663 44.4174 36.8576 58.5491 43.8656 73.6082C50.9197 88.7664 67.7284 89.2166 77.3336 88.7664C85.1878 89.1416 101.673 84.6474 106.149 69.631C110.802 54.0226 100.696 42.1162 95.4934 37.1385" stroke="black" stroke-width="0.450243"/>
<path d="M58.0484 29.8596C57.249 31.7127 56.0645 33.6602 55.2675 34.8039C55.1122 35.0268 55.3005 35.3357 55.5669 35.2831C62.2692 33.9589 64.1522 29.1216 64.4056 25.7872C64.4197 25.6017 64.2605 25.4561 64.0781 25.4926C62.9554 25.7168 59.4278 26.6618 58.0484 29.8596Z" fill="#DEDEDE" stroke="black" stroke-width="0.450243"/>
<path d="M51.0213 40.0354C55.7013 40.3907 59.4106 39.8784 62.3314 36.3114C62.4712 36.1407 62.3748 35.8861 62.1577 35.8467C56.5755 34.8329 53.1303 36.8277 50.8186 39.5609C50.6647 39.7428 50.7838 40.0173 51.0213 40.0354Z" fill="#DEDEDE" stroke="black" stroke-width="0.450243"/>
<path d="M50.8514 38.93C54.2631 35.8823 56.4942 33.1448 55.5921 28.7089C55.5502 28.503 55.3096 28.4124 55.1392 28.5354C50.6547 31.7712 50.7888 34.9186 50.3486 38.6636C50.3161 38.94 50.6439 39.1153 50.8514 38.93Z" fill="#DEDEDE" stroke="black" stroke-width="0.450243"/>
<path d="M44.6254 47.6345C47.6076 42.4404 49.4507 38.1854 48.3659 30.781C48.334 30.563 48.0844 30.4541 47.9088 30.5872C43.2017 34.1535 41.978 41.6096 44.0991 47.5913C44.1828 47.8273 44.5007 47.8517 44.6254 47.6345Z" fill="#DEDEDE" stroke="black" stroke-width="0.450243"/>
<path d="M40.9639 57.0102C42.8154 52.6593 42.4158 45.6798 38.5822 40.1343C38.4476 39.9396 38.1528 39.9791 38.0707 40.2011C35.5489 47.0137 36.1488 52.5111 40.4905 57.0919C40.6335 57.2428 40.8825 57.2015 40.9639 57.0102Z" fill="#DEDEDE" stroke="black" stroke-width="0.450243"/>
<path d="M42.2972 65.4604C51.009 56.1981 48.6789 55.9635 50.3936 50.6998C50.4748 50.4505 50.2265 50.2149 49.9887 50.3254C43.2669 53.4498 40.9295 59.1235 41.7857 65.3118C41.8196 65.5567 42.1278 65.6405 42.2972 65.4604Z" fill="#DEDEDE" stroke="black" stroke-width="0.450243"/>
<path d="M48.3644 79.4577C52.1143 71.4377 49.517 65.3683 48.1169 62.1381C48.0264 61.9291 47.7453 61.8969 47.6112 62.081C43.2208 68.1079 45.5878 75.556 47.8519 79.4853C47.9696 79.6895 48.2646 79.6712 48.3644 79.4577Z" fill="#DEDEDE" stroke="black" stroke-width="0.450243"/>
<path d="M89.7027 85.9479C96.4465 83.6394 96.8724 75.8369 95.809 72.943C95.7377 72.749 95.4941 72.7117 95.3501 72.8599C92.7737 75.5111 89.0568 79.4704 89.3194 85.6861C89.3275 85.8789 89.5201 86.0104 89.7027 85.9479Z" fill="#DEDEDE" stroke="black" stroke-width="0.450243"/>
<path d="M100.071 79.2182C105.631 74.52 103.48 64.8576 100.653 62.0873C100.511 61.9488 100.283 62.0053 100.207 62.1883C98.7558 65.7085 96.8654 72.475 99.6194 79.1069C99.6943 79.2871 99.9223 79.3442 100.071 79.2182Z" fill="#DEDEDE" stroke="black" stroke-width="0.450243"/>
<path d="M106.656 66.1053C109.113 57.9627 102.102 50.7052 98.2892 50.5363C98.1162 50.5287 97.99 50.6878 98.0148 50.8593C99.2111 59.1084 104.416 62.9638 106.041 66.1289C106.171 66.3827 106.573 66.3785 106.656 66.1053Z" fill="#DEDEDE" stroke="black" stroke-width="0.450243"/>
<path d="M104.089 49.8451C103.562 44.494 97.2373 42.4088 93.4561 42.447C93.2258 42.4493 93.1048 42.7116 93.2343 42.902C98.5164 50.6676 101.544 49.0074 103.548 50.1334C103.781 50.2643 104.115 50.1112 104.089 49.8451Z" fill="#DEDEDE" stroke="black" stroke-width="0.450243"/>
<path d="M94.1432 36.0128C91.0608 32.0498 89.5575 26.1489 83.9476 25.5329C83.7536 25.5116 83.5976 25.6923 83.636 25.8837C85.5398 35.3757 92.1432 34.0134 94.1432 36.0128Z" fill="#DEDEDE" stroke="black" stroke-width="0.450243"/>
<path d="M98.5705 39.6898C97.0953 34.913 98.4933 32.8925 93.3941 28.701C93.2117 28.5511 92.9361 28.6705 92.9163 28.9057C92.1842 37.5693 97.4153 37.1306 98.5705 39.6898Z" fill="#DEDEDE" stroke="black" stroke-width="0.450243"/>
<path d="M97.3062 39.4623C94.3362 36.696 91.8329 34.3645 85.8895 35.8552C85.6606 35.9126 85.5943 36.2048 85.7717 36.3604C91.5014 41.3876 94.5286 40.1499 97.0294 40.1221C97.3348 40.1187 97.538 39.6781 97.3145 39.4699L97.3062 39.4623Z" fill="#DEDEDE" stroke="black" stroke-width="0.450243"/>
<path d="M90.6586 86.93C96.4231 91.1592 105.118 86.5382 107.088 83.9894C107.214 83.8259 107.109 83.6044 106.906 83.5641C103.364 82.8595 99.458 81.3615 90.6926 86.4444C90.5119 86.5492 90.4901 86.8065 90.6586 86.93Z" fill="#DEDEDE" stroke="black" stroke-width="0.450243"/>
<path d="M100.565 80.247C107.527 81.893 113.853 74.071 114.685 70.9413C114.738 70.7416 114.555 70.5787 114.353 70.6211C110.807 71.3643 106.508 71.6877 100.408 79.7867C100.282 79.9536 100.362 80.1989 100.565 80.247Z" fill="#DEDEDE" stroke="black" stroke-width="0.450243"/>
<path d="M107.462 69.4238C114.735 65.6765 115.209 60.4695 115.509 54.8204C115.523 54.565 115.231 54.4085 115.026 54.5614C111.97 56.8415 106.807 60.5616 107.033 69.1701C107.038 69.386 107.27 69.5227 107.462 69.4238Z" fill="#DEDEDE" stroke="black" stroke-width="0.450243"/>
<path d="M108.061 57.2399C114.727 47.317 111.485 45.5223 110.67 40.1351C110.631 39.8822 110.324 39.7785 110.166 39.9793C107.663 43.1507 104.472 51.736 107.567 57.2337C107.672 57.4215 107.941 57.4188 108.061 57.2399Z" fill="#DEDEDE" stroke="black" stroke-width="0.450243"/>
<path d="M104.497 47.7115C107.355 35.6433 103.246 32.5009 100.631 30.3371C100.423 30.1652 100.09 30.3263 100.089 30.5959C100.082 33.9068 99.0515 41.0888 103.976 47.8252C104.124 48.0272 104.439 47.9551 104.497 47.7115Z" fill="#DEDEDE" stroke="black" stroke-width="0.450243"/>
<path d="M42.2314 69.586C40.5345 62.3654 39.1929 58.1038 33.5148 54.5507C33.3356 54.4385 33.0993 54.5475 33.0691 54.7568C31.9783 62.3115 36.0325 67.3336 41.8281 69.9253C42.0512 70.025 42.2873 69.8238 42.2314 69.586Z" fill="#DEDEDE" stroke="black" stroke-width="0.450243"/>
<path d="M47.5606 79.7471C43.0689 73.9145 40.9418 71.2507 34.3406 70.3982C34.1309 70.3711 33.9606 70.5688 34.0192 70.772C36.1253 78.0726 41.0378 80.3073 47.3339 80.2257C47.5782 80.2225 47.7096 79.9407 47.5606 79.7471Z" fill="#DEDEDE" stroke="black" stroke-width="0.450243"/>
<path d="M57.4575 86.4023C50.7841 83.4178 48.0429 81.5759 41.874 83.9559C41.6767 84.0321 41.6212 84.287 41.7715 84.4358C47.0322 89.6451 54.0242 88.3888 57.4627 86.9318C57.6978 86.8321 57.6906 86.5065 57.4575 86.4023Z" fill="#DEDEDE" stroke="black" stroke-width="0.450243"/>
<path d="M58.8119 86.5456C58.0847 79.5165 58.401 80.2542 53.1284 73.1453C52.981 72.9466 52.6672 72.9985 52.6062 73.2382C50.8183 80.2628 55.3908 84.6892 58.3508 86.8214C58.558 86.9706 58.8381 86.7996 58.8119 86.5456Z" fill="#DEDEDE"/>
<path d="M58.8793 92.1432C56.413 94.3849 58.4418 95.4407 59.5546 95.0698C63.3819 93.7941 65.7088 90.8675 73.0628 90.4173C81.3923 89.9073 86.1198 94.3944 88.6712 94.8447C91.2226 95.2949 91.5978 93.0437 87.7699 91.2427C83.344 89.1604 76.7648 88.4662 73.2879 88.4662C69.711 88.6163 62.1818 89.1416 58.8793 92.1432Z" fill="#DEDEDE"/>
<path d="M58.8119 86.5456C58.0847 79.5165 58.401 80.2542 53.1284 73.1453C52.981 72.9466 52.6672 72.9985 52.6062 73.2382C50.8183 80.2628 55.3908 84.6892 58.3508 86.8214C58.558 86.9706 58.8381 86.7996 58.8119 86.5456Z" stroke="black" stroke-width="0.450243"/>
<path d="M58.8793 92.1432C56.413 94.3849 58.4418 95.4407 59.5546 95.0698C63.3819 93.7941 65.7088 90.8675 73.0628 90.4173C81.3923 89.9073 86.1198 94.3944 88.6712 94.8447C91.2226 95.2949 91.5978 93.0437 87.7699 91.2427C83.344 89.1604 76.7648 88.4662 73.2879 88.4662C69.711 88.6163 62.1818 89.1416 58.8793 92.1432Z" stroke="black" stroke-width="0.450243"/>
<path d="M44.7492 50.0211C48.0478 49.7067 53.5339 46.3903 55.4914 42.7822C55.6017 42.5788 55.434 42.3452 55.2036 42.3668C50.4646 42.8111 48.5259 42.5876 44.4965 49.5965C44.3824 49.795 44.5212 50.0429 44.7492 50.0211Z" fill="#DEDEDE" stroke="black" stroke-width="0.450243"/>
</svg>
