<svg width="150" height="150" viewBox="0 0 150 150" fill="none" xmlns="http://www.w3.org/2000/svg">
<path d="M73.7316 92.9408C74.5877 92.4886 75.6076 92.4859 76.466 92.9337L124.802 118.146C126.181 118.866 126.056 120.901 124.599 121.441L77.6395 138.842C74.959 139.835 72.0147 139.819 69.3456 138.795L25.3127 121.903C23.8749 121.352 23.7567 119.34 25.1197 118.62L73.7316 92.9408Z" fill="#ECDAF6"/>
<path d="M71.0007 90.1005C73.0907 89.4162 75.3423 89.406 77.4383 90.0712L117.001 102.627C117.752 102.866 118.261 103.565 118.258 104.355L118.194 118.804C118.191 119.573 117.7 120.256 116.973 120.503L75.8152 134.524C74.5357 134.96 73.1468 134.95 71.8733 134.497L32.5762 120.52C31.8524 120.262 31.3713 119.573 31.378 118.804L31.5054 104.324C31.5122 103.55 32.0118 102.866 32.7467 102.625L71.0007 90.1005Z" fill="#DFF0FF"/>
<path d="M32.2333 105.95L58.0192 115.165C58.0603 115.18 58.1033 115.188 58.1469 115.191L86.2843 116.683C86.3419 116.686 86.3995 116.678 86.454 116.66L116.973 106.213C117.032 106.193 117.087 106.16 117.133 106.117L117.97 105.34C118.061 105.255 118.114 105.136 118.114 105.01V104.058C118.114 103.975 118.09 103.893 118.047 103.822L117.593 103.085C117.541 103.001 117.463 102.936 117.371 102.901L114.587 101.83L93.2001 95.0762L77.5917 90.2736L75.391 89.7601C75.3574 89.7523 75.3231 89.7484 75.2887 89.7484H73.1411C73.1067 89.7484 73.0723 89.7523 73.0388 89.7601L70.8381 90.2736L32.3765 102.746C32.2589 102.784 32.1621 102.869 32.1089 102.98L31.5265 104.203C31.4725 104.317 31.4683 104.448 31.515 104.564L31.9667 105.694C32.0147 105.813 32.1117 105.907 32.2333 105.95Z" fill="#FEFDF8"/>
<path d="M31.4417 104.306L31.3728 118.814C31.3691 119.578 31.848 120.261 32.5675 120.519L70.8728 134.211C72.7936 134.898 74.8906 134.912 76.8204 134.251L116.971 120.506C117.699 120.257 118.189 119.572 118.189 118.802V104.231" stroke="black" stroke-width="0.450243"/>
<path d="M55.0794 114.302L32.6329 106.026C31.0301 105.435 31.0738 103.153 32.6981 102.624L70.4759 90.317C72.8586 89.5408 75.4244 89.5296 77.8138 90.2849L116.979 102.666C118.633 103.189 118.665 105.518 117.026 106.085L91.7742 114.828" stroke="black" stroke-width="0.450243" stroke-linecap="round"/>
<circle cx="73.6897" cy="110.76" r="14.7079" fill="white" stroke="black" stroke-width="0.600324"/>
<path d="M73.4795 116.829C72.4229 116.829 71.5345 116.685 70.8141 116.397C70.0937 116.097 69.5474 115.689 69.1752 115.172C68.815 114.644 68.6349 114.032 68.6349 113.335C68.6349 112.579 68.815 111.919 69.1752 111.354C69.5474 110.778 70.0937 110.328 70.8141 110.004C71.5345 109.679 72.4229 109.517 73.4795 109.517C74.5481 109.517 75.4366 109.679 76.1449 110.004C76.8653 110.328 77.4116 110.778 77.7838 111.354C78.156 111.919 78.3421 112.579 78.3421 113.335C78.3421 114.032 78.156 114.644 77.7838 115.172C77.4116 115.689 76.8653 116.097 76.1449 116.397C75.4366 116.685 74.5481 116.829 73.4795 116.829ZM73.4795 114.434C74.0318 114.434 74.482 114.296 74.8302 114.02C75.1904 113.732 75.3705 113.371 75.3705 112.939C75.3705 112.435 75.1904 112.033 74.8302 111.732C74.482 111.42 74.0318 111.264 73.4795 111.264C73.1193 111.264 72.7951 111.336 72.507 111.48C72.2308 111.612 72.0087 111.804 71.8406 112.057C71.6845 112.309 71.6065 112.603 71.6065 112.939C71.6065 113.227 71.6845 113.485 71.8406 113.714C72.0087 113.93 72.2308 114.104 72.507 114.236C72.7951 114.368 73.1193 114.434 73.4795 114.434ZM73.4795 110.544C72.519 110.544 71.7085 110.406 71.0482 110.13C70.3878 109.841 69.8836 109.451 69.5354 108.959C69.1872 108.455 69.0131 107.872 69.0131 107.212C69.0131 106.54 69.1872 105.945 69.5354 105.429C69.8836 104.913 70.3878 104.511 71.0482 104.222C71.7085 103.934 72.519 103.79 73.4795 103.79C74.428 103.79 75.2324 103.934 75.8928 104.222C76.5652 104.511 77.0754 104.913 77.4236 105.429C77.7838 105.945 77.9639 106.54 77.9639 107.212C77.9639 107.872 77.7838 108.455 77.4236 108.959C77.0754 109.451 76.5652 109.841 75.8928 110.13C75.2324 110.406 74.428 110.544 73.4795 110.544ZM73.4795 109.049C73.9598 109.049 74.356 108.911 74.6681 108.635C74.9803 108.347 75.1364 107.986 75.1364 107.554C75.1364 107.122 74.9803 106.774 74.6681 106.51C74.356 106.233 73.9598 106.095 73.4795 106.095C72.9992 106.095 72.603 106.233 72.2909 106.51C71.9907 106.774 71.8406 107.122 71.8406 107.554C71.8406 107.986 71.9907 108.347 72.2909 108.635C72.603 108.911 72.9992 109.049 73.4795 109.049Z" fill="#1D1D1B"/>
<path d="M52.2697 38.114C45.0658 44.4174 36.8571 58.5491 43.8651 73.6082C50.9192 88.7664 67.7279 89.2166 77.3331 88.7664C85.1874 89.1416 101.673 84.6474 106.149 69.631C110.801 54.0226 100.696 42.1162 95.4929 37.1385" stroke="black" stroke-width="0.450243"/>
<path d="M58.0484 29.8596C57.249 31.7127 56.0645 33.6602 55.2675 34.8039C55.1122 35.0268 55.3005 35.3357 55.5669 35.2831C62.2692 33.9589 64.1522 29.1216 64.4056 25.7872C64.4197 25.6017 64.2605 25.4561 64.0781 25.4926C62.9554 25.7168 59.4278 26.6618 58.0484 29.8596Z" fill="#C3DDFD" stroke="black" stroke-width="0.450243"/>
<path d="M51.0214 40.0354C55.7013 40.3907 59.4106 39.8784 62.3314 36.3114C62.4712 36.1407 62.3748 35.8861 62.1577 35.8467C56.5755 34.8329 53.1303 36.8277 50.8186 39.5609C50.6648 39.7428 50.7838 40.0173 51.0214 40.0354Z" fill="#C3DDFD" stroke="black" stroke-width="0.450243"/>
<path d="M50.8509 38.93C54.2626 35.8823 56.4937 33.1448 55.5916 28.7089C55.5497 28.503 55.3091 28.4124 55.1387 28.5354C50.6542 31.7712 50.7883 34.9186 50.3481 38.6636C50.3156 38.94 50.6434 39.1153 50.8509 38.93Z" fill="#C3DDFD" stroke="black" stroke-width="0.450243"/>
<path d="M44.6254 47.6345C47.6076 42.4404 49.4507 38.1854 48.3659 30.781C48.334 30.563 48.0844 30.4541 47.9088 30.5872C43.2016 34.1535 41.978 41.6096 44.0991 47.5913C44.1828 47.8273 44.5007 47.8517 44.6254 47.6345Z" fill="#C3DDFD" stroke="black" stroke-width="0.450243"/>
<path d="M40.9639 57.0102C42.8154 52.6593 42.4158 45.6798 38.5822 40.1343C38.4476 39.9396 38.1528 39.9791 38.0707 40.2011C35.5489 47.0137 36.1488 52.5111 40.4905 57.0919C40.6335 57.2428 40.8825 57.2015 40.9639 57.0102Z" fill="#C3DDFD" stroke="black" stroke-width="0.450243"/>
<path d="M42.2972 65.4604C51.009 56.1981 48.6789 55.9635 50.3936 50.6998C50.4749 50.4505 50.2265 50.2149 49.9887 50.3254C43.2669 53.4498 40.9296 59.1235 41.7858 65.3118C41.8196 65.5567 42.1278 65.6405 42.2972 65.4604Z" fill="#C3DDFD" stroke="black" stroke-width="0.450243"/>
<path d="M48.3639 79.4577C52.1138 71.4377 49.5166 65.3683 48.1165 62.1381C48.0259 61.9291 47.7448 61.8969 47.6107 62.081C43.2204 68.1079 45.5873 75.556 47.8515 79.4853C47.9691 79.6895 48.2641 79.6712 48.3639 79.4577Z" fill="#C3DDFD" stroke="black" stroke-width="0.450243"/>
<path d="M89.7027 85.9479C96.4465 83.6394 96.8724 75.8369 95.809 72.943C95.7377 72.749 95.4941 72.7117 95.35 72.8599C92.7737 75.5111 89.0568 79.4704 89.3194 85.6861C89.3275 85.8789 89.52 86.0104 89.7027 85.9479Z" fill="#C3DDFD" stroke="black" stroke-width="0.450243"/>
<path d="M100.071 79.2182C105.631 74.52 103.48 64.8576 100.653 62.0873C100.511 61.9488 100.283 62.0053 100.207 62.1883C98.7558 65.7085 96.8654 72.475 99.6194 79.1069C99.6943 79.2871 99.9223 79.3442 100.071 79.2182Z" fill="#C3DDFD" stroke="black" stroke-width="0.450243"/>
<path d="M106.656 66.1053C109.113 57.9627 102.102 50.7052 98.2892 50.5363C98.1162 50.5287 97.99 50.6878 98.0148 50.8593C99.2111 59.1084 104.416 62.9638 106.041 66.1289C106.171 66.3827 106.573 66.3785 106.656 66.1053Z" fill="#C3DDFD" stroke="black" stroke-width="0.450243"/>
<path d="M104.089 49.8451C103.562 44.494 97.2373 42.4088 93.4561 42.447C93.2258 42.4493 93.1048 42.7116 93.2343 42.902C98.5164 50.6676 101.544 49.0074 103.548 50.1334C103.781 50.2643 104.115 50.1112 104.089 49.8451Z" fill="#C3DDFD" stroke="black" stroke-width="0.450243"/>
<path d="M94.1432 36.0128C91.0608 32.0498 89.5575 26.1489 83.9476 25.5329C83.7536 25.5116 83.5976 25.6923 83.636 25.8837C85.5398 35.3757 92.1432 34.0134 94.1432 36.0128Z" fill="#C3DDFD" stroke="black" stroke-width="0.450243"/>
<path d="M98.5705 39.6898C97.0953 34.913 98.4934 32.8925 93.3941 28.701C93.2118 28.5511 92.9362 28.6705 92.9163 28.9057C92.1842 37.5693 97.4153 37.1306 98.5705 39.6898Z" fill="#C3DDFD" stroke="black" stroke-width="0.450243"/>
<path d="M97.3063 39.4623C94.3362 36.696 91.833 34.3645 85.8895 35.8552C85.6606 35.9126 85.5943 36.2048 85.7717 36.3604C91.5014 41.3876 94.5286 40.1499 97.0294 40.1221C97.3348 40.1187 97.538 39.6781 97.3145 39.4699L97.3063 39.4623Z" fill="#C3DDFD" stroke="black" stroke-width="0.450243"/>
<path d="M90.6586 86.93C96.4231 91.1592 105.118 86.5382 107.088 83.9894C107.214 83.8259 107.109 83.6044 106.906 83.5641C103.364 82.8595 99.458 81.3615 90.6926 86.4444C90.5119 86.5492 90.4901 86.8065 90.6586 86.93Z" fill="#C3DDFD" stroke="black" stroke-width="0.450243"/>
<path d="M100.565 80.247C107.526 81.893 113.853 74.071 114.685 70.9413C114.738 70.7416 114.555 70.5787 114.352 70.6211C110.806 71.3643 106.508 71.6877 100.407 79.7867C100.282 79.9536 100.362 80.1989 100.565 80.247Z" fill="#C3DDFD" stroke="black" stroke-width="0.450243"/>
<path d="M107.462 69.4238C114.735 65.6765 115.209 60.4695 115.509 54.8204C115.523 54.565 115.231 54.4085 115.026 54.5614C111.97 56.8415 106.807 60.5616 107.033 69.1701C107.038 69.386 107.27 69.5227 107.462 69.4238Z" fill="#C3DDFD" stroke="black" stroke-width="0.450243"/>
<path d="M108.061 57.2399C114.727 47.317 111.485 45.5223 110.669 40.1351C110.631 39.8822 110.324 39.7785 110.165 39.9793C107.662 43.1507 104.471 51.736 107.566 57.2337C107.672 57.4215 107.941 57.4188 108.061 57.2399Z" fill="#C3DDFD" stroke="black" stroke-width="0.450243"/>
<path d="M104.496 47.7115C107.354 35.6433 103.245 32.5009 100.63 30.3371C100.423 30.1652 100.089 30.3263 100.089 30.5959C100.081 33.9068 99.051 41.0888 103.976 47.8252C104.123 48.0272 104.439 47.9551 104.496 47.7115Z" fill="#C3DDFD" stroke="black" stroke-width="0.450243"/>
<path d="M42.2314 69.586C40.5345 62.3654 39.1929 58.1038 33.5148 54.5507C33.3356 54.4385 33.0993 54.5475 33.0691 54.7568C31.9783 62.3115 36.0325 67.3336 41.8281 69.9253C42.0512 70.025 42.2873 69.8238 42.2314 69.586Z" fill="#C3DDFD" stroke="black" stroke-width="0.450243"/>
<path d="M47.5601 79.7471C43.0684 73.9145 40.9413 71.2507 34.3402 70.3982C34.1304 70.3711 33.9601 70.5688 34.0187 70.772C36.1248 78.0726 41.0373 80.3073 47.3335 80.2257C47.5778 80.2225 47.7092 79.9407 47.5601 79.7471Z" fill="#C3DDFD" stroke="black" stroke-width="0.450243"/>
<path d="M57.4576 86.4023C50.7842 83.4178 48.0429 81.5759 41.874 83.9559C41.6767 84.0321 41.6212 84.287 41.7715 84.4358C47.0322 89.6451 54.0243 88.3888 57.4627 86.9318C57.6978 86.8321 57.6907 86.5065 57.4576 86.4023Z" fill="#C3DDFD" stroke="black" stroke-width="0.450243"/>
<path d="M58.8114 86.5456C58.0843 79.5165 58.4005 80.2542 53.1279 73.1453C52.9806 72.9466 52.6668 72.9985 52.6058 73.2382C50.8178 80.2628 55.3904 84.6892 58.3503 86.8214C58.5575 86.9706 58.8377 86.7996 58.8114 86.5456Z" fill="#C3DDFD"/>
<path d="M58.8789 92.1432C56.4125 94.3849 58.4414 95.4407 59.5541 95.0698C63.3814 93.7941 65.7084 90.8675 73.0623 90.4173C81.3918 89.9073 86.1194 94.3944 88.6708 94.8447C91.2221 95.2949 91.5973 93.0437 87.7694 91.2427C83.3436 89.1604 76.7643 88.4662 73.2875 88.4662C69.7105 88.6163 62.1814 89.1416 58.8789 92.1432Z" fill="#C3DDFD"/>
<path d="M58.8114 86.5456C58.0843 79.5165 58.4005 80.2542 53.1279 73.1453C52.9806 72.9466 52.6668 72.9985 52.6058 73.2382C50.8178 80.2628 55.3904 84.6892 58.3503 86.8214C58.5575 86.9706 58.8377 86.7996 58.8114 86.5456Z" stroke="black" stroke-width="0.450243"/>
<path d="M58.8789 92.1432C56.4125 94.3849 58.4414 95.4407 59.5541 95.0698C63.3814 93.7941 65.7084 90.8675 73.0623 90.4173C81.3918 89.9073 86.1194 94.3944 88.6708 94.8447C91.2221 95.2949 91.5973 93.0437 87.7694 91.2427C83.3436 89.1604 76.7643 88.4662 73.2875 88.4662C69.7105 88.6163 62.1814 89.1416 58.8789 92.1432Z" stroke="black" stroke-width="0.450243"/>
<path d="M44.7492 50.0211C48.0478 49.7067 53.5339 46.3903 55.4913 42.7822C55.6017 42.5788 55.434 42.3452 55.2035 42.3668C50.4646 42.8111 48.5258 42.5876 44.4965 49.5965C44.3824 49.795 44.5212 50.0429 44.7492 50.0211Z" fill="#C3DDFD" stroke="black" stroke-width="0.450243"/>
</svg>
