<svg width="134" height="110" viewBox="0 0 134 110" fill="none" xmlns="http://www.w3.org/2000/svg">
<g clip-path="url(#clip0_12252_33905)">
<path d="M69.2463 41.5142V47.1506L65.6051 52.5383L63.7844 52.3725L61.55 52.1238L68.2532 42.0944L69.2463 41.5142Z" fill="#A6B6C9" stroke="black" stroke-width="0.496531" stroke-linecap="round"/>
<path d="M31.5927 82.5436C31.841 78.6479 32.3375 78.8137 31.841 74.918C28.5308 72.4313 32.0893 71.2709 32.0893 71.2709L29.1928 54.6934L25.7999 37.6185C28.9446 40.6854 33.7464 46.7865 38.5442 49.8859C39.5658 50.4385 41.9537 49.9688 43.344 44.9955C44.7343 40.0223 45.0267 37.3975 45.1646 36.541L55.2607 46.902C64.4466 37.287 69.2464 25.9314 69.2464 25.9314C72.0579 32.2538 77.6047 39.9394 83.1493 47.1506L93.7419 37.287C93.9626 41.204 95.4136 49.6296 98.128 50.6319C103.112 48.3609 107.41 42.3762 109.3 40.1052L103.176 71.188C106.238 71.8659 103.673 74.5035 103.673 74.5035C103.176 76.1613 103.011 78.0843 103.673 80.4714C104.5 83.4554 103.176 84.0356 100.528 84.7816C97.8797 85.5276 80.5108 87.2682 67.8395 87.2682C57.5779 87.2682 32.6686 86.7709 31.5927 82.5436Z" fill="url(#paint0_linear_12252_33905)"/>
<path d="M31.841 74.918C32.3375 78.8137 31.841 78.6479 31.5927 82.5436C32.6686 86.7709 57.5779 87.2682 67.8395 87.2682C80.5108 87.2682 97.8797 85.5276 100.528 84.7816C103.176 84.0356 104.5 83.4554 103.673 80.4714C103.011 78.0843 103.176 76.1613 103.673 74.5035M31.841 74.918C28.5308 72.4313 32.0893 71.2709 32.0893 71.2709M31.841 74.918C32.0893 71.6853 52.7781 70.6078 67.9223 70.7736C87.5404 70.9883 100.28 72.0998 103.673 74.5035M32.0893 71.2709C39.62 68.8672 59.3961 68.3698 68.7498 68.3698C78.7632 68.3698 95.3143 69.4474 103.176 71.188M32.0893 71.2709L29.1928 54.6934L25.7999 37.6185C28.9446 40.6854 33.7464 46.7865 38.5442 49.8859M103.176 71.188L109.3 40.1052C107.41 42.3762 103.112 48.3609 98.128 50.6319M103.176 71.188C106.238 71.8659 103.673 74.5035 103.673 74.5035M38.5442 49.8859C41.2334 51.6231 44.5388 52.3392 46.4887 51.9581C48.4884 51.5673 52.1676 50.3759 55.2607 46.902M38.5442 49.8859C39.5658 50.4385 41.9537 49.9688 43.344 44.9955C44.7343 40.0223 45.0267 37.3975 45.1646 36.541L55.2607 46.902M55.2607 46.902C64.4466 37.287 69.2464 25.9314 69.2464 25.9314C72.0579 32.2538 77.6047 39.9394 83.1493 47.1506M83.1493 47.1506C85.7974 49.5544 89.2308 51.6209 91.7558 51.9581C94.2385 52.2896 96.1993 51.5107 98.128 50.6319M83.1493 47.1506L93.7419 37.287C93.9626 41.204 95.4136 49.6296 98.128 50.6319" stroke="black" stroke-width="0.496531"/>
<path d="M37.1371 75.4976C37.6569 75.4976 38.1302 75.9871 38.1302 76.6587C38.1302 77.3303 37.6569 77.8198 37.1371 77.8198C36.6173 77.8198 36.144 77.3302 36.1439 76.6587C36.1439 75.9871 36.6173 75.4976 37.1371 75.4976Z" fill="#FEE489" stroke="black" stroke-width="0.496531"/>
<path d="M45.4126 74.3372C45.9324 74.3372 46.4058 74.8267 46.4058 75.4984C46.4057 76.1699 45.9324 76.6595 45.4126 76.6595C44.8929 76.6594 44.4195 76.1699 44.4194 75.4984C44.4194 74.8268 44.8928 74.3373 45.4126 74.3372Z" fill="#FEE489" stroke="black" stroke-width="0.496531"/>
<path d="M55.9224 73.674C56.6211 73.674 57.1636 74.2069 57.1636 74.8351C57.1635 75.4634 56.6211 75.9963 55.9224 75.9963C55.2238 75.9961 54.6812 75.4633 54.6812 74.8351C54.6812 74.207 55.2238 73.6742 55.9224 73.674Z" fill="#FEE489" stroke="black" stroke-width="0.496531"/>
<path d="M68.8322 73.674C69.5309 73.674 70.0734 74.2069 70.0734 74.8351C70.0733 75.4634 69.5309 75.9963 68.8322 75.9963C68.1336 75.9961 67.591 75.4633 67.5909 74.8351C67.5909 74.207 68.1336 73.6742 68.8322 73.674Z" fill="#FEE489" stroke="black" stroke-width="0.496531"/>
<path d="M80.0873 73.8398C80.6671 73.8399 81.1635 74.3451 81.1635 75.001C81.1635 75.6568 80.6671 76.162 80.0873 76.1621C79.5075 76.1621 79.0112 75.6568 79.0112 75.001C79.0112 74.3451 79.5075 73.8398 80.0873 73.8398Z" fill="#FEE489" stroke="black" stroke-width="0.496531"/>
<path d="M90.7626 74.3372C91.2824 74.3372 91.7557 74.8267 91.7557 75.4984C91.7557 76.1699 91.2824 76.6595 90.7626 76.6595C90.2428 76.6594 89.7695 76.1699 89.7694 75.4984C89.7694 74.8268 90.2428 74.3373 90.7626 74.3372Z" fill="#FEE489" stroke="black" stroke-width="0.496531"/>
<path d="M98.624 75.6635C99.0835 75.6635 99.5352 76.1359 99.5352 76.8246C99.5351 77.5134 99.0835 77.9858 98.624 77.9858C98.1647 77.9855 97.7139 77.5132 97.7139 76.8246C97.7139 76.1361 98.1646 75.6638 98.624 75.6635Z" fill="#FEE489" stroke="black" stroke-width="0.496531"/>
<path d="M67.9219 79.1447C77.1714 79.1447 85.542 79.5154 91.5967 80.1144C94.6256 80.414 97.0679 80.7702 98.7481 81.1632C99.59 81.3601 100.228 81.5638 100.649 81.7677C100.861 81.8699 101.004 81.9658 101.092 82.0509C101.179 82.1358 101.189 82.1888 101.19 82.212C101.19 82.2352 101.179 82.2882 101.092 82.3732C101.004 82.4583 100.861 82.5542 100.649 82.6564C100.228 82.8602 99.59 83.0639 98.7481 83.2609C97.0679 83.6538 94.6256 84.0101 91.5967 84.3097C85.542 84.9086 77.1714 85.2794 67.9219 85.2794C58.6724 85.2794 50.3019 84.9086 44.2471 84.3097C41.2184 84.0101 38.7769 83.6538 37.0967 83.2609C36.2546 83.0639 35.6172 82.8603 35.1954 82.6564C34.984 82.5542 34.8405 82.4583 34.753 82.3732C34.6658 82.2882 34.6544 82.2352 34.6544 82.212C34.6544 82.1888 34.6659 82.1358 34.753 82.0509C34.8405 81.9658 34.9841 81.8699 35.1954 81.7677C35.6172 81.5638 36.2546 81.3602 37.0967 81.1632C38.7769 80.7702 41.2184 80.414 44.2471 80.1144C50.3019 79.5154 58.6724 79.1447 67.9219 79.1447Z" stroke="black" stroke-width="0.496531"/>
<path d="M26.6277 34.2195C28.6839 34.2197 30.3513 35.8895 30.3514 37.95C30.3514 40.0104 28.6839 41.6802 26.6277 41.6804C24.5714 41.6804 22.9031 40.0105 22.9031 37.95C22.9032 35.8894 24.5714 34.2195 26.6277 34.2195Z" fill="#FFE469" stroke="black" stroke-width="0.496531"/>
<path d="M35.4343 55.5195C36.5125 55.3652 37.3615 55.7201 37.947 56.3583C38.5387 57.0035 38.8747 57.955 38.8747 59.0038C38.8746 60.0494 38.5313 60.9927 38.0309 61.6699C37.5259 62.3531 36.8877 62.7343 36.3093 62.7343C35.7094 62.7342 34.9212 62.3722 34.2751 61.7245C33.6348 61.0827 33.1649 60.1898 33.1647 59.1699C33.1647 58.1107 33.4331 57.1848 33.8522 56.5322C34.2727 55.8777 34.8253 55.5225 35.3991 55.5224H35.4167L35.4343 55.5195Z" fill="#FFBFEB" stroke="black" stroke-width="0.496531"/>
<path d="M49.9995 57.1327C51.0777 56.9784 51.9267 57.3333 52.5121 57.9716C53.1038 58.6167 53.4399 59.5682 53.4399 60.6171C53.4399 61.6912 53.2482 62.5892 52.9086 63.2089C52.5729 63.8215 52.1075 64.1434 51.5366 64.1434C50.286 64.1434 48.442 63.0671 47.8881 60.7694C47.3394 58.4925 48.7828 57.1356 49.9643 57.1356H49.9819L49.9995 57.1327Z" fill="#9BE7DD" stroke="black" stroke-width="0.496531"/>
<path d="M87.4174 57.2985C86.3391 57.1442 85.4901 57.499 84.9047 58.1373C84.313 58.7824 83.9769 59.734 83.9769 60.7828C83.977 61.857 84.1687 62.755 84.5082 63.3746C84.8439 63.9873 85.3093 64.3092 85.8802 64.3092C87.1308 64.3091 88.9748 63.2329 89.5287 60.9352C90.0774 58.6582 88.634 57.3014 87.4525 57.3014H87.4349L87.4174 57.2985Z" fill="#FFC7EA" stroke="black" stroke-width="0.496531"/>
<path d="M101.155 55.4749C100.077 55.3206 99.2268 55.6755 98.6414 56.3138C98.0499 56.9589 97.7136 57.9106 97.7136 58.9593C97.7137 60.0312 97.9167 60.876 98.3318 61.4769C98.7406 62.0683 99.3759 62.4526 100.31 62.5696C101.295 62.693 101.951 62.3727 102.403 61.7816C102.871 61.17 103.138 60.2456 103.26 59.1419C103.379 58.0719 103.151 57.1442 102.745 56.4915C102.337 55.8364 101.766 55.478 101.19 55.4778H101.172L101.155 55.4749Z" fill="#9EE6D7" stroke="black" stroke-width="0.496531"/>
<path d="M107.728 38.364C109.784 38.3642 111.451 40.0341 111.451 42.0945C111.451 44.1549 109.784 45.8247 107.728 45.825C105.672 45.825 104.003 44.1551 104.003 42.0945C104.003 40.0339 105.672 38.364 107.728 38.364Z" fill="#FFE469" stroke="black" stroke-width="0.496531"/>
<path d="M45.5784 33.0591C47.4061 33.0591 48.8889 34.5438 48.8889 36.3755C48.8888 38.207 47.406 39.6909 45.5784 39.6909C43.7507 39.6909 42.268 38.2071 42.2678 36.3755C42.2678 34.5438 43.7506 33.0591 45.5784 33.0591Z" fill="#FED0C0" stroke="black" stroke-width="0.496531"/>
<path d="M93.08 33.0591C94.9077 33.0591 96.3905 34.5438 96.3905 36.3755C96.3903 38.207 94.9076 39.6909 93.08 39.6909C91.2522 39.6909 89.7696 38.2071 89.7694 36.3755C89.7694 34.5438 91.2522 33.0591 93.08 33.0591Z" fill="#FED0C0" stroke="black" stroke-width="0.496531"/>
<path d="M69.1635 20.2945C71.4856 20.2945 73.3842 22.2527 73.3842 24.688C73.3842 27.1234 71.4856 29.0816 69.1635 29.0816C66.8414 29.0816 64.9428 27.1234 64.9428 24.688C64.9429 22.2527 66.8414 20.2945 69.1635 20.2945Z" fill="#FFE469" stroke="black" stroke-width="0.496531"/>
<path d="M65.5223 52.4556L61.6328 52.2069L68.2532 42.0946L69.1635 41.4315L69.3291 47.0679L65.5223 52.4556Z" fill="#ABC1C5"/>
<path d="M69.2463 64.3086L67.9222 62.8166L61.6328 52.2899L65.6878 52.6214L69.2463 58.7551V64.3086Z" fill="#ABC1C5"/>
<path d="M69.4118 64.1427V58.5892L69.1636 46.8192L69.4118 41.3486L70.4049 42.1775L77.1081 52.2898L70.2394 63.4796L69.4118 64.1427Z" fill="#A4E5CC"/>
<path d="M68.4359 41.9301C68.8645 41.305 69.787 41.3079 70.2119 41.9356L76.7571 51.6067C76.9929 51.9552 77.0042 52.4092 76.786 52.7691L70.2409 63.5694C69.8237 64.2575 68.8273 64.26 68.4062 63.5742L61.7748 52.7746C61.5523 52.4121 61.5633 51.952 61.8038 51.6012L68.4359 41.9301Z" stroke="black" stroke-width="0.496531"/>
<path d="M69.0991 47.2031C69.2002 47.0505 69.4261 47.0559 69.5193 47.2135L72.6939 52.5839C72.739 52.6602 72.7401 52.7553 72.6967 52.8327L69.5324 58.4664C69.439 58.6327 69.201 58.6358 69.1032 58.4719L65.6471 52.6799C65.5982 52.598 65.6008 52.4949 65.6533 52.4153L69.0991 47.2031Z" fill="#A7E4C9" stroke="black" stroke-width="0.496531"/>
<path d="M69.2463 47.0679V41.4315" stroke="black" stroke-width="0.496531"/>
<path d="M65.6878 52.5385L61.6328 52.2899" stroke="black" stroke-width="0.496531"/>
<path d="M69.329 58.5892V64.1426" stroke="black" stroke-width="0.496531"/>
<path d="M72.6392 52.7041L76.7769 52.3726" stroke="black" stroke-width="0.496531"/>
<path d="M27.9514 36.3752C27.9514 36.9245 26.5681 37.7843 25.8825 37.7843C25.1969 37.7843 24.6412 37.339 24.6412 36.7896C24.6412 36.2403 24.8067 35.4634 25.8825 35.1319C26.5681 35.1319 27.9514 35.2977 27.9514 36.3752Z" fill="#FFEB9E"/>
<path d="M109.714 40.5974C109.714 41.1811 108.054 42.0946 107.231 42.0946C106.408 42.0946 105.741 41.6215 105.741 41.0378C105.741 40.4541 105.94 39.6287 107.231 39.2764C108.054 39.2764 109.714 39.4526 109.714 40.5974Z" fill="#FFEB9E"/>
<path d="M46.7369 34.8003C46.7369 35.178 45.7673 36.1265 45.0818 36.1265C44.3962 36.1265 43.8405 35.8204 43.8405 35.4427C43.8405 35.065 43.8405 34.1994 44.9163 33.9714C45.6018 33.9714 46.7369 34.0595 46.7369 34.8003Z" fill="#FDEAE4"/>
<path d="M94.5694 34.6347C94.5694 35.0124 93.5999 35.9609 92.9143 35.9609C92.2287 35.9609 91.673 35.6548 91.673 35.2771C91.673 34.8994 91.673 34.0338 92.7488 33.8058C93.4344 33.8058 94.5694 33.8939 94.5694 34.6347Z" fill="#FDEAE4"/>
<path d="M70.8186 22.6937C70.8186 23.2774 69.1586 24.1909 68.336 24.1909C67.5133 24.1909 66.8464 23.7177 66.8464 23.134C66.8464 22.5504 67.045 21.725 68.336 21.3727C69.1586 21.3727 70.8186 21.5488 70.8186 22.6937Z" fill="#FFEB9E"/>
<path d="M15.5382 19.2175C15.5106 18.9688 12.7521 20.7647 12.3107 20.7095C13.3865 22.8645 15.5382 26.8431 17.4416 26.6774C18.146 26.616 18.1864 25.9314 20.007 24.8538C17.4416 23.4448 15.7865 21.4555 15.5382 19.2175Z" fill="#FEE266" stroke="black" stroke-width="0.496531" stroke-linecap="round"/>
<path d="M18.5607 67.5948C18.7383 68.8791 19.7473 69.8893 21.0314 70.0675L21.341 70.1105L21.0314 70.1534C19.7474 70.3317 18.7383 71.3419 18.5607 72.6261L18.5168 72.9406L18.4738 72.6261C18.2962 71.3419 17.2872 70.3317 16.0031 70.1534L15.6926 70.1105L16.0031 70.0675C17.2872 69.8893 18.2963 68.8791 18.4738 67.5948L18.5168 67.2794L18.5607 67.5948Z" fill="#FBC651" stroke="black" stroke-width="0.496531"/>
<path d="M117.987 27.688C118.165 28.9723 119.175 29.9816 120.459 30.1597L121.646 30.3238L120.459 30.4888C119.175 30.6669 118.165 31.6771 117.987 32.9615L117.823 34.148L117.659 32.9615C117.482 31.6772 116.473 30.667 115.188 30.4888L114.001 30.3238L115.188 30.1597C116.473 29.9816 117.482 28.9722 117.659 27.688L117.823 26.4996L117.987 27.688Z" fill="#FEE367" stroke="black" stroke-width="0.496531"/>
<path d="M35.7305 16.6479L44.5025 24.688" stroke="black" stroke-width="0.496531" stroke-linecap="round"/>
<path d="M51.6194 11.9235L55.5089 16.0679" stroke="black" stroke-width="0.496531" stroke-linecap="round"/>
<path d="M69.329 3.71765V11.7577" stroke="black" stroke-width="0.496531" stroke-linecap="round"/>
<path d="M83.3973 15.8191L86.8731 11.8405" stroke="black" stroke-width="0.496531" stroke-linecap="round"/>
<path d="M94.5694 24.4396L103.424 16.8968" stroke="black" stroke-width="0.496531" stroke-linecap="round"/>
<path d="M130.154 47.3994L127.01 45.8245C127.01 45.8245 128.91 44.4306 129.823 43.255C130.982 41.763 130.982 40.0224 130.982 40.0224C130.982 40.0224 131.842 40.6727 132.471 40.9342C133.116 41.2017 134.209 41.3486 134.209 41.3486C134.209 41.3486 133.63 45.493 130.154 47.3994Z" fill="#FFE469" stroke="black" stroke-width="0.496531" stroke-linecap="round"/>
<path d="M11.4594 89.6176L9.57977 88.6636C9.57977 88.6636 10.7159 87.8192 11.2615 87.107C11.954 86.2032 11.954 85.1488 11.954 85.1488C11.954 85.1488 12.4679 85.5427 12.8443 85.7011C13.2295 85.8632 13.883 85.9522 13.883 85.9522C13.883 85.9522 13.5368 88.4627 11.4594 89.6176Z" fill="#FFE469" stroke="black" stroke-width="0.496531" stroke-linecap="round"/>
<path d="M12.8168 44.6342C13.0824 46.8894 14.7756 48.706 16.9916 49.14C14.7756 49.574 13.0824 51.3906 12.8168 53.6459L12.807 53.7279L12.7972 53.6459C12.5316 51.3905 10.8385 49.5739 8.62244 49.14C10.8385 48.7061 12.5316 46.8895 12.7972 44.6342L12.807 44.5511L12.8168 44.6342Z" stroke="black" stroke-width="0.496531"/>
<path d="M118.155 81.7043C118.629 83.3455 119.882 84.6518 121.498 85.1955C119.882 85.739 118.629 87.0459 118.155 88.6867C117.68 87.0456 116.427 85.7388 114.81 85.1955C116.427 84.652 117.68 83.3458 118.155 81.7043Z" stroke="black" stroke-width="0.496531"/>
<path d="M121.796 67.9555C121.796 67.9555 118.927 68.5634 118.403 68.8673C119.065 65.8834 117.41 63.1481 116.5 62.1534C117.079 61.6561 118.909 61.0694 119.479 61.4074C121.713 62.7336 122.21 65.9662 121.796 67.9555Z" fill="#FFE469" stroke="black" stroke-width="0.496531" stroke-linecap="round"/>
</g>
<defs>
<linearGradient id="paint0_linear_12252_33905" x1="67.5085" y1="62.8875" x2="67.5499" y2="87.2682" gradientUnits="userSpaceOnUse">
<stop stop-color="#FFEA8C"/>
<stop offset="1" stop-color="#FFE164"/>
</linearGradient>
<clipPath id="clip0_12252_33905">
<rect width="134" height="110" fill="white"/>
</clipPath>
</defs>
</svg>
